G04 #@! TF.GenerationSoftware,KiCad,Pcbnew,(5.1.4)*
G04 #@! TF.CreationDate,2019-12-13T22:41:35+01:00*
G04 #@! TF.ProjectId,hardware,68617264-7761-4726-952e-6b696361645f,rev?*
G04 #@! TF.SameCoordinates,Original*
G04 #@! TF.FileFunction,Soldermask,Bot*
G04 #@! TF.FilePolarity,Negative*
%FSLAX46Y46*%
G04 Gerber Fmt 4.6, Leading zero omitted, Abs format (unit mm)*
G04 Created by KiCad (PCBNEW (5.1.4)) date 2019-12-13 22:41:35*
%MOMM*%
%LPD*%
G04 APERTURE LIST*
%ADD10C,0.100000*%
G04 APERTURE END LIST*
D10*
G36*
X43241000Y-153716000D02*
G01*
X38039000Y-153716000D01*
X38039000Y-148514000D01*
X43241000Y-148514000D01*
X43241000Y-153716000D01*
X43241000Y-153716000D01*
G37*
G36*
X26776578Y-151610197D02*
G01*
X26829350Y-151620694D01*
X26928770Y-151661875D01*
X27018246Y-151721661D01*
X27094339Y-151797754D01*
X27154125Y-151887230D01*
X27195306Y-151986650D01*
X27216300Y-152092194D01*
X27216300Y-152199806D01*
X27195306Y-152305350D01*
X27154125Y-152404770D01*
X27094339Y-152494246D01*
X27018246Y-152570339D01*
X26928770Y-152630125D01*
X26829350Y-152671306D01*
X26776578Y-152681803D01*
X26723807Y-152692300D01*
X26616193Y-152692300D01*
X26563422Y-152681803D01*
X26510650Y-152671306D01*
X26411230Y-152630125D01*
X26321754Y-152570339D01*
X26245661Y-152494246D01*
X26185875Y-152404770D01*
X26144694Y-152305350D01*
X26123700Y-152199806D01*
X26123700Y-152092194D01*
X26144694Y-151986650D01*
X26185875Y-151887230D01*
X26245661Y-151797754D01*
X26321754Y-151721661D01*
X26411230Y-151661875D01*
X26510650Y-151620694D01*
X26563422Y-151610197D01*
X26616193Y-151599700D01*
X26723807Y-151599700D01*
X26776578Y-151610197D01*
X26776578Y-151610197D01*
G37*
G36*
X28069714Y-151337389D02*
G01*
X28150645Y-151370912D01*
X28223480Y-151419579D01*
X28285421Y-151481520D01*
X28334088Y-151554355D01*
X28367611Y-151635286D01*
X28384700Y-151721201D01*
X28384700Y-151808799D01*
X28367611Y-151894714D01*
X28334088Y-151975645D01*
X28285421Y-152048480D01*
X28223480Y-152110421D01*
X28150645Y-152159088D01*
X28150644Y-152159089D01*
X28150643Y-152159089D01*
X28069714Y-152192611D01*
X27983801Y-152209700D01*
X27896199Y-152209700D01*
X27810286Y-152192611D01*
X27729357Y-152159089D01*
X27729356Y-152159089D01*
X27729355Y-152159088D01*
X27656520Y-152110421D01*
X27594579Y-152048480D01*
X27545912Y-151975645D01*
X27512389Y-151894714D01*
X27495300Y-151808799D01*
X27495300Y-151721201D01*
X27512389Y-151635286D01*
X27545912Y-151554355D01*
X27594579Y-151481520D01*
X27656520Y-151419579D01*
X27729355Y-151370912D01*
X27810286Y-151337389D01*
X27896199Y-151320300D01*
X27983801Y-151320300D01*
X28069714Y-151337389D01*
X28069714Y-151337389D01*
G37*
G36*
X29339714Y-151337389D02*
G01*
X29420645Y-151370912D01*
X29493480Y-151419579D01*
X29555421Y-151481520D01*
X29604088Y-151554355D01*
X29637611Y-151635286D01*
X29654700Y-151721201D01*
X29654700Y-151808799D01*
X29637611Y-151894714D01*
X29604088Y-151975645D01*
X29555421Y-152048480D01*
X29493480Y-152110421D01*
X29420645Y-152159088D01*
X29420644Y-152159089D01*
X29420643Y-152159089D01*
X29339714Y-152192611D01*
X29253801Y-152209700D01*
X29166199Y-152209700D01*
X29080286Y-152192611D01*
X28999357Y-152159089D01*
X28999356Y-152159089D01*
X28999355Y-152159088D01*
X28926520Y-152110421D01*
X28864579Y-152048480D01*
X28815912Y-151975645D01*
X28782389Y-151894714D01*
X28765300Y-151808799D01*
X28765300Y-151721201D01*
X28782389Y-151635286D01*
X28815912Y-151554355D01*
X28864579Y-151481520D01*
X28926520Y-151419579D01*
X28999355Y-151370912D01*
X29080286Y-151337389D01*
X29166199Y-151320300D01*
X29253801Y-151320300D01*
X29339714Y-151337389D01*
X29339714Y-151337389D01*
G37*
G36*
X30609714Y-151337389D02*
G01*
X30690645Y-151370912D01*
X30763480Y-151419579D01*
X30825421Y-151481520D01*
X30874088Y-151554355D01*
X30907611Y-151635286D01*
X30924700Y-151721201D01*
X30924700Y-151808799D01*
X30907611Y-151894714D01*
X30874088Y-151975645D01*
X30825421Y-152048480D01*
X30763480Y-152110421D01*
X30690645Y-152159088D01*
X30690644Y-152159089D01*
X30690643Y-152159089D01*
X30609714Y-152192611D01*
X30523801Y-152209700D01*
X30436199Y-152209700D01*
X30350286Y-152192611D01*
X30269357Y-152159089D01*
X30269356Y-152159089D01*
X30269355Y-152159088D01*
X30196520Y-152110421D01*
X30134579Y-152048480D01*
X30085912Y-151975645D01*
X30052389Y-151894714D01*
X30035300Y-151808799D01*
X30035300Y-151721201D01*
X30052389Y-151635286D01*
X30085912Y-151554355D01*
X30134579Y-151481520D01*
X30196520Y-151419579D01*
X30269355Y-151370912D01*
X30350286Y-151337389D01*
X30436199Y-151320300D01*
X30523801Y-151320300D01*
X30609714Y-151337389D01*
X30609714Y-151337389D01*
G37*
G36*
X31856578Y-150594197D02*
G01*
X31909350Y-150604694D01*
X32008770Y-150645875D01*
X32098246Y-150705661D01*
X32174339Y-150781754D01*
X32234125Y-150871230D01*
X32275306Y-150970650D01*
X32296300Y-151076194D01*
X32296300Y-151183806D01*
X32275306Y-151289350D01*
X32234125Y-151388770D01*
X32174339Y-151478246D01*
X32098246Y-151554339D01*
X32008770Y-151614125D01*
X31909350Y-151655306D01*
X31876325Y-151661875D01*
X31803807Y-151676300D01*
X31696193Y-151676300D01*
X31623675Y-151661875D01*
X31590650Y-151655306D01*
X31491230Y-151614125D01*
X31401754Y-151554339D01*
X31325661Y-151478246D01*
X31265875Y-151388770D01*
X31224694Y-151289350D01*
X31203700Y-151183806D01*
X31203700Y-151076194D01*
X31224694Y-150970650D01*
X31265875Y-150871230D01*
X31325661Y-150781754D01*
X31401754Y-150705661D01*
X31491230Y-150645875D01*
X31590650Y-150604694D01*
X31643422Y-150594197D01*
X31696193Y-150583700D01*
X31803807Y-150583700D01*
X31856578Y-150594197D01*
X31856578Y-150594197D01*
G37*
G36*
X29339714Y-150067389D02*
G01*
X29420645Y-150100912D01*
X29493480Y-150149579D01*
X29555421Y-150211520D01*
X29604088Y-150284355D01*
X29637611Y-150365286D01*
X29654700Y-150451201D01*
X29654700Y-150538799D01*
X29637611Y-150624714D01*
X29604088Y-150705645D01*
X29555421Y-150778480D01*
X29493480Y-150840421D01*
X29420645Y-150889088D01*
X29420644Y-150889089D01*
X29420643Y-150889089D01*
X29339714Y-150922611D01*
X29253801Y-150939700D01*
X29166199Y-150939700D01*
X29080286Y-150922611D01*
X28999357Y-150889089D01*
X28999356Y-150889089D01*
X28999355Y-150889088D01*
X28926520Y-150840421D01*
X28864579Y-150778480D01*
X28815912Y-150705645D01*
X28782389Y-150624714D01*
X28765300Y-150538799D01*
X28765300Y-150451201D01*
X28782389Y-150365286D01*
X28815912Y-150284355D01*
X28864579Y-150211520D01*
X28926520Y-150149579D01*
X28999355Y-150100912D01*
X29080286Y-150067389D01*
X29166199Y-150050300D01*
X29253801Y-150050300D01*
X29339714Y-150067389D01*
X29339714Y-150067389D01*
G37*
G36*
X28069714Y-150067389D02*
G01*
X28150645Y-150100912D01*
X28223480Y-150149579D01*
X28285421Y-150211520D01*
X28334088Y-150284355D01*
X28367611Y-150365286D01*
X28384700Y-150451201D01*
X28384700Y-150538799D01*
X28367611Y-150624714D01*
X28334088Y-150705645D01*
X28285421Y-150778480D01*
X28223480Y-150840421D01*
X28150645Y-150889088D01*
X28150644Y-150889089D01*
X28150643Y-150889089D01*
X28069714Y-150922611D01*
X27983801Y-150939700D01*
X27896199Y-150939700D01*
X27810286Y-150922611D01*
X27729357Y-150889089D01*
X27729356Y-150889089D01*
X27729355Y-150889088D01*
X27656520Y-150840421D01*
X27594579Y-150778480D01*
X27545912Y-150705645D01*
X27512389Y-150624714D01*
X27495300Y-150538799D01*
X27495300Y-150451201D01*
X27512389Y-150365286D01*
X27545912Y-150284355D01*
X27594579Y-150211520D01*
X27656520Y-150149579D01*
X27729355Y-150100912D01*
X27810286Y-150067389D01*
X27896199Y-150050300D01*
X27983801Y-150050300D01*
X28069714Y-150067389D01*
X28069714Y-150067389D01*
G37*
G36*
X30609714Y-150067389D02*
G01*
X30690645Y-150100912D01*
X30763480Y-150149579D01*
X30825421Y-150211520D01*
X30874088Y-150284355D01*
X30907611Y-150365286D01*
X30924700Y-150451201D01*
X30924700Y-150538799D01*
X30907611Y-150624714D01*
X30874088Y-150705645D01*
X30825421Y-150778480D01*
X30763480Y-150840421D01*
X30690645Y-150889088D01*
X30690644Y-150889089D01*
X30690643Y-150889089D01*
X30609714Y-150922611D01*
X30523801Y-150939700D01*
X30436199Y-150939700D01*
X30350286Y-150922611D01*
X30269357Y-150889089D01*
X30269356Y-150889089D01*
X30269355Y-150889088D01*
X30196520Y-150840421D01*
X30134579Y-150778480D01*
X30085912Y-150705645D01*
X30052389Y-150624714D01*
X30035300Y-150538799D01*
X30035300Y-150451201D01*
X30052389Y-150365286D01*
X30085912Y-150284355D01*
X30134579Y-150211520D01*
X30196520Y-150149579D01*
X30269355Y-150100912D01*
X30350286Y-150067389D01*
X30436199Y-150050300D01*
X30523801Y-150050300D01*
X30609714Y-150067389D01*
X30609714Y-150067389D01*
G37*
G36*
X26776578Y-149578197D02*
G01*
X26829350Y-149588694D01*
X26928770Y-149629875D01*
X27018246Y-149689661D01*
X27094339Y-149765754D01*
X27154125Y-149855230D01*
X27195306Y-149954650D01*
X27216300Y-150060194D01*
X27216300Y-150167806D01*
X27195306Y-150273350D01*
X27154125Y-150372770D01*
X27094339Y-150462246D01*
X27018246Y-150538339D01*
X26928770Y-150598125D01*
X26829350Y-150639306D01*
X26796325Y-150645875D01*
X26723807Y-150660300D01*
X26616193Y-150660300D01*
X26543675Y-150645875D01*
X26510650Y-150639306D01*
X26411230Y-150598125D01*
X26321754Y-150538339D01*
X26245661Y-150462246D01*
X26185875Y-150372770D01*
X26144694Y-150273350D01*
X26123700Y-150167806D01*
X26123700Y-150060194D01*
X26144694Y-149954650D01*
X26185875Y-149855230D01*
X26245661Y-149765754D01*
X26321754Y-149689661D01*
X26411230Y-149629875D01*
X26510650Y-149588694D01*
X26563422Y-149578197D01*
X26616193Y-149567700D01*
X26723807Y-149567700D01*
X26776578Y-149578197D01*
X26776578Y-149578197D01*
G37*
G36*
X59201000Y-143441000D02*
G01*
X58099000Y-143441000D01*
X58099000Y-142839000D01*
X59201000Y-142839000D01*
X59201000Y-143441000D01*
X59201000Y-143441000D01*
G37*
G36*
X57701000Y-141831000D02*
G01*
X56599000Y-141831000D01*
X56599000Y-129949000D01*
X57701000Y-129949000D01*
X57701000Y-141831000D01*
X57701000Y-141831000D01*
G37*
G36*
X43191000Y-138441000D02*
G01*
X38089000Y-138441000D01*
X38089000Y-133339000D01*
X43191000Y-133339000D01*
X43191000Y-138441000D01*
X43191000Y-138441000D01*
G37*
G36*
X59201000Y-128941000D02*
G01*
X58099000Y-128941000D01*
X58099000Y-128339000D01*
X59201000Y-128339000D01*
X59201000Y-128941000D01*
X59201000Y-128941000D01*
G37*
G36*
X43241000Y-123266000D02*
G01*
X38039000Y-123266000D01*
X38039000Y-118064000D01*
X43241000Y-118064000D01*
X43241000Y-123266000D01*
X43241000Y-123266000D01*
G37*
G36*
X32016000Y-120281000D02*
G01*
X30214000Y-120281000D01*
X30214000Y-118479000D01*
X32016000Y-118479000D01*
X32016000Y-120281000D01*
X32016000Y-120281000D01*
G37*
G36*
X33765442Y-118485518D02*
G01*
X33831627Y-118492037D01*
X34001466Y-118543557D01*
X34157991Y-118627222D01*
X34193729Y-118656552D01*
X34295186Y-118739814D01*
X34378448Y-118841271D01*
X34407778Y-118877009D01*
X34491443Y-119033534D01*
X34542963Y-119203373D01*
X34560359Y-119380000D01*
X34542963Y-119556627D01*
X34491443Y-119726466D01*
X34407778Y-119882991D01*
X34378448Y-119918729D01*
X34295186Y-120020186D01*
X34193729Y-120103448D01*
X34157991Y-120132778D01*
X34001466Y-120216443D01*
X33831627Y-120267963D01*
X33765442Y-120274482D01*
X33699260Y-120281000D01*
X33610740Y-120281000D01*
X33544558Y-120274482D01*
X33478373Y-120267963D01*
X33308534Y-120216443D01*
X33152009Y-120132778D01*
X33116271Y-120103448D01*
X33014814Y-120020186D01*
X32931552Y-119918729D01*
X32902222Y-119882991D01*
X32818557Y-119726466D01*
X32767037Y-119556627D01*
X32749641Y-119380000D01*
X32767037Y-119203373D01*
X32818557Y-119033534D01*
X32902222Y-118877009D01*
X32931552Y-118841271D01*
X33014814Y-118739814D01*
X33116271Y-118656552D01*
X33152009Y-118627222D01*
X33308534Y-118543557D01*
X33478373Y-118492037D01*
X33544558Y-118485518D01*
X33610740Y-118479000D01*
X33699260Y-118479000D01*
X33765442Y-118485518D01*
X33765442Y-118485518D01*
G37*
M02*
