G04 #@! TF.GenerationSoftware,KiCad,Pcbnew,(5.1.4)*
G04 #@! TF.CreationDate,2019-12-13T22:41:35+01:00*
G04 #@! TF.ProjectId,hardware,68617264-7761-4726-952e-6b696361645f,rev?*
G04 #@! TF.SameCoordinates,Original*
G04 #@! TF.FileFunction,Copper,L4,Bot*
G04 #@! TF.FilePolarity,Positive*
%FSLAX46Y46*%
G04 Gerber Fmt 4.6, Leading zero omitted, Abs format (unit mm)*
G04 Created by KiCad (PCBNEW (5.1.4)) date 2019-12-13 22:41:35*
%MOMM*%
%LPD*%
G04 APERTURE LIST*
%ADD10C,0.787400*%
%ADD11R,5.100000X5.100000*%
%ADD12R,5.000000X5.000000*%
%ADD13R,1.000000X0.280000*%
%ADD14R,1.000000X0.500000*%
%ADD15R,1.700000X1.700000*%
%ADD16O,1.700000X1.700000*%
%ADD17C,2.200000*%
%ADD18C,0.450000*%
%ADD19C,0.762000*%
%ADD20C,0.500000*%
%ADD21C,0.254000*%
%ADD22C,0.114300*%
G04 APERTURE END LIST*
D10*
X30480000Y-151765000D03*
X30480000Y-150495000D03*
X29210000Y-151765000D03*
X29210000Y-150495000D03*
X27940000Y-151765000D03*
X27940000Y-150495000D03*
D11*
X40640000Y-151115000D03*
X40640000Y-120665000D03*
D12*
X40640000Y-135890000D03*
D13*
X57150000Y-130140000D03*
X57150000Y-130640000D03*
X57150000Y-131140000D03*
X57150000Y-131640000D03*
X57150000Y-132140000D03*
X57150000Y-132640000D03*
X57150000Y-133140000D03*
X57150000Y-133640000D03*
X57150000Y-134140000D03*
X57150000Y-134640000D03*
X57150000Y-135140000D03*
X57150000Y-135640000D03*
X57150000Y-136140000D03*
X57150000Y-136640000D03*
X57150000Y-137140000D03*
X57150000Y-137640000D03*
X57150000Y-138140000D03*
X57150000Y-138640000D03*
X57150000Y-139140000D03*
X57150000Y-139640000D03*
X57150000Y-140140000D03*
X57150000Y-140640000D03*
X57150000Y-141140000D03*
X57150000Y-141640000D03*
D14*
X58650000Y-128640000D03*
X58650000Y-143140000D03*
D15*
X31115000Y-119380000D03*
D16*
X33655000Y-119380000D03*
D17*
X64770000Y-120142000D03*
D18*
X58293000Y-137414000D03*
D19*
X45593000Y-143764000D03*
X50800000Y-143764000D03*
X54610000Y-143764000D03*
X50673000Y-139954000D03*
D20*
X45720000Y-140208000D03*
X54737000Y-140970000D03*
X54864000Y-139446000D03*
D19*
X62357000Y-123190000D03*
X57912000Y-123190000D03*
X57912000Y-126492000D03*
X62357000Y-126619000D03*
X53467000Y-123317000D03*
X50292000Y-128651000D03*
X55245000Y-128905000D03*
X52832000Y-128778000D03*
X45212000Y-128651000D03*
X41656000Y-128651000D03*
X40259000Y-126365000D03*
X36576000Y-124968000D03*
X27813000Y-121666000D03*
X28310000Y-119253000D03*
X29210000Y-125476000D03*
X29083000Y-131064000D03*
X33147000Y-133350000D03*
X33020000Y-137033000D03*
D20*
X42545000Y-140462000D03*
D19*
X41529000Y-145161000D03*
X32639000Y-143510000D03*
X36449000Y-145669000D03*
X27432000Y-143256000D03*
D20*
X27432000Y-148463000D03*
D19*
X33401000Y-149987000D03*
X47625000Y-135636000D03*
X45593000Y-136779000D03*
X45085000Y-133604000D03*
X34925000Y-126111000D03*
X27813000Y-124079000D03*
X62357000Y-119761000D03*
X57912000Y-119761000D03*
X53467000Y-119761000D03*
X49022000Y-119761000D03*
X44577000Y-119761000D03*
X41529000Y-119761000D03*
X56515000Y-149098000D03*
X56515000Y-153035000D03*
X45466000Y-149098000D03*
X45466000Y-153035000D03*
X49149000Y-149098000D03*
X49149000Y-153035000D03*
X52832000Y-153035000D03*
X52832000Y-149098000D03*
X41529000Y-149098000D03*
X41656000Y-153035000D03*
X39370000Y-152527000D03*
D20*
X58420000Y-132715000D03*
X59563000Y-132715000D03*
X63754000Y-128778000D03*
X63754000Y-130937000D03*
X63754000Y-132842000D03*
X63754000Y-134874000D03*
X63754000Y-136906000D03*
X63754000Y-138811000D03*
X63754000Y-140843000D03*
X63754000Y-142875000D03*
X63754000Y-144780000D03*
X58420000Y-133985000D03*
X27559000Y-152908000D03*
D19*
X36449000Y-150368000D03*
X36576000Y-133604000D03*
X46101000Y-124460000D03*
X41529000Y-138684000D03*
X48260000Y-128524000D03*
X31369000Y-152527000D03*
X31149168Y-146211168D03*
X31115000Y-142113000D03*
X43942000Y-135636000D03*
X36068000Y-139954000D03*
X60960000Y-146431000D03*
X55499000Y-138557000D03*
X36721083Y-149312454D03*
D20*
X33401000Y-135255000D03*
D19*
X27559000Y-126238000D03*
X28702000Y-122428000D03*
X35179000Y-123190000D03*
X34925000Y-127889000D03*
X36068000Y-118110000D03*
X35814000Y-120142000D03*
X41402000Y-123773802D03*
D20*
X54864000Y-140208000D03*
X59309000Y-136005642D03*
X58801000Y-135128000D03*
X59309000Y-140843000D03*
X55880000Y-142240000D03*
X59309000Y-130302000D03*
X59817000Y-137922000D03*
X59309000Y-139573000D03*
X59563000Y-131064000D03*
X59436000Y-141732000D03*
X54864000Y-130385300D03*
X55118000Y-131826000D03*
X47244000Y-134620000D03*
X54991000Y-135128000D03*
X55753000Y-135128000D03*
X54483000Y-135890000D03*
X54061540Y-137026385D03*
X38481000Y-143256000D03*
X31115000Y-149098000D03*
X32639000Y-153289000D03*
X29972000Y-148717000D03*
X26797000Y-151130000D03*
X32512000Y-138684000D03*
X30734000Y-138684000D03*
X41112875Y-139377542D03*
X35560000Y-144145000D03*
D21*
X27940000Y-151765000D02*
X27940000Y-152527000D01*
X27940000Y-152527000D02*
X27559000Y-152908000D01*
X58075000Y-133640000D02*
X58420000Y-133985000D01*
X57150000Y-133640000D02*
X58075000Y-133640000D01*
X57150000Y-138140000D02*
X57821000Y-138140000D01*
X58068001Y-137638999D02*
X58293000Y-137414000D01*
X58068001Y-137892999D02*
X58068001Y-137638999D01*
X57821000Y-138140000D02*
X58068001Y-137892999D01*
X37886000Y-135890000D02*
X36576000Y-134580000D01*
X40640000Y-135890000D02*
X37886000Y-135890000D01*
X36576000Y-134580000D02*
X36576000Y-133604000D01*
X41529000Y-136779000D02*
X40640000Y-135890000D01*
X41529000Y-138684000D02*
X41529000Y-136779000D01*
X30480000Y-151765000D02*
X30607000Y-151765000D01*
X30607000Y-151765000D02*
X31369000Y-152527000D01*
X57150000Y-137140000D02*
X57150000Y-137695199D01*
X57150000Y-137695199D02*
X56360801Y-137695199D01*
X56360801Y-137695199D02*
X55499000Y-138557000D01*
D22*
X57082000Y-140208000D02*
X57150000Y-140140000D01*
X54864000Y-140208000D02*
X57082000Y-140208000D01*
X57764300Y-139140000D02*
X57150000Y-139140000D01*
X59309000Y-137595300D02*
X57764300Y-139140000D01*
X59309000Y-136005642D02*
X59309000Y-137595300D01*
X58801000Y-137671890D02*
X57832890Y-138640000D01*
X58801000Y-135128000D02*
X58801000Y-137671890D01*
X57764300Y-138640000D02*
X57150000Y-138640000D01*
X57832890Y-138640000D02*
X57764300Y-138640000D01*
X59012000Y-141140000D02*
X57150000Y-141140000D01*
X59309000Y-140843000D02*
X59012000Y-141140000D01*
X56535700Y-141140000D02*
X55880000Y-141795700D01*
X57150000Y-141140000D02*
X56535700Y-141140000D01*
X55880000Y-141795700D02*
X55880000Y-142240000D01*
X57971000Y-131640000D02*
X57150000Y-131640000D01*
X59309000Y-130302000D02*
X57971000Y-131640000D01*
X58099000Y-139640000D02*
X57150000Y-139640000D01*
X59817000Y-137922000D02*
X58099000Y-139640000D01*
X58242000Y-140640000D02*
X57150000Y-140640000D01*
X59309000Y-139573000D02*
X58242000Y-140640000D01*
X58487000Y-132140000D02*
X57150000Y-132140000D01*
X59563000Y-131064000D02*
X58487000Y-132140000D01*
X57242000Y-141732000D02*
X57150000Y-141640000D01*
X59436000Y-141732000D02*
X57242000Y-141732000D01*
X55118700Y-130640000D02*
X57150000Y-130640000D01*
X54864000Y-130385300D02*
X55118700Y-130640000D01*
X57150000Y-131140000D02*
X55804000Y-131140000D01*
X55804000Y-131140000D02*
X55118000Y-131826000D01*
X47724000Y-134140000D02*
X47244000Y-134620000D01*
X57150000Y-134140000D02*
X47724000Y-134140000D01*
X55479000Y-134640000D02*
X57150000Y-134640000D01*
X54991000Y-135128000D02*
X55479000Y-134640000D01*
X57138000Y-135128000D02*
X57150000Y-135140000D01*
X55753000Y-135128000D02*
X57138000Y-135128000D01*
X54733000Y-135640000D02*
X57150000Y-135640000D01*
X54483000Y-135890000D02*
X54733000Y-135640000D01*
X57150000Y-136140000D02*
X54947925Y-136140000D01*
X54947925Y-136140000D02*
X54311539Y-136776386D01*
X54311539Y-136776386D02*
X54061540Y-137026385D01*
X56535700Y-136640000D02*
X57150000Y-136640000D01*
X55147208Y-136640000D02*
X56535700Y-136640000D01*
X54304297Y-137482911D02*
X55147208Y-136640000D01*
X40390001Y-143505999D02*
X46413089Y-137482911D01*
X38481000Y-143256000D02*
X38730999Y-143505999D01*
X38730999Y-143505999D02*
X40390001Y-143505999D01*
X46413089Y-137482911D02*
X54304297Y-137482911D01*
X30480000Y-149733000D02*
X31115000Y-149098000D01*
X30480000Y-150495000D02*
X30480000Y-149733000D01*
X30177225Y-153289000D02*
X32639000Y-153289000D01*
X29210000Y-151765000D02*
X29210000Y-152321775D01*
X29210000Y-152321775D02*
X30177225Y-153289000D01*
X29210000Y-149479000D02*
X29210000Y-150495000D01*
X29972000Y-148717000D02*
X29210000Y-149479000D01*
X27432000Y-150495000D02*
X27940000Y-150495000D01*
X26797000Y-151130000D02*
X27432000Y-150495000D01*
X32512000Y-138684000D02*
X30734000Y-138684000D01*
X40862876Y-139627541D02*
X40077459Y-139627541D01*
X41112875Y-139377542D02*
X40862876Y-139627541D01*
X40077459Y-139627541D02*
X35560000Y-144145000D01*
D21*
G36*
X64643000Y-118508854D02*
G01*
X64643000Y-118661000D01*
X64624134Y-118661000D01*
X64338008Y-118717914D01*
X64068483Y-118829555D01*
X63825917Y-118991632D01*
X63619632Y-119197917D01*
X63457555Y-119440483D01*
X63345914Y-119710008D01*
X63289000Y-119996134D01*
X63289000Y-120287866D01*
X63345914Y-120573992D01*
X63457555Y-120843517D01*
X63619632Y-121086083D01*
X63825917Y-121292368D01*
X64068483Y-121454445D01*
X64338008Y-121566086D01*
X64624134Y-121623000D01*
X64643000Y-121623000D01*
X64643000Y-121788256D01*
X64613879Y-121797090D01*
X64543347Y-121834790D01*
X64481526Y-121885526D01*
X64430790Y-121947348D01*
X64393090Y-122017880D01*
X64369875Y-122094411D01*
X64364000Y-122154060D01*
X64364001Y-152380136D01*
X64345636Y-152567441D01*
X64297008Y-152728503D01*
X64218023Y-152877051D01*
X64111689Y-153007430D01*
X63982054Y-153114674D01*
X63834058Y-153194695D01*
X63673339Y-153244446D01*
X63488698Y-153263852D01*
X44436487Y-154534000D01*
X36855280Y-154534000D01*
X30400477Y-153727150D01*
X32184781Y-153727150D01*
X32236761Y-153779130D01*
X32340109Y-153848185D01*
X32454944Y-153895751D01*
X32576852Y-153920000D01*
X32701148Y-153920000D01*
X32823056Y-153895751D01*
X32937891Y-153848185D01*
X33041239Y-153779130D01*
X33129130Y-153691239D01*
X33146662Y-153665000D01*
X37451928Y-153665000D01*
X37464188Y-153789482D01*
X37500498Y-153909180D01*
X37559463Y-154019494D01*
X37638815Y-154116185D01*
X37735506Y-154195537D01*
X37845820Y-154254502D01*
X37965518Y-154290812D01*
X38090000Y-154303072D01*
X40354250Y-154300000D01*
X40513000Y-154141250D01*
X40513000Y-151242000D01*
X40767000Y-151242000D01*
X40767000Y-154141250D01*
X40925750Y-154300000D01*
X43190000Y-154303072D01*
X43314482Y-154290812D01*
X43434180Y-154254502D01*
X43544494Y-154195537D01*
X43641185Y-154116185D01*
X43720537Y-154019494D01*
X43779502Y-153909180D01*
X43815812Y-153789482D01*
X43828072Y-153665000D01*
X43825978Y-152121386D01*
X62328759Y-152121386D01*
X62328759Y-152318614D01*
X62367236Y-152512051D01*
X62442711Y-152694266D01*
X62552285Y-152858254D01*
X62691746Y-152997715D01*
X62855734Y-153107289D01*
X63037949Y-153182764D01*
X63231386Y-153221241D01*
X63428614Y-153221241D01*
X63622051Y-153182764D01*
X63804266Y-153107289D01*
X63968254Y-152997715D01*
X64107715Y-152858254D01*
X64217289Y-152694266D01*
X64292764Y-152512051D01*
X64331241Y-152318614D01*
X64331241Y-152121386D01*
X64292764Y-151927949D01*
X64217289Y-151745734D01*
X64107715Y-151581746D01*
X63968254Y-151442285D01*
X63804266Y-151332711D01*
X63622051Y-151257236D01*
X63428614Y-151218759D01*
X63231386Y-151218759D01*
X63037949Y-151257236D01*
X62855734Y-151332711D01*
X62691746Y-151442285D01*
X62552285Y-151581746D01*
X62442711Y-151745734D01*
X62367236Y-151927949D01*
X62328759Y-152121386D01*
X43825978Y-152121386D01*
X43825000Y-151400750D01*
X43666250Y-151242000D01*
X40767000Y-151242000D01*
X40513000Y-151242000D01*
X37613750Y-151242000D01*
X37455000Y-151400750D01*
X37451928Y-153665000D01*
X33146662Y-153665000D01*
X33198185Y-153587891D01*
X33245751Y-153473056D01*
X33270000Y-153351148D01*
X33270000Y-153226852D01*
X33245751Y-153104944D01*
X33198185Y-152990109D01*
X33129130Y-152886761D01*
X33041239Y-152798870D01*
X32937891Y-152729815D01*
X32823056Y-152682249D01*
X32701148Y-152658000D01*
X32576852Y-152658000D01*
X32454944Y-152682249D01*
X32340109Y-152729815D01*
X32236761Y-152798870D01*
X32184781Y-152850850D01*
X32059640Y-152850850D01*
X32101717Y-152749267D01*
X32131000Y-152602050D01*
X32131000Y-152451950D01*
X32101717Y-152304733D01*
X32044276Y-152166058D01*
X31960884Y-152041253D01*
X31911061Y-151991430D01*
X32005607Y-151972624D01*
X32165084Y-151906567D01*
X32308609Y-151810667D01*
X32430667Y-151688609D01*
X32526567Y-151545084D01*
X32592624Y-151385607D01*
X32626300Y-151216308D01*
X32626300Y-151043692D01*
X32592624Y-150874393D01*
X32526567Y-150714916D01*
X32430667Y-150571391D01*
X32308609Y-150449333D01*
X32165084Y-150353433D01*
X32005607Y-150287376D01*
X31836308Y-150253700D01*
X31663692Y-150253700D01*
X31494393Y-150287376D01*
X31464149Y-150299903D01*
X31444744Y-150202348D01*
X31369113Y-150019759D01*
X31259314Y-149855433D01*
X31132881Y-149729000D01*
X31177148Y-149729000D01*
X31299056Y-149704751D01*
X31413891Y-149657185D01*
X31517239Y-149588130D01*
X31605130Y-149500239D01*
X31674185Y-149396891D01*
X31721751Y-149282056D01*
X31730632Y-149237404D01*
X35959083Y-149237404D01*
X35959083Y-149387504D01*
X35988366Y-149534721D01*
X36045807Y-149673396D01*
X36129199Y-149798201D01*
X36235336Y-149904338D01*
X36360141Y-149987730D01*
X36498816Y-150045171D01*
X36646033Y-150074454D01*
X36796133Y-150074454D01*
X36943350Y-150045171D01*
X37082025Y-149987730D01*
X37206830Y-149904338D01*
X37312967Y-149798201D01*
X37396359Y-149673396D01*
X37453245Y-149536060D01*
X37455000Y-150829250D01*
X37613750Y-150988000D01*
X40513000Y-150988000D01*
X40513000Y-148088750D01*
X40767000Y-148088750D01*
X40767000Y-150988000D01*
X43666250Y-150988000D01*
X43825000Y-150829250D01*
X43828072Y-148565000D01*
X43815812Y-148440518D01*
X43779502Y-148320820D01*
X43720537Y-148210506D01*
X43641185Y-148113815D01*
X43544494Y-148034463D01*
X43434180Y-147975498D01*
X43314482Y-147939188D01*
X43190000Y-147926928D01*
X40925750Y-147930000D01*
X40767000Y-148088750D01*
X40513000Y-148088750D01*
X40354250Y-147930000D01*
X38090000Y-147926928D01*
X37965518Y-147939188D01*
X37845820Y-147975498D01*
X37735506Y-148034463D01*
X37638815Y-148113815D01*
X37559463Y-148210506D01*
X37500498Y-148320820D01*
X37464188Y-148440518D01*
X37451928Y-148565000D01*
X37452637Y-149087379D01*
X37396359Y-148951512D01*
X37312967Y-148826707D01*
X37206830Y-148720570D01*
X37082025Y-148637178D01*
X36943350Y-148579737D01*
X36796133Y-148550454D01*
X36646033Y-148550454D01*
X36498816Y-148579737D01*
X36360141Y-148637178D01*
X36235336Y-148720570D01*
X36129199Y-148826707D01*
X36045807Y-148951512D01*
X35988366Y-149090187D01*
X35959083Y-149237404D01*
X31730632Y-149237404D01*
X31746000Y-149160148D01*
X31746000Y-149035852D01*
X31721751Y-148913944D01*
X31674185Y-148799109D01*
X31605130Y-148695761D01*
X31517239Y-148607870D01*
X31413891Y-148538815D01*
X31299056Y-148491249D01*
X31177148Y-148467000D01*
X31052852Y-148467000D01*
X30930944Y-148491249D01*
X30816109Y-148538815D01*
X30712761Y-148607870D01*
X30624870Y-148695761D01*
X30603000Y-148728492D01*
X30603000Y-148654852D01*
X30578751Y-148532944D01*
X30531185Y-148418109D01*
X30462130Y-148314761D01*
X30374239Y-148226870D01*
X30270891Y-148157815D01*
X30156056Y-148110249D01*
X30034148Y-148086000D01*
X29909852Y-148086000D01*
X29787944Y-148110249D01*
X29673109Y-148157815D01*
X29569761Y-148226870D01*
X29481870Y-148314761D01*
X29412815Y-148418109D01*
X29365249Y-148532944D01*
X29341000Y-148654852D01*
X29341000Y-148728363D01*
X28915406Y-149153957D01*
X28898682Y-149167682D01*
X28843929Y-149234400D01*
X28821595Y-149276185D01*
X28803244Y-149310517D01*
X28778190Y-149393108D01*
X28769730Y-149479000D01*
X28771850Y-149500524D01*
X28771850Y-149590523D01*
X28734759Y-149605887D01*
X28570433Y-149715686D01*
X28537467Y-149748652D01*
X28391178Y-149650905D01*
X28217834Y-149579104D01*
X28033813Y-149542500D01*
X27846187Y-149542500D01*
X27662166Y-149579104D01*
X27488822Y-149650905D01*
X27437431Y-149685243D01*
X27350667Y-149555391D01*
X27228609Y-149433333D01*
X27085084Y-149337433D01*
X26925607Y-149271376D01*
X26756308Y-149237700D01*
X26583692Y-149237700D01*
X26414393Y-149271376D01*
X26254916Y-149337433D01*
X26111391Y-149433333D01*
X25989333Y-149555391D01*
X25893433Y-149698916D01*
X25827376Y-149858393D01*
X25806000Y-149965856D01*
X25806000Y-146136118D01*
X30387168Y-146136118D01*
X30387168Y-146286218D01*
X30416451Y-146433435D01*
X30473892Y-146572110D01*
X30557284Y-146696915D01*
X30663421Y-146803052D01*
X30788226Y-146886444D01*
X30926901Y-146943885D01*
X31074118Y-146973168D01*
X31224218Y-146973168D01*
X31371435Y-146943885D01*
X31510110Y-146886444D01*
X31634915Y-146803052D01*
X31741052Y-146696915D01*
X31824444Y-146572110D01*
X31881885Y-146433435D01*
X31897297Y-146355950D01*
X60198000Y-146355950D01*
X60198000Y-146506050D01*
X60227283Y-146653267D01*
X60284724Y-146791942D01*
X60368116Y-146916747D01*
X60474253Y-147022884D01*
X60599058Y-147106276D01*
X60737733Y-147163717D01*
X60884950Y-147193000D01*
X61035050Y-147193000D01*
X61182267Y-147163717D01*
X61320942Y-147106276D01*
X61445747Y-147022884D01*
X61551884Y-146916747D01*
X61635276Y-146791942D01*
X61692717Y-146653267D01*
X61722000Y-146506050D01*
X61722000Y-146355950D01*
X61692717Y-146208733D01*
X61635276Y-146070058D01*
X61551884Y-145945253D01*
X61445747Y-145839116D01*
X61320942Y-145755724D01*
X61182267Y-145698283D01*
X61035050Y-145669000D01*
X60884950Y-145669000D01*
X60737733Y-145698283D01*
X60599058Y-145755724D01*
X60474253Y-145839116D01*
X60368116Y-145945253D01*
X60284724Y-146070058D01*
X60227283Y-146208733D01*
X60198000Y-146355950D01*
X31897297Y-146355950D01*
X31911168Y-146286218D01*
X31911168Y-146136118D01*
X31881885Y-145988901D01*
X31824444Y-145850226D01*
X31741052Y-145725421D01*
X31634915Y-145619284D01*
X31510110Y-145535892D01*
X31371435Y-145478451D01*
X31224218Y-145449168D01*
X31074118Y-145449168D01*
X30926901Y-145478451D01*
X30788226Y-145535892D01*
X30663421Y-145619284D01*
X30557284Y-145725421D01*
X30473892Y-145850226D01*
X30416451Y-145988901D01*
X30387168Y-146136118D01*
X25806000Y-146136118D01*
X25806000Y-144082852D01*
X34929000Y-144082852D01*
X34929000Y-144207148D01*
X34953249Y-144329056D01*
X35000815Y-144443891D01*
X35069870Y-144547239D01*
X35157761Y-144635130D01*
X35261109Y-144704185D01*
X35375944Y-144751751D01*
X35497852Y-144776000D01*
X35622148Y-144776000D01*
X35744056Y-144751751D01*
X35858891Y-144704185D01*
X35962239Y-144635130D01*
X36050130Y-144547239D01*
X36119185Y-144443891D01*
X36166751Y-144329056D01*
X36191000Y-144207148D01*
X36191000Y-144133637D01*
X37130785Y-143193852D01*
X37850000Y-143193852D01*
X37850000Y-143318148D01*
X37874249Y-143440056D01*
X37921815Y-143554891D01*
X37990870Y-143658239D01*
X38078761Y-143746130D01*
X38182109Y-143815185D01*
X38296944Y-143862751D01*
X38418852Y-143887000D01*
X38514330Y-143887000D01*
X38562515Y-143912755D01*
X38645106Y-143937809D01*
X38730999Y-143946269D01*
X38752523Y-143944149D01*
X40368477Y-143944149D01*
X40390001Y-143946269D01*
X40475893Y-143937809D01*
X40558485Y-143912755D01*
X40634602Y-143872070D01*
X40701319Y-143817317D01*
X40715044Y-143800593D01*
X41625637Y-142890000D01*
X57767157Y-142890000D01*
X57767157Y-143390000D01*
X57774513Y-143464689D01*
X57796299Y-143536508D01*
X57831678Y-143602696D01*
X57879289Y-143660711D01*
X57937304Y-143708322D01*
X58003492Y-143743701D01*
X58075311Y-143765487D01*
X58150000Y-143772843D01*
X59150000Y-143772843D01*
X59224689Y-143765487D01*
X59296508Y-143743701D01*
X59362696Y-143708322D01*
X59420711Y-143660711D01*
X59468322Y-143602696D01*
X59503701Y-143536508D01*
X59525487Y-143464689D01*
X59532843Y-143390000D01*
X59532843Y-142890000D01*
X59525487Y-142815311D01*
X59503701Y-142743492D01*
X59468322Y-142677304D01*
X59420711Y-142619289D01*
X59362696Y-142571678D01*
X59296508Y-142536299D01*
X59224689Y-142514513D01*
X59150000Y-142507157D01*
X58150000Y-142507157D01*
X58075311Y-142514513D01*
X58003492Y-142536299D01*
X57937304Y-142571678D01*
X57879289Y-142619289D01*
X57831678Y-142677304D01*
X57796299Y-142743492D01*
X57774513Y-142815311D01*
X57767157Y-142890000D01*
X41625637Y-142890000D01*
X46594576Y-137921061D01*
X54282773Y-137921061D01*
X54304297Y-137923181D01*
X54390189Y-137914721D01*
X54416901Y-137906618D01*
X54472781Y-137889667D01*
X54548898Y-137848982D01*
X54615615Y-137794229D01*
X54629340Y-137777505D01*
X55328696Y-137078150D01*
X56267157Y-137078150D01*
X56267157Y-137193965D01*
X56261216Y-137194550D01*
X56165458Y-137223598D01*
X56077206Y-137270770D01*
X55999853Y-137334251D01*
X55983946Y-137353634D01*
X55542580Y-137795000D01*
X55423950Y-137795000D01*
X55276733Y-137824283D01*
X55138058Y-137881724D01*
X55013253Y-137965116D01*
X54907116Y-138071253D01*
X54823724Y-138196058D01*
X54766283Y-138334733D01*
X54737000Y-138481950D01*
X54737000Y-138632050D01*
X54766283Y-138779267D01*
X54823724Y-138917942D01*
X54907116Y-139042747D01*
X55013253Y-139148884D01*
X55138058Y-139232276D01*
X55276733Y-139289717D01*
X55423950Y-139319000D01*
X55574050Y-139319000D01*
X55721267Y-139289717D01*
X55859942Y-139232276D01*
X55984747Y-139148884D01*
X56090884Y-139042747D01*
X56174276Y-138917942D01*
X56231717Y-138779267D01*
X56235230Y-138761604D01*
X56267881Y-138787356D01*
X56274513Y-138854689D01*
X56285224Y-138890000D01*
X56274513Y-138925311D01*
X56267157Y-139000000D01*
X56267157Y-139280000D01*
X56274513Y-139354689D01*
X56285224Y-139390000D01*
X56274513Y-139425311D01*
X56267157Y-139500000D01*
X56267157Y-139769850D01*
X55318219Y-139769850D01*
X55266239Y-139717870D01*
X55162891Y-139648815D01*
X55048056Y-139601249D01*
X54926148Y-139577000D01*
X54801852Y-139577000D01*
X54679944Y-139601249D01*
X54565109Y-139648815D01*
X54461761Y-139717870D01*
X54373870Y-139805761D01*
X54304815Y-139909109D01*
X54257249Y-140023944D01*
X54233000Y-140145852D01*
X54233000Y-140270148D01*
X54257249Y-140392056D01*
X54304815Y-140506891D01*
X54373870Y-140610239D01*
X54461761Y-140698130D01*
X54565109Y-140767185D01*
X54679944Y-140814751D01*
X54801852Y-140839000D01*
X54926148Y-140839000D01*
X55048056Y-140814751D01*
X55162891Y-140767185D01*
X55266239Y-140698130D01*
X55318219Y-140646150D01*
X56267157Y-140646150D01*
X56267157Y-140780000D01*
X56268394Y-140792562D01*
X56224382Y-140828682D01*
X56210657Y-140845406D01*
X55585406Y-141470657D01*
X55568682Y-141484382D01*
X55513929Y-141551100D01*
X55488689Y-141598322D01*
X55473244Y-141627217D01*
X55448190Y-141709808D01*
X55440582Y-141787049D01*
X55389870Y-141837761D01*
X55320815Y-141941109D01*
X55273249Y-142055944D01*
X55249000Y-142177852D01*
X55249000Y-142302148D01*
X55273249Y-142424056D01*
X55320815Y-142538891D01*
X55389870Y-142642239D01*
X55477761Y-142730130D01*
X55581109Y-142799185D01*
X55695944Y-142846751D01*
X55817852Y-142871000D01*
X55942148Y-142871000D01*
X56064056Y-142846751D01*
X56178891Y-142799185D01*
X56282239Y-142730130D01*
X56370130Y-142642239D01*
X56439185Y-142538891D01*
X56486751Y-142424056D01*
X56511000Y-142302148D01*
X56511000Y-142177852D01*
X56502066Y-142132939D01*
X56503492Y-142133701D01*
X56575311Y-142155487D01*
X56650000Y-142162843D01*
X57152919Y-142162843D01*
X57156107Y-142163810D01*
X57242000Y-142172270D01*
X57263524Y-142170150D01*
X58981781Y-142170150D01*
X59033761Y-142222130D01*
X59137109Y-142291185D01*
X59251944Y-142338751D01*
X59373852Y-142363000D01*
X59498148Y-142363000D01*
X59620056Y-142338751D01*
X59734891Y-142291185D01*
X59838239Y-142222130D01*
X59926130Y-142134239D01*
X59995185Y-142030891D01*
X60042751Y-141916056D01*
X60067000Y-141794148D01*
X60067000Y-141669852D01*
X60042751Y-141547944D01*
X59995185Y-141433109D01*
X59926130Y-141329761D01*
X59838239Y-141241870D01*
X59812758Y-141224844D01*
X59868185Y-141141891D01*
X59915751Y-141027056D01*
X59940000Y-140905148D01*
X59940000Y-140780852D01*
X59915751Y-140658944D01*
X59868185Y-140544109D01*
X59799130Y-140440761D01*
X59711239Y-140352870D01*
X59607891Y-140283815D01*
X59493056Y-140236249D01*
X59371148Y-140212000D01*
X59289637Y-140212000D01*
X59297637Y-140204000D01*
X59371148Y-140204000D01*
X59493056Y-140179751D01*
X59607891Y-140132185D01*
X59711239Y-140063130D01*
X59799130Y-139975239D01*
X59868185Y-139871891D01*
X59915751Y-139757056D01*
X59940000Y-139635148D01*
X59940000Y-139510852D01*
X59915751Y-139388944D01*
X59868185Y-139274109D01*
X59799130Y-139170761D01*
X59711239Y-139082870D01*
X59607891Y-139013815D01*
X59493056Y-138966249D01*
X59409090Y-138949547D01*
X59805637Y-138553000D01*
X59879148Y-138553000D01*
X60001056Y-138528751D01*
X60115891Y-138481185D01*
X60219239Y-138412130D01*
X60307130Y-138324239D01*
X60376185Y-138220891D01*
X60423751Y-138106056D01*
X60448000Y-137984148D01*
X60448000Y-137859852D01*
X60423751Y-137737944D01*
X60376185Y-137623109D01*
X60307130Y-137519761D01*
X60219239Y-137431870D01*
X60115891Y-137362815D01*
X60001056Y-137315249D01*
X59879148Y-137291000D01*
X59754852Y-137291000D01*
X59747150Y-137292532D01*
X59747150Y-136459861D01*
X59799130Y-136407881D01*
X59868185Y-136304533D01*
X59915751Y-136189698D01*
X59940000Y-136067790D01*
X59940000Y-135943494D01*
X59915751Y-135821586D01*
X59868185Y-135706751D01*
X59799130Y-135603403D01*
X59711239Y-135515512D01*
X59607891Y-135446457D01*
X59493056Y-135398891D01*
X59381014Y-135376605D01*
X59407751Y-135312056D01*
X59432000Y-135190148D01*
X59432000Y-135065852D01*
X59407751Y-134943944D01*
X59360185Y-134829109D01*
X59291130Y-134725761D01*
X59203239Y-134637870D01*
X59099891Y-134568815D01*
X58985056Y-134521249D01*
X58863148Y-134497000D01*
X58738852Y-134497000D01*
X58616944Y-134521249D01*
X58502109Y-134568815D01*
X58398761Y-134637870D01*
X58310870Y-134725761D01*
X58241815Y-134829109D01*
X58194249Y-134943944D01*
X58170000Y-135065852D01*
X58170000Y-135190148D01*
X58194249Y-135312056D01*
X58241815Y-135426891D01*
X58310870Y-135530239D01*
X58362850Y-135582219D01*
X58362851Y-137490401D01*
X58189498Y-137663755D01*
X58173555Y-137635272D01*
X58092340Y-137540140D01*
X58032119Y-137492644D01*
X58025487Y-137425311D01*
X58014776Y-137390000D01*
X58025487Y-137354689D01*
X58032843Y-137280000D01*
X58032843Y-137000000D01*
X58025487Y-136925311D01*
X58014776Y-136890000D01*
X58025487Y-136854689D01*
X58032843Y-136780000D01*
X58032843Y-136500000D01*
X58025487Y-136425311D01*
X58014776Y-136390000D01*
X58025487Y-136354689D01*
X58032843Y-136280000D01*
X58032843Y-136000000D01*
X58025487Y-135925311D01*
X58014776Y-135890000D01*
X58025487Y-135854689D01*
X58032843Y-135780000D01*
X58032843Y-135500000D01*
X58025487Y-135425311D01*
X58014776Y-135390000D01*
X58025487Y-135354689D01*
X58032843Y-135280000D01*
X58032843Y-135000000D01*
X58025487Y-134925311D01*
X58014776Y-134890000D01*
X58025487Y-134854689D01*
X58032843Y-134780000D01*
X58032843Y-134500000D01*
X58025487Y-134425311D01*
X58014776Y-134390000D01*
X58025487Y-134354689D01*
X58032119Y-134287356D01*
X58092340Y-134239860D01*
X58173555Y-134144728D01*
X58234650Y-134035579D01*
X58273277Y-133916609D01*
X58285000Y-133811750D01*
X58126250Y-133653000D01*
X57809044Y-133653000D01*
X57796508Y-133646299D01*
X57775743Y-133640000D01*
X57796508Y-133633701D01*
X57809044Y-133627000D01*
X58126250Y-133627000D01*
X58285000Y-133468250D01*
X58273277Y-133363391D01*
X58234650Y-133244421D01*
X58173555Y-133135272D01*
X58092340Y-133040140D01*
X58032119Y-132992644D01*
X58025487Y-132925311D01*
X58014776Y-132890000D01*
X58025487Y-132854689D01*
X58032843Y-132780000D01*
X58032843Y-132578150D01*
X58465476Y-132578150D01*
X58487000Y-132580270D01*
X58572892Y-132571810D01*
X58655484Y-132546756D01*
X58731601Y-132506071D01*
X58798318Y-132451318D01*
X58812043Y-132434594D01*
X59551637Y-131695000D01*
X59625148Y-131695000D01*
X59747056Y-131670751D01*
X59861891Y-131623185D01*
X59965239Y-131554130D01*
X60053130Y-131466239D01*
X60122185Y-131362891D01*
X60169751Y-131248056D01*
X60194000Y-131126148D01*
X60194000Y-131001852D01*
X60169751Y-130879944D01*
X60122185Y-130765109D01*
X60053130Y-130661761D01*
X59965239Y-130573870D01*
X59897990Y-130528935D01*
X59915751Y-130486056D01*
X59940000Y-130364148D01*
X59940000Y-130239852D01*
X59915751Y-130117944D01*
X59868185Y-130003109D01*
X59799130Y-129899761D01*
X59711239Y-129811870D01*
X59607891Y-129742815D01*
X59493056Y-129695249D01*
X59371148Y-129671000D01*
X59246852Y-129671000D01*
X59124944Y-129695249D01*
X59010109Y-129742815D01*
X58906761Y-129811870D01*
X58818870Y-129899761D01*
X58749815Y-130003109D01*
X58702249Y-130117944D01*
X58678000Y-130239852D01*
X58678000Y-130313363D01*
X58029124Y-130962239D01*
X58025487Y-130925311D01*
X58014776Y-130890000D01*
X58025487Y-130854689D01*
X58032843Y-130780000D01*
X58032843Y-130500000D01*
X58025487Y-130425311D01*
X58014776Y-130390000D01*
X58025487Y-130354689D01*
X58032843Y-130280000D01*
X58032843Y-130000000D01*
X58025487Y-129925311D01*
X58003701Y-129853492D01*
X57968322Y-129787304D01*
X57920711Y-129729289D01*
X57862696Y-129681678D01*
X57796508Y-129646299D01*
X57724689Y-129624513D01*
X57650000Y-129617157D01*
X56650000Y-129617157D01*
X56575311Y-129624513D01*
X56503492Y-129646299D01*
X56437304Y-129681678D01*
X56379289Y-129729289D01*
X56331678Y-129787304D01*
X56296299Y-129853492D01*
X56274513Y-129925311D01*
X56267157Y-130000000D01*
X56267157Y-130201850D01*
X55470872Y-130201850D01*
X55470751Y-130201244D01*
X55423185Y-130086409D01*
X55354130Y-129983061D01*
X55266239Y-129895170D01*
X55162891Y-129826115D01*
X55048056Y-129778549D01*
X54926148Y-129754300D01*
X54801852Y-129754300D01*
X54679944Y-129778549D01*
X54565109Y-129826115D01*
X54461761Y-129895170D01*
X54373870Y-129983061D01*
X54304815Y-130086409D01*
X54257249Y-130201244D01*
X54233000Y-130323152D01*
X54233000Y-130447448D01*
X54257249Y-130569356D01*
X54304815Y-130684191D01*
X54373870Y-130787539D01*
X54461761Y-130875430D01*
X54565109Y-130944485D01*
X54679944Y-130992051D01*
X54801852Y-131016300D01*
X54893236Y-131016300D01*
X54950216Y-131046756D01*
X55007062Y-131064000D01*
X55032807Y-131071810D01*
X55118699Y-131080270D01*
X55140223Y-131078150D01*
X55246213Y-131078150D01*
X55129363Y-131195000D01*
X55055852Y-131195000D01*
X54933944Y-131219249D01*
X54819109Y-131266815D01*
X54715761Y-131335870D01*
X54627870Y-131423761D01*
X54558815Y-131527109D01*
X54511249Y-131641944D01*
X54487000Y-131763852D01*
X54487000Y-131888148D01*
X54511249Y-132010056D01*
X54558815Y-132124891D01*
X54627870Y-132228239D01*
X54715761Y-132316130D01*
X54819109Y-132385185D01*
X54933944Y-132432751D01*
X55055852Y-132457000D01*
X55180148Y-132457000D01*
X55302056Y-132432751D01*
X55416891Y-132385185D01*
X55520239Y-132316130D01*
X55608130Y-132228239D01*
X55677185Y-132124891D01*
X55724751Y-132010056D01*
X55749000Y-131888148D01*
X55749000Y-131814637D01*
X55985487Y-131578150D01*
X56267157Y-131578150D01*
X56267157Y-131780000D01*
X56274513Y-131854689D01*
X56285224Y-131890000D01*
X56274513Y-131925311D01*
X56267157Y-132000000D01*
X56267157Y-132280000D01*
X56274513Y-132354689D01*
X56285224Y-132390000D01*
X56274513Y-132425311D01*
X56267157Y-132500000D01*
X56267157Y-132780000D01*
X56274513Y-132854689D01*
X56285224Y-132890000D01*
X56274513Y-132925311D01*
X56267881Y-132992644D01*
X56207660Y-133040140D01*
X56126445Y-133135272D01*
X56065350Y-133244421D01*
X56026723Y-133363391D01*
X56015000Y-133468250D01*
X56173750Y-133627000D01*
X56490956Y-133627000D01*
X56503492Y-133633701D01*
X56524257Y-133640000D01*
X56503492Y-133646299D01*
X56490956Y-133653000D01*
X56173750Y-133653000D01*
X56124900Y-133701850D01*
X47745524Y-133701850D01*
X47724000Y-133699730D01*
X47702476Y-133701850D01*
X47638108Y-133708190D01*
X47555516Y-133733244D01*
X47479399Y-133773929D01*
X47412682Y-133828682D01*
X47398957Y-133845406D01*
X47255363Y-133989000D01*
X47181852Y-133989000D01*
X47059944Y-134013249D01*
X46945109Y-134060815D01*
X46841761Y-134129870D01*
X46753870Y-134217761D01*
X46684815Y-134321109D01*
X46637249Y-134435944D01*
X46613000Y-134557852D01*
X46613000Y-134682148D01*
X46637249Y-134804056D01*
X46684815Y-134918891D01*
X46753870Y-135022239D01*
X46841761Y-135110130D01*
X46945109Y-135179185D01*
X47059944Y-135226751D01*
X47181852Y-135251000D01*
X47306148Y-135251000D01*
X47428056Y-135226751D01*
X47542891Y-135179185D01*
X47646239Y-135110130D01*
X47734130Y-135022239D01*
X47803185Y-134918891D01*
X47850751Y-134804056D01*
X47875000Y-134682148D01*
X47875000Y-134608637D01*
X47905487Y-134578150D01*
X54678138Y-134578150D01*
X54588761Y-134637870D01*
X54500870Y-134725761D01*
X54431815Y-134829109D01*
X54384249Y-134943944D01*
X54360000Y-135065852D01*
X54360000Y-135190148D01*
X54375490Y-135268023D01*
X54298944Y-135283249D01*
X54184109Y-135330815D01*
X54080761Y-135399870D01*
X53992870Y-135487761D01*
X53923815Y-135591109D01*
X53876249Y-135705944D01*
X53852000Y-135827852D01*
X53852000Y-135952148D01*
X53876249Y-136074056D01*
X53923815Y-136188891D01*
X53992870Y-136292239D01*
X54080761Y-136380130D01*
X54085195Y-136383093D01*
X54072903Y-136395385D01*
X53999392Y-136395385D01*
X53877484Y-136419634D01*
X53762649Y-136467200D01*
X53659301Y-136536255D01*
X53571410Y-136624146D01*
X53502355Y-136727494D01*
X53454789Y-136842329D01*
X53430540Y-136964237D01*
X53430540Y-137044761D01*
X46434613Y-137044761D01*
X46413089Y-137042641D01*
X46327196Y-137051101D01*
X46244605Y-137076155D01*
X46168488Y-137116840D01*
X46101771Y-137171593D01*
X46088046Y-137188317D01*
X40208514Y-143067849D01*
X39086055Y-143067849D01*
X39040185Y-142957109D01*
X38971130Y-142853761D01*
X38883239Y-142765870D01*
X38779891Y-142696815D01*
X38665056Y-142649249D01*
X38543148Y-142625000D01*
X38418852Y-142625000D01*
X38296944Y-142649249D01*
X38182109Y-142696815D01*
X38078761Y-142765870D01*
X37990870Y-142853761D01*
X37921815Y-142957109D01*
X37874249Y-143071944D01*
X37850000Y-143193852D01*
X37130785Y-143193852D01*
X40258946Y-140065691D01*
X40841352Y-140065691D01*
X40862876Y-140067811D01*
X40948768Y-140059351D01*
X40990288Y-140046756D01*
X41031360Y-140034297D01*
X41079545Y-140008542D01*
X41175023Y-140008542D01*
X41296931Y-139984293D01*
X41411766Y-139936727D01*
X41515114Y-139867672D01*
X41603005Y-139779781D01*
X41672060Y-139676433D01*
X41719626Y-139561598D01*
X41743875Y-139439690D01*
X41743875Y-139418187D01*
X41751267Y-139416717D01*
X41889942Y-139359276D01*
X42014747Y-139275884D01*
X42120884Y-139169747D01*
X42204276Y-139044942D01*
X42261717Y-138906267D01*
X42288256Y-138772843D01*
X43140000Y-138772843D01*
X43214689Y-138765487D01*
X43286508Y-138743701D01*
X43352696Y-138708322D01*
X43410711Y-138660711D01*
X43458322Y-138602696D01*
X43493701Y-138536508D01*
X43515487Y-138464689D01*
X43522843Y-138390000D01*
X43522843Y-136272378D01*
X43581058Y-136311276D01*
X43719733Y-136368717D01*
X43866950Y-136398000D01*
X44017050Y-136398000D01*
X44164267Y-136368717D01*
X44302942Y-136311276D01*
X44427747Y-136227884D01*
X44533884Y-136121747D01*
X44617276Y-135996942D01*
X44674717Y-135858267D01*
X44704000Y-135711050D01*
X44704000Y-135560950D01*
X44674717Y-135413733D01*
X44617276Y-135275058D01*
X44533884Y-135150253D01*
X44427747Y-135044116D01*
X44302942Y-134960724D01*
X44164267Y-134903283D01*
X44017050Y-134874000D01*
X43866950Y-134874000D01*
X43719733Y-134903283D01*
X43581058Y-134960724D01*
X43522843Y-134999622D01*
X43522843Y-133390000D01*
X43515487Y-133315311D01*
X43493701Y-133243492D01*
X43458322Y-133177304D01*
X43410711Y-133119289D01*
X43352696Y-133071678D01*
X43286508Y-133036299D01*
X43214689Y-133014513D01*
X43140000Y-133007157D01*
X38140000Y-133007157D01*
X38065311Y-133014513D01*
X37993492Y-133036299D01*
X37927304Y-133071678D01*
X37869289Y-133119289D01*
X37821678Y-133177304D01*
X37786299Y-133243492D01*
X37764513Y-133315311D01*
X37757157Y-133390000D01*
X37757157Y-135042737D01*
X37084000Y-134369580D01*
X37084000Y-134173631D01*
X37167884Y-134089747D01*
X37251276Y-133964942D01*
X37308717Y-133826267D01*
X37338000Y-133679050D01*
X37338000Y-133528950D01*
X37308717Y-133381733D01*
X37251276Y-133243058D01*
X37167884Y-133118253D01*
X37061747Y-133012116D01*
X36936942Y-132928724D01*
X36798267Y-132871283D01*
X36651050Y-132842000D01*
X36500950Y-132842000D01*
X36353733Y-132871283D01*
X36215058Y-132928724D01*
X36090253Y-133012116D01*
X35984116Y-133118253D01*
X35900724Y-133243058D01*
X35843283Y-133381733D01*
X35814000Y-133528950D01*
X35814000Y-133679050D01*
X35843283Y-133826267D01*
X35900724Y-133964942D01*
X35984116Y-134089747D01*
X36068000Y-134173631D01*
X36068000Y-134555055D01*
X36065543Y-134580000D01*
X36068000Y-134604944D01*
X36068000Y-134604946D01*
X36075351Y-134679584D01*
X36104399Y-134775342D01*
X36151571Y-134863595D01*
X36215052Y-134940948D01*
X36234435Y-134956855D01*
X37509145Y-136231565D01*
X37525052Y-136250948D01*
X37602405Y-136314429D01*
X37690657Y-136361601D01*
X37757157Y-136381774D01*
X37757157Y-138390000D01*
X37764513Y-138464689D01*
X37786299Y-138536508D01*
X37821678Y-138602696D01*
X37869289Y-138660711D01*
X37927304Y-138708322D01*
X37993492Y-138743701D01*
X38065311Y-138765487D01*
X38140000Y-138772843D01*
X40769744Y-138772843D01*
X40782925Y-138839110D01*
X40710636Y-138887412D01*
X40622745Y-138975303D01*
X40553690Y-139078651D01*
X40507820Y-139189391D01*
X40098983Y-139189391D01*
X40077459Y-139187271D01*
X39991566Y-139195731D01*
X39950495Y-139208190D01*
X39908975Y-139220785D01*
X39832858Y-139261470D01*
X39766141Y-139316223D01*
X39752416Y-139332947D01*
X35571363Y-143514000D01*
X35497852Y-143514000D01*
X35375944Y-143538249D01*
X35261109Y-143585815D01*
X35157761Y-143654870D01*
X35069870Y-143742761D01*
X35000815Y-143846109D01*
X34953249Y-143960944D01*
X34929000Y-144082852D01*
X25806000Y-144082852D01*
X25806000Y-142037950D01*
X30353000Y-142037950D01*
X30353000Y-142188050D01*
X30382283Y-142335267D01*
X30439724Y-142473942D01*
X30523116Y-142598747D01*
X30629253Y-142704884D01*
X30754058Y-142788276D01*
X30892733Y-142845717D01*
X31039950Y-142875000D01*
X31190050Y-142875000D01*
X31337267Y-142845717D01*
X31475942Y-142788276D01*
X31600747Y-142704884D01*
X31706884Y-142598747D01*
X31790276Y-142473942D01*
X31847717Y-142335267D01*
X31877000Y-142188050D01*
X31877000Y-142037950D01*
X31847717Y-141890733D01*
X31790276Y-141752058D01*
X31706884Y-141627253D01*
X31600747Y-141521116D01*
X31475942Y-141437724D01*
X31337267Y-141380283D01*
X31190050Y-141351000D01*
X31039950Y-141351000D01*
X30892733Y-141380283D01*
X30754058Y-141437724D01*
X30629253Y-141521116D01*
X30523116Y-141627253D01*
X30439724Y-141752058D01*
X30382283Y-141890733D01*
X30353000Y-142037950D01*
X25806000Y-142037950D01*
X25806000Y-139878950D01*
X35306000Y-139878950D01*
X35306000Y-140029050D01*
X35335283Y-140176267D01*
X35392724Y-140314942D01*
X35476116Y-140439747D01*
X35582253Y-140545884D01*
X35707058Y-140629276D01*
X35845733Y-140686717D01*
X35992950Y-140716000D01*
X36143050Y-140716000D01*
X36290267Y-140686717D01*
X36428942Y-140629276D01*
X36553747Y-140545884D01*
X36659884Y-140439747D01*
X36743276Y-140314942D01*
X36800717Y-140176267D01*
X36830000Y-140029050D01*
X36830000Y-139878950D01*
X36800717Y-139731733D01*
X36743276Y-139593058D01*
X36659884Y-139468253D01*
X36553747Y-139362116D01*
X36428942Y-139278724D01*
X36290267Y-139221283D01*
X36143050Y-139192000D01*
X35992950Y-139192000D01*
X35845733Y-139221283D01*
X35707058Y-139278724D01*
X35582253Y-139362116D01*
X35476116Y-139468253D01*
X35392724Y-139593058D01*
X35335283Y-139731733D01*
X35306000Y-139878950D01*
X25806000Y-139878950D01*
X25806000Y-138621852D01*
X30103000Y-138621852D01*
X30103000Y-138746148D01*
X30127249Y-138868056D01*
X30174815Y-138982891D01*
X30243870Y-139086239D01*
X30331761Y-139174130D01*
X30435109Y-139243185D01*
X30549944Y-139290751D01*
X30671852Y-139315000D01*
X30796148Y-139315000D01*
X30918056Y-139290751D01*
X31032891Y-139243185D01*
X31136239Y-139174130D01*
X31188219Y-139122150D01*
X32057781Y-139122150D01*
X32109761Y-139174130D01*
X32213109Y-139243185D01*
X32327944Y-139290751D01*
X32449852Y-139315000D01*
X32574148Y-139315000D01*
X32696056Y-139290751D01*
X32810891Y-139243185D01*
X32914239Y-139174130D01*
X33002130Y-139086239D01*
X33071185Y-138982891D01*
X33118751Y-138868056D01*
X33143000Y-138746148D01*
X33143000Y-138621852D01*
X33118751Y-138499944D01*
X33071185Y-138385109D01*
X33002130Y-138281761D01*
X32914239Y-138193870D01*
X32810891Y-138124815D01*
X32696056Y-138077249D01*
X32574148Y-138053000D01*
X32449852Y-138053000D01*
X32327944Y-138077249D01*
X32213109Y-138124815D01*
X32109761Y-138193870D01*
X32057781Y-138245850D01*
X31188219Y-138245850D01*
X31136239Y-138193870D01*
X31032891Y-138124815D01*
X30918056Y-138077249D01*
X30796148Y-138053000D01*
X30671852Y-138053000D01*
X30549944Y-138077249D01*
X30435109Y-138124815D01*
X30331761Y-138193870D01*
X30243870Y-138281761D01*
X30174815Y-138385109D01*
X30127249Y-138499944D01*
X30103000Y-138621852D01*
X25806000Y-138621852D01*
X25806000Y-135192852D01*
X32770000Y-135192852D01*
X32770000Y-135317148D01*
X32794249Y-135439056D01*
X32841815Y-135553891D01*
X32910870Y-135657239D01*
X32998761Y-135745130D01*
X33102109Y-135814185D01*
X33216944Y-135861751D01*
X33338852Y-135886000D01*
X33463148Y-135886000D01*
X33585056Y-135861751D01*
X33699891Y-135814185D01*
X33803239Y-135745130D01*
X33891130Y-135657239D01*
X33960185Y-135553891D01*
X34007751Y-135439056D01*
X34032000Y-135317148D01*
X34032000Y-135192852D01*
X34007751Y-135070944D01*
X33960185Y-134956109D01*
X33891130Y-134852761D01*
X33803239Y-134764870D01*
X33699891Y-134695815D01*
X33585056Y-134648249D01*
X33463148Y-134624000D01*
X33338852Y-134624000D01*
X33216944Y-134648249D01*
X33102109Y-134695815D01*
X32998761Y-134764870D01*
X32910870Y-134852761D01*
X32841815Y-134956109D01*
X32794249Y-135070944D01*
X32770000Y-135192852D01*
X25806000Y-135192852D01*
X25806000Y-127813950D01*
X34163000Y-127813950D01*
X34163000Y-127964050D01*
X34192283Y-128111267D01*
X34249724Y-128249942D01*
X34333116Y-128374747D01*
X34439253Y-128480884D01*
X34564058Y-128564276D01*
X34702733Y-128621717D01*
X34849950Y-128651000D01*
X35000050Y-128651000D01*
X35147267Y-128621717D01*
X35285942Y-128564276D01*
X35410747Y-128480884D01*
X35442681Y-128448950D01*
X47498000Y-128448950D01*
X47498000Y-128599050D01*
X47527283Y-128746267D01*
X47584724Y-128884942D01*
X47668116Y-129009747D01*
X47774253Y-129115884D01*
X47899058Y-129199276D01*
X48037733Y-129256717D01*
X48184950Y-129286000D01*
X48335050Y-129286000D01*
X48482267Y-129256717D01*
X48620942Y-129199276D01*
X48745747Y-129115884D01*
X48851884Y-129009747D01*
X48935276Y-128884942D01*
X48992717Y-128746267D01*
X49022000Y-128599050D01*
X49022000Y-128448950D01*
X49010275Y-128390000D01*
X57767157Y-128390000D01*
X57767157Y-128890000D01*
X57774513Y-128964689D01*
X57796299Y-129036508D01*
X57831678Y-129102696D01*
X57879289Y-129160711D01*
X57937304Y-129208322D01*
X58003492Y-129243701D01*
X58075311Y-129265487D01*
X58150000Y-129272843D01*
X59150000Y-129272843D01*
X59224689Y-129265487D01*
X59296508Y-129243701D01*
X59362696Y-129208322D01*
X59420711Y-129160711D01*
X59468322Y-129102696D01*
X59503701Y-129036508D01*
X59525487Y-128964689D01*
X59532843Y-128890000D01*
X59532843Y-128390000D01*
X59525487Y-128315311D01*
X59503701Y-128243492D01*
X59468322Y-128177304D01*
X59420711Y-128119289D01*
X59362696Y-128071678D01*
X59296508Y-128036299D01*
X59224689Y-128014513D01*
X59150000Y-128007157D01*
X58150000Y-128007157D01*
X58075311Y-128014513D01*
X58003492Y-128036299D01*
X57937304Y-128071678D01*
X57879289Y-128119289D01*
X57831678Y-128177304D01*
X57796299Y-128243492D01*
X57774513Y-128315311D01*
X57767157Y-128390000D01*
X49010275Y-128390000D01*
X48992717Y-128301733D01*
X48935276Y-128163058D01*
X48851884Y-128038253D01*
X48745747Y-127932116D01*
X48620942Y-127848724D01*
X48482267Y-127791283D01*
X48335050Y-127762000D01*
X48184950Y-127762000D01*
X48037733Y-127791283D01*
X47899058Y-127848724D01*
X47774253Y-127932116D01*
X47668116Y-128038253D01*
X47584724Y-128163058D01*
X47527283Y-128301733D01*
X47498000Y-128448950D01*
X35442681Y-128448950D01*
X35516884Y-128374747D01*
X35600276Y-128249942D01*
X35657717Y-128111267D01*
X35687000Y-127964050D01*
X35687000Y-127813950D01*
X35657717Y-127666733D01*
X35600276Y-127528058D01*
X35516884Y-127403253D01*
X35410747Y-127297116D01*
X35285942Y-127213724D01*
X35147267Y-127156283D01*
X35000050Y-127127000D01*
X34849950Y-127127000D01*
X34702733Y-127156283D01*
X34564058Y-127213724D01*
X34439253Y-127297116D01*
X34333116Y-127403253D01*
X34249724Y-127528058D01*
X34192283Y-127666733D01*
X34163000Y-127813950D01*
X25806000Y-127813950D01*
X25806000Y-126162950D01*
X26797000Y-126162950D01*
X26797000Y-126313050D01*
X26826283Y-126460267D01*
X26883724Y-126598942D01*
X26967116Y-126723747D01*
X27073253Y-126829884D01*
X27198058Y-126913276D01*
X27336733Y-126970717D01*
X27483950Y-127000000D01*
X27634050Y-127000000D01*
X27781267Y-126970717D01*
X27919942Y-126913276D01*
X28044747Y-126829884D01*
X28150884Y-126723747D01*
X28234276Y-126598942D01*
X28291717Y-126460267D01*
X28321000Y-126313050D01*
X28321000Y-126162950D01*
X28291717Y-126015733D01*
X28234276Y-125877058D01*
X28150884Y-125752253D01*
X28044747Y-125646116D01*
X27919942Y-125562724D01*
X27781267Y-125505283D01*
X27634050Y-125476000D01*
X27483950Y-125476000D01*
X27336733Y-125505283D01*
X27198058Y-125562724D01*
X27073253Y-125646116D01*
X26967116Y-125752253D01*
X26883724Y-125877058D01*
X26826283Y-126015733D01*
X26797000Y-126162950D01*
X25806000Y-126162950D01*
X25806000Y-122352950D01*
X27940000Y-122352950D01*
X27940000Y-122503050D01*
X27969283Y-122650267D01*
X28026724Y-122788942D01*
X28110116Y-122913747D01*
X28216253Y-123019884D01*
X28341058Y-123103276D01*
X28479733Y-123160717D01*
X28626950Y-123190000D01*
X28777050Y-123190000D01*
X28924267Y-123160717D01*
X29034758Y-123114950D01*
X34417000Y-123114950D01*
X34417000Y-123265050D01*
X34446283Y-123412267D01*
X34503724Y-123550942D01*
X34587116Y-123675747D01*
X34693253Y-123781884D01*
X34818058Y-123865276D01*
X34956733Y-123922717D01*
X35103950Y-123952000D01*
X35254050Y-123952000D01*
X35401267Y-123922717D01*
X35539942Y-123865276D01*
X35664747Y-123781884D01*
X35770884Y-123675747D01*
X35854276Y-123550942D01*
X35911717Y-123412267D01*
X35941000Y-123265050D01*
X35941000Y-123215000D01*
X37451928Y-123215000D01*
X37464188Y-123339482D01*
X37500498Y-123459180D01*
X37559463Y-123569494D01*
X37638815Y-123666185D01*
X37735506Y-123745537D01*
X37845820Y-123804502D01*
X37965518Y-123840812D01*
X38090000Y-123853072D01*
X40354250Y-123850000D01*
X40505498Y-123698752D01*
X40640000Y-123698752D01*
X40640000Y-123848852D01*
X40669283Y-123996069D01*
X40726724Y-124134744D01*
X40810116Y-124259549D01*
X40916253Y-124365686D01*
X41041058Y-124449078D01*
X41179733Y-124506519D01*
X41326950Y-124535802D01*
X41477050Y-124535802D01*
X41624267Y-124506519D01*
X41762942Y-124449078D01*
X41858916Y-124384950D01*
X45339000Y-124384950D01*
X45339000Y-124535050D01*
X45368283Y-124682267D01*
X45425724Y-124820942D01*
X45509116Y-124945747D01*
X45615253Y-125051884D01*
X45740058Y-125135276D01*
X45878733Y-125192717D01*
X46025950Y-125222000D01*
X46176050Y-125222000D01*
X46323267Y-125192717D01*
X46461942Y-125135276D01*
X46586747Y-125051884D01*
X46692884Y-124945747D01*
X46776276Y-124820942D01*
X46833717Y-124682267D01*
X46863000Y-124535050D01*
X46863000Y-124384950D01*
X46833717Y-124237733D01*
X46776276Y-124099058D01*
X46692884Y-123974253D01*
X46586747Y-123868116D01*
X46461942Y-123784724D01*
X46323267Y-123727283D01*
X46176050Y-123698000D01*
X46025950Y-123698000D01*
X45878733Y-123727283D01*
X45740058Y-123784724D01*
X45615253Y-123868116D01*
X45509116Y-123974253D01*
X45425724Y-124099058D01*
X45368283Y-124237733D01*
X45339000Y-124384950D01*
X41858916Y-124384950D01*
X41887747Y-124365686D01*
X41993884Y-124259549D01*
X42077276Y-124134744D01*
X42134717Y-123996069D01*
X42163438Y-123851679D01*
X43190000Y-123853072D01*
X43314482Y-123840812D01*
X43434180Y-123804502D01*
X43544494Y-123745537D01*
X43641185Y-123666185D01*
X43720537Y-123569494D01*
X43779502Y-123459180D01*
X43815812Y-123339482D01*
X43828072Y-123215000D01*
X43825000Y-120950750D01*
X43666250Y-120792000D01*
X40767000Y-120792000D01*
X40767000Y-123352583D01*
X40726724Y-123412860D01*
X40669283Y-123551535D01*
X40640000Y-123698752D01*
X40505498Y-123698752D01*
X40513000Y-123691250D01*
X40513000Y-120792000D01*
X37613750Y-120792000D01*
X37455000Y-120950750D01*
X37451928Y-123215000D01*
X35941000Y-123215000D01*
X35941000Y-123114950D01*
X35911717Y-122967733D01*
X35854276Y-122829058D01*
X35770884Y-122704253D01*
X35664747Y-122598116D01*
X35539942Y-122514724D01*
X35401267Y-122457283D01*
X35254050Y-122428000D01*
X35103950Y-122428000D01*
X34956733Y-122457283D01*
X34818058Y-122514724D01*
X34693253Y-122598116D01*
X34587116Y-122704253D01*
X34503724Y-122829058D01*
X34446283Y-122967733D01*
X34417000Y-123114950D01*
X29034758Y-123114950D01*
X29062942Y-123103276D01*
X29187747Y-123019884D01*
X29293884Y-122913747D01*
X29377276Y-122788942D01*
X29434717Y-122650267D01*
X29464000Y-122503050D01*
X29464000Y-122352950D01*
X29434717Y-122205733D01*
X29377276Y-122067058D01*
X29293884Y-121942253D01*
X29187747Y-121836116D01*
X29062942Y-121752724D01*
X28924267Y-121695283D01*
X28777050Y-121666000D01*
X28626950Y-121666000D01*
X28479733Y-121695283D01*
X28341058Y-121752724D01*
X28216253Y-121836116D01*
X28110116Y-121942253D01*
X28026724Y-122067058D01*
X27969283Y-122205733D01*
X27940000Y-122352950D01*
X25806000Y-122352950D01*
X25806000Y-119593209D01*
X25872711Y-119754266D01*
X25982285Y-119918254D01*
X26121746Y-120057715D01*
X26285734Y-120167289D01*
X26467949Y-120242764D01*
X26661386Y-120281241D01*
X26858614Y-120281241D01*
X27052051Y-120242764D01*
X27082866Y-120230000D01*
X29626928Y-120230000D01*
X29639188Y-120354482D01*
X29675498Y-120474180D01*
X29734463Y-120584494D01*
X29813815Y-120681185D01*
X29910506Y-120760537D01*
X30020820Y-120819502D01*
X30140518Y-120855812D01*
X30265000Y-120868072D01*
X30829250Y-120865000D01*
X30988000Y-120706250D01*
X30988000Y-119507000D01*
X29788750Y-119507000D01*
X29630000Y-119665750D01*
X29626928Y-120230000D01*
X27082866Y-120230000D01*
X27234266Y-120167289D01*
X27398254Y-120057715D01*
X27537715Y-119918254D01*
X27647289Y-119754266D01*
X27722764Y-119572051D01*
X27761241Y-119378614D01*
X27761241Y-119181386D01*
X27722764Y-118987949D01*
X27647289Y-118805734D01*
X27537715Y-118641746D01*
X27398254Y-118502285D01*
X27304761Y-118439814D01*
X29770498Y-118131597D01*
X29734463Y-118175506D01*
X29675498Y-118285820D01*
X29639188Y-118405518D01*
X29626928Y-118530000D01*
X29630000Y-119094250D01*
X29788750Y-119253000D01*
X30988000Y-119253000D01*
X30988000Y-119233000D01*
X31242000Y-119233000D01*
X31242000Y-119253000D01*
X31262000Y-119253000D01*
X31262000Y-119507000D01*
X31242000Y-119507000D01*
X31242000Y-120706250D01*
X31400750Y-120865000D01*
X31965000Y-120868072D01*
X32089482Y-120855812D01*
X32209180Y-120819502D01*
X32319494Y-120760537D01*
X32416185Y-120681185D01*
X32495537Y-120584494D01*
X32554502Y-120474180D01*
X32590812Y-120354482D01*
X32603072Y-120230000D01*
X32601935Y-120021242D01*
X32626509Y-120067216D01*
X32780340Y-120254660D01*
X32967784Y-120408491D01*
X33181637Y-120522798D01*
X33413682Y-120593188D01*
X33594528Y-120611000D01*
X33715472Y-120611000D01*
X33896318Y-120593188D01*
X34128363Y-120522798D01*
X34342216Y-120408491D01*
X34529660Y-120254660D01*
X34683491Y-120067216D01*
X34683633Y-120066950D01*
X35052000Y-120066950D01*
X35052000Y-120217050D01*
X35081283Y-120364267D01*
X35138724Y-120502942D01*
X35222116Y-120627747D01*
X35328253Y-120733884D01*
X35453058Y-120817276D01*
X35591733Y-120874717D01*
X35738950Y-120904000D01*
X35889050Y-120904000D01*
X36036267Y-120874717D01*
X36174942Y-120817276D01*
X36299747Y-120733884D01*
X36405884Y-120627747D01*
X36489276Y-120502942D01*
X36546717Y-120364267D01*
X36576000Y-120217050D01*
X36576000Y-120066950D01*
X36546717Y-119919733D01*
X36489276Y-119781058D01*
X36405884Y-119656253D01*
X36299747Y-119550116D01*
X36174942Y-119466724D01*
X36036267Y-119409283D01*
X35889050Y-119380000D01*
X35738950Y-119380000D01*
X35591733Y-119409283D01*
X35453058Y-119466724D01*
X35328253Y-119550116D01*
X35222116Y-119656253D01*
X35138724Y-119781058D01*
X35081283Y-119919733D01*
X35052000Y-120066950D01*
X34683633Y-120066950D01*
X34797798Y-119853363D01*
X34868188Y-119621318D01*
X34891956Y-119380000D01*
X34868188Y-119138682D01*
X34797798Y-118906637D01*
X34683491Y-118692784D01*
X34529660Y-118505340D01*
X34342216Y-118351509D01*
X34128363Y-118237202D01*
X33896318Y-118166812D01*
X33715472Y-118149000D01*
X33594528Y-118149000D01*
X33413682Y-118166812D01*
X33181637Y-118237202D01*
X32967784Y-118351509D01*
X32780340Y-118505340D01*
X32626509Y-118692784D01*
X32601935Y-118738758D01*
X32603072Y-118530000D01*
X32590812Y-118405518D01*
X32554502Y-118285820D01*
X32495537Y-118175506D01*
X32416185Y-118078815D01*
X32319494Y-117999463D01*
X32209180Y-117940498D01*
X32089482Y-117904188D01*
X31965000Y-117891928D01*
X31675233Y-117893506D01*
X35914596Y-117363585D01*
X35845733Y-117377283D01*
X35707058Y-117434724D01*
X35582253Y-117518116D01*
X35476116Y-117624253D01*
X35392724Y-117749058D01*
X35335283Y-117887733D01*
X35306000Y-118034950D01*
X35306000Y-118185050D01*
X35335283Y-118332267D01*
X35392724Y-118470942D01*
X35476116Y-118595747D01*
X35582253Y-118701884D01*
X35707058Y-118785276D01*
X35845733Y-118842717D01*
X35992950Y-118872000D01*
X36143050Y-118872000D01*
X36290267Y-118842717D01*
X36428942Y-118785276D01*
X36553747Y-118701884D01*
X36659884Y-118595747D01*
X36743276Y-118470942D01*
X36800717Y-118332267D01*
X36830000Y-118185050D01*
X36830000Y-118115000D01*
X37451928Y-118115000D01*
X37455000Y-120379250D01*
X37613750Y-120538000D01*
X40513000Y-120538000D01*
X40513000Y-117638750D01*
X40767000Y-117638750D01*
X40767000Y-120538000D01*
X43666250Y-120538000D01*
X43825000Y-120379250D01*
X43828072Y-118115000D01*
X43815812Y-117990518D01*
X43779502Y-117870820D01*
X43720537Y-117760506D01*
X43641185Y-117663815D01*
X43544494Y-117584463D01*
X43434180Y-117525498D01*
X43314482Y-117489188D01*
X43190000Y-117476928D01*
X40925750Y-117480000D01*
X40767000Y-117638750D01*
X40513000Y-117638750D01*
X40354250Y-117480000D01*
X38090000Y-117476928D01*
X37965518Y-117489188D01*
X37845820Y-117525498D01*
X37735506Y-117584463D01*
X37638815Y-117663815D01*
X37559463Y-117760506D01*
X37500498Y-117870820D01*
X37464188Y-117990518D01*
X37451928Y-118115000D01*
X36830000Y-118115000D01*
X36830000Y-118034950D01*
X36800717Y-117887733D01*
X36743276Y-117749058D01*
X36659884Y-117624253D01*
X36553747Y-117518116D01*
X36428942Y-117434724D01*
X36290267Y-117377283D01*
X36143050Y-117348000D01*
X36039280Y-117348000D01*
X36855280Y-117246000D01*
X44437333Y-117246000D01*
X64643000Y-118508854D01*
X64643000Y-118508854D01*
G37*
X64643000Y-118508854D02*
X64643000Y-118661000D01*
X64624134Y-118661000D01*
X64338008Y-118717914D01*
X64068483Y-118829555D01*
X63825917Y-118991632D01*
X63619632Y-119197917D01*
X63457555Y-119440483D01*
X63345914Y-119710008D01*
X63289000Y-119996134D01*
X63289000Y-120287866D01*
X63345914Y-120573992D01*
X63457555Y-120843517D01*
X63619632Y-121086083D01*
X63825917Y-121292368D01*
X64068483Y-121454445D01*
X64338008Y-121566086D01*
X64624134Y-121623000D01*
X64643000Y-121623000D01*
X64643000Y-121788256D01*
X64613879Y-121797090D01*
X64543347Y-121834790D01*
X64481526Y-121885526D01*
X64430790Y-121947348D01*
X64393090Y-122017880D01*
X64369875Y-122094411D01*
X64364000Y-122154060D01*
X64364001Y-152380136D01*
X64345636Y-152567441D01*
X64297008Y-152728503D01*
X64218023Y-152877051D01*
X64111689Y-153007430D01*
X63982054Y-153114674D01*
X63834058Y-153194695D01*
X63673339Y-153244446D01*
X63488698Y-153263852D01*
X44436487Y-154534000D01*
X36855280Y-154534000D01*
X30400477Y-153727150D01*
X32184781Y-153727150D01*
X32236761Y-153779130D01*
X32340109Y-153848185D01*
X32454944Y-153895751D01*
X32576852Y-153920000D01*
X32701148Y-153920000D01*
X32823056Y-153895751D01*
X32937891Y-153848185D01*
X33041239Y-153779130D01*
X33129130Y-153691239D01*
X33146662Y-153665000D01*
X37451928Y-153665000D01*
X37464188Y-153789482D01*
X37500498Y-153909180D01*
X37559463Y-154019494D01*
X37638815Y-154116185D01*
X37735506Y-154195537D01*
X37845820Y-154254502D01*
X37965518Y-154290812D01*
X38090000Y-154303072D01*
X40354250Y-154300000D01*
X40513000Y-154141250D01*
X40513000Y-151242000D01*
X40767000Y-151242000D01*
X40767000Y-154141250D01*
X40925750Y-154300000D01*
X43190000Y-154303072D01*
X43314482Y-154290812D01*
X43434180Y-154254502D01*
X43544494Y-154195537D01*
X43641185Y-154116185D01*
X43720537Y-154019494D01*
X43779502Y-153909180D01*
X43815812Y-153789482D01*
X43828072Y-153665000D01*
X43825978Y-152121386D01*
X62328759Y-152121386D01*
X62328759Y-152318614D01*
X62367236Y-152512051D01*
X62442711Y-152694266D01*
X62552285Y-152858254D01*
X62691746Y-152997715D01*
X62855734Y-153107289D01*
X63037949Y-153182764D01*
X63231386Y-153221241D01*
X63428614Y-153221241D01*
X63622051Y-153182764D01*
X63804266Y-153107289D01*
X63968254Y-152997715D01*
X64107715Y-152858254D01*
X64217289Y-152694266D01*
X64292764Y-152512051D01*
X64331241Y-152318614D01*
X64331241Y-152121386D01*
X64292764Y-151927949D01*
X64217289Y-151745734D01*
X64107715Y-151581746D01*
X63968254Y-151442285D01*
X63804266Y-151332711D01*
X63622051Y-151257236D01*
X63428614Y-151218759D01*
X63231386Y-151218759D01*
X63037949Y-151257236D01*
X62855734Y-151332711D01*
X62691746Y-151442285D01*
X62552285Y-151581746D01*
X62442711Y-151745734D01*
X62367236Y-151927949D01*
X62328759Y-152121386D01*
X43825978Y-152121386D01*
X43825000Y-151400750D01*
X43666250Y-151242000D01*
X40767000Y-151242000D01*
X40513000Y-151242000D01*
X37613750Y-151242000D01*
X37455000Y-151400750D01*
X37451928Y-153665000D01*
X33146662Y-153665000D01*
X33198185Y-153587891D01*
X33245751Y-153473056D01*
X33270000Y-153351148D01*
X33270000Y-153226852D01*
X33245751Y-153104944D01*
X33198185Y-152990109D01*
X33129130Y-152886761D01*
X33041239Y-152798870D01*
X32937891Y-152729815D01*
X32823056Y-152682249D01*
X32701148Y-152658000D01*
X32576852Y-152658000D01*
X32454944Y-152682249D01*
X32340109Y-152729815D01*
X32236761Y-152798870D01*
X32184781Y-152850850D01*
X32059640Y-152850850D01*
X32101717Y-152749267D01*
X32131000Y-152602050D01*
X32131000Y-152451950D01*
X32101717Y-152304733D01*
X32044276Y-152166058D01*
X31960884Y-152041253D01*
X31911061Y-151991430D01*
X32005607Y-151972624D01*
X32165084Y-151906567D01*
X32308609Y-151810667D01*
X32430667Y-151688609D01*
X32526567Y-151545084D01*
X32592624Y-151385607D01*
X32626300Y-151216308D01*
X32626300Y-151043692D01*
X32592624Y-150874393D01*
X32526567Y-150714916D01*
X32430667Y-150571391D01*
X32308609Y-150449333D01*
X32165084Y-150353433D01*
X32005607Y-150287376D01*
X31836308Y-150253700D01*
X31663692Y-150253700D01*
X31494393Y-150287376D01*
X31464149Y-150299903D01*
X31444744Y-150202348D01*
X31369113Y-150019759D01*
X31259314Y-149855433D01*
X31132881Y-149729000D01*
X31177148Y-149729000D01*
X31299056Y-149704751D01*
X31413891Y-149657185D01*
X31517239Y-149588130D01*
X31605130Y-149500239D01*
X31674185Y-149396891D01*
X31721751Y-149282056D01*
X31730632Y-149237404D01*
X35959083Y-149237404D01*
X35959083Y-149387504D01*
X35988366Y-149534721D01*
X36045807Y-149673396D01*
X36129199Y-149798201D01*
X36235336Y-149904338D01*
X36360141Y-149987730D01*
X36498816Y-150045171D01*
X36646033Y-150074454D01*
X36796133Y-150074454D01*
X36943350Y-150045171D01*
X37082025Y-149987730D01*
X37206830Y-149904338D01*
X37312967Y-149798201D01*
X37396359Y-149673396D01*
X37453245Y-149536060D01*
X37455000Y-150829250D01*
X37613750Y-150988000D01*
X40513000Y-150988000D01*
X40513000Y-148088750D01*
X40767000Y-148088750D01*
X40767000Y-150988000D01*
X43666250Y-150988000D01*
X43825000Y-150829250D01*
X43828072Y-148565000D01*
X43815812Y-148440518D01*
X43779502Y-148320820D01*
X43720537Y-148210506D01*
X43641185Y-148113815D01*
X43544494Y-148034463D01*
X43434180Y-147975498D01*
X43314482Y-147939188D01*
X43190000Y-147926928D01*
X40925750Y-147930000D01*
X40767000Y-148088750D01*
X40513000Y-148088750D01*
X40354250Y-147930000D01*
X38090000Y-147926928D01*
X37965518Y-147939188D01*
X37845820Y-147975498D01*
X37735506Y-148034463D01*
X37638815Y-148113815D01*
X37559463Y-148210506D01*
X37500498Y-148320820D01*
X37464188Y-148440518D01*
X37451928Y-148565000D01*
X37452637Y-149087379D01*
X37396359Y-148951512D01*
X37312967Y-148826707D01*
X37206830Y-148720570D01*
X37082025Y-148637178D01*
X36943350Y-148579737D01*
X36796133Y-148550454D01*
X36646033Y-148550454D01*
X36498816Y-148579737D01*
X36360141Y-148637178D01*
X36235336Y-148720570D01*
X36129199Y-148826707D01*
X36045807Y-148951512D01*
X35988366Y-149090187D01*
X35959083Y-149237404D01*
X31730632Y-149237404D01*
X31746000Y-149160148D01*
X31746000Y-149035852D01*
X31721751Y-148913944D01*
X31674185Y-148799109D01*
X31605130Y-148695761D01*
X31517239Y-148607870D01*
X31413891Y-148538815D01*
X31299056Y-148491249D01*
X31177148Y-148467000D01*
X31052852Y-148467000D01*
X30930944Y-148491249D01*
X30816109Y-148538815D01*
X30712761Y-148607870D01*
X30624870Y-148695761D01*
X30603000Y-148728492D01*
X30603000Y-148654852D01*
X30578751Y-148532944D01*
X30531185Y-148418109D01*
X30462130Y-148314761D01*
X30374239Y-148226870D01*
X30270891Y-148157815D01*
X30156056Y-148110249D01*
X30034148Y-148086000D01*
X29909852Y-148086000D01*
X29787944Y-148110249D01*
X29673109Y-148157815D01*
X29569761Y-148226870D01*
X29481870Y-148314761D01*
X29412815Y-148418109D01*
X29365249Y-148532944D01*
X29341000Y-148654852D01*
X29341000Y-148728363D01*
X28915406Y-149153957D01*
X28898682Y-149167682D01*
X28843929Y-149234400D01*
X28821595Y-149276185D01*
X28803244Y-149310517D01*
X28778190Y-149393108D01*
X28769730Y-149479000D01*
X28771850Y-149500524D01*
X28771850Y-149590523D01*
X28734759Y-149605887D01*
X28570433Y-149715686D01*
X28537467Y-149748652D01*
X28391178Y-149650905D01*
X28217834Y-149579104D01*
X28033813Y-149542500D01*
X27846187Y-149542500D01*
X27662166Y-149579104D01*
X27488822Y-149650905D01*
X27437431Y-149685243D01*
X27350667Y-149555391D01*
X27228609Y-149433333D01*
X27085084Y-149337433D01*
X26925607Y-149271376D01*
X26756308Y-149237700D01*
X26583692Y-149237700D01*
X26414393Y-149271376D01*
X26254916Y-149337433D01*
X26111391Y-149433333D01*
X25989333Y-149555391D01*
X25893433Y-149698916D01*
X25827376Y-149858393D01*
X25806000Y-149965856D01*
X25806000Y-146136118D01*
X30387168Y-146136118D01*
X30387168Y-146286218D01*
X30416451Y-146433435D01*
X30473892Y-146572110D01*
X30557284Y-146696915D01*
X30663421Y-146803052D01*
X30788226Y-146886444D01*
X30926901Y-146943885D01*
X31074118Y-146973168D01*
X31224218Y-146973168D01*
X31371435Y-146943885D01*
X31510110Y-146886444D01*
X31634915Y-146803052D01*
X31741052Y-146696915D01*
X31824444Y-146572110D01*
X31881885Y-146433435D01*
X31897297Y-146355950D01*
X60198000Y-146355950D01*
X60198000Y-146506050D01*
X60227283Y-146653267D01*
X60284724Y-146791942D01*
X60368116Y-146916747D01*
X60474253Y-147022884D01*
X60599058Y-147106276D01*
X60737733Y-147163717D01*
X60884950Y-147193000D01*
X61035050Y-147193000D01*
X61182267Y-147163717D01*
X61320942Y-147106276D01*
X61445747Y-147022884D01*
X61551884Y-146916747D01*
X61635276Y-146791942D01*
X61692717Y-146653267D01*
X61722000Y-146506050D01*
X61722000Y-146355950D01*
X61692717Y-146208733D01*
X61635276Y-146070058D01*
X61551884Y-145945253D01*
X61445747Y-145839116D01*
X61320942Y-145755724D01*
X61182267Y-145698283D01*
X61035050Y-145669000D01*
X60884950Y-145669000D01*
X60737733Y-145698283D01*
X60599058Y-145755724D01*
X60474253Y-145839116D01*
X60368116Y-145945253D01*
X60284724Y-146070058D01*
X60227283Y-146208733D01*
X60198000Y-146355950D01*
X31897297Y-146355950D01*
X31911168Y-146286218D01*
X31911168Y-146136118D01*
X31881885Y-145988901D01*
X31824444Y-145850226D01*
X31741052Y-145725421D01*
X31634915Y-145619284D01*
X31510110Y-145535892D01*
X31371435Y-145478451D01*
X31224218Y-145449168D01*
X31074118Y-145449168D01*
X30926901Y-145478451D01*
X30788226Y-145535892D01*
X30663421Y-145619284D01*
X30557284Y-145725421D01*
X30473892Y-145850226D01*
X30416451Y-145988901D01*
X30387168Y-146136118D01*
X25806000Y-146136118D01*
X25806000Y-144082852D01*
X34929000Y-144082852D01*
X34929000Y-144207148D01*
X34953249Y-144329056D01*
X35000815Y-144443891D01*
X35069870Y-144547239D01*
X35157761Y-144635130D01*
X35261109Y-144704185D01*
X35375944Y-144751751D01*
X35497852Y-144776000D01*
X35622148Y-144776000D01*
X35744056Y-144751751D01*
X35858891Y-144704185D01*
X35962239Y-144635130D01*
X36050130Y-144547239D01*
X36119185Y-144443891D01*
X36166751Y-144329056D01*
X36191000Y-144207148D01*
X36191000Y-144133637D01*
X37130785Y-143193852D01*
X37850000Y-143193852D01*
X37850000Y-143318148D01*
X37874249Y-143440056D01*
X37921815Y-143554891D01*
X37990870Y-143658239D01*
X38078761Y-143746130D01*
X38182109Y-143815185D01*
X38296944Y-143862751D01*
X38418852Y-143887000D01*
X38514330Y-143887000D01*
X38562515Y-143912755D01*
X38645106Y-143937809D01*
X38730999Y-143946269D01*
X38752523Y-143944149D01*
X40368477Y-143944149D01*
X40390001Y-143946269D01*
X40475893Y-143937809D01*
X40558485Y-143912755D01*
X40634602Y-143872070D01*
X40701319Y-143817317D01*
X40715044Y-143800593D01*
X41625637Y-142890000D01*
X57767157Y-142890000D01*
X57767157Y-143390000D01*
X57774513Y-143464689D01*
X57796299Y-143536508D01*
X57831678Y-143602696D01*
X57879289Y-143660711D01*
X57937304Y-143708322D01*
X58003492Y-143743701D01*
X58075311Y-143765487D01*
X58150000Y-143772843D01*
X59150000Y-143772843D01*
X59224689Y-143765487D01*
X59296508Y-143743701D01*
X59362696Y-143708322D01*
X59420711Y-143660711D01*
X59468322Y-143602696D01*
X59503701Y-143536508D01*
X59525487Y-143464689D01*
X59532843Y-143390000D01*
X59532843Y-142890000D01*
X59525487Y-142815311D01*
X59503701Y-142743492D01*
X59468322Y-142677304D01*
X59420711Y-142619289D01*
X59362696Y-142571678D01*
X59296508Y-142536299D01*
X59224689Y-142514513D01*
X59150000Y-142507157D01*
X58150000Y-142507157D01*
X58075311Y-142514513D01*
X58003492Y-142536299D01*
X57937304Y-142571678D01*
X57879289Y-142619289D01*
X57831678Y-142677304D01*
X57796299Y-142743492D01*
X57774513Y-142815311D01*
X57767157Y-142890000D01*
X41625637Y-142890000D01*
X46594576Y-137921061D01*
X54282773Y-137921061D01*
X54304297Y-137923181D01*
X54390189Y-137914721D01*
X54416901Y-137906618D01*
X54472781Y-137889667D01*
X54548898Y-137848982D01*
X54615615Y-137794229D01*
X54629340Y-137777505D01*
X55328696Y-137078150D01*
X56267157Y-137078150D01*
X56267157Y-137193965D01*
X56261216Y-137194550D01*
X56165458Y-137223598D01*
X56077206Y-137270770D01*
X55999853Y-137334251D01*
X55983946Y-137353634D01*
X55542580Y-137795000D01*
X55423950Y-137795000D01*
X55276733Y-137824283D01*
X55138058Y-137881724D01*
X55013253Y-137965116D01*
X54907116Y-138071253D01*
X54823724Y-138196058D01*
X54766283Y-138334733D01*
X54737000Y-138481950D01*
X54737000Y-138632050D01*
X54766283Y-138779267D01*
X54823724Y-138917942D01*
X54907116Y-139042747D01*
X55013253Y-139148884D01*
X55138058Y-139232276D01*
X55276733Y-139289717D01*
X55423950Y-139319000D01*
X55574050Y-139319000D01*
X55721267Y-139289717D01*
X55859942Y-139232276D01*
X55984747Y-139148884D01*
X56090884Y-139042747D01*
X56174276Y-138917942D01*
X56231717Y-138779267D01*
X56235230Y-138761604D01*
X56267881Y-138787356D01*
X56274513Y-138854689D01*
X56285224Y-138890000D01*
X56274513Y-138925311D01*
X56267157Y-139000000D01*
X56267157Y-139280000D01*
X56274513Y-139354689D01*
X56285224Y-139390000D01*
X56274513Y-139425311D01*
X56267157Y-139500000D01*
X56267157Y-139769850D01*
X55318219Y-139769850D01*
X55266239Y-139717870D01*
X55162891Y-139648815D01*
X55048056Y-139601249D01*
X54926148Y-139577000D01*
X54801852Y-139577000D01*
X54679944Y-139601249D01*
X54565109Y-139648815D01*
X54461761Y-139717870D01*
X54373870Y-139805761D01*
X54304815Y-139909109D01*
X54257249Y-140023944D01*
X54233000Y-140145852D01*
X54233000Y-140270148D01*
X54257249Y-140392056D01*
X54304815Y-140506891D01*
X54373870Y-140610239D01*
X54461761Y-140698130D01*
X54565109Y-140767185D01*
X54679944Y-140814751D01*
X54801852Y-140839000D01*
X54926148Y-140839000D01*
X55048056Y-140814751D01*
X55162891Y-140767185D01*
X55266239Y-140698130D01*
X55318219Y-140646150D01*
X56267157Y-140646150D01*
X56267157Y-140780000D01*
X56268394Y-140792562D01*
X56224382Y-140828682D01*
X56210657Y-140845406D01*
X55585406Y-141470657D01*
X55568682Y-141484382D01*
X55513929Y-141551100D01*
X55488689Y-141598322D01*
X55473244Y-141627217D01*
X55448190Y-141709808D01*
X55440582Y-141787049D01*
X55389870Y-141837761D01*
X55320815Y-141941109D01*
X55273249Y-142055944D01*
X55249000Y-142177852D01*
X55249000Y-142302148D01*
X55273249Y-142424056D01*
X55320815Y-142538891D01*
X55389870Y-142642239D01*
X55477761Y-142730130D01*
X55581109Y-142799185D01*
X55695944Y-142846751D01*
X55817852Y-142871000D01*
X55942148Y-142871000D01*
X56064056Y-142846751D01*
X56178891Y-142799185D01*
X56282239Y-142730130D01*
X56370130Y-142642239D01*
X56439185Y-142538891D01*
X56486751Y-142424056D01*
X56511000Y-142302148D01*
X56511000Y-142177852D01*
X56502066Y-142132939D01*
X56503492Y-142133701D01*
X56575311Y-142155487D01*
X56650000Y-142162843D01*
X57152919Y-142162843D01*
X57156107Y-142163810D01*
X57242000Y-142172270D01*
X57263524Y-142170150D01*
X58981781Y-142170150D01*
X59033761Y-142222130D01*
X59137109Y-142291185D01*
X59251944Y-142338751D01*
X59373852Y-142363000D01*
X59498148Y-142363000D01*
X59620056Y-142338751D01*
X59734891Y-142291185D01*
X59838239Y-142222130D01*
X59926130Y-142134239D01*
X59995185Y-142030891D01*
X60042751Y-141916056D01*
X60067000Y-141794148D01*
X60067000Y-141669852D01*
X60042751Y-141547944D01*
X59995185Y-141433109D01*
X59926130Y-141329761D01*
X59838239Y-141241870D01*
X59812758Y-141224844D01*
X59868185Y-141141891D01*
X59915751Y-141027056D01*
X59940000Y-140905148D01*
X59940000Y-140780852D01*
X59915751Y-140658944D01*
X59868185Y-140544109D01*
X59799130Y-140440761D01*
X59711239Y-140352870D01*
X59607891Y-140283815D01*
X59493056Y-140236249D01*
X59371148Y-140212000D01*
X59289637Y-140212000D01*
X59297637Y-140204000D01*
X59371148Y-140204000D01*
X59493056Y-140179751D01*
X59607891Y-140132185D01*
X59711239Y-140063130D01*
X59799130Y-139975239D01*
X59868185Y-139871891D01*
X59915751Y-139757056D01*
X59940000Y-139635148D01*
X59940000Y-139510852D01*
X59915751Y-139388944D01*
X59868185Y-139274109D01*
X59799130Y-139170761D01*
X59711239Y-139082870D01*
X59607891Y-139013815D01*
X59493056Y-138966249D01*
X59409090Y-138949547D01*
X59805637Y-138553000D01*
X59879148Y-138553000D01*
X60001056Y-138528751D01*
X60115891Y-138481185D01*
X60219239Y-138412130D01*
X60307130Y-138324239D01*
X60376185Y-138220891D01*
X60423751Y-138106056D01*
X60448000Y-137984148D01*
X60448000Y-137859852D01*
X60423751Y-137737944D01*
X60376185Y-137623109D01*
X60307130Y-137519761D01*
X60219239Y-137431870D01*
X60115891Y-137362815D01*
X60001056Y-137315249D01*
X59879148Y-137291000D01*
X59754852Y-137291000D01*
X59747150Y-137292532D01*
X59747150Y-136459861D01*
X59799130Y-136407881D01*
X59868185Y-136304533D01*
X59915751Y-136189698D01*
X59940000Y-136067790D01*
X59940000Y-135943494D01*
X59915751Y-135821586D01*
X59868185Y-135706751D01*
X59799130Y-135603403D01*
X59711239Y-135515512D01*
X59607891Y-135446457D01*
X59493056Y-135398891D01*
X59381014Y-135376605D01*
X59407751Y-135312056D01*
X59432000Y-135190148D01*
X59432000Y-135065852D01*
X59407751Y-134943944D01*
X59360185Y-134829109D01*
X59291130Y-134725761D01*
X59203239Y-134637870D01*
X59099891Y-134568815D01*
X58985056Y-134521249D01*
X58863148Y-134497000D01*
X58738852Y-134497000D01*
X58616944Y-134521249D01*
X58502109Y-134568815D01*
X58398761Y-134637870D01*
X58310870Y-134725761D01*
X58241815Y-134829109D01*
X58194249Y-134943944D01*
X58170000Y-135065852D01*
X58170000Y-135190148D01*
X58194249Y-135312056D01*
X58241815Y-135426891D01*
X58310870Y-135530239D01*
X58362850Y-135582219D01*
X58362851Y-137490401D01*
X58189498Y-137663755D01*
X58173555Y-137635272D01*
X58092340Y-137540140D01*
X58032119Y-137492644D01*
X58025487Y-137425311D01*
X58014776Y-137390000D01*
X58025487Y-137354689D01*
X58032843Y-137280000D01*
X58032843Y-137000000D01*
X58025487Y-136925311D01*
X58014776Y-136890000D01*
X58025487Y-136854689D01*
X58032843Y-136780000D01*
X58032843Y-136500000D01*
X58025487Y-136425311D01*
X58014776Y-136390000D01*
X58025487Y-136354689D01*
X58032843Y-136280000D01*
X58032843Y-136000000D01*
X58025487Y-135925311D01*
X58014776Y-135890000D01*
X58025487Y-135854689D01*
X58032843Y-135780000D01*
X58032843Y-135500000D01*
X58025487Y-135425311D01*
X58014776Y-135390000D01*
X58025487Y-135354689D01*
X58032843Y-135280000D01*
X58032843Y-135000000D01*
X58025487Y-134925311D01*
X58014776Y-134890000D01*
X58025487Y-134854689D01*
X58032843Y-134780000D01*
X58032843Y-134500000D01*
X58025487Y-134425311D01*
X58014776Y-134390000D01*
X58025487Y-134354689D01*
X58032119Y-134287356D01*
X58092340Y-134239860D01*
X58173555Y-134144728D01*
X58234650Y-134035579D01*
X58273277Y-133916609D01*
X58285000Y-133811750D01*
X58126250Y-133653000D01*
X57809044Y-133653000D01*
X57796508Y-133646299D01*
X57775743Y-133640000D01*
X57796508Y-133633701D01*
X57809044Y-133627000D01*
X58126250Y-133627000D01*
X58285000Y-133468250D01*
X58273277Y-133363391D01*
X58234650Y-133244421D01*
X58173555Y-133135272D01*
X58092340Y-133040140D01*
X58032119Y-132992644D01*
X58025487Y-132925311D01*
X58014776Y-132890000D01*
X58025487Y-132854689D01*
X58032843Y-132780000D01*
X58032843Y-132578150D01*
X58465476Y-132578150D01*
X58487000Y-132580270D01*
X58572892Y-132571810D01*
X58655484Y-132546756D01*
X58731601Y-132506071D01*
X58798318Y-132451318D01*
X58812043Y-132434594D01*
X59551637Y-131695000D01*
X59625148Y-131695000D01*
X59747056Y-131670751D01*
X59861891Y-131623185D01*
X59965239Y-131554130D01*
X60053130Y-131466239D01*
X60122185Y-131362891D01*
X60169751Y-131248056D01*
X60194000Y-131126148D01*
X60194000Y-131001852D01*
X60169751Y-130879944D01*
X60122185Y-130765109D01*
X60053130Y-130661761D01*
X59965239Y-130573870D01*
X59897990Y-130528935D01*
X59915751Y-130486056D01*
X59940000Y-130364148D01*
X59940000Y-130239852D01*
X59915751Y-130117944D01*
X59868185Y-130003109D01*
X59799130Y-129899761D01*
X59711239Y-129811870D01*
X59607891Y-129742815D01*
X59493056Y-129695249D01*
X59371148Y-129671000D01*
X59246852Y-129671000D01*
X59124944Y-129695249D01*
X59010109Y-129742815D01*
X58906761Y-129811870D01*
X58818870Y-129899761D01*
X58749815Y-130003109D01*
X58702249Y-130117944D01*
X58678000Y-130239852D01*
X58678000Y-130313363D01*
X58029124Y-130962239D01*
X58025487Y-130925311D01*
X58014776Y-130890000D01*
X58025487Y-130854689D01*
X58032843Y-130780000D01*
X58032843Y-130500000D01*
X58025487Y-130425311D01*
X58014776Y-130390000D01*
X58025487Y-130354689D01*
X58032843Y-130280000D01*
X58032843Y-130000000D01*
X58025487Y-129925311D01*
X58003701Y-129853492D01*
X57968322Y-129787304D01*
X57920711Y-129729289D01*
X57862696Y-129681678D01*
X57796508Y-129646299D01*
X57724689Y-129624513D01*
X57650000Y-129617157D01*
X56650000Y-129617157D01*
X56575311Y-129624513D01*
X56503492Y-129646299D01*
X56437304Y-129681678D01*
X56379289Y-129729289D01*
X56331678Y-129787304D01*
X56296299Y-129853492D01*
X56274513Y-129925311D01*
X56267157Y-130000000D01*
X56267157Y-130201850D01*
X55470872Y-130201850D01*
X55470751Y-130201244D01*
X55423185Y-130086409D01*
X55354130Y-129983061D01*
X55266239Y-129895170D01*
X55162891Y-129826115D01*
X55048056Y-129778549D01*
X54926148Y-129754300D01*
X54801852Y-129754300D01*
X54679944Y-129778549D01*
X54565109Y-129826115D01*
X54461761Y-129895170D01*
X54373870Y-129983061D01*
X54304815Y-130086409D01*
X54257249Y-130201244D01*
X54233000Y-130323152D01*
X54233000Y-130447448D01*
X54257249Y-130569356D01*
X54304815Y-130684191D01*
X54373870Y-130787539D01*
X54461761Y-130875430D01*
X54565109Y-130944485D01*
X54679944Y-130992051D01*
X54801852Y-131016300D01*
X54893236Y-131016300D01*
X54950216Y-131046756D01*
X55007062Y-131064000D01*
X55032807Y-131071810D01*
X55118699Y-131080270D01*
X55140223Y-131078150D01*
X55246213Y-131078150D01*
X55129363Y-131195000D01*
X55055852Y-131195000D01*
X54933944Y-131219249D01*
X54819109Y-131266815D01*
X54715761Y-131335870D01*
X54627870Y-131423761D01*
X54558815Y-131527109D01*
X54511249Y-131641944D01*
X54487000Y-131763852D01*
X54487000Y-131888148D01*
X54511249Y-132010056D01*
X54558815Y-132124891D01*
X54627870Y-132228239D01*
X54715761Y-132316130D01*
X54819109Y-132385185D01*
X54933944Y-132432751D01*
X55055852Y-132457000D01*
X55180148Y-132457000D01*
X55302056Y-132432751D01*
X55416891Y-132385185D01*
X55520239Y-132316130D01*
X55608130Y-132228239D01*
X55677185Y-132124891D01*
X55724751Y-132010056D01*
X55749000Y-131888148D01*
X55749000Y-131814637D01*
X55985487Y-131578150D01*
X56267157Y-131578150D01*
X56267157Y-131780000D01*
X56274513Y-131854689D01*
X56285224Y-131890000D01*
X56274513Y-131925311D01*
X56267157Y-132000000D01*
X56267157Y-132280000D01*
X56274513Y-132354689D01*
X56285224Y-132390000D01*
X56274513Y-132425311D01*
X56267157Y-132500000D01*
X56267157Y-132780000D01*
X56274513Y-132854689D01*
X56285224Y-132890000D01*
X56274513Y-132925311D01*
X56267881Y-132992644D01*
X56207660Y-133040140D01*
X56126445Y-133135272D01*
X56065350Y-133244421D01*
X56026723Y-133363391D01*
X56015000Y-133468250D01*
X56173750Y-133627000D01*
X56490956Y-133627000D01*
X56503492Y-133633701D01*
X56524257Y-133640000D01*
X56503492Y-133646299D01*
X56490956Y-133653000D01*
X56173750Y-133653000D01*
X56124900Y-133701850D01*
X47745524Y-133701850D01*
X47724000Y-133699730D01*
X47702476Y-133701850D01*
X47638108Y-133708190D01*
X47555516Y-133733244D01*
X47479399Y-133773929D01*
X47412682Y-133828682D01*
X47398957Y-133845406D01*
X47255363Y-133989000D01*
X47181852Y-133989000D01*
X47059944Y-134013249D01*
X46945109Y-134060815D01*
X46841761Y-134129870D01*
X46753870Y-134217761D01*
X46684815Y-134321109D01*
X46637249Y-134435944D01*
X46613000Y-134557852D01*
X46613000Y-134682148D01*
X46637249Y-134804056D01*
X46684815Y-134918891D01*
X46753870Y-135022239D01*
X46841761Y-135110130D01*
X46945109Y-135179185D01*
X47059944Y-135226751D01*
X47181852Y-135251000D01*
X47306148Y-135251000D01*
X47428056Y-135226751D01*
X47542891Y-135179185D01*
X47646239Y-135110130D01*
X47734130Y-135022239D01*
X47803185Y-134918891D01*
X47850751Y-134804056D01*
X47875000Y-134682148D01*
X47875000Y-134608637D01*
X47905487Y-134578150D01*
X54678138Y-134578150D01*
X54588761Y-134637870D01*
X54500870Y-134725761D01*
X54431815Y-134829109D01*
X54384249Y-134943944D01*
X54360000Y-135065852D01*
X54360000Y-135190148D01*
X54375490Y-135268023D01*
X54298944Y-135283249D01*
X54184109Y-135330815D01*
X54080761Y-135399870D01*
X53992870Y-135487761D01*
X53923815Y-135591109D01*
X53876249Y-135705944D01*
X53852000Y-135827852D01*
X53852000Y-135952148D01*
X53876249Y-136074056D01*
X53923815Y-136188891D01*
X53992870Y-136292239D01*
X54080761Y-136380130D01*
X54085195Y-136383093D01*
X54072903Y-136395385D01*
X53999392Y-136395385D01*
X53877484Y-136419634D01*
X53762649Y-136467200D01*
X53659301Y-136536255D01*
X53571410Y-136624146D01*
X53502355Y-136727494D01*
X53454789Y-136842329D01*
X53430540Y-136964237D01*
X53430540Y-137044761D01*
X46434613Y-137044761D01*
X46413089Y-137042641D01*
X46327196Y-137051101D01*
X46244605Y-137076155D01*
X46168488Y-137116840D01*
X46101771Y-137171593D01*
X46088046Y-137188317D01*
X40208514Y-143067849D01*
X39086055Y-143067849D01*
X39040185Y-142957109D01*
X38971130Y-142853761D01*
X38883239Y-142765870D01*
X38779891Y-142696815D01*
X38665056Y-142649249D01*
X38543148Y-142625000D01*
X38418852Y-142625000D01*
X38296944Y-142649249D01*
X38182109Y-142696815D01*
X38078761Y-142765870D01*
X37990870Y-142853761D01*
X37921815Y-142957109D01*
X37874249Y-143071944D01*
X37850000Y-143193852D01*
X37130785Y-143193852D01*
X40258946Y-140065691D01*
X40841352Y-140065691D01*
X40862876Y-140067811D01*
X40948768Y-140059351D01*
X40990288Y-140046756D01*
X41031360Y-140034297D01*
X41079545Y-140008542D01*
X41175023Y-140008542D01*
X41296931Y-139984293D01*
X41411766Y-139936727D01*
X41515114Y-139867672D01*
X41603005Y-139779781D01*
X41672060Y-139676433D01*
X41719626Y-139561598D01*
X41743875Y-139439690D01*
X41743875Y-139418187D01*
X41751267Y-139416717D01*
X41889942Y-139359276D01*
X42014747Y-139275884D01*
X42120884Y-139169747D01*
X42204276Y-139044942D01*
X42261717Y-138906267D01*
X42288256Y-138772843D01*
X43140000Y-138772843D01*
X43214689Y-138765487D01*
X43286508Y-138743701D01*
X43352696Y-138708322D01*
X43410711Y-138660711D01*
X43458322Y-138602696D01*
X43493701Y-138536508D01*
X43515487Y-138464689D01*
X43522843Y-138390000D01*
X43522843Y-136272378D01*
X43581058Y-136311276D01*
X43719733Y-136368717D01*
X43866950Y-136398000D01*
X44017050Y-136398000D01*
X44164267Y-136368717D01*
X44302942Y-136311276D01*
X44427747Y-136227884D01*
X44533884Y-136121747D01*
X44617276Y-135996942D01*
X44674717Y-135858267D01*
X44704000Y-135711050D01*
X44704000Y-135560950D01*
X44674717Y-135413733D01*
X44617276Y-135275058D01*
X44533884Y-135150253D01*
X44427747Y-135044116D01*
X44302942Y-134960724D01*
X44164267Y-134903283D01*
X44017050Y-134874000D01*
X43866950Y-134874000D01*
X43719733Y-134903283D01*
X43581058Y-134960724D01*
X43522843Y-134999622D01*
X43522843Y-133390000D01*
X43515487Y-133315311D01*
X43493701Y-133243492D01*
X43458322Y-133177304D01*
X43410711Y-133119289D01*
X43352696Y-133071678D01*
X43286508Y-133036299D01*
X43214689Y-133014513D01*
X43140000Y-133007157D01*
X38140000Y-133007157D01*
X38065311Y-133014513D01*
X37993492Y-133036299D01*
X37927304Y-133071678D01*
X37869289Y-133119289D01*
X37821678Y-133177304D01*
X37786299Y-133243492D01*
X37764513Y-133315311D01*
X37757157Y-133390000D01*
X37757157Y-135042737D01*
X37084000Y-134369580D01*
X37084000Y-134173631D01*
X37167884Y-134089747D01*
X37251276Y-133964942D01*
X37308717Y-133826267D01*
X37338000Y-133679050D01*
X37338000Y-133528950D01*
X37308717Y-133381733D01*
X37251276Y-133243058D01*
X37167884Y-133118253D01*
X37061747Y-133012116D01*
X36936942Y-132928724D01*
X36798267Y-132871283D01*
X36651050Y-132842000D01*
X36500950Y-132842000D01*
X36353733Y-132871283D01*
X36215058Y-132928724D01*
X36090253Y-133012116D01*
X35984116Y-133118253D01*
X35900724Y-133243058D01*
X35843283Y-133381733D01*
X35814000Y-133528950D01*
X35814000Y-133679050D01*
X35843283Y-133826267D01*
X35900724Y-133964942D01*
X35984116Y-134089747D01*
X36068000Y-134173631D01*
X36068000Y-134555055D01*
X36065543Y-134580000D01*
X36068000Y-134604944D01*
X36068000Y-134604946D01*
X36075351Y-134679584D01*
X36104399Y-134775342D01*
X36151571Y-134863595D01*
X36215052Y-134940948D01*
X36234435Y-134956855D01*
X37509145Y-136231565D01*
X37525052Y-136250948D01*
X37602405Y-136314429D01*
X37690657Y-136361601D01*
X37757157Y-136381774D01*
X37757157Y-138390000D01*
X37764513Y-138464689D01*
X37786299Y-138536508D01*
X37821678Y-138602696D01*
X37869289Y-138660711D01*
X37927304Y-138708322D01*
X37993492Y-138743701D01*
X38065311Y-138765487D01*
X38140000Y-138772843D01*
X40769744Y-138772843D01*
X40782925Y-138839110D01*
X40710636Y-138887412D01*
X40622745Y-138975303D01*
X40553690Y-139078651D01*
X40507820Y-139189391D01*
X40098983Y-139189391D01*
X40077459Y-139187271D01*
X39991566Y-139195731D01*
X39950495Y-139208190D01*
X39908975Y-139220785D01*
X39832858Y-139261470D01*
X39766141Y-139316223D01*
X39752416Y-139332947D01*
X35571363Y-143514000D01*
X35497852Y-143514000D01*
X35375944Y-143538249D01*
X35261109Y-143585815D01*
X35157761Y-143654870D01*
X35069870Y-143742761D01*
X35000815Y-143846109D01*
X34953249Y-143960944D01*
X34929000Y-144082852D01*
X25806000Y-144082852D01*
X25806000Y-142037950D01*
X30353000Y-142037950D01*
X30353000Y-142188050D01*
X30382283Y-142335267D01*
X30439724Y-142473942D01*
X30523116Y-142598747D01*
X30629253Y-142704884D01*
X30754058Y-142788276D01*
X30892733Y-142845717D01*
X31039950Y-142875000D01*
X31190050Y-142875000D01*
X31337267Y-142845717D01*
X31475942Y-142788276D01*
X31600747Y-142704884D01*
X31706884Y-142598747D01*
X31790276Y-142473942D01*
X31847717Y-142335267D01*
X31877000Y-142188050D01*
X31877000Y-142037950D01*
X31847717Y-141890733D01*
X31790276Y-141752058D01*
X31706884Y-141627253D01*
X31600747Y-141521116D01*
X31475942Y-141437724D01*
X31337267Y-141380283D01*
X31190050Y-141351000D01*
X31039950Y-141351000D01*
X30892733Y-141380283D01*
X30754058Y-141437724D01*
X30629253Y-141521116D01*
X30523116Y-141627253D01*
X30439724Y-141752058D01*
X30382283Y-141890733D01*
X30353000Y-142037950D01*
X25806000Y-142037950D01*
X25806000Y-139878950D01*
X35306000Y-139878950D01*
X35306000Y-140029050D01*
X35335283Y-140176267D01*
X35392724Y-140314942D01*
X35476116Y-140439747D01*
X35582253Y-140545884D01*
X35707058Y-140629276D01*
X35845733Y-140686717D01*
X35992950Y-140716000D01*
X36143050Y-140716000D01*
X36290267Y-140686717D01*
X36428942Y-140629276D01*
X36553747Y-140545884D01*
X36659884Y-140439747D01*
X36743276Y-140314942D01*
X36800717Y-140176267D01*
X36830000Y-140029050D01*
X36830000Y-139878950D01*
X36800717Y-139731733D01*
X36743276Y-139593058D01*
X36659884Y-139468253D01*
X36553747Y-139362116D01*
X36428942Y-139278724D01*
X36290267Y-139221283D01*
X36143050Y-139192000D01*
X35992950Y-139192000D01*
X35845733Y-139221283D01*
X35707058Y-139278724D01*
X35582253Y-139362116D01*
X35476116Y-139468253D01*
X35392724Y-139593058D01*
X35335283Y-139731733D01*
X35306000Y-139878950D01*
X25806000Y-139878950D01*
X25806000Y-138621852D01*
X30103000Y-138621852D01*
X30103000Y-138746148D01*
X30127249Y-138868056D01*
X30174815Y-138982891D01*
X30243870Y-139086239D01*
X30331761Y-139174130D01*
X30435109Y-139243185D01*
X30549944Y-139290751D01*
X30671852Y-139315000D01*
X30796148Y-139315000D01*
X30918056Y-139290751D01*
X31032891Y-139243185D01*
X31136239Y-139174130D01*
X31188219Y-139122150D01*
X32057781Y-139122150D01*
X32109761Y-139174130D01*
X32213109Y-139243185D01*
X32327944Y-139290751D01*
X32449852Y-139315000D01*
X32574148Y-139315000D01*
X32696056Y-139290751D01*
X32810891Y-139243185D01*
X32914239Y-139174130D01*
X33002130Y-139086239D01*
X33071185Y-138982891D01*
X33118751Y-138868056D01*
X33143000Y-138746148D01*
X33143000Y-138621852D01*
X33118751Y-138499944D01*
X33071185Y-138385109D01*
X33002130Y-138281761D01*
X32914239Y-138193870D01*
X32810891Y-138124815D01*
X32696056Y-138077249D01*
X32574148Y-138053000D01*
X32449852Y-138053000D01*
X32327944Y-138077249D01*
X32213109Y-138124815D01*
X32109761Y-138193870D01*
X32057781Y-138245850D01*
X31188219Y-138245850D01*
X31136239Y-138193870D01*
X31032891Y-138124815D01*
X30918056Y-138077249D01*
X30796148Y-138053000D01*
X30671852Y-138053000D01*
X30549944Y-138077249D01*
X30435109Y-138124815D01*
X30331761Y-138193870D01*
X30243870Y-138281761D01*
X30174815Y-138385109D01*
X30127249Y-138499944D01*
X30103000Y-138621852D01*
X25806000Y-138621852D01*
X25806000Y-135192852D01*
X32770000Y-135192852D01*
X32770000Y-135317148D01*
X32794249Y-135439056D01*
X32841815Y-135553891D01*
X32910870Y-135657239D01*
X32998761Y-135745130D01*
X33102109Y-135814185D01*
X33216944Y-135861751D01*
X33338852Y-135886000D01*
X33463148Y-135886000D01*
X33585056Y-135861751D01*
X33699891Y-135814185D01*
X33803239Y-135745130D01*
X33891130Y-135657239D01*
X33960185Y-135553891D01*
X34007751Y-135439056D01*
X34032000Y-135317148D01*
X34032000Y-135192852D01*
X34007751Y-135070944D01*
X33960185Y-134956109D01*
X33891130Y-134852761D01*
X33803239Y-134764870D01*
X33699891Y-134695815D01*
X33585056Y-134648249D01*
X33463148Y-134624000D01*
X33338852Y-134624000D01*
X33216944Y-134648249D01*
X33102109Y-134695815D01*
X32998761Y-134764870D01*
X32910870Y-134852761D01*
X32841815Y-134956109D01*
X32794249Y-135070944D01*
X32770000Y-135192852D01*
X25806000Y-135192852D01*
X25806000Y-127813950D01*
X34163000Y-127813950D01*
X34163000Y-127964050D01*
X34192283Y-128111267D01*
X34249724Y-128249942D01*
X34333116Y-128374747D01*
X34439253Y-128480884D01*
X34564058Y-128564276D01*
X34702733Y-128621717D01*
X34849950Y-128651000D01*
X35000050Y-128651000D01*
X35147267Y-128621717D01*
X35285942Y-128564276D01*
X35410747Y-128480884D01*
X35442681Y-128448950D01*
X47498000Y-128448950D01*
X47498000Y-128599050D01*
X47527283Y-128746267D01*
X47584724Y-128884942D01*
X47668116Y-129009747D01*
X47774253Y-129115884D01*
X47899058Y-129199276D01*
X48037733Y-129256717D01*
X48184950Y-129286000D01*
X48335050Y-129286000D01*
X48482267Y-129256717D01*
X48620942Y-129199276D01*
X48745747Y-129115884D01*
X48851884Y-129009747D01*
X48935276Y-128884942D01*
X48992717Y-128746267D01*
X49022000Y-128599050D01*
X49022000Y-128448950D01*
X49010275Y-128390000D01*
X57767157Y-128390000D01*
X57767157Y-128890000D01*
X57774513Y-128964689D01*
X57796299Y-129036508D01*
X57831678Y-129102696D01*
X57879289Y-129160711D01*
X57937304Y-129208322D01*
X58003492Y-129243701D01*
X58075311Y-129265487D01*
X58150000Y-129272843D01*
X59150000Y-129272843D01*
X59224689Y-129265487D01*
X59296508Y-129243701D01*
X59362696Y-129208322D01*
X59420711Y-129160711D01*
X59468322Y-129102696D01*
X59503701Y-129036508D01*
X59525487Y-128964689D01*
X59532843Y-128890000D01*
X59532843Y-128390000D01*
X59525487Y-128315311D01*
X59503701Y-128243492D01*
X59468322Y-128177304D01*
X59420711Y-128119289D01*
X59362696Y-128071678D01*
X59296508Y-128036299D01*
X59224689Y-128014513D01*
X59150000Y-128007157D01*
X58150000Y-128007157D01*
X58075311Y-128014513D01*
X58003492Y-128036299D01*
X57937304Y-128071678D01*
X57879289Y-128119289D01*
X57831678Y-128177304D01*
X57796299Y-128243492D01*
X57774513Y-128315311D01*
X57767157Y-128390000D01*
X49010275Y-128390000D01*
X48992717Y-128301733D01*
X48935276Y-128163058D01*
X48851884Y-128038253D01*
X48745747Y-127932116D01*
X48620942Y-127848724D01*
X48482267Y-127791283D01*
X48335050Y-127762000D01*
X48184950Y-127762000D01*
X48037733Y-127791283D01*
X47899058Y-127848724D01*
X47774253Y-127932116D01*
X47668116Y-128038253D01*
X47584724Y-128163058D01*
X47527283Y-128301733D01*
X47498000Y-128448950D01*
X35442681Y-128448950D01*
X35516884Y-128374747D01*
X35600276Y-128249942D01*
X35657717Y-128111267D01*
X35687000Y-127964050D01*
X35687000Y-127813950D01*
X35657717Y-127666733D01*
X35600276Y-127528058D01*
X35516884Y-127403253D01*
X35410747Y-127297116D01*
X35285942Y-127213724D01*
X35147267Y-127156283D01*
X35000050Y-127127000D01*
X34849950Y-127127000D01*
X34702733Y-127156283D01*
X34564058Y-127213724D01*
X34439253Y-127297116D01*
X34333116Y-127403253D01*
X34249724Y-127528058D01*
X34192283Y-127666733D01*
X34163000Y-127813950D01*
X25806000Y-127813950D01*
X25806000Y-126162950D01*
X26797000Y-126162950D01*
X26797000Y-126313050D01*
X26826283Y-126460267D01*
X26883724Y-126598942D01*
X26967116Y-126723747D01*
X27073253Y-126829884D01*
X27198058Y-126913276D01*
X27336733Y-126970717D01*
X27483950Y-127000000D01*
X27634050Y-127000000D01*
X27781267Y-126970717D01*
X27919942Y-126913276D01*
X28044747Y-126829884D01*
X28150884Y-126723747D01*
X28234276Y-126598942D01*
X28291717Y-126460267D01*
X28321000Y-126313050D01*
X28321000Y-126162950D01*
X28291717Y-126015733D01*
X28234276Y-125877058D01*
X28150884Y-125752253D01*
X28044747Y-125646116D01*
X27919942Y-125562724D01*
X27781267Y-125505283D01*
X27634050Y-125476000D01*
X27483950Y-125476000D01*
X27336733Y-125505283D01*
X27198058Y-125562724D01*
X27073253Y-125646116D01*
X26967116Y-125752253D01*
X26883724Y-125877058D01*
X26826283Y-126015733D01*
X26797000Y-126162950D01*
X25806000Y-126162950D01*
X25806000Y-122352950D01*
X27940000Y-122352950D01*
X27940000Y-122503050D01*
X27969283Y-122650267D01*
X28026724Y-122788942D01*
X28110116Y-122913747D01*
X28216253Y-123019884D01*
X28341058Y-123103276D01*
X28479733Y-123160717D01*
X28626950Y-123190000D01*
X28777050Y-123190000D01*
X28924267Y-123160717D01*
X29034758Y-123114950D01*
X34417000Y-123114950D01*
X34417000Y-123265050D01*
X34446283Y-123412267D01*
X34503724Y-123550942D01*
X34587116Y-123675747D01*
X34693253Y-123781884D01*
X34818058Y-123865276D01*
X34956733Y-123922717D01*
X35103950Y-123952000D01*
X35254050Y-123952000D01*
X35401267Y-123922717D01*
X35539942Y-123865276D01*
X35664747Y-123781884D01*
X35770884Y-123675747D01*
X35854276Y-123550942D01*
X35911717Y-123412267D01*
X35941000Y-123265050D01*
X35941000Y-123215000D01*
X37451928Y-123215000D01*
X37464188Y-123339482D01*
X37500498Y-123459180D01*
X37559463Y-123569494D01*
X37638815Y-123666185D01*
X37735506Y-123745537D01*
X37845820Y-123804502D01*
X37965518Y-123840812D01*
X38090000Y-123853072D01*
X40354250Y-123850000D01*
X40505498Y-123698752D01*
X40640000Y-123698752D01*
X40640000Y-123848852D01*
X40669283Y-123996069D01*
X40726724Y-124134744D01*
X40810116Y-124259549D01*
X40916253Y-124365686D01*
X41041058Y-124449078D01*
X41179733Y-124506519D01*
X41326950Y-124535802D01*
X41477050Y-124535802D01*
X41624267Y-124506519D01*
X41762942Y-124449078D01*
X41858916Y-124384950D01*
X45339000Y-124384950D01*
X45339000Y-124535050D01*
X45368283Y-124682267D01*
X45425724Y-124820942D01*
X45509116Y-124945747D01*
X45615253Y-125051884D01*
X45740058Y-125135276D01*
X45878733Y-125192717D01*
X46025950Y-125222000D01*
X46176050Y-125222000D01*
X46323267Y-125192717D01*
X46461942Y-125135276D01*
X46586747Y-125051884D01*
X46692884Y-124945747D01*
X46776276Y-124820942D01*
X46833717Y-124682267D01*
X46863000Y-124535050D01*
X46863000Y-124384950D01*
X46833717Y-124237733D01*
X46776276Y-124099058D01*
X46692884Y-123974253D01*
X46586747Y-123868116D01*
X46461942Y-123784724D01*
X46323267Y-123727283D01*
X46176050Y-123698000D01*
X46025950Y-123698000D01*
X45878733Y-123727283D01*
X45740058Y-123784724D01*
X45615253Y-123868116D01*
X45509116Y-123974253D01*
X45425724Y-124099058D01*
X45368283Y-124237733D01*
X45339000Y-124384950D01*
X41858916Y-124384950D01*
X41887747Y-124365686D01*
X41993884Y-124259549D01*
X42077276Y-124134744D01*
X42134717Y-123996069D01*
X42163438Y-123851679D01*
X43190000Y-123853072D01*
X43314482Y-123840812D01*
X43434180Y-123804502D01*
X43544494Y-123745537D01*
X43641185Y-123666185D01*
X43720537Y-123569494D01*
X43779502Y-123459180D01*
X43815812Y-123339482D01*
X43828072Y-123215000D01*
X43825000Y-120950750D01*
X43666250Y-120792000D01*
X40767000Y-120792000D01*
X40767000Y-123352583D01*
X40726724Y-123412860D01*
X40669283Y-123551535D01*
X40640000Y-123698752D01*
X40505498Y-123698752D01*
X40513000Y-123691250D01*
X40513000Y-120792000D01*
X37613750Y-120792000D01*
X37455000Y-120950750D01*
X37451928Y-123215000D01*
X35941000Y-123215000D01*
X35941000Y-123114950D01*
X35911717Y-122967733D01*
X35854276Y-122829058D01*
X35770884Y-122704253D01*
X35664747Y-122598116D01*
X35539942Y-122514724D01*
X35401267Y-122457283D01*
X35254050Y-122428000D01*
X35103950Y-122428000D01*
X34956733Y-122457283D01*
X34818058Y-122514724D01*
X34693253Y-122598116D01*
X34587116Y-122704253D01*
X34503724Y-122829058D01*
X34446283Y-122967733D01*
X34417000Y-123114950D01*
X29034758Y-123114950D01*
X29062942Y-123103276D01*
X29187747Y-123019884D01*
X29293884Y-122913747D01*
X29377276Y-122788942D01*
X29434717Y-122650267D01*
X29464000Y-122503050D01*
X29464000Y-122352950D01*
X29434717Y-122205733D01*
X29377276Y-122067058D01*
X29293884Y-121942253D01*
X29187747Y-121836116D01*
X29062942Y-121752724D01*
X28924267Y-121695283D01*
X28777050Y-121666000D01*
X28626950Y-121666000D01*
X28479733Y-121695283D01*
X28341058Y-121752724D01*
X28216253Y-121836116D01*
X28110116Y-121942253D01*
X28026724Y-122067058D01*
X27969283Y-122205733D01*
X27940000Y-122352950D01*
X25806000Y-122352950D01*
X25806000Y-119593209D01*
X25872711Y-119754266D01*
X25982285Y-119918254D01*
X26121746Y-120057715D01*
X26285734Y-120167289D01*
X26467949Y-120242764D01*
X26661386Y-120281241D01*
X26858614Y-120281241D01*
X27052051Y-120242764D01*
X27082866Y-120230000D01*
X29626928Y-120230000D01*
X29639188Y-120354482D01*
X29675498Y-120474180D01*
X29734463Y-120584494D01*
X29813815Y-120681185D01*
X29910506Y-120760537D01*
X30020820Y-120819502D01*
X30140518Y-120855812D01*
X30265000Y-120868072D01*
X30829250Y-120865000D01*
X30988000Y-120706250D01*
X30988000Y-119507000D01*
X29788750Y-119507000D01*
X29630000Y-119665750D01*
X29626928Y-120230000D01*
X27082866Y-120230000D01*
X27234266Y-120167289D01*
X27398254Y-120057715D01*
X27537715Y-119918254D01*
X27647289Y-119754266D01*
X27722764Y-119572051D01*
X27761241Y-119378614D01*
X27761241Y-119181386D01*
X27722764Y-118987949D01*
X27647289Y-118805734D01*
X27537715Y-118641746D01*
X27398254Y-118502285D01*
X27304761Y-118439814D01*
X29770498Y-118131597D01*
X29734463Y-118175506D01*
X29675498Y-118285820D01*
X29639188Y-118405518D01*
X29626928Y-118530000D01*
X29630000Y-119094250D01*
X29788750Y-119253000D01*
X30988000Y-119253000D01*
X30988000Y-119233000D01*
X31242000Y-119233000D01*
X31242000Y-119253000D01*
X31262000Y-119253000D01*
X31262000Y-119507000D01*
X31242000Y-119507000D01*
X31242000Y-120706250D01*
X31400750Y-120865000D01*
X31965000Y-120868072D01*
X32089482Y-120855812D01*
X32209180Y-120819502D01*
X32319494Y-120760537D01*
X32416185Y-120681185D01*
X32495537Y-120584494D01*
X32554502Y-120474180D01*
X32590812Y-120354482D01*
X32603072Y-120230000D01*
X32601935Y-120021242D01*
X32626509Y-120067216D01*
X32780340Y-120254660D01*
X32967784Y-120408491D01*
X33181637Y-120522798D01*
X33413682Y-120593188D01*
X33594528Y-120611000D01*
X33715472Y-120611000D01*
X33896318Y-120593188D01*
X34128363Y-120522798D01*
X34342216Y-120408491D01*
X34529660Y-120254660D01*
X34683491Y-120067216D01*
X34683633Y-120066950D01*
X35052000Y-120066950D01*
X35052000Y-120217050D01*
X35081283Y-120364267D01*
X35138724Y-120502942D01*
X35222116Y-120627747D01*
X35328253Y-120733884D01*
X35453058Y-120817276D01*
X35591733Y-120874717D01*
X35738950Y-120904000D01*
X35889050Y-120904000D01*
X36036267Y-120874717D01*
X36174942Y-120817276D01*
X36299747Y-120733884D01*
X36405884Y-120627747D01*
X36489276Y-120502942D01*
X36546717Y-120364267D01*
X36576000Y-120217050D01*
X36576000Y-120066950D01*
X36546717Y-119919733D01*
X36489276Y-119781058D01*
X36405884Y-119656253D01*
X36299747Y-119550116D01*
X36174942Y-119466724D01*
X36036267Y-119409283D01*
X35889050Y-119380000D01*
X35738950Y-119380000D01*
X35591733Y-119409283D01*
X35453058Y-119466724D01*
X35328253Y-119550116D01*
X35222116Y-119656253D01*
X35138724Y-119781058D01*
X35081283Y-119919733D01*
X35052000Y-120066950D01*
X34683633Y-120066950D01*
X34797798Y-119853363D01*
X34868188Y-119621318D01*
X34891956Y-119380000D01*
X34868188Y-119138682D01*
X34797798Y-118906637D01*
X34683491Y-118692784D01*
X34529660Y-118505340D01*
X34342216Y-118351509D01*
X34128363Y-118237202D01*
X33896318Y-118166812D01*
X33715472Y-118149000D01*
X33594528Y-118149000D01*
X33413682Y-118166812D01*
X33181637Y-118237202D01*
X32967784Y-118351509D01*
X32780340Y-118505340D01*
X32626509Y-118692784D01*
X32601935Y-118738758D01*
X32603072Y-118530000D01*
X32590812Y-118405518D01*
X32554502Y-118285820D01*
X32495537Y-118175506D01*
X32416185Y-118078815D01*
X32319494Y-117999463D01*
X32209180Y-117940498D01*
X32089482Y-117904188D01*
X31965000Y-117891928D01*
X31675233Y-117893506D01*
X35914596Y-117363585D01*
X35845733Y-117377283D01*
X35707058Y-117434724D01*
X35582253Y-117518116D01*
X35476116Y-117624253D01*
X35392724Y-117749058D01*
X35335283Y-117887733D01*
X35306000Y-118034950D01*
X35306000Y-118185050D01*
X35335283Y-118332267D01*
X35392724Y-118470942D01*
X35476116Y-118595747D01*
X35582253Y-118701884D01*
X35707058Y-118785276D01*
X35845733Y-118842717D01*
X35992950Y-118872000D01*
X36143050Y-118872000D01*
X36290267Y-118842717D01*
X36428942Y-118785276D01*
X36553747Y-118701884D01*
X36659884Y-118595747D01*
X36743276Y-118470942D01*
X36800717Y-118332267D01*
X36830000Y-118185050D01*
X36830000Y-118115000D01*
X37451928Y-118115000D01*
X37455000Y-120379250D01*
X37613750Y-120538000D01*
X40513000Y-120538000D01*
X40513000Y-117638750D01*
X40767000Y-117638750D01*
X40767000Y-120538000D01*
X43666250Y-120538000D01*
X43825000Y-120379250D01*
X43828072Y-118115000D01*
X43815812Y-117990518D01*
X43779502Y-117870820D01*
X43720537Y-117760506D01*
X43641185Y-117663815D01*
X43544494Y-117584463D01*
X43434180Y-117525498D01*
X43314482Y-117489188D01*
X43190000Y-117476928D01*
X40925750Y-117480000D01*
X40767000Y-117638750D01*
X40513000Y-117638750D01*
X40354250Y-117480000D01*
X38090000Y-117476928D01*
X37965518Y-117489188D01*
X37845820Y-117525498D01*
X37735506Y-117584463D01*
X37638815Y-117663815D01*
X37559463Y-117760506D01*
X37500498Y-117870820D01*
X37464188Y-117990518D01*
X37451928Y-118115000D01*
X36830000Y-118115000D01*
X36830000Y-118034950D01*
X36800717Y-117887733D01*
X36743276Y-117749058D01*
X36659884Y-117624253D01*
X36553747Y-117518116D01*
X36428942Y-117434724D01*
X36290267Y-117377283D01*
X36143050Y-117348000D01*
X36039280Y-117348000D01*
X36855280Y-117246000D01*
X44437333Y-117246000D01*
X64643000Y-118508854D01*
G36*
X25827376Y-152401607D02*
G01*
X25893433Y-152561084D01*
X25989333Y-152704609D01*
X26111391Y-152826667D01*
X26254916Y-152922567D01*
X26414393Y-152988624D01*
X26583692Y-153022300D01*
X26756308Y-153022300D01*
X26925607Y-152988624D01*
X27085084Y-152922567D01*
X27228609Y-152826667D01*
X27350667Y-152704609D01*
X27430558Y-152585043D01*
X27439768Y-152669576D01*
X27625854Y-152749785D01*
X27824012Y-152792149D01*
X28026628Y-152795041D01*
X28225914Y-152758349D01*
X28414213Y-152683483D01*
X28440232Y-152669576D01*
X28462312Y-152466920D01*
X28580682Y-152585290D01*
X28601140Y-152564832D01*
X28734759Y-152654113D01*
X28917348Y-152729744D01*
X29018440Y-152749852D01*
X29852182Y-153583594D01*
X29865907Y-153600318D01*
X29932624Y-153655071D01*
X29965828Y-153672819D01*
X26700571Y-153264662D01*
X26695160Y-153264520D01*
X26502559Y-153245636D01*
X26341497Y-153197008D01*
X26192949Y-153118023D01*
X26062570Y-153011689D01*
X25955326Y-152882054D01*
X25875305Y-152734058D01*
X25825554Y-152573339D01*
X25806000Y-152387293D01*
X25806000Y-152294144D01*
X25827376Y-152401607D01*
X25827376Y-152401607D01*
G37*
X25827376Y-152401607D02*
X25893433Y-152561084D01*
X25989333Y-152704609D01*
X26111391Y-152826667D01*
X26254916Y-152922567D01*
X26414393Y-152988624D01*
X26583692Y-153022300D01*
X26756308Y-153022300D01*
X26925607Y-152988624D01*
X27085084Y-152922567D01*
X27228609Y-152826667D01*
X27350667Y-152704609D01*
X27430558Y-152585043D01*
X27439768Y-152669576D01*
X27625854Y-152749785D01*
X27824012Y-152792149D01*
X28026628Y-152795041D01*
X28225914Y-152758349D01*
X28414213Y-152683483D01*
X28440232Y-152669576D01*
X28462312Y-152466920D01*
X28580682Y-152585290D01*
X28601140Y-152564832D01*
X28734759Y-152654113D01*
X28917348Y-152729744D01*
X29018440Y-152749852D01*
X29852182Y-153583594D01*
X29865907Y-153600318D01*
X29932624Y-153655071D01*
X29965828Y-153672819D01*
X26700571Y-153264662D01*
X26695160Y-153264520D01*
X26502559Y-153245636D01*
X26341497Y-153197008D01*
X26192949Y-153118023D01*
X26062570Y-153011689D01*
X25955326Y-152882054D01*
X25875305Y-152734058D01*
X25825554Y-152573339D01*
X25806000Y-152387293D01*
X25806000Y-152294144D01*
X25827376Y-152401607D01*
G36*
X28133748Y-151750858D02*
G01*
X28119605Y-151765000D01*
X28133748Y-151779143D01*
X27954143Y-151958748D01*
X27940000Y-151944605D01*
X27925858Y-151958748D01*
X27746253Y-151779143D01*
X27760395Y-151765000D01*
X27746253Y-151750858D01*
X27925858Y-151571253D01*
X27940000Y-151585395D01*
X27954143Y-151571253D01*
X28133748Y-151750858D01*
X28133748Y-151750858D01*
G37*
X28133748Y-151750858D02*
X28119605Y-151765000D01*
X28133748Y-151779143D01*
X27954143Y-151958748D01*
X27940000Y-151944605D01*
X27925858Y-151958748D01*
X27746253Y-151779143D01*
X27760395Y-151765000D01*
X27746253Y-151750858D01*
X27925858Y-151571253D01*
X27940000Y-151585395D01*
X27954143Y-151571253D01*
X28133748Y-151750858D01*
M02*
