G04 #@! TF.GenerationSoftware,KiCad,Pcbnew,(5.1.4)*
G04 #@! TF.CreationDate,2019-12-13T22:41:35+01:00*
G04 #@! TF.ProjectId,hardware,68617264-7761-4726-952e-6b696361645f,rev?*
G04 #@! TF.SameCoordinates,Original*
G04 #@! TF.FileFunction,Paste,Top*
G04 #@! TF.FilePolarity,Positive*
%FSLAX46Y46*%
G04 Gerber Fmt 4.6, Leading zero omitted, Abs format (unit mm)*
G04 Created by KiCad (PCBNEW (5.1.4)) date 2019-12-13 22:41:35*
%MOMM*%
%LPD*%
G04 APERTURE LIST*
%ADD10C,0.100000*%
%ADD11C,1.250000*%
%ADD12C,0.975000*%
%ADD13C,0.875000*%
%ADD14C,0.590000*%
%ADD15R,0.900000X1.200000*%
%ADD16R,1.200000X0.900000*%
%ADD17R,0.700000X1.300000*%
%ADD18R,0.900000X0.800000*%
%ADD19R,0.800000X0.900000*%
%ADD20R,0.450000X1.450000*%
%ADD21R,0.600000X1.550000*%
G04 APERTURE END LIST*
D10*
G36*
X48909504Y-122941204D02*
G01*
X48933773Y-122944804D01*
X48957571Y-122950765D01*
X48980671Y-122959030D01*
X49002849Y-122969520D01*
X49023893Y-122982133D01*
X49043598Y-122996747D01*
X49061777Y-123013223D01*
X49078253Y-123031402D01*
X49092867Y-123051107D01*
X49105480Y-123072151D01*
X49115970Y-123094329D01*
X49124235Y-123117429D01*
X49130196Y-123141227D01*
X49133796Y-123165496D01*
X49135000Y-123190000D01*
X49135000Y-123940000D01*
X49133796Y-123964504D01*
X49130196Y-123988773D01*
X49124235Y-124012571D01*
X49115970Y-124035671D01*
X49105480Y-124057849D01*
X49092867Y-124078893D01*
X49078253Y-124098598D01*
X49061777Y-124116777D01*
X49043598Y-124133253D01*
X49023893Y-124147867D01*
X49002849Y-124160480D01*
X48980671Y-124170970D01*
X48957571Y-124179235D01*
X48933773Y-124185196D01*
X48909504Y-124188796D01*
X48885000Y-124190000D01*
X47635000Y-124190000D01*
X47610496Y-124188796D01*
X47586227Y-124185196D01*
X47562429Y-124179235D01*
X47539329Y-124170970D01*
X47517151Y-124160480D01*
X47496107Y-124147867D01*
X47476402Y-124133253D01*
X47458223Y-124116777D01*
X47441747Y-124098598D01*
X47427133Y-124078893D01*
X47414520Y-124057849D01*
X47404030Y-124035671D01*
X47395765Y-124012571D01*
X47389804Y-123988773D01*
X47386204Y-123964504D01*
X47385000Y-123940000D01*
X47385000Y-123190000D01*
X47386204Y-123165496D01*
X47389804Y-123141227D01*
X47395765Y-123117429D01*
X47404030Y-123094329D01*
X47414520Y-123072151D01*
X47427133Y-123051107D01*
X47441747Y-123031402D01*
X47458223Y-123013223D01*
X47476402Y-122996747D01*
X47496107Y-122982133D01*
X47517151Y-122969520D01*
X47539329Y-122959030D01*
X47562429Y-122950765D01*
X47586227Y-122944804D01*
X47610496Y-122941204D01*
X47635000Y-122940000D01*
X48885000Y-122940000D01*
X48909504Y-122941204D01*
X48909504Y-122941204D01*
G37*
D11*
X48260000Y-123565000D03*
D10*
G36*
X48909504Y-125741204D02*
G01*
X48933773Y-125744804D01*
X48957571Y-125750765D01*
X48980671Y-125759030D01*
X49002849Y-125769520D01*
X49023893Y-125782133D01*
X49043598Y-125796747D01*
X49061777Y-125813223D01*
X49078253Y-125831402D01*
X49092867Y-125851107D01*
X49105480Y-125872151D01*
X49115970Y-125894329D01*
X49124235Y-125917429D01*
X49130196Y-125941227D01*
X49133796Y-125965496D01*
X49135000Y-125990000D01*
X49135000Y-126740000D01*
X49133796Y-126764504D01*
X49130196Y-126788773D01*
X49124235Y-126812571D01*
X49115970Y-126835671D01*
X49105480Y-126857849D01*
X49092867Y-126878893D01*
X49078253Y-126898598D01*
X49061777Y-126916777D01*
X49043598Y-126933253D01*
X49023893Y-126947867D01*
X49002849Y-126960480D01*
X48980671Y-126970970D01*
X48957571Y-126979235D01*
X48933773Y-126985196D01*
X48909504Y-126988796D01*
X48885000Y-126990000D01*
X47635000Y-126990000D01*
X47610496Y-126988796D01*
X47586227Y-126985196D01*
X47562429Y-126979235D01*
X47539329Y-126970970D01*
X47517151Y-126960480D01*
X47496107Y-126947867D01*
X47476402Y-126933253D01*
X47458223Y-126916777D01*
X47441747Y-126898598D01*
X47427133Y-126878893D01*
X47414520Y-126857849D01*
X47404030Y-126835671D01*
X47395765Y-126812571D01*
X47389804Y-126788773D01*
X47386204Y-126764504D01*
X47385000Y-126740000D01*
X47385000Y-125990000D01*
X47386204Y-125965496D01*
X47389804Y-125941227D01*
X47395765Y-125917429D01*
X47404030Y-125894329D01*
X47414520Y-125872151D01*
X47427133Y-125851107D01*
X47441747Y-125831402D01*
X47458223Y-125813223D01*
X47476402Y-125796747D01*
X47496107Y-125782133D01*
X47517151Y-125769520D01*
X47539329Y-125759030D01*
X47562429Y-125750765D01*
X47586227Y-125744804D01*
X47610496Y-125741204D01*
X47635000Y-125740000D01*
X48885000Y-125740000D01*
X48909504Y-125741204D01*
X48909504Y-125741204D01*
G37*
D11*
X48260000Y-126365000D03*
D10*
G36*
X37351642Y-119443174D02*
G01*
X37375303Y-119446684D01*
X37398507Y-119452496D01*
X37421029Y-119460554D01*
X37442653Y-119470782D01*
X37463170Y-119483079D01*
X37482383Y-119497329D01*
X37500107Y-119513393D01*
X37516171Y-119531117D01*
X37530421Y-119550330D01*
X37542718Y-119570847D01*
X37552946Y-119592471D01*
X37561004Y-119614993D01*
X37566816Y-119638197D01*
X37570326Y-119661858D01*
X37571500Y-119685750D01*
X37571500Y-120598250D01*
X37570326Y-120622142D01*
X37566816Y-120645803D01*
X37561004Y-120669007D01*
X37552946Y-120691529D01*
X37542718Y-120713153D01*
X37530421Y-120733670D01*
X37516171Y-120752883D01*
X37500107Y-120770607D01*
X37482383Y-120786671D01*
X37463170Y-120800921D01*
X37442653Y-120813218D01*
X37421029Y-120823446D01*
X37398507Y-120831504D01*
X37375303Y-120837316D01*
X37351642Y-120840826D01*
X37327750Y-120842000D01*
X36840250Y-120842000D01*
X36816358Y-120840826D01*
X36792697Y-120837316D01*
X36769493Y-120831504D01*
X36746971Y-120823446D01*
X36725347Y-120813218D01*
X36704830Y-120800921D01*
X36685617Y-120786671D01*
X36667893Y-120770607D01*
X36651829Y-120752883D01*
X36637579Y-120733670D01*
X36625282Y-120713153D01*
X36615054Y-120691529D01*
X36606996Y-120669007D01*
X36601184Y-120645803D01*
X36597674Y-120622142D01*
X36596500Y-120598250D01*
X36596500Y-119685750D01*
X36597674Y-119661858D01*
X36601184Y-119638197D01*
X36606996Y-119614993D01*
X36615054Y-119592471D01*
X36625282Y-119570847D01*
X36637579Y-119550330D01*
X36651829Y-119531117D01*
X36667893Y-119513393D01*
X36685617Y-119497329D01*
X36704830Y-119483079D01*
X36725347Y-119470782D01*
X36746971Y-119460554D01*
X36769493Y-119452496D01*
X36792697Y-119446684D01*
X36816358Y-119443174D01*
X36840250Y-119442000D01*
X37327750Y-119442000D01*
X37351642Y-119443174D01*
X37351642Y-119443174D01*
G37*
D12*
X37084000Y-120142000D03*
D10*
G36*
X39226642Y-119443174D02*
G01*
X39250303Y-119446684D01*
X39273507Y-119452496D01*
X39296029Y-119460554D01*
X39317653Y-119470782D01*
X39338170Y-119483079D01*
X39357383Y-119497329D01*
X39375107Y-119513393D01*
X39391171Y-119531117D01*
X39405421Y-119550330D01*
X39417718Y-119570847D01*
X39427946Y-119592471D01*
X39436004Y-119614993D01*
X39441816Y-119638197D01*
X39445326Y-119661858D01*
X39446500Y-119685750D01*
X39446500Y-120598250D01*
X39445326Y-120622142D01*
X39441816Y-120645803D01*
X39436004Y-120669007D01*
X39427946Y-120691529D01*
X39417718Y-120713153D01*
X39405421Y-120733670D01*
X39391171Y-120752883D01*
X39375107Y-120770607D01*
X39357383Y-120786671D01*
X39338170Y-120800921D01*
X39317653Y-120813218D01*
X39296029Y-120823446D01*
X39273507Y-120831504D01*
X39250303Y-120837316D01*
X39226642Y-120840826D01*
X39202750Y-120842000D01*
X38715250Y-120842000D01*
X38691358Y-120840826D01*
X38667697Y-120837316D01*
X38644493Y-120831504D01*
X38621971Y-120823446D01*
X38600347Y-120813218D01*
X38579830Y-120800921D01*
X38560617Y-120786671D01*
X38542893Y-120770607D01*
X38526829Y-120752883D01*
X38512579Y-120733670D01*
X38500282Y-120713153D01*
X38490054Y-120691529D01*
X38481996Y-120669007D01*
X38476184Y-120645803D01*
X38472674Y-120622142D01*
X38471500Y-120598250D01*
X38471500Y-119685750D01*
X38472674Y-119661858D01*
X38476184Y-119638197D01*
X38481996Y-119614993D01*
X38490054Y-119592471D01*
X38500282Y-119570847D01*
X38512579Y-119550330D01*
X38526829Y-119531117D01*
X38542893Y-119513393D01*
X38560617Y-119497329D01*
X38579830Y-119483079D01*
X38600347Y-119470782D01*
X38621971Y-119460554D01*
X38644493Y-119452496D01*
X38667697Y-119446684D01*
X38691358Y-119443174D01*
X38715250Y-119442000D01*
X39202750Y-119442000D01*
X39226642Y-119443174D01*
X39226642Y-119443174D01*
G37*
D12*
X38959000Y-120142000D03*
D10*
G36*
X38670142Y-130746174D02*
G01*
X38693803Y-130749684D01*
X38717007Y-130755496D01*
X38739529Y-130763554D01*
X38761153Y-130773782D01*
X38781670Y-130786079D01*
X38800883Y-130800329D01*
X38818607Y-130816393D01*
X38834671Y-130834117D01*
X38848921Y-130853330D01*
X38861218Y-130873847D01*
X38871446Y-130895471D01*
X38879504Y-130917993D01*
X38885316Y-130941197D01*
X38888826Y-130964858D01*
X38890000Y-130988750D01*
X38890000Y-131901250D01*
X38888826Y-131925142D01*
X38885316Y-131948803D01*
X38879504Y-131972007D01*
X38871446Y-131994529D01*
X38861218Y-132016153D01*
X38848921Y-132036670D01*
X38834671Y-132055883D01*
X38818607Y-132073607D01*
X38800883Y-132089671D01*
X38781670Y-132103921D01*
X38761153Y-132116218D01*
X38739529Y-132126446D01*
X38717007Y-132134504D01*
X38693803Y-132140316D01*
X38670142Y-132143826D01*
X38646250Y-132145000D01*
X38158750Y-132145000D01*
X38134858Y-132143826D01*
X38111197Y-132140316D01*
X38087993Y-132134504D01*
X38065471Y-132126446D01*
X38043847Y-132116218D01*
X38023330Y-132103921D01*
X38004117Y-132089671D01*
X37986393Y-132073607D01*
X37970329Y-132055883D01*
X37956079Y-132036670D01*
X37943782Y-132016153D01*
X37933554Y-131994529D01*
X37925496Y-131972007D01*
X37919684Y-131948803D01*
X37916174Y-131925142D01*
X37915000Y-131901250D01*
X37915000Y-130988750D01*
X37916174Y-130964858D01*
X37919684Y-130941197D01*
X37925496Y-130917993D01*
X37933554Y-130895471D01*
X37943782Y-130873847D01*
X37956079Y-130853330D01*
X37970329Y-130834117D01*
X37986393Y-130816393D01*
X38004117Y-130800329D01*
X38023330Y-130786079D01*
X38043847Y-130773782D01*
X38065471Y-130763554D01*
X38087993Y-130755496D01*
X38111197Y-130749684D01*
X38134858Y-130746174D01*
X38158750Y-130745000D01*
X38646250Y-130745000D01*
X38670142Y-130746174D01*
X38670142Y-130746174D01*
G37*
D12*
X38402500Y-131445000D03*
D10*
G36*
X36795142Y-130746174D02*
G01*
X36818803Y-130749684D01*
X36842007Y-130755496D01*
X36864529Y-130763554D01*
X36886153Y-130773782D01*
X36906670Y-130786079D01*
X36925883Y-130800329D01*
X36943607Y-130816393D01*
X36959671Y-130834117D01*
X36973921Y-130853330D01*
X36986218Y-130873847D01*
X36996446Y-130895471D01*
X37004504Y-130917993D01*
X37010316Y-130941197D01*
X37013826Y-130964858D01*
X37015000Y-130988750D01*
X37015000Y-131901250D01*
X37013826Y-131925142D01*
X37010316Y-131948803D01*
X37004504Y-131972007D01*
X36996446Y-131994529D01*
X36986218Y-132016153D01*
X36973921Y-132036670D01*
X36959671Y-132055883D01*
X36943607Y-132073607D01*
X36925883Y-132089671D01*
X36906670Y-132103921D01*
X36886153Y-132116218D01*
X36864529Y-132126446D01*
X36842007Y-132134504D01*
X36818803Y-132140316D01*
X36795142Y-132143826D01*
X36771250Y-132145000D01*
X36283750Y-132145000D01*
X36259858Y-132143826D01*
X36236197Y-132140316D01*
X36212993Y-132134504D01*
X36190471Y-132126446D01*
X36168847Y-132116218D01*
X36148330Y-132103921D01*
X36129117Y-132089671D01*
X36111393Y-132073607D01*
X36095329Y-132055883D01*
X36081079Y-132036670D01*
X36068782Y-132016153D01*
X36058554Y-131994529D01*
X36050496Y-131972007D01*
X36044684Y-131948803D01*
X36041174Y-131925142D01*
X36040000Y-131901250D01*
X36040000Y-130988750D01*
X36041174Y-130964858D01*
X36044684Y-130941197D01*
X36050496Y-130917993D01*
X36058554Y-130895471D01*
X36068782Y-130873847D01*
X36081079Y-130853330D01*
X36095329Y-130834117D01*
X36111393Y-130816393D01*
X36129117Y-130800329D01*
X36148330Y-130786079D01*
X36168847Y-130773782D01*
X36190471Y-130763554D01*
X36212993Y-130755496D01*
X36236197Y-130749684D01*
X36259858Y-130746174D01*
X36283750Y-130745000D01*
X36771250Y-130745000D01*
X36795142Y-130746174D01*
X36795142Y-130746174D01*
G37*
D12*
X36527500Y-131445000D03*
D10*
G36*
X48909504Y-139461204D02*
G01*
X48933773Y-139464804D01*
X48957571Y-139470765D01*
X48980671Y-139479030D01*
X49002849Y-139489520D01*
X49023893Y-139502133D01*
X49043598Y-139516747D01*
X49061777Y-139533223D01*
X49078253Y-139551402D01*
X49092867Y-139571107D01*
X49105480Y-139592151D01*
X49115970Y-139614329D01*
X49124235Y-139637429D01*
X49130196Y-139661227D01*
X49133796Y-139685496D01*
X49135000Y-139710000D01*
X49135000Y-140460000D01*
X49133796Y-140484504D01*
X49130196Y-140508773D01*
X49124235Y-140532571D01*
X49115970Y-140555671D01*
X49105480Y-140577849D01*
X49092867Y-140598893D01*
X49078253Y-140618598D01*
X49061777Y-140636777D01*
X49043598Y-140653253D01*
X49023893Y-140667867D01*
X49002849Y-140680480D01*
X48980671Y-140690970D01*
X48957571Y-140699235D01*
X48933773Y-140705196D01*
X48909504Y-140708796D01*
X48885000Y-140710000D01*
X47635000Y-140710000D01*
X47610496Y-140708796D01*
X47586227Y-140705196D01*
X47562429Y-140699235D01*
X47539329Y-140690970D01*
X47517151Y-140680480D01*
X47496107Y-140667867D01*
X47476402Y-140653253D01*
X47458223Y-140636777D01*
X47441747Y-140618598D01*
X47427133Y-140598893D01*
X47414520Y-140577849D01*
X47404030Y-140555671D01*
X47395765Y-140532571D01*
X47389804Y-140508773D01*
X47386204Y-140484504D01*
X47385000Y-140460000D01*
X47385000Y-139710000D01*
X47386204Y-139685496D01*
X47389804Y-139661227D01*
X47395765Y-139637429D01*
X47404030Y-139614329D01*
X47414520Y-139592151D01*
X47427133Y-139571107D01*
X47441747Y-139551402D01*
X47458223Y-139533223D01*
X47476402Y-139516747D01*
X47496107Y-139502133D01*
X47517151Y-139489520D01*
X47539329Y-139479030D01*
X47562429Y-139470765D01*
X47586227Y-139464804D01*
X47610496Y-139461204D01*
X47635000Y-139460000D01*
X48885000Y-139460000D01*
X48909504Y-139461204D01*
X48909504Y-139461204D01*
G37*
D11*
X48260000Y-140085000D03*
D10*
G36*
X48909504Y-136661204D02*
G01*
X48933773Y-136664804D01*
X48957571Y-136670765D01*
X48980671Y-136679030D01*
X49002849Y-136689520D01*
X49023893Y-136702133D01*
X49043598Y-136716747D01*
X49061777Y-136733223D01*
X49078253Y-136751402D01*
X49092867Y-136771107D01*
X49105480Y-136792151D01*
X49115970Y-136814329D01*
X49124235Y-136837429D01*
X49130196Y-136861227D01*
X49133796Y-136885496D01*
X49135000Y-136910000D01*
X49135000Y-137660000D01*
X49133796Y-137684504D01*
X49130196Y-137708773D01*
X49124235Y-137732571D01*
X49115970Y-137755671D01*
X49105480Y-137777849D01*
X49092867Y-137798893D01*
X49078253Y-137818598D01*
X49061777Y-137836777D01*
X49043598Y-137853253D01*
X49023893Y-137867867D01*
X49002849Y-137880480D01*
X48980671Y-137890970D01*
X48957571Y-137899235D01*
X48933773Y-137905196D01*
X48909504Y-137908796D01*
X48885000Y-137910000D01*
X47635000Y-137910000D01*
X47610496Y-137908796D01*
X47586227Y-137905196D01*
X47562429Y-137899235D01*
X47539329Y-137890970D01*
X47517151Y-137880480D01*
X47496107Y-137867867D01*
X47476402Y-137853253D01*
X47458223Y-137836777D01*
X47441747Y-137818598D01*
X47427133Y-137798893D01*
X47414520Y-137777849D01*
X47404030Y-137755671D01*
X47395765Y-137732571D01*
X47389804Y-137708773D01*
X47386204Y-137684504D01*
X47385000Y-137660000D01*
X47385000Y-136910000D01*
X47386204Y-136885496D01*
X47389804Y-136861227D01*
X47395765Y-136837429D01*
X47404030Y-136814329D01*
X47414520Y-136792151D01*
X47427133Y-136771107D01*
X47441747Y-136751402D01*
X47458223Y-136733223D01*
X47476402Y-136716747D01*
X47496107Y-136702133D01*
X47517151Y-136689520D01*
X47539329Y-136679030D01*
X47562429Y-136670765D01*
X47586227Y-136664804D01*
X47610496Y-136661204D01*
X47635000Y-136660000D01*
X48885000Y-136660000D01*
X48909504Y-136661204D01*
X48909504Y-136661204D01*
G37*
D11*
X48260000Y-137285000D03*
D10*
G36*
X37552691Y-128431053D02*
G01*
X37573926Y-128434203D01*
X37594750Y-128439419D01*
X37614962Y-128446651D01*
X37634368Y-128455830D01*
X37652781Y-128466866D01*
X37670024Y-128479654D01*
X37685930Y-128494070D01*
X37700346Y-128509976D01*
X37713134Y-128527219D01*
X37724170Y-128545632D01*
X37733349Y-128565038D01*
X37740581Y-128585250D01*
X37745797Y-128606074D01*
X37748947Y-128627309D01*
X37750000Y-128648750D01*
X37750000Y-129161250D01*
X37748947Y-129182691D01*
X37745797Y-129203926D01*
X37740581Y-129224750D01*
X37733349Y-129244962D01*
X37724170Y-129264368D01*
X37713134Y-129282781D01*
X37700346Y-129300024D01*
X37685930Y-129315930D01*
X37670024Y-129330346D01*
X37652781Y-129343134D01*
X37634368Y-129354170D01*
X37614962Y-129363349D01*
X37594750Y-129370581D01*
X37573926Y-129375797D01*
X37552691Y-129378947D01*
X37531250Y-129380000D01*
X37093750Y-129380000D01*
X37072309Y-129378947D01*
X37051074Y-129375797D01*
X37030250Y-129370581D01*
X37010038Y-129363349D01*
X36990632Y-129354170D01*
X36972219Y-129343134D01*
X36954976Y-129330346D01*
X36939070Y-129315930D01*
X36924654Y-129300024D01*
X36911866Y-129282781D01*
X36900830Y-129264368D01*
X36891651Y-129244962D01*
X36884419Y-129224750D01*
X36879203Y-129203926D01*
X36876053Y-129182691D01*
X36875000Y-129161250D01*
X36875000Y-128648750D01*
X36876053Y-128627309D01*
X36879203Y-128606074D01*
X36884419Y-128585250D01*
X36891651Y-128565038D01*
X36900830Y-128545632D01*
X36911866Y-128527219D01*
X36924654Y-128509976D01*
X36939070Y-128494070D01*
X36954976Y-128479654D01*
X36972219Y-128466866D01*
X36990632Y-128455830D01*
X37010038Y-128446651D01*
X37030250Y-128439419D01*
X37051074Y-128434203D01*
X37072309Y-128431053D01*
X37093750Y-128430000D01*
X37531250Y-128430000D01*
X37552691Y-128431053D01*
X37552691Y-128431053D01*
G37*
D13*
X37312500Y-128905000D03*
D10*
G36*
X39127691Y-128431053D02*
G01*
X39148926Y-128434203D01*
X39169750Y-128439419D01*
X39189962Y-128446651D01*
X39209368Y-128455830D01*
X39227781Y-128466866D01*
X39245024Y-128479654D01*
X39260930Y-128494070D01*
X39275346Y-128509976D01*
X39288134Y-128527219D01*
X39299170Y-128545632D01*
X39308349Y-128565038D01*
X39315581Y-128585250D01*
X39320797Y-128606074D01*
X39323947Y-128627309D01*
X39325000Y-128648750D01*
X39325000Y-129161250D01*
X39323947Y-129182691D01*
X39320797Y-129203926D01*
X39315581Y-129224750D01*
X39308349Y-129244962D01*
X39299170Y-129264368D01*
X39288134Y-129282781D01*
X39275346Y-129300024D01*
X39260930Y-129315930D01*
X39245024Y-129330346D01*
X39227781Y-129343134D01*
X39209368Y-129354170D01*
X39189962Y-129363349D01*
X39169750Y-129370581D01*
X39148926Y-129375797D01*
X39127691Y-129378947D01*
X39106250Y-129380000D01*
X38668750Y-129380000D01*
X38647309Y-129378947D01*
X38626074Y-129375797D01*
X38605250Y-129370581D01*
X38585038Y-129363349D01*
X38565632Y-129354170D01*
X38547219Y-129343134D01*
X38529976Y-129330346D01*
X38514070Y-129315930D01*
X38499654Y-129300024D01*
X38486866Y-129282781D01*
X38475830Y-129264368D01*
X38466651Y-129244962D01*
X38459419Y-129224750D01*
X38454203Y-129203926D01*
X38451053Y-129182691D01*
X38450000Y-129161250D01*
X38450000Y-128648750D01*
X38451053Y-128627309D01*
X38454203Y-128606074D01*
X38459419Y-128585250D01*
X38466651Y-128565038D01*
X38475830Y-128545632D01*
X38486866Y-128527219D01*
X38499654Y-128509976D01*
X38514070Y-128494070D01*
X38529976Y-128479654D01*
X38547219Y-128466866D01*
X38565632Y-128455830D01*
X38585038Y-128446651D01*
X38605250Y-128439419D01*
X38626074Y-128434203D01*
X38647309Y-128431053D01*
X38668750Y-128430000D01*
X39106250Y-128430000D01*
X39127691Y-128431053D01*
X39127691Y-128431053D01*
G37*
D13*
X38887500Y-128905000D03*
D10*
G36*
X52982691Y-145151053D02*
G01*
X53003926Y-145154203D01*
X53024750Y-145159419D01*
X53044962Y-145166651D01*
X53064368Y-145175830D01*
X53082781Y-145186866D01*
X53100024Y-145199654D01*
X53115930Y-145214070D01*
X53130346Y-145229976D01*
X53143134Y-145247219D01*
X53154170Y-145265632D01*
X53163349Y-145285038D01*
X53170581Y-145305250D01*
X53175797Y-145326074D01*
X53178947Y-145347309D01*
X53180000Y-145368750D01*
X53180000Y-145806250D01*
X53178947Y-145827691D01*
X53175797Y-145848926D01*
X53170581Y-145869750D01*
X53163349Y-145889962D01*
X53154170Y-145909368D01*
X53143134Y-145927781D01*
X53130346Y-145945024D01*
X53115930Y-145960930D01*
X53100024Y-145975346D01*
X53082781Y-145988134D01*
X53064368Y-145999170D01*
X53044962Y-146008349D01*
X53024750Y-146015581D01*
X53003926Y-146020797D01*
X52982691Y-146023947D01*
X52961250Y-146025000D01*
X52448750Y-146025000D01*
X52427309Y-146023947D01*
X52406074Y-146020797D01*
X52385250Y-146015581D01*
X52365038Y-146008349D01*
X52345632Y-145999170D01*
X52327219Y-145988134D01*
X52309976Y-145975346D01*
X52294070Y-145960930D01*
X52279654Y-145945024D01*
X52266866Y-145927781D01*
X52255830Y-145909368D01*
X52246651Y-145889962D01*
X52239419Y-145869750D01*
X52234203Y-145848926D01*
X52231053Y-145827691D01*
X52230000Y-145806250D01*
X52230000Y-145368750D01*
X52231053Y-145347309D01*
X52234203Y-145326074D01*
X52239419Y-145305250D01*
X52246651Y-145285038D01*
X52255830Y-145265632D01*
X52266866Y-145247219D01*
X52279654Y-145229976D01*
X52294070Y-145214070D01*
X52309976Y-145199654D01*
X52327219Y-145186866D01*
X52345632Y-145175830D01*
X52365038Y-145166651D01*
X52385250Y-145159419D01*
X52406074Y-145154203D01*
X52427309Y-145151053D01*
X52448750Y-145150000D01*
X52961250Y-145150000D01*
X52982691Y-145151053D01*
X52982691Y-145151053D01*
G37*
D13*
X52705000Y-145587500D03*
D10*
G36*
X52982691Y-143576053D02*
G01*
X53003926Y-143579203D01*
X53024750Y-143584419D01*
X53044962Y-143591651D01*
X53064368Y-143600830D01*
X53082781Y-143611866D01*
X53100024Y-143624654D01*
X53115930Y-143639070D01*
X53130346Y-143654976D01*
X53143134Y-143672219D01*
X53154170Y-143690632D01*
X53163349Y-143710038D01*
X53170581Y-143730250D01*
X53175797Y-143751074D01*
X53178947Y-143772309D01*
X53180000Y-143793750D01*
X53180000Y-144231250D01*
X53178947Y-144252691D01*
X53175797Y-144273926D01*
X53170581Y-144294750D01*
X53163349Y-144314962D01*
X53154170Y-144334368D01*
X53143134Y-144352781D01*
X53130346Y-144370024D01*
X53115930Y-144385930D01*
X53100024Y-144400346D01*
X53082781Y-144413134D01*
X53064368Y-144424170D01*
X53044962Y-144433349D01*
X53024750Y-144440581D01*
X53003926Y-144445797D01*
X52982691Y-144448947D01*
X52961250Y-144450000D01*
X52448750Y-144450000D01*
X52427309Y-144448947D01*
X52406074Y-144445797D01*
X52385250Y-144440581D01*
X52365038Y-144433349D01*
X52345632Y-144424170D01*
X52327219Y-144413134D01*
X52309976Y-144400346D01*
X52294070Y-144385930D01*
X52279654Y-144370024D01*
X52266866Y-144352781D01*
X52255830Y-144334368D01*
X52246651Y-144314962D01*
X52239419Y-144294750D01*
X52234203Y-144273926D01*
X52231053Y-144252691D01*
X52230000Y-144231250D01*
X52230000Y-143793750D01*
X52231053Y-143772309D01*
X52234203Y-143751074D01*
X52239419Y-143730250D01*
X52246651Y-143710038D01*
X52255830Y-143690632D01*
X52266866Y-143672219D01*
X52279654Y-143654976D01*
X52294070Y-143639070D01*
X52309976Y-143624654D01*
X52327219Y-143611866D01*
X52345632Y-143600830D01*
X52365038Y-143591651D01*
X52385250Y-143584419D01*
X52406074Y-143579203D01*
X52427309Y-143576053D01*
X52448750Y-143575000D01*
X52961250Y-143575000D01*
X52982691Y-143576053D01*
X52982691Y-143576053D01*
G37*
D13*
X52705000Y-144012500D03*
D10*
G36*
X38340191Y-134781053D02*
G01*
X38361426Y-134784203D01*
X38382250Y-134789419D01*
X38402462Y-134796651D01*
X38421868Y-134805830D01*
X38440281Y-134816866D01*
X38457524Y-134829654D01*
X38473430Y-134844070D01*
X38487846Y-134859976D01*
X38500634Y-134877219D01*
X38511670Y-134895632D01*
X38520849Y-134915038D01*
X38528081Y-134935250D01*
X38533297Y-134956074D01*
X38536447Y-134977309D01*
X38537500Y-134998750D01*
X38537500Y-135511250D01*
X38536447Y-135532691D01*
X38533297Y-135553926D01*
X38528081Y-135574750D01*
X38520849Y-135594962D01*
X38511670Y-135614368D01*
X38500634Y-135632781D01*
X38487846Y-135650024D01*
X38473430Y-135665930D01*
X38457524Y-135680346D01*
X38440281Y-135693134D01*
X38421868Y-135704170D01*
X38402462Y-135713349D01*
X38382250Y-135720581D01*
X38361426Y-135725797D01*
X38340191Y-135728947D01*
X38318750Y-135730000D01*
X37881250Y-135730000D01*
X37859809Y-135728947D01*
X37838574Y-135725797D01*
X37817750Y-135720581D01*
X37797538Y-135713349D01*
X37778132Y-135704170D01*
X37759719Y-135693134D01*
X37742476Y-135680346D01*
X37726570Y-135665930D01*
X37712154Y-135650024D01*
X37699366Y-135632781D01*
X37688330Y-135614368D01*
X37679151Y-135594962D01*
X37671919Y-135574750D01*
X37666703Y-135553926D01*
X37663553Y-135532691D01*
X37662500Y-135511250D01*
X37662500Y-134998750D01*
X37663553Y-134977309D01*
X37666703Y-134956074D01*
X37671919Y-134935250D01*
X37679151Y-134915038D01*
X37688330Y-134895632D01*
X37699366Y-134877219D01*
X37712154Y-134859976D01*
X37726570Y-134844070D01*
X37742476Y-134829654D01*
X37759719Y-134816866D01*
X37778132Y-134805830D01*
X37797538Y-134796651D01*
X37817750Y-134789419D01*
X37838574Y-134784203D01*
X37859809Y-134781053D01*
X37881250Y-134780000D01*
X38318750Y-134780000D01*
X38340191Y-134781053D01*
X38340191Y-134781053D01*
G37*
D13*
X38100000Y-135255000D03*
D10*
G36*
X39915191Y-134781053D02*
G01*
X39936426Y-134784203D01*
X39957250Y-134789419D01*
X39977462Y-134796651D01*
X39996868Y-134805830D01*
X40015281Y-134816866D01*
X40032524Y-134829654D01*
X40048430Y-134844070D01*
X40062846Y-134859976D01*
X40075634Y-134877219D01*
X40086670Y-134895632D01*
X40095849Y-134915038D01*
X40103081Y-134935250D01*
X40108297Y-134956074D01*
X40111447Y-134977309D01*
X40112500Y-134998750D01*
X40112500Y-135511250D01*
X40111447Y-135532691D01*
X40108297Y-135553926D01*
X40103081Y-135574750D01*
X40095849Y-135594962D01*
X40086670Y-135614368D01*
X40075634Y-135632781D01*
X40062846Y-135650024D01*
X40048430Y-135665930D01*
X40032524Y-135680346D01*
X40015281Y-135693134D01*
X39996868Y-135704170D01*
X39977462Y-135713349D01*
X39957250Y-135720581D01*
X39936426Y-135725797D01*
X39915191Y-135728947D01*
X39893750Y-135730000D01*
X39456250Y-135730000D01*
X39434809Y-135728947D01*
X39413574Y-135725797D01*
X39392750Y-135720581D01*
X39372538Y-135713349D01*
X39353132Y-135704170D01*
X39334719Y-135693134D01*
X39317476Y-135680346D01*
X39301570Y-135665930D01*
X39287154Y-135650024D01*
X39274366Y-135632781D01*
X39263330Y-135614368D01*
X39254151Y-135594962D01*
X39246919Y-135574750D01*
X39241703Y-135553926D01*
X39238553Y-135532691D01*
X39237500Y-135511250D01*
X39237500Y-134998750D01*
X39238553Y-134977309D01*
X39241703Y-134956074D01*
X39246919Y-134935250D01*
X39254151Y-134915038D01*
X39263330Y-134895632D01*
X39274366Y-134877219D01*
X39287154Y-134859976D01*
X39301570Y-134844070D01*
X39317476Y-134829654D01*
X39334719Y-134816866D01*
X39353132Y-134805830D01*
X39372538Y-134796651D01*
X39392750Y-134789419D01*
X39413574Y-134784203D01*
X39434809Y-134781053D01*
X39456250Y-134780000D01*
X39893750Y-134780000D01*
X39915191Y-134781053D01*
X39915191Y-134781053D01*
G37*
D13*
X39675000Y-135255000D03*
D10*
G36*
X61200191Y-134418195D02*
G01*
X61221426Y-134421345D01*
X61242250Y-134426561D01*
X61262462Y-134433793D01*
X61281868Y-134442972D01*
X61300281Y-134454008D01*
X61317524Y-134466796D01*
X61333430Y-134481212D01*
X61347846Y-134497118D01*
X61360634Y-134514361D01*
X61371670Y-134532774D01*
X61380849Y-134552180D01*
X61388081Y-134572392D01*
X61393297Y-134593216D01*
X61396447Y-134614451D01*
X61397500Y-134635892D01*
X61397500Y-135148392D01*
X61396447Y-135169833D01*
X61393297Y-135191068D01*
X61388081Y-135211892D01*
X61380849Y-135232104D01*
X61371670Y-135251510D01*
X61360634Y-135269923D01*
X61347846Y-135287166D01*
X61333430Y-135303072D01*
X61317524Y-135317488D01*
X61300281Y-135330276D01*
X61281868Y-135341312D01*
X61262462Y-135350491D01*
X61242250Y-135357723D01*
X61221426Y-135362939D01*
X61200191Y-135366089D01*
X61178750Y-135367142D01*
X60741250Y-135367142D01*
X60719809Y-135366089D01*
X60698574Y-135362939D01*
X60677750Y-135357723D01*
X60657538Y-135350491D01*
X60638132Y-135341312D01*
X60619719Y-135330276D01*
X60602476Y-135317488D01*
X60586570Y-135303072D01*
X60572154Y-135287166D01*
X60559366Y-135269923D01*
X60548330Y-135251510D01*
X60539151Y-135232104D01*
X60531919Y-135211892D01*
X60526703Y-135191068D01*
X60523553Y-135169833D01*
X60522500Y-135148392D01*
X60522500Y-134635892D01*
X60523553Y-134614451D01*
X60526703Y-134593216D01*
X60531919Y-134572392D01*
X60539151Y-134552180D01*
X60548330Y-134532774D01*
X60559366Y-134514361D01*
X60572154Y-134497118D01*
X60586570Y-134481212D01*
X60602476Y-134466796D01*
X60619719Y-134454008D01*
X60638132Y-134442972D01*
X60657538Y-134433793D01*
X60677750Y-134426561D01*
X60698574Y-134421345D01*
X60719809Y-134418195D01*
X60741250Y-134417142D01*
X61178750Y-134417142D01*
X61200191Y-134418195D01*
X61200191Y-134418195D01*
G37*
D13*
X60960000Y-134892142D03*
D10*
G36*
X62775191Y-134418195D02*
G01*
X62796426Y-134421345D01*
X62817250Y-134426561D01*
X62837462Y-134433793D01*
X62856868Y-134442972D01*
X62875281Y-134454008D01*
X62892524Y-134466796D01*
X62908430Y-134481212D01*
X62922846Y-134497118D01*
X62935634Y-134514361D01*
X62946670Y-134532774D01*
X62955849Y-134552180D01*
X62963081Y-134572392D01*
X62968297Y-134593216D01*
X62971447Y-134614451D01*
X62972500Y-134635892D01*
X62972500Y-135148392D01*
X62971447Y-135169833D01*
X62968297Y-135191068D01*
X62963081Y-135211892D01*
X62955849Y-135232104D01*
X62946670Y-135251510D01*
X62935634Y-135269923D01*
X62922846Y-135287166D01*
X62908430Y-135303072D01*
X62892524Y-135317488D01*
X62875281Y-135330276D01*
X62856868Y-135341312D01*
X62837462Y-135350491D01*
X62817250Y-135357723D01*
X62796426Y-135362939D01*
X62775191Y-135366089D01*
X62753750Y-135367142D01*
X62316250Y-135367142D01*
X62294809Y-135366089D01*
X62273574Y-135362939D01*
X62252750Y-135357723D01*
X62232538Y-135350491D01*
X62213132Y-135341312D01*
X62194719Y-135330276D01*
X62177476Y-135317488D01*
X62161570Y-135303072D01*
X62147154Y-135287166D01*
X62134366Y-135269923D01*
X62123330Y-135251510D01*
X62114151Y-135232104D01*
X62106919Y-135211892D01*
X62101703Y-135191068D01*
X62098553Y-135169833D01*
X62097500Y-135148392D01*
X62097500Y-134635892D01*
X62098553Y-134614451D01*
X62101703Y-134593216D01*
X62106919Y-134572392D01*
X62114151Y-134552180D01*
X62123330Y-134532774D01*
X62134366Y-134514361D01*
X62147154Y-134497118D01*
X62161570Y-134481212D01*
X62177476Y-134466796D01*
X62194719Y-134454008D01*
X62213132Y-134442972D01*
X62232538Y-134433793D01*
X62252750Y-134426561D01*
X62273574Y-134421345D01*
X62294809Y-134418195D01*
X62316250Y-134417142D01*
X62753750Y-134417142D01*
X62775191Y-134418195D01*
X62775191Y-134418195D01*
G37*
D13*
X62535000Y-134892142D03*
D10*
G36*
X62775191Y-132422481D02*
G01*
X62796426Y-132425631D01*
X62817250Y-132430847D01*
X62837462Y-132438079D01*
X62856868Y-132447258D01*
X62875281Y-132458294D01*
X62892524Y-132471082D01*
X62908430Y-132485498D01*
X62922846Y-132501404D01*
X62935634Y-132518647D01*
X62946670Y-132537060D01*
X62955849Y-132556466D01*
X62963081Y-132576678D01*
X62968297Y-132597502D01*
X62971447Y-132618737D01*
X62972500Y-132640178D01*
X62972500Y-133152678D01*
X62971447Y-133174119D01*
X62968297Y-133195354D01*
X62963081Y-133216178D01*
X62955849Y-133236390D01*
X62946670Y-133255796D01*
X62935634Y-133274209D01*
X62922846Y-133291452D01*
X62908430Y-133307358D01*
X62892524Y-133321774D01*
X62875281Y-133334562D01*
X62856868Y-133345598D01*
X62837462Y-133354777D01*
X62817250Y-133362009D01*
X62796426Y-133367225D01*
X62775191Y-133370375D01*
X62753750Y-133371428D01*
X62316250Y-133371428D01*
X62294809Y-133370375D01*
X62273574Y-133367225D01*
X62252750Y-133362009D01*
X62232538Y-133354777D01*
X62213132Y-133345598D01*
X62194719Y-133334562D01*
X62177476Y-133321774D01*
X62161570Y-133307358D01*
X62147154Y-133291452D01*
X62134366Y-133274209D01*
X62123330Y-133255796D01*
X62114151Y-133236390D01*
X62106919Y-133216178D01*
X62101703Y-133195354D01*
X62098553Y-133174119D01*
X62097500Y-133152678D01*
X62097500Y-132640178D01*
X62098553Y-132618737D01*
X62101703Y-132597502D01*
X62106919Y-132576678D01*
X62114151Y-132556466D01*
X62123330Y-132537060D01*
X62134366Y-132518647D01*
X62147154Y-132501404D01*
X62161570Y-132485498D01*
X62177476Y-132471082D01*
X62194719Y-132458294D01*
X62213132Y-132447258D01*
X62232538Y-132438079D01*
X62252750Y-132430847D01*
X62273574Y-132425631D01*
X62294809Y-132422481D01*
X62316250Y-132421428D01*
X62753750Y-132421428D01*
X62775191Y-132422481D01*
X62775191Y-132422481D01*
G37*
D13*
X62535000Y-132896428D03*
D10*
G36*
X61200191Y-132422481D02*
G01*
X61221426Y-132425631D01*
X61242250Y-132430847D01*
X61262462Y-132438079D01*
X61281868Y-132447258D01*
X61300281Y-132458294D01*
X61317524Y-132471082D01*
X61333430Y-132485498D01*
X61347846Y-132501404D01*
X61360634Y-132518647D01*
X61371670Y-132537060D01*
X61380849Y-132556466D01*
X61388081Y-132576678D01*
X61393297Y-132597502D01*
X61396447Y-132618737D01*
X61397500Y-132640178D01*
X61397500Y-133152678D01*
X61396447Y-133174119D01*
X61393297Y-133195354D01*
X61388081Y-133216178D01*
X61380849Y-133236390D01*
X61371670Y-133255796D01*
X61360634Y-133274209D01*
X61347846Y-133291452D01*
X61333430Y-133307358D01*
X61317524Y-133321774D01*
X61300281Y-133334562D01*
X61281868Y-133345598D01*
X61262462Y-133354777D01*
X61242250Y-133362009D01*
X61221426Y-133367225D01*
X61200191Y-133370375D01*
X61178750Y-133371428D01*
X60741250Y-133371428D01*
X60719809Y-133370375D01*
X60698574Y-133367225D01*
X60677750Y-133362009D01*
X60657538Y-133354777D01*
X60638132Y-133345598D01*
X60619719Y-133334562D01*
X60602476Y-133321774D01*
X60586570Y-133307358D01*
X60572154Y-133291452D01*
X60559366Y-133274209D01*
X60548330Y-133255796D01*
X60539151Y-133236390D01*
X60531919Y-133216178D01*
X60526703Y-133195354D01*
X60523553Y-133174119D01*
X60522500Y-133152678D01*
X60522500Y-132640178D01*
X60523553Y-132618737D01*
X60526703Y-132597502D01*
X60531919Y-132576678D01*
X60539151Y-132556466D01*
X60548330Y-132537060D01*
X60559366Y-132518647D01*
X60572154Y-132501404D01*
X60586570Y-132485498D01*
X60602476Y-132471082D01*
X60619719Y-132458294D01*
X60638132Y-132447258D01*
X60657538Y-132438079D01*
X60677750Y-132430847D01*
X60698574Y-132425631D01*
X60719809Y-132422481D01*
X60741250Y-132421428D01*
X61178750Y-132421428D01*
X61200191Y-132422481D01*
X61200191Y-132422481D01*
G37*
D13*
X60960000Y-132896428D03*
D10*
G36*
X62775191Y-140405337D02*
G01*
X62796426Y-140408487D01*
X62817250Y-140413703D01*
X62837462Y-140420935D01*
X62856868Y-140430114D01*
X62875281Y-140441150D01*
X62892524Y-140453938D01*
X62908430Y-140468354D01*
X62922846Y-140484260D01*
X62935634Y-140501503D01*
X62946670Y-140519916D01*
X62955849Y-140539322D01*
X62963081Y-140559534D01*
X62968297Y-140580358D01*
X62971447Y-140601593D01*
X62972500Y-140623034D01*
X62972500Y-141135534D01*
X62971447Y-141156975D01*
X62968297Y-141178210D01*
X62963081Y-141199034D01*
X62955849Y-141219246D01*
X62946670Y-141238652D01*
X62935634Y-141257065D01*
X62922846Y-141274308D01*
X62908430Y-141290214D01*
X62892524Y-141304630D01*
X62875281Y-141317418D01*
X62856868Y-141328454D01*
X62837462Y-141337633D01*
X62817250Y-141344865D01*
X62796426Y-141350081D01*
X62775191Y-141353231D01*
X62753750Y-141354284D01*
X62316250Y-141354284D01*
X62294809Y-141353231D01*
X62273574Y-141350081D01*
X62252750Y-141344865D01*
X62232538Y-141337633D01*
X62213132Y-141328454D01*
X62194719Y-141317418D01*
X62177476Y-141304630D01*
X62161570Y-141290214D01*
X62147154Y-141274308D01*
X62134366Y-141257065D01*
X62123330Y-141238652D01*
X62114151Y-141219246D01*
X62106919Y-141199034D01*
X62101703Y-141178210D01*
X62098553Y-141156975D01*
X62097500Y-141135534D01*
X62097500Y-140623034D01*
X62098553Y-140601593D01*
X62101703Y-140580358D01*
X62106919Y-140559534D01*
X62114151Y-140539322D01*
X62123330Y-140519916D01*
X62134366Y-140501503D01*
X62147154Y-140484260D01*
X62161570Y-140468354D01*
X62177476Y-140453938D01*
X62194719Y-140441150D01*
X62213132Y-140430114D01*
X62232538Y-140420935D01*
X62252750Y-140413703D01*
X62273574Y-140408487D01*
X62294809Y-140405337D01*
X62316250Y-140404284D01*
X62753750Y-140404284D01*
X62775191Y-140405337D01*
X62775191Y-140405337D01*
G37*
D13*
X62535000Y-140879284D03*
D10*
G36*
X61200191Y-140405337D02*
G01*
X61221426Y-140408487D01*
X61242250Y-140413703D01*
X61262462Y-140420935D01*
X61281868Y-140430114D01*
X61300281Y-140441150D01*
X61317524Y-140453938D01*
X61333430Y-140468354D01*
X61347846Y-140484260D01*
X61360634Y-140501503D01*
X61371670Y-140519916D01*
X61380849Y-140539322D01*
X61388081Y-140559534D01*
X61393297Y-140580358D01*
X61396447Y-140601593D01*
X61397500Y-140623034D01*
X61397500Y-141135534D01*
X61396447Y-141156975D01*
X61393297Y-141178210D01*
X61388081Y-141199034D01*
X61380849Y-141219246D01*
X61371670Y-141238652D01*
X61360634Y-141257065D01*
X61347846Y-141274308D01*
X61333430Y-141290214D01*
X61317524Y-141304630D01*
X61300281Y-141317418D01*
X61281868Y-141328454D01*
X61262462Y-141337633D01*
X61242250Y-141344865D01*
X61221426Y-141350081D01*
X61200191Y-141353231D01*
X61178750Y-141354284D01*
X60741250Y-141354284D01*
X60719809Y-141353231D01*
X60698574Y-141350081D01*
X60677750Y-141344865D01*
X60657538Y-141337633D01*
X60638132Y-141328454D01*
X60619719Y-141317418D01*
X60602476Y-141304630D01*
X60586570Y-141290214D01*
X60572154Y-141274308D01*
X60559366Y-141257065D01*
X60548330Y-141238652D01*
X60539151Y-141219246D01*
X60531919Y-141199034D01*
X60526703Y-141178210D01*
X60523553Y-141156975D01*
X60522500Y-141135534D01*
X60522500Y-140623034D01*
X60523553Y-140601593D01*
X60526703Y-140580358D01*
X60531919Y-140559534D01*
X60539151Y-140539322D01*
X60548330Y-140519916D01*
X60559366Y-140501503D01*
X60572154Y-140484260D01*
X60586570Y-140468354D01*
X60602476Y-140453938D01*
X60619719Y-140441150D01*
X60638132Y-140430114D01*
X60657538Y-140420935D01*
X60677750Y-140413703D01*
X60698574Y-140408487D01*
X60719809Y-140405337D01*
X60741250Y-140404284D01*
X61178750Y-140404284D01*
X61200191Y-140405337D01*
X61200191Y-140405337D01*
G37*
D13*
X60960000Y-140879284D03*
D10*
G36*
X61200191Y-128431053D02*
G01*
X61221426Y-128434203D01*
X61242250Y-128439419D01*
X61262462Y-128446651D01*
X61281868Y-128455830D01*
X61300281Y-128466866D01*
X61317524Y-128479654D01*
X61333430Y-128494070D01*
X61347846Y-128509976D01*
X61360634Y-128527219D01*
X61371670Y-128545632D01*
X61380849Y-128565038D01*
X61388081Y-128585250D01*
X61393297Y-128606074D01*
X61396447Y-128627309D01*
X61397500Y-128648750D01*
X61397500Y-129161250D01*
X61396447Y-129182691D01*
X61393297Y-129203926D01*
X61388081Y-129224750D01*
X61380849Y-129244962D01*
X61371670Y-129264368D01*
X61360634Y-129282781D01*
X61347846Y-129300024D01*
X61333430Y-129315930D01*
X61317524Y-129330346D01*
X61300281Y-129343134D01*
X61281868Y-129354170D01*
X61262462Y-129363349D01*
X61242250Y-129370581D01*
X61221426Y-129375797D01*
X61200191Y-129378947D01*
X61178750Y-129380000D01*
X60741250Y-129380000D01*
X60719809Y-129378947D01*
X60698574Y-129375797D01*
X60677750Y-129370581D01*
X60657538Y-129363349D01*
X60638132Y-129354170D01*
X60619719Y-129343134D01*
X60602476Y-129330346D01*
X60586570Y-129315930D01*
X60572154Y-129300024D01*
X60559366Y-129282781D01*
X60548330Y-129264368D01*
X60539151Y-129244962D01*
X60531919Y-129224750D01*
X60526703Y-129203926D01*
X60523553Y-129182691D01*
X60522500Y-129161250D01*
X60522500Y-128648750D01*
X60523553Y-128627309D01*
X60526703Y-128606074D01*
X60531919Y-128585250D01*
X60539151Y-128565038D01*
X60548330Y-128545632D01*
X60559366Y-128527219D01*
X60572154Y-128509976D01*
X60586570Y-128494070D01*
X60602476Y-128479654D01*
X60619719Y-128466866D01*
X60638132Y-128455830D01*
X60657538Y-128446651D01*
X60677750Y-128439419D01*
X60698574Y-128434203D01*
X60719809Y-128431053D01*
X60741250Y-128430000D01*
X61178750Y-128430000D01*
X61200191Y-128431053D01*
X61200191Y-128431053D01*
G37*
D13*
X60960000Y-128905000D03*
D10*
G36*
X62775191Y-128431053D02*
G01*
X62796426Y-128434203D01*
X62817250Y-128439419D01*
X62837462Y-128446651D01*
X62856868Y-128455830D01*
X62875281Y-128466866D01*
X62892524Y-128479654D01*
X62908430Y-128494070D01*
X62922846Y-128509976D01*
X62935634Y-128527219D01*
X62946670Y-128545632D01*
X62955849Y-128565038D01*
X62963081Y-128585250D01*
X62968297Y-128606074D01*
X62971447Y-128627309D01*
X62972500Y-128648750D01*
X62972500Y-129161250D01*
X62971447Y-129182691D01*
X62968297Y-129203926D01*
X62963081Y-129224750D01*
X62955849Y-129244962D01*
X62946670Y-129264368D01*
X62935634Y-129282781D01*
X62922846Y-129300024D01*
X62908430Y-129315930D01*
X62892524Y-129330346D01*
X62875281Y-129343134D01*
X62856868Y-129354170D01*
X62837462Y-129363349D01*
X62817250Y-129370581D01*
X62796426Y-129375797D01*
X62775191Y-129378947D01*
X62753750Y-129380000D01*
X62316250Y-129380000D01*
X62294809Y-129378947D01*
X62273574Y-129375797D01*
X62252750Y-129370581D01*
X62232538Y-129363349D01*
X62213132Y-129354170D01*
X62194719Y-129343134D01*
X62177476Y-129330346D01*
X62161570Y-129315930D01*
X62147154Y-129300024D01*
X62134366Y-129282781D01*
X62123330Y-129264368D01*
X62114151Y-129244962D01*
X62106919Y-129224750D01*
X62101703Y-129203926D01*
X62098553Y-129182691D01*
X62097500Y-129161250D01*
X62097500Y-128648750D01*
X62098553Y-128627309D01*
X62101703Y-128606074D01*
X62106919Y-128585250D01*
X62114151Y-128565038D01*
X62123330Y-128545632D01*
X62134366Y-128527219D01*
X62147154Y-128509976D01*
X62161570Y-128494070D01*
X62177476Y-128479654D01*
X62194719Y-128466866D01*
X62213132Y-128455830D01*
X62232538Y-128446651D01*
X62252750Y-128439419D01*
X62273574Y-128434203D01*
X62294809Y-128431053D01*
X62316250Y-128430000D01*
X62753750Y-128430000D01*
X62775191Y-128431053D01*
X62775191Y-128431053D01*
G37*
D13*
X62535000Y-128905000D03*
D10*
G36*
X62775191Y-136413909D02*
G01*
X62796426Y-136417059D01*
X62817250Y-136422275D01*
X62837462Y-136429507D01*
X62856868Y-136438686D01*
X62875281Y-136449722D01*
X62892524Y-136462510D01*
X62908430Y-136476926D01*
X62922846Y-136492832D01*
X62935634Y-136510075D01*
X62946670Y-136528488D01*
X62955849Y-136547894D01*
X62963081Y-136568106D01*
X62968297Y-136588930D01*
X62971447Y-136610165D01*
X62972500Y-136631606D01*
X62972500Y-137144106D01*
X62971447Y-137165547D01*
X62968297Y-137186782D01*
X62963081Y-137207606D01*
X62955849Y-137227818D01*
X62946670Y-137247224D01*
X62935634Y-137265637D01*
X62922846Y-137282880D01*
X62908430Y-137298786D01*
X62892524Y-137313202D01*
X62875281Y-137325990D01*
X62856868Y-137337026D01*
X62837462Y-137346205D01*
X62817250Y-137353437D01*
X62796426Y-137358653D01*
X62775191Y-137361803D01*
X62753750Y-137362856D01*
X62316250Y-137362856D01*
X62294809Y-137361803D01*
X62273574Y-137358653D01*
X62252750Y-137353437D01*
X62232538Y-137346205D01*
X62213132Y-137337026D01*
X62194719Y-137325990D01*
X62177476Y-137313202D01*
X62161570Y-137298786D01*
X62147154Y-137282880D01*
X62134366Y-137265637D01*
X62123330Y-137247224D01*
X62114151Y-137227818D01*
X62106919Y-137207606D01*
X62101703Y-137186782D01*
X62098553Y-137165547D01*
X62097500Y-137144106D01*
X62097500Y-136631606D01*
X62098553Y-136610165D01*
X62101703Y-136588930D01*
X62106919Y-136568106D01*
X62114151Y-136547894D01*
X62123330Y-136528488D01*
X62134366Y-136510075D01*
X62147154Y-136492832D01*
X62161570Y-136476926D01*
X62177476Y-136462510D01*
X62194719Y-136449722D01*
X62213132Y-136438686D01*
X62232538Y-136429507D01*
X62252750Y-136422275D01*
X62273574Y-136417059D01*
X62294809Y-136413909D01*
X62316250Y-136412856D01*
X62753750Y-136412856D01*
X62775191Y-136413909D01*
X62775191Y-136413909D01*
G37*
D13*
X62535000Y-136887856D03*
D10*
G36*
X61200191Y-136413909D02*
G01*
X61221426Y-136417059D01*
X61242250Y-136422275D01*
X61262462Y-136429507D01*
X61281868Y-136438686D01*
X61300281Y-136449722D01*
X61317524Y-136462510D01*
X61333430Y-136476926D01*
X61347846Y-136492832D01*
X61360634Y-136510075D01*
X61371670Y-136528488D01*
X61380849Y-136547894D01*
X61388081Y-136568106D01*
X61393297Y-136588930D01*
X61396447Y-136610165D01*
X61397500Y-136631606D01*
X61397500Y-137144106D01*
X61396447Y-137165547D01*
X61393297Y-137186782D01*
X61388081Y-137207606D01*
X61380849Y-137227818D01*
X61371670Y-137247224D01*
X61360634Y-137265637D01*
X61347846Y-137282880D01*
X61333430Y-137298786D01*
X61317524Y-137313202D01*
X61300281Y-137325990D01*
X61281868Y-137337026D01*
X61262462Y-137346205D01*
X61242250Y-137353437D01*
X61221426Y-137358653D01*
X61200191Y-137361803D01*
X61178750Y-137362856D01*
X60741250Y-137362856D01*
X60719809Y-137361803D01*
X60698574Y-137358653D01*
X60677750Y-137353437D01*
X60657538Y-137346205D01*
X60638132Y-137337026D01*
X60619719Y-137325990D01*
X60602476Y-137313202D01*
X60586570Y-137298786D01*
X60572154Y-137282880D01*
X60559366Y-137265637D01*
X60548330Y-137247224D01*
X60539151Y-137227818D01*
X60531919Y-137207606D01*
X60526703Y-137186782D01*
X60523553Y-137165547D01*
X60522500Y-137144106D01*
X60522500Y-136631606D01*
X60523553Y-136610165D01*
X60526703Y-136588930D01*
X60531919Y-136568106D01*
X60539151Y-136547894D01*
X60548330Y-136528488D01*
X60559366Y-136510075D01*
X60572154Y-136492832D01*
X60586570Y-136476926D01*
X60602476Y-136462510D01*
X60619719Y-136449722D01*
X60638132Y-136438686D01*
X60657538Y-136429507D01*
X60677750Y-136422275D01*
X60698574Y-136417059D01*
X60719809Y-136413909D01*
X60741250Y-136412856D01*
X61178750Y-136412856D01*
X61200191Y-136413909D01*
X61200191Y-136413909D01*
G37*
D13*
X60960000Y-136887856D03*
D10*
G36*
X61200191Y-138409623D02*
G01*
X61221426Y-138412773D01*
X61242250Y-138417989D01*
X61262462Y-138425221D01*
X61281868Y-138434400D01*
X61300281Y-138445436D01*
X61317524Y-138458224D01*
X61333430Y-138472640D01*
X61347846Y-138488546D01*
X61360634Y-138505789D01*
X61371670Y-138524202D01*
X61380849Y-138543608D01*
X61388081Y-138563820D01*
X61393297Y-138584644D01*
X61396447Y-138605879D01*
X61397500Y-138627320D01*
X61397500Y-139139820D01*
X61396447Y-139161261D01*
X61393297Y-139182496D01*
X61388081Y-139203320D01*
X61380849Y-139223532D01*
X61371670Y-139242938D01*
X61360634Y-139261351D01*
X61347846Y-139278594D01*
X61333430Y-139294500D01*
X61317524Y-139308916D01*
X61300281Y-139321704D01*
X61281868Y-139332740D01*
X61262462Y-139341919D01*
X61242250Y-139349151D01*
X61221426Y-139354367D01*
X61200191Y-139357517D01*
X61178750Y-139358570D01*
X60741250Y-139358570D01*
X60719809Y-139357517D01*
X60698574Y-139354367D01*
X60677750Y-139349151D01*
X60657538Y-139341919D01*
X60638132Y-139332740D01*
X60619719Y-139321704D01*
X60602476Y-139308916D01*
X60586570Y-139294500D01*
X60572154Y-139278594D01*
X60559366Y-139261351D01*
X60548330Y-139242938D01*
X60539151Y-139223532D01*
X60531919Y-139203320D01*
X60526703Y-139182496D01*
X60523553Y-139161261D01*
X60522500Y-139139820D01*
X60522500Y-138627320D01*
X60523553Y-138605879D01*
X60526703Y-138584644D01*
X60531919Y-138563820D01*
X60539151Y-138543608D01*
X60548330Y-138524202D01*
X60559366Y-138505789D01*
X60572154Y-138488546D01*
X60586570Y-138472640D01*
X60602476Y-138458224D01*
X60619719Y-138445436D01*
X60638132Y-138434400D01*
X60657538Y-138425221D01*
X60677750Y-138417989D01*
X60698574Y-138412773D01*
X60719809Y-138409623D01*
X60741250Y-138408570D01*
X61178750Y-138408570D01*
X61200191Y-138409623D01*
X61200191Y-138409623D01*
G37*
D13*
X60960000Y-138883570D03*
D10*
G36*
X62775191Y-138409623D02*
G01*
X62796426Y-138412773D01*
X62817250Y-138417989D01*
X62837462Y-138425221D01*
X62856868Y-138434400D01*
X62875281Y-138445436D01*
X62892524Y-138458224D01*
X62908430Y-138472640D01*
X62922846Y-138488546D01*
X62935634Y-138505789D01*
X62946670Y-138524202D01*
X62955849Y-138543608D01*
X62963081Y-138563820D01*
X62968297Y-138584644D01*
X62971447Y-138605879D01*
X62972500Y-138627320D01*
X62972500Y-139139820D01*
X62971447Y-139161261D01*
X62968297Y-139182496D01*
X62963081Y-139203320D01*
X62955849Y-139223532D01*
X62946670Y-139242938D01*
X62935634Y-139261351D01*
X62922846Y-139278594D01*
X62908430Y-139294500D01*
X62892524Y-139308916D01*
X62875281Y-139321704D01*
X62856868Y-139332740D01*
X62837462Y-139341919D01*
X62817250Y-139349151D01*
X62796426Y-139354367D01*
X62775191Y-139357517D01*
X62753750Y-139358570D01*
X62316250Y-139358570D01*
X62294809Y-139357517D01*
X62273574Y-139354367D01*
X62252750Y-139349151D01*
X62232538Y-139341919D01*
X62213132Y-139332740D01*
X62194719Y-139321704D01*
X62177476Y-139308916D01*
X62161570Y-139294500D01*
X62147154Y-139278594D01*
X62134366Y-139261351D01*
X62123330Y-139242938D01*
X62114151Y-139223532D01*
X62106919Y-139203320D01*
X62101703Y-139182496D01*
X62098553Y-139161261D01*
X62097500Y-139139820D01*
X62097500Y-138627320D01*
X62098553Y-138605879D01*
X62101703Y-138584644D01*
X62106919Y-138563820D01*
X62114151Y-138543608D01*
X62123330Y-138524202D01*
X62134366Y-138505789D01*
X62147154Y-138488546D01*
X62161570Y-138472640D01*
X62177476Y-138458224D01*
X62194719Y-138445436D01*
X62213132Y-138434400D01*
X62232538Y-138425221D01*
X62252750Y-138417989D01*
X62273574Y-138412773D01*
X62294809Y-138409623D01*
X62316250Y-138408570D01*
X62753750Y-138408570D01*
X62775191Y-138409623D01*
X62775191Y-138409623D01*
G37*
D13*
X62535000Y-138883570D03*
D10*
G36*
X62775191Y-130426767D02*
G01*
X62796426Y-130429917D01*
X62817250Y-130435133D01*
X62837462Y-130442365D01*
X62856868Y-130451544D01*
X62875281Y-130462580D01*
X62892524Y-130475368D01*
X62908430Y-130489784D01*
X62922846Y-130505690D01*
X62935634Y-130522933D01*
X62946670Y-130541346D01*
X62955849Y-130560752D01*
X62963081Y-130580964D01*
X62968297Y-130601788D01*
X62971447Y-130623023D01*
X62972500Y-130644464D01*
X62972500Y-131156964D01*
X62971447Y-131178405D01*
X62968297Y-131199640D01*
X62963081Y-131220464D01*
X62955849Y-131240676D01*
X62946670Y-131260082D01*
X62935634Y-131278495D01*
X62922846Y-131295738D01*
X62908430Y-131311644D01*
X62892524Y-131326060D01*
X62875281Y-131338848D01*
X62856868Y-131349884D01*
X62837462Y-131359063D01*
X62817250Y-131366295D01*
X62796426Y-131371511D01*
X62775191Y-131374661D01*
X62753750Y-131375714D01*
X62316250Y-131375714D01*
X62294809Y-131374661D01*
X62273574Y-131371511D01*
X62252750Y-131366295D01*
X62232538Y-131359063D01*
X62213132Y-131349884D01*
X62194719Y-131338848D01*
X62177476Y-131326060D01*
X62161570Y-131311644D01*
X62147154Y-131295738D01*
X62134366Y-131278495D01*
X62123330Y-131260082D01*
X62114151Y-131240676D01*
X62106919Y-131220464D01*
X62101703Y-131199640D01*
X62098553Y-131178405D01*
X62097500Y-131156964D01*
X62097500Y-130644464D01*
X62098553Y-130623023D01*
X62101703Y-130601788D01*
X62106919Y-130580964D01*
X62114151Y-130560752D01*
X62123330Y-130541346D01*
X62134366Y-130522933D01*
X62147154Y-130505690D01*
X62161570Y-130489784D01*
X62177476Y-130475368D01*
X62194719Y-130462580D01*
X62213132Y-130451544D01*
X62232538Y-130442365D01*
X62252750Y-130435133D01*
X62273574Y-130429917D01*
X62294809Y-130426767D01*
X62316250Y-130425714D01*
X62753750Y-130425714D01*
X62775191Y-130426767D01*
X62775191Y-130426767D01*
G37*
D13*
X62535000Y-130900714D03*
D10*
G36*
X61200191Y-130426767D02*
G01*
X61221426Y-130429917D01*
X61242250Y-130435133D01*
X61262462Y-130442365D01*
X61281868Y-130451544D01*
X61300281Y-130462580D01*
X61317524Y-130475368D01*
X61333430Y-130489784D01*
X61347846Y-130505690D01*
X61360634Y-130522933D01*
X61371670Y-130541346D01*
X61380849Y-130560752D01*
X61388081Y-130580964D01*
X61393297Y-130601788D01*
X61396447Y-130623023D01*
X61397500Y-130644464D01*
X61397500Y-131156964D01*
X61396447Y-131178405D01*
X61393297Y-131199640D01*
X61388081Y-131220464D01*
X61380849Y-131240676D01*
X61371670Y-131260082D01*
X61360634Y-131278495D01*
X61347846Y-131295738D01*
X61333430Y-131311644D01*
X61317524Y-131326060D01*
X61300281Y-131338848D01*
X61281868Y-131349884D01*
X61262462Y-131359063D01*
X61242250Y-131366295D01*
X61221426Y-131371511D01*
X61200191Y-131374661D01*
X61178750Y-131375714D01*
X60741250Y-131375714D01*
X60719809Y-131374661D01*
X60698574Y-131371511D01*
X60677750Y-131366295D01*
X60657538Y-131359063D01*
X60638132Y-131349884D01*
X60619719Y-131338848D01*
X60602476Y-131326060D01*
X60586570Y-131311644D01*
X60572154Y-131295738D01*
X60559366Y-131278495D01*
X60548330Y-131260082D01*
X60539151Y-131240676D01*
X60531919Y-131220464D01*
X60526703Y-131199640D01*
X60523553Y-131178405D01*
X60522500Y-131156964D01*
X60522500Y-130644464D01*
X60523553Y-130623023D01*
X60526703Y-130601788D01*
X60531919Y-130580964D01*
X60539151Y-130560752D01*
X60548330Y-130541346D01*
X60559366Y-130522933D01*
X60572154Y-130505690D01*
X60586570Y-130489784D01*
X60602476Y-130475368D01*
X60619719Y-130462580D01*
X60638132Y-130451544D01*
X60657538Y-130442365D01*
X60677750Y-130435133D01*
X60698574Y-130429917D01*
X60719809Y-130426767D01*
X60741250Y-130425714D01*
X61178750Y-130425714D01*
X61200191Y-130426767D01*
X61200191Y-130426767D01*
G37*
D13*
X60960000Y-130900714D03*
D10*
G36*
X61200191Y-142401053D02*
G01*
X61221426Y-142404203D01*
X61242250Y-142409419D01*
X61262462Y-142416651D01*
X61281868Y-142425830D01*
X61300281Y-142436866D01*
X61317524Y-142449654D01*
X61333430Y-142464070D01*
X61347846Y-142479976D01*
X61360634Y-142497219D01*
X61371670Y-142515632D01*
X61380849Y-142535038D01*
X61388081Y-142555250D01*
X61393297Y-142576074D01*
X61396447Y-142597309D01*
X61397500Y-142618750D01*
X61397500Y-143131250D01*
X61396447Y-143152691D01*
X61393297Y-143173926D01*
X61388081Y-143194750D01*
X61380849Y-143214962D01*
X61371670Y-143234368D01*
X61360634Y-143252781D01*
X61347846Y-143270024D01*
X61333430Y-143285930D01*
X61317524Y-143300346D01*
X61300281Y-143313134D01*
X61281868Y-143324170D01*
X61262462Y-143333349D01*
X61242250Y-143340581D01*
X61221426Y-143345797D01*
X61200191Y-143348947D01*
X61178750Y-143350000D01*
X60741250Y-143350000D01*
X60719809Y-143348947D01*
X60698574Y-143345797D01*
X60677750Y-143340581D01*
X60657538Y-143333349D01*
X60638132Y-143324170D01*
X60619719Y-143313134D01*
X60602476Y-143300346D01*
X60586570Y-143285930D01*
X60572154Y-143270024D01*
X60559366Y-143252781D01*
X60548330Y-143234368D01*
X60539151Y-143214962D01*
X60531919Y-143194750D01*
X60526703Y-143173926D01*
X60523553Y-143152691D01*
X60522500Y-143131250D01*
X60522500Y-142618750D01*
X60523553Y-142597309D01*
X60526703Y-142576074D01*
X60531919Y-142555250D01*
X60539151Y-142535038D01*
X60548330Y-142515632D01*
X60559366Y-142497219D01*
X60572154Y-142479976D01*
X60586570Y-142464070D01*
X60602476Y-142449654D01*
X60619719Y-142436866D01*
X60638132Y-142425830D01*
X60657538Y-142416651D01*
X60677750Y-142409419D01*
X60698574Y-142404203D01*
X60719809Y-142401053D01*
X60741250Y-142400000D01*
X61178750Y-142400000D01*
X61200191Y-142401053D01*
X61200191Y-142401053D01*
G37*
D13*
X60960000Y-142875000D03*
D10*
G36*
X62775191Y-142401053D02*
G01*
X62796426Y-142404203D01*
X62817250Y-142409419D01*
X62837462Y-142416651D01*
X62856868Y-142425830D01*
X62875281Y-142436866D01*
X62892524Y-142449654D01*
X62908430Y-142464070D01*
X62922846Y-142479976D01*
X62935634Y-142497219D01*
X62946670Y-142515632D01*
X62955849Y-142535038D01*
X62963081Y-142555250D01*
X62968297Y-142576074D01*
X62971447Y-142597309D01*
X62972500Y-142618750D01*
X62972500Y-143131250D01*
X62971447Y-143152691D01*
X62968297Y-143173926D01*
X62963081Y-143194750D01*
X62955849Y-143214962D01*
X62946670Y-143234368D01*
X62935634Y-143252781D01*
X62922846Y-143270024D01*
X62908430Y-143285930D01*
X62892524Y-143300346D01*
X62875281Y-143313134D01*
X62856868Y-143324170D01*
X62837462Y-143333349D01*
X62817250Y-143340581D01*
X62796426Y-143345797D01*
X62775191Y-143348947D01*
X62753750Y-143350000D01*
X62316250Y-143350000D01*
X62294809Y-143348947D01*
X62273574Y-143345797D01*
X62252750Y-143340581D01*
X62232538Y-143333349D01*
X62213132Y-143324170D01*
X62194719Y-143313134D01*
X62177476Y-143300346D01*
X62161570Y-143285930D01*
X62147154Y-143270024D01*
X62134366Y-143252781D01*
X62123330Y-143234368D01*
X62114151Y-143214962D01*
X62106919Y-143194750D01*
X62101703Y-143173926D01*
X62098553Y-143152691D01*
X62097500Y-143131250D01*
X62097500Y-142618750D01*
X62098553Y-142597309D01*
X62101703Y-142576074D01*
X62106919Y-142555250D01*
X62114151Y-142535038D01*
X62123330Y-142515632D01*
X62134366Y-142497219D01*
X62147154Y-142479976D01*
X62161570Y-142464070D01*
X62177476Y-142449654D01*
X62194719Y-142436866D01*
X62213132Y-142425830D01*
X62232538Y-142416651D01*
X62252750Y-142409419D01*
X62273574Y-142404203D01*
X62294809Y-142401053D01*
X62316250Y-142400000D01*
X62753750Y-142400000D01*
X62775191Y-142401053D01*
X62775191Y-142401053D01*
G37*
D13*
X62535000Y-142875000D03*
D10*
G36*
X61200191Y-144331453D02*
G01*
X61221426Y-144334603D01*
X61242250Y-144339819D01*
X61262462Y-144347051D01*
X61281868Y-144356230D01*
X61300281Y-144367266D01*
X61317524Y-144380054D01*
X61333430Y-144394470D01*
X61347846Y-144410376D01*
X61360634Y-144427619D01*
X61371670Y-144446032D01*
X61380849Y-144465438D01*
X61388081Y-144485650D01*
X61393297Y-144506474D01*
X61396447Y-144527709D01*
X61397500Y-144549150D01*
X61397500Y-145061650D01*
X61396447Y-145083091D01*
X61393297Y-145104326D01*
X61388081Y-145125150D01*
X61380849Y-145145362D01*
X61371670Y-145164768D01*
X61360634Y-145183181D01*
X61347846Y-145200424D01*
X61333430Y-145216330D01*
X61317524Y-145230746D01*
X61300281Y-145243534D01*
X61281868Y-145254570D01*
X61262462Y-145263749D01*
X61242250Y-145270981D01*
X61221426Y-145276197D01*
X61200191Y-145279347D01*
X61178750Y-145280400D01*
X60741250Y-145280400D01*
X60719809Y-145279347D01*
X60698574Y-145276197D01*
X60677750Y-145270981D01*
X60657538Y-145263749D01*
X60638132Y-145254570D01*
X60619719Y-145243534D01*
X60602476Y-145230746D01*
X60586570Y-145216330D01*
X60572154Y-145200424D01*
X60559366Y-145183181D01*
X60548330Y-145164768D01*
X60539151Y-145145362D01*
X60531919Y-145125150D01*
X60526703Y-145104326D01*
X60523553Y-145083091D01*
X60522500Y-145061650D01*
X60522500Y-144549150D01*
X60523553Y-144527709D01*
X60526703Y-144506474D01*
X60531919Y-144485650D01*
X60539151Y-144465438D01*
X60548330Y-144446032D01*
X60559366Y-144427619D01*
X60572154Y-144410376D01*
X60586570Y-144394470D01*
X60602476Y-144380054D01*
X60619719Y-144367266D01*
X60638132Y-144356230D01*
X60657538Y-144347051D01*
X60677750Y-144339819D01*
X60698574Y-144334603D01*
X60719809Y-144331453D01*
X60741250Y-144330400D01*
X61178750Y-144330400D01*
X61200191Y-144331453D01*
X61200191Y-144331453D01*
G37*
D13*
X60960000Y-144805400D03*
D10*
G36*
X62775191Y-144331453D02*
G01*
X62796426Y-144334603D01*
X62817250Y-144339819D01*
X62837462Y-144347051D01*
X62856868Y-144356230D01*
X62875281Y-144367266D01*
X62892524Y-144380054D01*
X62908430Y-144394470D01*
X62922846Y-144410376D01*
X62935634Y-144427619D01*
X62946670Y-144446032D01*
X62955849Y-144465438D01*
X62963081Y-144485650D01*
X62968297Y-144506474D01*
X62971447Y-144527709D01*
X62972500Y-144549150D01*
X62972500Y-145061650D01*
X62971447Y-145083091D01*
X62968297Y-145104326D01*
X62963081Y-145125150D01*
X62955849Y-145145362D01*
X62946670Y-145164768D01*
X62935634Y-145183181D01*
X62922846Y-145200424D01*
X62908430Y-145216330D01*
X62892524Y-145230746D01*
X62875281Y-145243534D01*
X62856868Y-145254570D01*
X62837462Y-145263749D01*
X62817250Y-145270981D01*
X62796426Y-145276197D01*
X62775191Y-145279347D01*
X62753750Y-145280400D01*
X62316250Y-145280400D01*
X62294809Y-145279347D01*
X62273574Y-145276197D01*
X62252750Y-145270981D01*
X62232538Y-145263749D01*
X62213132Y-145254570D01*
X62194719Y-145243534D01*
X62177476Y-145230746D01*
X62161570Y-145216330D01*
X62147154Y-145200424D01*
X62134366Y-145183181D01*
X62123330Y-145164768D01*
X62114151Y-145145362D01*
X62106919Y-145125150D01*
X62101703Y-145104326D01*
X62098553Y-145083091D01*
X62097500Y-145061650D01*
X62097500Y-144549150D01*
X62098553Y-144527709D01*
X62101703Y-144506474D01*
X62106919Y-144485650D01*
X62114151Y-144465438D01*
X62123330Y-144446032D01*
X62134366Y-144427619D01*
X62147154Y-144410376D01*
X62161570Y-144394470D01*
X62177476Y-144380054D01*
X62194719Y-144367266D01*
X62213132Y-144356230D01*
X62232538Y-144347051D01*
X62252750Y-144339819D01*
X62273574Y-144334603D01*
X62294809Y-144331453D01*
X62316250Y-144330400D01*
X62753750Y-144330400D01*
X62775191Y-144331453D01*
X62775191Y-144331453D01*
G37*
D13*
X62535000Y-144805400D03*
D10*
G36*
X34890142Y-137096174D02*
G01*
X34913803Y-137099684D01*
X34937007Y-137105496D01*
X34959529Y-137113554D01*
X34981153Y-137123782D01*
X35001670Y-137136079D01*
X35020883Y-137150329D01*
X35038607Y-137166393D01*
X35054671Y-137184117D01*
X35068921Y-137203330D01*
X35081218Y-137223847D01*
X35091446Y-137245471D01*
X35099504Y-137267993D01*
X35105316Y-137291197D01*
X35108826Y-137314858D01*
X35110000Y-137338750D01*
X35110000Y-138251250D01*
X35108826Y-138275142D01*
X35105316Y-138298803D01*
X35099504Y-138322007D01*
X35091446Y-138344529D01*
X35081218Y-138366153D01*
X35068921Y-138386670D01*
X35054671Y-138405883D01*
X35038607Y-138423607D01*
X35020883Y-138439671D01*
X35001670Y-138453921D01*
X34981153Y-138466218D01*
X34959529Y-138476446D01*
X34937007Y-138484504D01*
X34913803Y-138490316D01*
X34890142Y-138493826D01*
X34866250Y-138495000D01*
X34378750Y-138495000D01*
X34354858Y-138493826D01*
X34331197Y-138490316D01*
X34307993Y-138484504D01*
X34285471Y-138476446D01*
X34263847Y-138466218D01*
X34243330Y-138453921D01*
X34224117Y-138439671D01*
X34206393Y-138423607D01*
X34190329Y-138405883D01*
X34176079Y-138386670D01*
X34163782Y-138366153D01*
X34153554Y-138344529D01*
X34145496Y-138322007D01*
X34139684Y-138298803D01*
X34136174Y-138275142D01*
X34135000Y-138251250D01*
X34135000Y-137338750D01*
X34136174Y-137314858D01*
X34139684Y-137291197D01*
X34145496Y-137267993D01*
X34153554Y-137245471D01*
X34163782Y-137223847D01*
X34176079Y-137203330D01*
X34190329Y-137184117D01*
X34206393Y-137166393D01*
X34224117Y-137150329D01*
X34243330Y-137136079D01*
X34263847Y-137123782D01*
X34285471Y-137113554D01*
X34307993Y-137105496D01*
X34331197Y-137099684D01*
X34354858Y-137096174D01*
X34378750Y-137095000D01*
X34866250Y-137095000D01*
X34890142Y-137096174D01*
X34890142Y-137096174D01*
G37*
D12*
X34622500Y-137795000D03*
D10*
G36*
X36765142Y-137096174D02*
G01*
X36788803Y-137099684D01*
X36812007Y-137105496D01*
X36834529Y-137113554D01*
X36856153Y-137123782D01*
X36876670Y-137136079D01*
X36895883Y-137150329D01*
X36913607Y-137166393D01*
X36929671Y-137184117D01*
X36943921Y-137203330D01*
X36956218Y-137223847D01*
X36966446Y-137245471D01*
X36974504Y-137267993D01*
X36980316Y-137291197D01*
X36983826Y-137314858D01*
X36985000Y-137338750D01*
X36985000Y-138251250D01*
X36983826Y-138275142D01*
X36980316Y-138298803D01*
X36974504Y-138322007D01*
X36966446Y-138344529D01*
X36956218Y-138366153D01*
X36943921Y-138386670D01*
X36929671Y-138405883D01*
X36913607Y-138423607D01*
X36895883Y-138439671D01*
X36876670Y-138453921D01*
X36856153Y-138466218D01*
X36834529Y-138476446D01*
X36812007Y-138484504D01*
X36788803Y-138490316D01*
X36765142Y-138493826D01*
X36741250Y-138495000D01*
X36253750Y-138495000D01*
X36229858Y-138493826D01*
X36206197Y-138490316D01*
X36182993Y-138484504D01*
X36160471Y-138476446D01*
X36138847Y-138466218D01*
X36118330Y-138453921D01*
X36099117Y-138439671D01*
X36081393Y-138423607D01*
X36065329Y-138405883D01*
X36051079Y-138386670D01*
X36038782Y-138366153D01*
X36028554Y-138344529D01*
X36020496Y-138322007D01*
X36014684Y-138298803D01*
X36011174Y-138275142D01*
X36010000Y-138251250D01*
X36010000Y-137338750D01*
X36011174Y-137314858D01*
X36014684Y-137291197D01*
X36020496Y-137267993D01*
X36028554Y-137245471D01*
X36038782Y-137223847D01*
X36051079Y-137203330D01*
X36065329Y-137184117D01*
X36081393Y-137166393D01*
X36099117Y-137150329D01*
X36118330Y-137136079D01*
X36138847Y-137123782D01*
X36160471Y-137113554D01*
X36182993Y-137105496D01*
X36206197Y-137099684D01*
X36229858Y-137096174D01*
X36253750Y-137095000D01*
X36741250Y-137095000D01*
X36765142Y-137096174D01*
X36765142Y-137096174D01*
G37*
D12*
X36497500Y-137795000D03*
D10*
G36*
X34751958Y-134935710D02*
G01*
X34766276Y-134937834D01*
X34780317Y-134941351D01*
X34793946Y-134946228D01*
X34807031Y-134952417D01*
X34819447Y-134959858D01*
X34831073Y-134968481D01*
X34841798Y-134978202D01*
X34851519Y-134988927D01*
X34860142Y-135000553D01*
X34867583Y-135012969D01*
X34873772Y-135026054D01*
X34878649Y-135039683D01*
X34882166Y-135053724D01*
X34884290Y-135068042D01*
X34885000Y-135082500D01*
X34885000Y-135427500D01*
X34884290Y-135441958D01*
X34882166Y-135456276D01*
X34878649Y-135470317D01*
X34873772Y-135483946D01*
X34867583Y-135497031D01*
X34860142Y-135509447D01*
X34851519Y-135521073D01*
X34841798Y-135531798D01*
X34831073Y-135541519D01*
X34819447Y-135550142D01*
X34807031Y-135557583D01*
X34793946Y-135563772D01*
X34780317Y-135568649D01*
X34766276Y-135572166D01*
X34751958Y-135574290D01*
X34737500Y-135575000D01*
X34442500Y-135575000D01*
X34428042Y-135574290D01*
X34413724Y-135572166D01*
X34399683Y-135568649D01*
X34386054Y-135563772D01*
X34372969Y-135557583D01*
X34360553Y-135550142D01*
X34348927Y-135541519D01*
X34338202Y-135531798D01*
X34328481Y-135521073D01*
X34319858Y-135509447D01*
X34312417Y-135497031D01*
X34306228Y-135483946D01*
X34301351Y-135470317D01*
X34297834Y-135456276D01*
X34295710Y-135441958D01*
X34295000Y-135427500D01*
X34295000Y-135082500D01*
X34295710Y-135068042D01*
X34297834Y-135053724D01*
X34301351Y-135039683D01*
X34306228Y-135026054D01*
X34312417Y-135012969D01*
X34319858Y-135000553D01*
X34328481Y-134988927D01*
X34338202Y-134978202D01*
X34348927Y-134968481D01*
X34360553Y-134959858D01*
X34372969Y-134952417D01*
X34386054Y-134946228D01*
X34399683Y-134941351D01*
X34413724Y-134937834D01*
X34428042Y-134935710D01*
X34442500Y-134935000D01*
X34737500Y-134935000D01*
X34751958Y-134935710D01*
X34751958Y-134935710D01*
G37*
D14*
X34590000Y-135255000D03*
D10*
G36*
X35721958Y-134935710D02*
G01*
X35736276Y-134937834D01*
X35750317Y-134941351D01*
X35763946Y-134946228D01*
X35777031Y-134952417D01*
X35789447Y-134959858D01*
X35801073Y-134968481D01*
X35811798Y-134978202D01*
X35821519Y-134988927D01*
X35830142Y-135000553D01*
X35837583Y-135012969D01*
X35843772Y-135026054D01*
X35848649Y-135039683D01*
X35852166Y-135053724D01*
X35854290Y-135068042D01*
X35855000Y-135082500D01*
X35855000Y-135427500D01*
X35854290Y-135441958D01*
X35852166Y-135456276D01*
X35848649Y-135470317D01*
X35843772Y-135483946D01*
X35837583Y-135497031D01*
X35830142Y-135509447D01*
X35821519Y-135521073D01*
X35811798Y-135531798D01*
X35801073Y-135541519D01*
X35789447Y-135550142D01*
X35777031Y-135557583D01*
X35763946Y-135563772D01*
X35750317Y-135568649D01*
X35736276Y-135572166D01*
X35721958Y-135574290D01*
X35707500Y-135575000D01*
X35412500Y-135575000D01*
X35398042Y-135574290D01*
X35383724Y-135572166D01*
X35369683Y-135568649D01*
X35356054Y-135563772D01*
X35342969Y-135557583D01*
X35330553Y-135550142D01*
X35318927Y-135541519D01*
X35308202Y-135531798D01*
X35298481Y-135521073D01*
X35289858Y-135509447D01*
X35282417Y-135497031D01*
X35276228Y-135483946D01*
X35271351Y-135470317D01*
X35267834Y-135456276D01*
X35265710Y-135441958D01*
X35265000Y-135427500D01*
X35265000Y-135082500D01*
X35265710Y-135068042D01*
X35267834Y-135053724D01*
X35271351Y-135039683D01*
X35276228Y-135026054D01*
X35282417Y-135012969D01*
X35289858Y-135000553D01*
X35298481Y-134988927D01*
X35308202Y-134978202D01*
X35318927Y-134968481D01*
X35330553Y-134959858D01*
X35342969Y-134952417D01*
X35356054Y-134946228D01*
X35369683Y-134941351D01*
X35383724Y-134937834D01*
X35398042Y-134935710D01*
X35412500Y-134935000D01*
X35707500Y-134935000D01*
X35721958Y-134935710D01*
X35721958Y-134935710D01*
G37*
D14*
X35560000Y-135255000D03*
D10*
G36*
X35429458Y-151135710D02*
G01*
X35443776Y-151137834D01*
X35457817Y-151141351D01*
X35471446Y-151146228D01*
X35484531Y-151152417D01*
X35496947Y-151159858D01*
X35508573Y-151168481D01*
X35519298Y-151178202D01*
X35529019Y-151188927D01*
X35537642Y-151200553D01*
X35545083Y-151212969D01*
X35551272Y-151226054D01*
X35556149Y-151239683D01*
X35559666Y-151253724D01*
X35561790Y-151268042D01*
X35562500Y-151282500D01*
X35562500Y-151577500D01*
X35561790Y-151591958D01*
X35559666Y-151606276D01*
X35556149Y-151620317D01*
X35551272Y-151633946D01*
X35545083Y-151647031D01*
X35537642Y-151659447D01*
X35529019Y-151671073D01*
X35519298Y-151681798D01*
X35508573Y-151691519D01*
X35496947Y-151700142D01*
X35484531Y-151707583D01*
X35471446Y-151713772D01*
X35457817Y-151718649D01*
X35443776Y-151722166D01*
X35429458Y-151724290D01*
X35415000Y-151725000D01*
X35070000Y-151725000D01*
X35055542Y-151724290D01*
X35041224Y-151722166D01*
X35027183Y-151718649D01*
X35013554Y-151713772D01*
X35000469Y-151707583D01*
X34988053Y-151700142D01*
X34976427Y-151691519D01*
X34965702Y-151681798D01*
X34955981Y-151671073D01*
X34947358Y-151659447D01*
X34939917Y-151647031D01*
X34933728Y-151633946D01*
X34928851Y-151620317D01*
X34925334Y-151606276D01*
X34923210Y-151591958D01*
X34922500Y-151577500D01*
X34922500Y-151282500D01*
X34923210Y-151268042D01*
X34925334Y-151253724D01*
X34928851Y-151239683D01*
X34933728Y-151226054D01*
X34939917Y-151212969D01*
X34947358Y-151200553D01*
X34955981Y-151188927D01*
X34965702Y-151178202D01*
X34976427Y-151168481D01*
X34988053Y-151159858D01*
X35000469Y-151152417D01*
X35013554Y-151146228D01*
X35027183Y-151141351D01*
X35041224Y-151137834D01*
X35055542Y-151135710D01*
X35070000Y-151135000D01*
X35415000Y-151135000D01*
X35429458Y-151135710D01*
X35429458Y-151135710D01*
G37*
D14*
X35242500Y-151430000D03*
D10*
G36*
X35429458Y-152105710D02*
G01*
X35443776Y-152107834D01*
X35457817Y-152111351D01*
X35471446Y-152116228D01*
X35484531Y-152122417D01*
X35496947Y-152129858D01*
X35508573Y-152138481D01*
X35519298Y-152148202D01*
X35529019Y-152158927D01*
X35537642Y-152170553D01*
X35545083Y-152182969D01*
X35551272Y-152196054D01*
X35556149Y-152209683D01*
X35559666Y-152223724D01*
X35561790Y-152238042D01*
X35562500Y-152252500D01*
X35562500Y-152547500D01*
X35561790Y-152561958D01*
X35559666Y-152576276D01*
X35556149Y-152590317D01*
X35551272Y-152603946D01*
X35545083Y-152617031D01*
X35537642Y-152629447D01*
X35529019Y-152641073D01*
X35519298Y-152651798D01*
X35508573Y-152661519D01*
X35496947Y-152670142D01*
X35484531Y-152677583D01*
X35471446Y-152683772D01*
X35457817Y-152688649D01*
X35443776Y-152692166D01*
X35429458Y-152694290D01*
X35415000Y-152695000D01*
X35070000Y-152695000D01*
X35055542Y-152694290D01*
X35041224Y-152692166D01*
X35027183Y-152688649D01*
X35013554Y-152683772D01*
X35000469Y-152677583D01*
X34988053Y-152670142D01*
X34976427Y-152661519D01*
X34965702Y-152651798D01*
X34955981Y-152641073D01*
X34947358Y-152629447D01*
X34939917Y-152617031D01*
X34933728Y-152603946D01*
X34928851Y-152590317D01*
X34925334Y-152576276D01*
X34923210Y-152561958D01*
X34922500Y-152547500D01*
X34922500Y-152252500D01*
X34923210Y-152238042D01*
X34925334Y-152223724D01*
X34928851Y-152209683D01*
X34933728Y-152196054D01*
X34939917Y-152182969D01*
X34947358Y-152170553D01*
X34955981Y-152158927D01*
X34965702Y-152148202D01*
X34976427Y-152138481D01*
X34988053Y-152129858D01*
X35000469Y-152122417D01*
X35013554Y-152116228D01*
X35027183Y-152111351D01*
X35041224Y-152107834D01*
X35055542Y-152105710D01*
X35070000Y-152105000D01*
X35415000Y-152105000D01*
X35429458Y-152105710D01*
X35429458Y-152105710D01*
G37*
D14*
X35242500Y-152400000D03*
D10*
G36*
X30006958Y-147000710D02*
G01*
X30021276Y-147002834D01*
X30035317Y-147006351D01*
X30048946Y-147011228D01*
X30062031Y-147017417D01*
X30074447Y-147024858D01*
X30086073Y-147033481D01*
X30096798Y-147043202D01*
X30106519Y-147053927D01*
X30115142Y-147065553D01*
X30122583Y-147077969D01*
X30128772Y-147091054D01*
X30133649Y-147104683D01*
X30137166Y-147118724D01*
X30139290Y-147133042D01*
X30140000Y-147147500D01*
X30140000Y-147492500D01*
X30139290Y-147506958D01*
X30137166Y-147521276D01*
X30133649Y-147535317D01*
X30128772Y-147548946D01*
X30122583Y-147562031D01*
X30115142Y-147574447D01*
X30106519Y-147586073D01*
X30096798Y-147596798D01*
X30086073Y-147606519D01*
X30074447Y-147615142D01*
X30062031Y-147622583D01*
X30048946Y-147628772D01*
X30035317Y-147633649D01*
X30021276Y-147637166D01*
X30006958Y-147639290D01*
X29992500Y-147640000D01*
X29697500Y-147640000D01*
X29683042Y-147639290D01*
X29668724Y-147637166D01*
X29654683Y-147633649D01*
X29641054Y-147628772D01*
X29627969Y-147622583D01*
X29615553Y-147615142D01*
X29603927Y-147606519D01*
X29593202Y-147596798D01*
X29583481Y-147586073D01*
X29574858Y-147574447D01*
X29567417Y-147562031D01*
X29561228Y-147548946D01*
X29556351Y-147535317D01*
X29552834Y-147521276D01*
X29550710Y-147506958D01*
X29550000Y-147492500D01*
X29550000Y-147147500D01*
X29550710Y-147133042D01*
X29552834Y-147118724D01*
X29556351Y-147104683D01*
X29561228Y-147091054D01*
X29567417Y-147077969D01*
X29574858Y-147065553D01*
X29583481Y-147053927D01*
X29593202Y-147043202D01*
X29603927Y-147033481D01*
X29615553Y-147024858D01*
X29627969Y-147017417D01*
X29641054Y-147011228D01*
X29654683Y-147006351D01*
X29668724Y-147002834D01*
X29683042Y-147000710D01*
X29697500Y-147000000D01*
X29992500Y-147000000D01*
X30006958Y-147000710D01*
X30006958Y-147000710D01*
G37*
D14*
X29845000Y-147320000D03*
D10*
G36*
X30976958Y-147000710D02*
G01*
X30991276Y-147002834D01*
X31005317Y-147006351D01*
X31018946Y-147011228D01*
X31032031Y-147017417D01*
X31044447Y-147024858D01*
X31056073Y-147033481D01*
X31066798Y-147043202D01*
X31076519Y-147053927D01*
X31085142Y-147065553D01*
X31092583Y-147077969D01*
X31098772Y-147091054D01*
X31103649Y-147104683D01*
X31107166Y-147118724D01*
X31109290Y-147133042D01*
X31110000Y-147147500D01*
X31110000Y-147492500D01*
X31109290Y-147506958D01*
X31107166Y-147521276D01*
X31103649Y-147535317D01*
X31098772Y-147548946D01*
X31092583Y-147562031D01*
X31085142Y-147574447D01*
X31076519Y-147586073D01*
X31066798Y-147596798D01*
X31056073Y-147606519D01*
X31044447Y-147615142D01*
X31032031Y-147622583D01*
X31018946Y-147628772D01*
X31005317Y-147633649D01*
X30991276Y-147637166D01*
X30976958Y-147639290D01*
X30962500Y-147640000D01*
X30667500Y-147640000D01*
X30653042Y-147639290D01*
X30638724Y-147637166D01*
X30624683Y-147633649D01*
X30611054Y-147628772D01*
X30597969Y-147622583D01*
X30585553Y-147615142D01*
X30573927Y-147606519D01*
X30563202Y-147596798D01*
X30553481Y-147586073D01*
X30544858Y-147574447D01*
X30537417Y-147562031D01*
X30531228Y-147548946D01*
X30526351Y-147535317D01*
X30522834Y-147521276D01*
X30520710Y-147506958D01*
X30520000Y-147492500D01*
X30520000Y-147147500D01*
X30520710Y-147133042D01*
X30522834Y-147118724D01*
X30526351Y-147104683D01*
X30531228Y-147091054D01*
X30537417Y-147077969D01*
X30544858Y-147065553D01*
X30553481Y-147053927D01*
X30563202Y-147043202D01*
X30573927Y-147033481D01*
X30585553Y-147024858D01*
X30597969Y-147017417D01*
X30611054Y-147011228D01*
X30624683Y-147006351D01*
X30638724Y-147002834D01*
X30653042Y-147000710D01*
X30667500Y-147000000D01*
X30962500Y-147000000D01*
X30976958Y-147000710D01*
X30976958Y-147000710D01*
G37*
D14*
X30815000Y-147320000D03*
D10*
G36*
X31355191Y-144306053D02*
G01*
X31376426Y-144309203D01*
X31397250Y-144314419D01*
X31417462Y-144321651D01*
X31436868Y-144330830D01*
X31455281Y-144341866D01*
X31472524Y-144354654D01*
X31488430Y-144369070D01*
X31502846Y-144384976D01*
X31515634Y-144402219D01*
X31526670Y-144420632D01*
X31535849Y-144440038D01*
X31543081Y-144460250D01*
X31548297Y-144481074D01*
X31551447Y-144502309D01*
X31552500Y-144523750D01*
X31552500Y-145036250D01*
X31551447Y-145057691D01*
X31548297Y-145078926D01*
X31543081Y-145099750D01*
X31535849Y-145119962D01*
X31526670Y-145139368D01*
X31515634Y-145157781D01*
X31502846Y-145175024D01*
X31488430Y-145190930D01*
X31472524Y-145205346D01*
X31455281Y-145218134D01*
X31436868Y-145229170D01*
X31417462Y-145238349D01*
X31397250Y-145245581D01*
X31376426Y-145250797D01*
X31355191Y-145253947D01*
X31333750Y-145255000D01*
X30896250Y-145255000D01*
X30874809Y-145253947D01*
X30853574Y-145250797D01*
X30832750Y-145245581D01*
X30812538Y-145238349D01*
X30793132Y-145229170D01*
X30774719Y-145218134D01*
X30757476Y-145205346D01*
X30741570Y-145190930D01*
X30727154Y-145175024D01*
X30714366Y-145157781D01*
X30703330Y-145139368D01*
X30694151Y-145119962D01*
X30686919Y-145099750D01*
X30681703Y-145078926D01*
X30678553Y-145057691D01*
X30677500Y-145036250D01*
X30677500Y-144523750D01*
X30678553Y-144502309D01*
X30681703Y-144481074D01*
X30686919Y-144460250D01*
X30694151Y-144440038D01*
X30703330Y-144420632D01*
X30714366Y-144402219D01*
X30727154Y-144384976D01*
X30741570Y-144369070D01*
X30757476Y-144354654D01*
X30774719Y-144341866D01*
X30793132Y-144330830D01*
X30812538Y-144321651D01*
X30832750Y-144314419D01*
X30853574Y-144309203D01*
X30874809Y-144306053D01*
X30896250Y-144305000D01*
X31333750Y-144305000D01*
X31355191Y-144306053D01*
X31355191Y-144306053D01*
G37*
D13*
X31115000Y-144780000D03*
D10*
G36*
X29780191Y-144306053D02*
G01*
X29801426Y-144309203D01*
X29822250Y-144314419D01*
X29842462Y-144321651D01*
X29861868Y-144330830D01*
X29880281Y-144341866D01*
X29897524Y-144354654D01*
X29913430Y-144369070D01*
X29927846Y-144384976D01*
X29940634Y-144402219D01*
X29951670Y-144420632D01*
X29960849Y-144440038D01*
X29968081Y-144460250D01*
X29973297Y-144481074D01*
X29976447Y-144502309D01*
X29977500Y-144523750D01*
X29977500Y-145036250D01*
X29976447Y-145057691D01*
X29973297Y-145078926D01*
X29968081Y-145099750D01*
X29960849Y-145119962D01*
X29951670Y-145139368D01*
X29940634Y-145157781D01*
X29927846Y-145175024D01*
X29913430Y-145190930D01*
X29897524Y-145205346D01*
X29880281Y-145218134D01*
X29861868Y-145229170D01*
X29842462Y-145238349D01*
X29822250Y-145245581D01*
X29801426Y-145250797D01*
X29780191Y-145253947D01*
X29758750Y-145255000D01*
X29321250Y-145255000D01*
X29299809Y-145253947D01*
X29278574Y-145250797D01*
X29257750Y-145245581D01*
X29237538Y-145238349D01*
X29218132Y-145229170D01*
X29199719Y-145218134D01*
X29182476Y-145205346D01*
X29166570Y-145190930D01*
X29152154Y-145175024D01*
X29139366Y-145157781D01*
X29128330Y-145139368D01*
X29119151Y-145119962D01*
X29111919Y-145099750D01*
X29106703Y-145078926D01*
X29103553Y-145057691D01*
X29102500Y-145036250D01*
X29102500Y-144523750D01*
X29103553Y-144502309D01*
X29106703Y-144481074D01*
X29111919Y-144460250D01*
X29119151Y-144440038D01*
X29128330Y-144420632D01*
X29139366Y-144402219D01*
X29152154Y-144384976D01*
X29166570Y-144369070D01*
X29182476Y-144354654D01*
X29199719Y-144341866D01*
X29218132Y-144330830D01*
X29237538Y-144321651D01*
X29257750Y-144314419D01*
X29278574Y-144309203D01*
X29299809Y-144306053D01*
X29321250Y-144305000D01*
X29758750Y-144305000D01*
X29780191Y-144306053D01*
X29780191Y-144306053D01*
G37*
D13*
X29540000Y-144780000D03*
D10*
G36*
X26693691Y-122118553D02*
G01*
X26714926Y-122121703D01*
X26735750Y-122126919D01*
X26755962Y-122134151D01*
X26775368Y-122143330D01*
X26793781Y-122154366D01*
X26811024Y-122167154D01*
X26826930Y-122181570D01*
X26841346Y-122197476D01*
X26854134Y-122214719D01*
X26865170Y-122233132D01*
X26874349Y-122252538D01*
X26881581Y-122272750D01*
X26886797Y-122293574D01*
X26889947Y-122314809D01*
X26891000Y-122336250D01*
X26891000Y-122773750D01*
X26889947Y-122795191D01*
X26886797Y-122816426D01*
X26881581Y-122837250D01*
X26874349Y-122857462D01*
X26865170Y-122876868D01*
X26854134Y-122895281D01*
X26841346Y-122912524D01*
X26826930Y-122928430D01*
X26811024Y-122942846D01*
X26793781Y-122955634D01*
X26775368Y-122966670D01*
X26755962Y-122975849D01*
X26735750Y-122983081D01*
X26714926Y-122988297D01*
X26693691Y-122991447D01*
X26672250Y-122992500D01*
X26159750Y-122992500D01*
X26138309Y-122991447D01*
X26117074Y-122988297D01*
X26096250Y-122983081D01*
X26076038Y-122975849D01*
X26056632Y-122966670D01*
X26038219Y-122955634D01*
X26020976Y-122942846D01*
X26005070Y-122928430D01*
X25990654Y-122912524D01*
X25977866Y-122895281D01*
X25966830Y-122876868D01*
X25957651Y-122857462D01*
X25950419Y-122837250D01*
X25945203Y-122816426D01*
X25942053Y-122795191D01*
X25941000Y-122773750D01*
X25941000Y-122336250D01*
X25942053Y-122314809D01*
X25945203Y-122293574D01*
X25950419Y-122272750D01*
X25957651Y-122252538D01*
X25966830Y-122233132D01*
X25977866Y-122214719D01*
X25990654Y-122197476D01*
X26005070Y-122181570D01*
X26020976Y-122167154D01*
X26038219Y-122154366D01*
X26056632Y-122143330D01*
X26076038Y-122134151D01*
X26096250Y-122126919D01*
X26117074Y-122121703D01*
X26138309Y-122118553D01*
X26159750Y-122117500D01*
X26672250Y-122117500D01*
X26693691Y-122118553D01*
X26693691Y-122118553D01*
G37*
D13*
X26416000Y-122555000D03*
D10*
G36*
X26693691Y-120543553D02*
G01*
X26714926Y-120546703D01*
X26735750Y-120551919D01*
X26755962Y-120559151D01*
X26775368Y-120568330D01*
X26793781Y-120579366D01*
X26811024Y-120592154D01*
X26826930Y-120606570D01*
X26841346Y-120622476D01*
X26854134Y-120639719D01*
X26865170Y-120658132D01*
X26874349Y-120677538D01*
X26881581Y-120697750D01*
X26886797Y-120718574D01*
X26889947Y-120739809D01*
X26891000Y-120761250D01*
X26891000Y-121198750D01*
X26889947Y-121220191D01*
X26886797Y-121241426D01*
X26881581Y-121262250D01*
X26874349Y-121282462D01*
X26865170Y-121301868D01*
X26854134Y-121320281D01*
X26841346Y-121337524D01*
X26826930Y-121353430D01*
X26811024Y-121367846D01*
X26793781Y-121380634D01*
X26775368Y-121391670D01*
X26755962Y-121400849D01*
X26735750Y-121408081D01*
X26714926Y-121413297D01*
X26693691Y-121416447D01*
X26672250Y-121417500D01*
X26159750Y-121417500D01*
X26138309Y-121416447D01*
X26117074Y-121413297D01*
X26096250Y-121408081D01*
X26076038Y-121400849D01*
X26056632Y-121391670D01*
X26038219Y-121380634D01*
X26020976Y-121367846D01*
X26005070Y-121353430D01*
X25990654Y-121337524D01*
X25977866Y-121320281D01*
X25966830Y-121301868D01*
X25957651Y-121282462D01*
X25950419Y-121262250D01*
X25945203Y-121241426D01*
X25942053Y-121220191D01*
X25941000Y-121198750D01*
X25941000Y-120761250D01*
X25942053Y-120739809D01*
X25945203Y-120718574D01*
X25950419Y-120697750D01*
X25957651Y-120677538D01*
X25966830Y-120658132D01*
X25977866Y-120639719D01*
X25990654Y-120622476D01*
X26005070Y-120606570D01*
X26020976Y-120592154D01*
X26038219Y-120579366D01*
X26056632Y-120568330D01*
X26076038Y-120559151D01*
X26096250Y-120551919D01*
X26117074Y-120546703D01*
X26138309Y-120543553D01*
X26159750Y-120542500D01*
X26672250Y-120542500D01*
X26693691Y-120543553D01*
X26693691Y-120543553D01*
G37*
D13*
X26416000Y-120980000D03*
D10*
G36*
X26693691Y-131008553D02*
G01*
X26714926Y-131011703D01*
X26735750Y-131016919D01*
X26755962Y-131024151D01*
X26775368Y-131033330D01*
X26793781Y-131044366D01*
X26811024Y-131057154D01*
X26826930Y-131071570D01*
X26841346Y-131087476D01*
X26854134Y-131104719D01*
X26865170Y-131123132D01*
X26874349Y-131142538D01*
X26881581Y-131162750D01*
X26886797Y-131183574D01*
X26889947Y-131204809D01*
X26891000Y-131226250D01*
X26891000Y-131663750D01*
X26889947Y-131685191D01*
X26886797Y-131706426D01*
X26881581Y-131727250D01*
X26874349Y-131747462D01*
X26865170Y-131766868D01*
X26854134Y-131785281D01*
X26841346Y-131802524D01*
X26826930Y-131818430D01*
X26811024Y-131832846D01*
X26793781Y-131845634D01*
X26775368Y-131856670D01*
X26755962Y-131865849D01*
X26735750Y-131873081D01*
X26714926Y-131878297D01*
X26693691Y-131881447D01*
X26672250Y-131882500D01*
X26159750Y-131882500D01*
X26138309Y-131881447D01*
X26117074Y-131878297D01*
X26096250Y-131873081D01*
X26076038Y-131865849D01*
X26056632Y-131856670D01*
X26038219Y-131845634D01*
X26020976Y-131832846D01*
X26005070Y-131818430D01*
X25990654Y-131802524D01*
X25977866Y-131785281D01*
X25966830Y-131766868D01*
X25957651Y-131747462D01*
X25950419Y-131727250D01*
X25945203Y-131706426D01*
X25942053Y-131685191D01*
X25941000Y-131663750D01*
X25941000Y-131226250D01*
X25942053Y-131204809D01*
X25945203Y-131183574D01*
X25950419Y-131162750D01*
X25957651Y-131142538D01*
X25966830Y-131123132D01*
X25977866Y-131104719D01*
X25990654Y-131087476D01*
X26005070Y-131071570D01*
X26020976Y-131057154D01*
X26038219Y-131044366D01*
X26056632Y-131033330D01*
X26076038Y-131024151D01*
X26096250Y-131016919D01*
X26117074Y-131011703D01*
X26138309Y-131008553D01*
X26159750Y-131007500D01*
X26672250Y-131007500D01*
X26693691Y-131008553D01*
X26693691Y-131008553D01*
G37*
D13*
X26416000Y-131445000D03*
D10*
G36*
X26693691Y-129433553D02*
G01*
X26714926Y-129436703D01*
X26735750Y-129441919D01*
X26755962Y-129449151D01*
X26775368Y-129458330D01*
X26793781Y-129469366D01*
X26811024Y-129482154D01*
X26826930Y-129496570D01*
X26841346Y-129512476D01*
X26854134Y-129529719D01*
X26865170Y-129548132D01*
X26874349Y-129567538D01*
X26881581Y-129587750D01*
X26886797Y-129608574D01*
X26889947Y-129629809D01*
X26891000Y-129651250D01*
X26891000Y-130088750D01*
X26889947Y-130110191D01*
X26886797Y-130131426D01*
X26881581Y-130152250D01*
X26874349Y-130172462D01*
X26865170Y-130191868D01*
X26854134Y-130210281D01*
X26841346Y-130227524D01*
X26826930Y-130243430D01*
X26811024Y-130257846D01*
X26793781Y-130270634D01*
X26775368Y-130281670D01*
X26755962Y-130290849D01*
X26735750Y-130298081D01*
X26714926Y-130303297D01*
X26693691Y-130306447D01*
X26672250Y-130307500D01*
X26159750Y-130307500D01*
X26138309Y-130306447D01*
X26117074Y-130303297D01*
X26096250Y-130298081D01*
X26076038Y-130290849D01*
X26056632Y-130281670D01*
X26038219Y-130270634D01*
X26020976Y-130257846D01*
X26005070Y-130243430D01*
X25990654Y-130227524D01*
X25977866Y-130210281D01*
X25966830Y-130191868D01*
X25957651Y-130172462D01*
X25950419Y-130152250D01*
X25945203Y-130131426D01*
X25942053Y-130110191D01*
X25941000Y-130088750D01*
X25941000Y-129651250D01*
X25942053Y-129629809D01*
X25945203Y-129608574D01*
X25950419Y-129587750D01*
X25957651Y-129567538D01*
X25966830Y-129548132D01*
X25977866Y-129529719D01*
X25990654Y-129512476D01*
X26005070Y-129496570D01*
X26020976Y-129482154D01*
X26038219Y-129469366D01*
X26056632Y-129458330D01*
X26076038Y-129449151D01*
X26096250Y-129441919D01*
X26117074Y-129436703D01*
X26138309Y-129433553D01*
X26159750Y-129432500D01*
X26672250Y-129432500D01*
X26693691Y-129433553D01*
X26693691Y-129433553D01*
G37*
D13*
X26416000Y-129870000D03*
D15*
X39750000Y-123190000D03*
X36450000Y-123190000D03*
D16*
X56515000Y-144020000D03*
X56515000Y-147320000D03*
X48260000Y-147320000D03*
X48260000Y-144020000D03*
X52705000Y-137035000D03*
X52705000Y-140335000D03*
D17*
X31115000Y-122345000D03*
X29845000Y-122345000D03*
X32385000Y-122345000D03*
X33655000Y-122345000D03*
X31115000Y-127845000D03*
X29845000Y-127845000D03*
X32385000Y-127845000D03*
X33655000Y-127845000D03*
D10*
G36*
X49359504Y-129926204D02*
G01*
X49383773Y-129929804D01*
X49407571Y-129935765D01*
X49430671Y-129944030D01*
X49452849Y-129954520D01*
X49473893Y-129967133D01*
X49493598Y-129981747D01*
X49511777Y-129998223D01*
X49528253Y-130016402D01*
X49542867Y-130036107D01*
X49555480Y-130057151D01*
X49565970Y-130079329D01*
X49574235Y-130102429D01*
X49580196Y-130126227D01*
X49583796Y-130150496D01*
X49585000Y-130175000D01*
X49585000Y-130925000D01*
X49583796Y-130949504D01*
X49580196Y-130973773D01*
X49574235Y-130997571D01*
X49565970Y-131020671D01*
X49555480Y-131042849D01*
X49542867Y-131063893D01*
X49528253Y-131083598D01*
X49511777Y-131101777D01*
X49493598Y-131118253D01*
X49473893Y-131132867D01*
X49452849Y-131145480D01*
X49430671Y-131155970D01*
X49407571Y-131164235D01*
X49383773Y-131170196D01*
X49359504Y-131173796D01*
X49335000Y-131175000D01*
X47185000Y-131175000D01*
X47160496Y-131173796D01*
X47136227Y-131170196D01*
X47112429Y-131164235D01*
X47089329Y-131155970D01*
X47067151Y-131145480D01*
X47046107Y-131132867D01*
X47026402Y-131118253D01*
X47008223Y-131101777D01*
X46991747Y-131083598D01*
X46977133Y-131063893D01*
X46964520Y-131042849D01*
X46954030Y-131020671D01*
X46945765Y-130997571D01*
X46939804Y-130973773D01*
X46936204Y-130949504D01*
X46935000Y-130925000D01*
X46935000Y-130175000D01*
X46936204Y-130150496D01*
X46939804Y-130126227D01*
X46945765Y-130102429D01*
X46954030Y-130079329D01*
X46964520Y-130057151D01*
X46977133Y-130036107D01*
X46991747Y-130016402D01*
X47008223Y-129998223D01*
X47026402Y-129981747D01*
X47046107Y-129967133D01*
X47067151Y-129954520D01*
X47089329Y-129944030D01*
X47112429Y-129935765D01*
X47136227Y-129929804D01*
X47160496Y-129926204D01*
X47185000Y-129925000D01*
X49335000Y-129925000D01*
X49359504Y-129926204D01*
X49359504Y-129926204D01*
G37*
D11*
X48260000Y-130550000D03*
D10*
G36*
X49359504Y-132726204D02*
G01*
X49383773Y-132729804D01*
X49407571Y-132735765D01*
X49430671Y-132744030D01*
X49452849Y-132754520D01*
X49473893Y-132767133D01*
X49493598Y-132781747D01*
X49511777Y-132798223D01*
X49528253Y-132816402D01*
X49542867Y-132836107D01*
X49555480Y-132857151D01*
X49565970Y-132879329D01*
X49574235Y-132902429D01*
X49580196Y-132926227D01*
X49583796Y-132950496D01*
X49585000Y-132975000D01*
X49585000Y-133725000D01*
X49583796Y-133749504D01*
X49580196Y-133773773D01*
X49574235Y-133797571D01*
X49565970Y-133820671D01*
X49555480Y-133842849D01*
X49542867Y-133863893D01*
X49528253Y-133883598D01*
X49511777Y-133901777D01*
X49493598Y-133918253D01*
X49473893Y-133932867D01*
X49452849Y-133945480D01*
X49430671Y-133955970D01*
X49407571Y-133964235D01*
X49383773Y-133970196D01*
X49359504Y-133973796D01*
X49335000Y-133975000D01*
X47185000Y-133975000D01*
X47160496Y-133973796D01*
X47136227Y-133970196D01*
X47112429Y-133964235D01*
X47089329Y-133955970D01*
X47067151Y-133945480D01*
X47046107Y-133932867D01*
X47026402Y-133918253D01*
X47008223Y-133901777D01*
X46991747Y-133883598D01*
X46977133Y-133863893D01*
X46964520Y-133842849D01*
X46954030Y-133820671D01*
X46945765Y-133797571D01*
X46939804Y-133773773D01*
X46936204Y-133749504D01*
X46935000Y-133725000D01*
X46935000Y-132975000D01*
X46936204Y-132950496D01*
X46939804Y-132926227D01*
X46945765Y-132902429D01*
X46954030Y-132879329D01*
X46964520Y-132857151D01*
X46977133Y-132836107D01*
X46991747Y-132816402D01*
X47008223Y-132798223D01*
X47026402Y-132781747D01*
X47046107Y-132767133D01*
X47067151Y-132754520D01*
X47089329Y-132744030D01*
X47112429Y-132735765D01*
X47136227Y-132729804D01*
X47160496Y-132726204D01*
X47185000Y-132725000D01*
X49335000Y-132725000D01*
X49359504Y-132726204D01*
X49359504Y-132726204D01*
G37*
D11*
X48260000Y-133350000D03*
D18*
X42815000Y-123510000D03*
X42815000Y-125410000D03*
X44815000Y-124460000D03*
D19*
X53655000Y-131080000D03*
X51755000Y-131080000D03*
X52705000Y-133080000D03*
D10*
G36*
X26602958Y-124165710D02*
G01*
X26617276Y-124167834D01*
X26631317Y-124171351D01*
X26644946Y-124176228D01*
X26658031Y-124182417D01*
X26670447Y-124189858D01*
X26682073Y-124198481D01*
X26692798Y-124208202D01*
X26702519Y-124218927D01*
X26711142Y-124230553D01*
X26718583Y-124242969D01*
X26724772Y-124256054D01*
X26729649Y-124269683D01*
X26733166Y-124283724D01*
X26735290Y-124298042D01*
X26736000Y-124312500D01*
X26736000Y-124607500D01*
X26735290Y-124621958D01*
X26733166Y-124636276D01*
X26729649Y-124650317D01*
X26724772Y-124663946D01*
X26718583Y-124677031D01*
X26711142Y-124689447D01*
X26702519Y-124701073D01*
X26692798Y-124711798D01*
X26682073Y-124721519D01*
X26670447Y-124730142D01*
X26658031Y-124737583D01*
X26644946Y-124743772D01*
X26631317Y-124748649D01*
X26617276Y-124752166D01*
X26602958Y-124754290D01*
X26588500Y-124755000D01*
X26243500Y-124755000D01*
X26229042Y-124754290D01*
X26214724Y-124752166D01*
X26200683Y-124748649D01*
X26187054Y-124743772D01*
X26173969Y-124737583D01*
X26161553Y-124730142D01*
X26149927Y-124721519D01*
X26139202Y-124711798D01*
X26129481Y-124701073D01*
X26120858Y-124689447D01*
X26113417Y-124677031D01*
X26107228Y-124663946D01*
X26102351Y-124650317D01*
X26098834Y-124636276D01*
X26096710Y-124621958D01*
X26096000Y-124607500D01*
X26096000Y-124312500D01*
X26096710Y-124298042D01*
X26098834Y-124283724D01*
X26102351Y-124269683D01*
X26107228Y-124256054D01*
X26113417Y-124242969D01*
X26120858Y-124230553D01*
X26129481Y-124218927D01*
X26139202Y-124208202D01*
X26149927Y-124198481D01*
X26161553Y-124189858D01*
X26173969Y-124182417D01*
X26187054Y-124176228D01*
X26200683Y-124171351D01*
X26214724Y-124167834D01*
X26229042Y-124165710D01*
X26243500Y-124165000D01*
X26588500Y-124165000D01*
X26602958Y-124165710D01*
X26602958Y-124165710D01*
G37*
D14*
X26416000Y-124460000D03*
D10*
G36*
X26602958Y-125135710D02*
G01*
X26617276Y-125137834D01*
X26631317Y-125141351D01*
X26644946Y-125146228D01*
X26658031Y-125152417D01*
X26670447Y-125159858D01*
X26682073Y-125168481D01*
X26692798Y-125178202D01*
X26702519Y-125188927D01*
X26711142Y-125200553D01*
X26718583Y-125212969D01*
X26724772Y-125226054D01*
X26729649Y-125239683D01*
X26733166Y-125253724D01*
X26735290Y-125268042D01*
X26736000Y-125282500D01*
X26736000Y-125577500D01*
X26735290Y-125591958D01*
X26733166Y-125606276D01*
X26729649Y-125620317D01*
X26724772Y-125633946D01*
X26718583Y-125647031D01*
X26711142Y-125659447D01*
X26702519Y-125671073D01*
X26692798Y-125681798D01*
X26682073Y-125691519D01*
X26670447Y-125700142D01*
X26658031Y-125707583D01*
X26644946Y-125713772D01*
X26631317Y-125718649D01*
X26617276Y-125722166D01*
X26602958Y-125724290D01*
X26588500Y-125725000D01*
X26243500Y-125725000D01*
X26229042Y-125724290D01*
X26214724Y-125722166D01*
X26200683Y-125718649D01*
X26187054Y-125713772D01*
X26173969Y-125707583D01*
X26161553Y-125700142D01*
X26149927Y-125691519D01*
X26139202Y-125681798D01*
X26129481Y-125671073D01*
X26120858Y-125659447D01*
X26113417Y-125647031D01*
X26107228Y-125633946D01*
X26102351Y-125620317D01*
X26098834Y-125606276D01*
X26096710Y-125591958D01*
X26096000Y-125577500D01*
X26096000Y-125282500D01*
X26096710Y-125268042D01*
X26098834Y-125253724D01*
X26102351Y-125239683D01*
X26107228Y-125226054D01*
X26113417Y-125212969D01*
X26120858Y-125200553D01*
X26129481Y-125188927D01*
X26139202Y-125178202D01*
X26149927Y-125168481D01*
X26161553Y-125159858D01*
X26173969Y-125152417D01*
X26187054Y-125146228D01*
X26200683Y-125141351D01*
X26214724Y-125137834D01*
X26229042Y-125135710D01*
X26243500Y-125135000D01*
X26588500Y-125135000D01*
X26602958Y-125135710D01*
X26602958Y-125135710D01*
G37*
D14*
X26416000Y-125430000D03*
D10*
G36*
X26602958Y-126670710D02*
G01*
X26617276Y-126672834D01*
X26631317Y-126676351D01*
X26644946Y-126681228D01*
X26658031Y-126687417D01*
X26670447Y-126694858D01*
X26682073Y-126703481D01*
X26692798Y-126713202D01*
X26702519Y-126723927D01*
X26711142Y-126735553D01*
X26718583Y-126747969D01*
X26724772Y-126761054D01*
X26729649Y-126774683D01*
X26733166Y-126788724D01*
X26735290Y-126803042D01*
X26736000Y-126817500D01*
X26736000Y-127112500D01*
X26735290Y-127126958D01*
X26733166Y-127141276D01*
X26729649Y-127155317D01*
X26724772Y-127168946D01*
X26718583Y-127182031D01*
X26711142Y-127194447D01*
X26702519Y-127206073D01*
X26692798Y-127216798D01*
X26682073Y-127226519D01*
X26670447Y-127235142D01*
X26658031Y-127242583D01*
X26644946Y-127248772D01*
X26631317Y-127253649D01*
X26617276Y-127257166D01*
X26602958Y-127259290D01*
X26588500Y-127260000D01*
X26243500Y-127260000D01*
X26229042Y-127259290D01*
X26214724Y-127257166D01*
X26200683Y-127253649D01*
X26187054Y-127248772D01*
X26173969Y-127242583D01*
X26161553Y-127235142D01*
X26149927Y-127226519D01*
X26139202Y-127216798D01*
X26129481Y-127206073D01*
X26120858Y-127194447D01*
X26113417Y-127182031D01*
X26107228Y-127168946D01*
X26102351Y-127155317D01*
X26098834Y-127141276D01*
X26096710Y-127126958D01*
X26096000Y-127112500D01*
X26096000Y-126817500D01*
X26096710Y-126803042D01*
X26098834Y-126788724D01*
X26102351Y-126774683D01*
X26107228Y-126761054D01*
X26113417Y-126747969D01*
X26120858Y-126735553D01*
X26129481Y-126723927D01*
X26139202Y-126713202D01*
X26149927Y-126703481D01*
X26161553Y-126694858D01*
X26173969Y-126687417D01*
X26187054Y-126681228D01*
X26200683Y-126676351D01*
X26214724Y-126672834D01*
X26229042Y-126670710D01*
X26243500Y-126670000D01*
X26588500Y-126670000D01*
X26602958Y-126670710D01*
X26602958Y-126670710D01*
G37*
D14*
X26416000Y-126965000D03*
D10*
G36*
X26602958Y-127640710D02*
G01*
X26617276Y-127642834D01*
X26631317Y-127646351D01*
X26644946Y-127651228D01*
X26658031Y-127657417D01*
X26670447Y-127664858D01*
X26682073Y-127673481D01*
X26692798Y-127683202D01*
X26702519Y-127693927D01*
X26711142Y-127705553D01*
X26718583Y-127717969D01*
X26724772Y-127731054D01*
X26729649Y-127744683D01*
X26733166Y-127758724D01*
X26735290Y-127773042D01*
X26736000Y-127787500D01*
X26736000Y-128082500D01*
X26735290Y-128096958D01*
X26733166Y-128111276D01*
X26729649Y-128125317D01*
X26724772Y-128138946D01*
X26718583Y-128152031D01*
X26711142Y-128164447D01*
X26702519Y-128176073D01*
X26692798Y-128186798D01*
X26682073Y-128196519D01*
X26670447Y-128205142D01*
X26658031Y-128212583D01*
X26644946Y-128218772D01*
X26631317Y-128223649D01*
X26617276Y-128227166D01*
X26602958Y-128229290D01*
X26588500Y-128230000D01*
X26243500Y-128230000D01*
X26229042Y-128229290D01*
X26214724Y-128227166D01*
X26200683Y-128223649D01*
X26187054Y-128218772D01*
X26173969Y-128212583D01*
X26161553Y-128205142D01*
X26149927Y-128196519D01*
X26139202Y-128186798D01*
X26129481Y-128176073D01*
X26120858Y-128164447D01*
X26113417Y-128152031D01*
X26107228Y-128138946D01*
X26102351Y-128125317D01*
X26098834Y-128111276D01*
X26096710Y-128096958D01*
X26096000Y-128082500D01*
X26096000Y-127787500D01*
X26096710Y-127773042D01*
X26098834Y-127758724D01*
X26102351Y-127744683D01*
X26107228Y-127731054D01*
X26113417Y-127717969D01*
X26120858Y-127705553D01*
X26129481Y-127693927D01*
X26139202Y-127683202D01*
X26149927Y-127673481D01*
X26161553Y-127664858D01*
X26173969Y-127657417D01*
X26187054Y-127651228D01*
X26200683Y-127646351D01*
X26214724Y-127642834D01*
X26229042Y-127640710D01*
X26243500Y-127640000D01*
X26588500Y-127640000D01*
X26602958Y-127640710D01*
X26602958Y-127640710D01*
G37*
D14*
X26416000Y-127935000D03*
D10*
G36*
X31174958Y-129776710D02*
G01*
X31189276Y-129778834D01*
X31203317Y-129782351D01*
X31216946Y-129787228D01*
X31230031Y-129793417D01*
X31242447Y-129800858D01*
X31254073Y-129809481D01*
X31264798Y-129819202D01*
X31274519Y-129829927D01*
X31283142Y-129841553D01*
X31290583Y-129853969D01*
X31296772Y-129867054D01*
X31301649Y-129880683D01*
X31305166Y-129894724D01*
X31307290Y-129909042D01*
X31308000Y-129923500D01*
X31308000Y-130218500D01*
X31307290Y-130232958D01*
X31305166Y-130247276D01*
X31301649Y-130261317D01*
X31296772Y-130274946D01*
X31290583Y-130288031D01*
X31283142Y-130300447D01*
X31274519Y-130312073D01*
X31264798Y-130322798D01*
X31254073Y-130332519D01*
X31242447Y-130341142D01*
X31230031Y-130348583D01*
X31216946Y-130354772D01*
X31203317Y-130359649D01*
X31189276Y-130363166D01*
X31174958Y-130365290D01*
X31160500Y-130366000D01*
X30815500Y-130366000D01*
X30801042Y-130365290D01*
X30786724Y-130363166D01*
X30772683Y-130359649D01*
X30759054Y-130354772D01*
X30745969Y-130348583D01*
X30733553Y-130341142D01*
X30721927Y-130332519D01*
X30711202Y-130322798D01*
X30701481Y-130312073D01*
X30692858Y-130300447D01*
X30685417Y-130288031D01*
X30679228Y-130274946D01*
X30674351Y-130261317D01*
X30670834Y-130247276D01*
X30668710Y-130232958D01*
X30668000Y-130218500D01*
X30668000Y-129923500D01*
X30668710Y-129909042D01*
X30670834Y-129894724D01*
X30674351Y-129880683D01*
X30679228Y-129867054D01*
X30685417Y-129853969D01*
X30692858Y-129841553D01*
X30701481Y-129829927D01*
X30711202Y-129819202D01*
X30721927Y-129809481D01*
X30733553Y-129800858D01*
X30745969Y-129793417D01*
X30759054Y-129787228D01*
X30772683Y-129782351D01*
X30786724Y-129778834D01*
X30801042Y-129776710D01*
X30815500Y-129776000D01*
X31160500Y-129776000D01*
X31174958Y-129776710D01*
X31174958Y-129776710D01*
G37*
D14*
X30988000Y-130071000D03*
D10*
G36*
X31174958Y-130746710D02*
G01*
X31189276Y-130748834D01*
X31203317Y-130752351D01*
X31216946Y-130757228D01*
X31230031Y-130763417D01*
X31242447Y-130770858D01*
X31254073Y-130779481D01*
X31264798Y-130789202D01*
X31274519Y-130799927D01*
X31283142Y-130811553D01*
X31290583Y-130823969D01*
X31296772Y-130837054D01*
X31301649Y-130850683D01*
X31305166Y-130864724D01*
X31307290Y-130879042D01*
X31308000Y-130893500D01*
X31308000Y-131188500D01*
X31307290Y-131202958D01*
X31305166Y-131217276D01*
X31301649Y-131231317D01*
X31296772Y-131244946D01*
X31290583Y-131258031D01*
X31283142Y-131270447D01*
X31274519Y-131282073D01*
X31264798Y-131292798D01*
X31254073Y-131302519D01*
X31242447Y-131311142D01*
X31230031Y-131318583D01*
X31216946Y-131324772D01*
X31203317Y-131329649D01*
X31189276Y-131333166D01*
X31174958Y-131335290D01*
X31160500Y-131336000D01*
X30815500Y-131336000D01*
X30801042Y-131335290D01*
X30786724Y-131333166D01*
X30772683Y-131329649D01*
X30759054Y-131324772D01*
X30745969Y-131318583D01*
X30733553Y-131311142D01*
X30721927Y-131302519D01*
X30711202Y-131292798D01*
X30701481Y-131282073D01*
X30692858Y-131270447D01*
X30685417Y-131258031D01*
X30679228Y-131244946D01*
X30674351Y-131231317D01*
X30670834Y-131217276D01*
X30668710Y-131202958D01*
X30668000Y-131188500D01*
X30668000Y-130893500D01*
X30668710Y-130879042D01*
X30670834Y-130864724D01*
X30674351Y-130850683D01*
X30679228Y-130837054D01*
X30685417Y-130823969D01*
X30692858Y-130811553D01*
X30701481Y-130799927D01*
X30711202Y-130789202D01*
X30721927Y-130779481D01*
X30733553Y-130770858D01*
X30745969Y-130763417D01*
X30759054Y-130757228D01*
X30772683Y-130752351D01*
X30786724Y-130748834D01*
X30801042Y-130746710D01*
X30815500Y-130746000D01*
X31160500Y-130746000D01*
X31174958Y-130746710D01*
X31174958Y-130746710D01*
G37*
D14*
X30988000Y-131041000D03*
D10*
G36*
X33714958Y-129776710D02*
G01*
X33729276Y-129778834D01*
X33743317Y-129782351D01*
X33756946Y-129787228D01*
X33770031Y-129793417D01*
X33782447Y-129800858D01*
X33794073Y-129809481D01*
X33804798Y-129819202D01*
X33814519Y-129829927D01*
X33823142Y-129841553D01*
X33830583Y-129853969D01*
X33836772Y-129867054D01*
X33841649Y-129880683D01*
X33845166Y-129894724D01*
X33847290Y-129909042D01*
X33848000Y-129923500D01*
X33848000Y-130218500D01*
X33847290Y-130232958D01*
X33845166Y-130247276D01*
X33841649Y-130261317D01*
X33836772Y-130274946D01*
X33830583Y-130288031D01*
X33823142Y-130300447D01*
X33814519Y-130312073D01*
X33804798Y-130322798D01*
X33794073Y-130332519D01*
X33782447Y-130341142D01*
X33770031Y-130348583D01*
X33756946Y-130354772D01*
X33743317Y-130359649D01*
X33729276Y-130363166D01*
X33714958Y-130365290D01*
X33700500Y-130366000D01*
X33355500Y-130366000D01*
X33341042Y-130365290D01*
X33326724Y-130363166D01*
X33312683Y-130359649D01*
X33299054Y-130354772D01*
X33285969Y-130348583D01*
X33273553Y-130341142D01*
X33261927Y-130332519D01*
X33251202Y-130322798D01*
X33241481Y-130312073D01*
X33232858Y-130300447D01*
X33225417Y-130288031D01*
X33219228Y-130274946D01*
X33214351Y-130261317D01*
X33210834Y-130247276D01*
X33208710Y-130232958D01*
X33208000Y-130218500D01*
X33208000Y-129923500D01*
X33208710Y-129909042D01*
X33210834Y-129894724D01*
X33214351Y-129880683D01*
X33219228Y-129867054D01*
X33225417Y-129853969D01*
X33232858Y-129841553D01*
X33241481Y-129829927D01*
X33251202Y-129819202D01*
X33261927Y-129809481D01*
X33273553Y-129800858D01*
X33285969Y-129793417D01*
X33299054Y-129787228D01*
X33312683Y-129782351D01*
X33326724Y-129778834D01*
X33341042Y-129776710D01*
X33355500Y-129776000D01*
X33700500Y-129776000D01*
X33714958Y-129776710D01*
X33714958Y-129776710D01*
G37*
D14*
X33528000Y-130071000D03*
D10*
G36*
X33714958Y-130746710D02*
G01*
X33729276Y-130748834D01*
X33743317Y-130752351D01*
X33756946Y-130757228D01*
X33770031Y-130763417D01*
X33782447Y-130770858D01*
X33794073Y-130779481D01*
X33804798Y-130789202D01*
X33814519Y-130799927D01*
X33823142Y-130811553D01*
X33830583Y-130823969D01*
X33836772Y-130837054D01*
X33841649Y-130850683D01*
X33845166Y-130864724D01*
X33847290Y-130879042D01*
X33848000Y-130893500D01*
X33848000Y-131188500D01*
X33847290Y-131202958D01*
X33845166Y-131217276D01*
X33841649Y-131231317D01*
X33836772Y-131244946D01*
X33830583Y-131258031D01*
X33823142Y-131270447D01*
X33814519Y-131282073D01*
X33804798Y-131292798D01*
X33794073Y-131302519D01*
X33782447Y-131311142D01*
X33770031Y-131318583D01*
X33756946Y-131324772D01*
X33743317Y-131329649D01*
X33729276Y-131333166D01*
X33714958Y-131335290D01*
X33700500Y-131336000D01*
X33355500Y-131336000D01*
X33341042Y-131335290D01*
X33326724Y-131333166D01*
X33312683Y-131329649D01*
X33299054Y-131324772D01*
X33285969Y-131318583D01*
X33273553Y-131311142D01*
X33261927Y-131302519D01*
X33251202Y-131292798D01*
X33241481Y-131282073D01*
X33232858Y-131270447D01*
X33225417Y-131258031D01*
X33219228Y-131244946D01*
X33214351Y-131231317D01*
X33210834Y-131217276D01*
X33208710Y-131202958D01*
X33208000Y-131188500D01*
X33208000Y-130893500D01*
X33208710Y-130879042D01*
X33210834Y-130864724D01*
X33214351Y-130850683D01*
X33219228Y-130837054D01*
X33225417Y-130823969D01*
X33232858Y-130811553D01*
X33241481Y-130799927D01*
X33251202Y-130789202D01*
X33261927Y-130779481D01*
X33273553Y-130770858D01*
X33285969Y-130763417D01*
X33299054Y-130757228D01*
X33312683Y-130752351D01*
X33326724Y-130748834D01*
X33341042Y-130746710D01*
X33355500Y-130746000D01*
X33700500Y-130746000D01*
X33714958Y-130746710D01*
X33714958Y-130746710D01*
G37*
D14*
X33528000Y-131041000D03*
D10*
G36*
X54796958Y-126505710D02*
G01*
X54811276Y-126507834D01*
X54825317Y-126511351D01*
X54838946Y-126516228D01*
X54852031Y-126522417D01*
X54864447Y-126529858D01*
X54876073Y-126538481D01*
X54886798Y-126548202D01*
X54896519Y-126558927D01*
X54905142Y-126570553D01*
X54912583Y-126582969D01*
X54918772Y-126596054D01*
X54923649Y-126609683D01*
X54927166Y-126623724D01*
X54929290Y-126638042D01*
X54930000Y-126652500D01*
X54930000Y-126947500D01*
X54929290Y-126961958D01*
X54927166Y-126976276D01*
X54923649Y-126990317D01*
X54918772Y-127003946D01*
X54912583Y-127017031D01*
X54905142Y-127029447D01*
X54896519Y-127041073D01*
X54886798Y-127051798D01*
X54876073Y-127061519D01*
X54864447Y-127070142D01*
X54852031Y-127077583D01*
X54838946Y-127083772D01*
X54825317Y-127088649D01*
X54811276Y-127092166D01*
X54796958Y-127094290D01*
X54782500Y-127095000D01*
X54437500Y-127095000D01*
X54423042Y-127094290D01*
X54408724Y-127092166D01*
X54394683Y-127088649D01*
X54381054Y-127083772D01*
X54367969Y-127077583D01*
X54355553Y-127070142D01*
X54343927Y-127061519D01*
X54333202Y-127051798D01*
X54323481Y-127041073D01*
X54314858Y-127029447D01*
X54307417Y-127017031D01*
X54301228Y-127003946D01*
X54296351Y-126990317D01*
X54292834Y-126976276D01*
X54290710Y-126961958D01*
X54290000Y-126947500D01*
X54290000Y-126652500D01*
X54290710Y-126638042D01*
X54292834Y-126623724D01*
X54296351Y-126609683D01*
X54301228Y-126596054D01*
X54307417Y-126582969D01*
X54314858Y-126570553D01*
X54323481Y-126558927D01*
X54333202Y-126548202D01*
X54343927Y-126538481D01*
X54355553Y-126529858D01*
X54367969Y-126522417D01*
X54381054Y-126516228D01*
X54394683Y-126511351D01*
X54408724Y-126507834D01*
X54423042Y-126505710D01*
X54437500Y-126505000D01*
X54782500Y-126505000D01*
X54796958Y-126505710D01*
X54796958Y-126505710D01*
G37*
D14*
X54610000Y-126800000D03*
D10*
G36*
X54796958Y-125535710D02*
G01*
X54811276Y-125537834D01*
X54825317Y-125541351D01*
X54838946Y-125546228D01*
X54852031Y-125552417D01*
X54864447Y-125559858D01*
X54876073Y-125568481D01*
X54886798Y-125578202D01*
X54896519Y-125588927D01*
X54905142Y-125600553D01*
X54912583Y-125612969D01*
X54918772Y-125626054D01*
X54923649Y-125639683D01*
X54927166Y-125653724D01*
X54929290Y-125668042D01*
X54930000Y-125682500D01*
X54930000Y-125977500D01*
X54929290Y-125991958D01*
X54927166Y-126006276D01*
X54923649Y-126020317D01*
X54918772Y-126033946D01*
X54912583Y-126047031D01*
X54905142Y-126059447D01*
X54896519Y-126071073D01*
X54886798Y-126081798D01*
X54876073Y-126091519D01*
X54864447Y-126100142D01*
X54852031Y-126107583D01*
X54838946Y-126113772D01*
X54825317Y-126118649D01*
X54811276Y-126122166D01*
X54796958Y-126124290D01*
X54782500Y-126125000D01*
X54437500Y-126125000D01*
X54423042Y-126124290D01*
X54408724Y-126122166D01*
X54394683Y-126118649D01*
X54381054Y-126113772D01*
X54367969Y-126107583D01*
X54355553Y-126100142D01*
X54343927Y-126091519D01*
X54333202Y-126081798D01*
X54323481Y-126071073D01*
X54314858Y-126059447D01*
X54307417Y-126047031D01*
X54301228Y-126033946D01*
X54296351Y-126020317D01*
X54292834Y-126006276D01*
X54290710Y-125991958D01*
X54290000Y-125977500D01*
X54290000Y-125682500D01*
X54290710Y-125668042D01*
X54292834Y-125653724D01*
X54296351Y-125639683D01*
X54301228Y-125626054D01*
X54307417Y-125612969D01*
X54314858Y-125600553D01*
X54323481Y-125588927D01*
X54333202Y-125578202D01*
X54343927Y-125568481D01*
X54355553Y-125559858D01*
X54367969Y-125552417D01*
X54381054Y-125546228D01*
X54394683Y-125541351D01*
X54408724Y-125537834D01*
X54423042Y-125535710D01*
X54437500Y-125535000D01*
X54782500Y-125535000D01*
X54796958Y-125535710D01*
X54796958Y-125535710D01*
G37*
D14*
X54610000Y-125830000D03*
D10*
G36*
X37291958Y-117790710D02*
G01*
X37306276Y-117792834D01*
X37320317Y-117796351D01*
X37333946Y-117801228D01*
X37347031Y-117807417D01*
X37359447Y-117814858D01*
X37371073Y-117823481D01*
X37381798Y-117833202D01*
X37391519Y-117843927D01*
X37400142Y-117855553D01*
X37407583Y-117867969D01*
X37413772Y-117881054D01*
X37418649Y-117894683D01*
X37422166Y-117908724D01*
X37424290Y-117923042D01*
X37425000Y-117937500D01*
X37425000Y-118282500D01*
X37424290Y-118296958D01*
X37422166Y-118311276D01*
X37418649Y-118325317D01*
X37413772Y-118338946D01*
X37407583Y-118352031D01*
X37400142Y-118364447D01*
X37391519Y-118376073D01*
X37381798Y-118386798D01*
X37371073Y-118396519D01*
X37359447Y-118405142D01*
X37347031Y-118412583D01*
X37333946Y-118418772D01*
X37320317Y-118423649D01*
X37306276Y-118427166D01*
X37291958Y-118429290D01*
X37277500Y-118430000D01*
X36982500Y-118430000D01*
X36968042Y-118429290D01*
X36953724Y-118427166D01*
X36939683Y-118423649D01*
X36926054Y-118418772D01*
X36912969Y-118412583D01*
X36900553Y-118405142D01*
X36888927Y-118396519D01*
X36878202Y-118386798D01*
X36868481Y-118376073D01*
X36859858Y-118364447D01*
X36852417Y-118352031D01*
X36846228Y-118338946D01*
X36841351Y-118325317D01*
X36837834Y-118311276D01*
X36835710Y-118296958D01*
X36835000Y-118282500D01*
X36835000Y-117937500D01*
X36835710Y-117923042D01*
X36837834Y-117908724D01*
X36841351Y-117894683D01*
X36846228Y-117881054D01*
X36852417Y-117867969D01*
X36859858Y-117855553D01*
X36868481Y-117843927D01*
X36878202Y-117833202D01*
X36888927Y-117823481D01*
X36900553Y-117814858D01*
X36912969Y-117807417D01*
X36926054Y-117801228D01*
X36939683Y-117796351D01*
X36953724Y-117792834D01*
X36968042Y-117790710D01*
X36982500Y-117790000D01*
X37277500Y-117790000D01*
X37291958Y-117790710D01*
X37291958Y-117790710D01*
G37*
D14*
X37130000Y-118110000D03*
D10*
G36*
X38261958Y-117790710D02*
G01*
X38276276Y-117792834D01*
X38290317Y-117796351D01*
X38303946Y-117801228D01*
X38317031Y-117807417D01*
X38329447Y-117814858D01*
X38341073Y-117823481D01*
X38351798Y-117833202D01*
X38361519Y-117843927D01*
X38370142Y-117855553D01*
X38377583Y-117867969D01*
X38383772Y-117881054D01*
X38388649Y-117894683D01*
X38392166Y-117908724D01*
X38394290Y-117923042D01*
X38395000Y-117937500D01*
X38395000Y-118282500D01*
X38394290Y-118296958D01*
X38392166Y-118311276D01*
X38388649Y-118325317D01*
X38383772Y-118338946D01*
X38377583Y-118352031D01*
X38370142Y-118364447D01*
X38361519Y-118376073D01*
X38351798Y-118386798D01*
X38341073Y-118396519D01*
X38329447Y-118405142D01*
X38317031Y-118412583D01*
X38303946Y-118418772D01*
X38290317Y-118423649D01*
X38276276Y-118427166D01*
X38261958Y-118429290D01*
X38247500Y-118430000D01*
X37952500Y-118430000D01*
X37938042Y-118429290D01*
X37923724Y-118427166D01*
X37909683Y-118423649D01*
X37896054Y-118418772D01*
X37882969Y-118412583D01*
X37870553Y-118405142D01*
X37858927Y-118396519D01*
X37848202Y-118386798D01*
X37838481Y-118376073D01*
X37829858Y-118364447D01*
X37822417Y-118352031D01*
X37816228Y-118338946D01*
X37811351Y-118325317D01*
X37807834Y-118311276D01*
X37805710Y-118296958D01*
X37805000Y-118282500D01*
X37805000Y-117937500D01*
X37805710Y-117923042D01*
X37807834Y-117908724D01*
X37811351Y-117894683D01*
X37816228Y-117881054D01*
X37822417Y-117867969D01*
X37829858Y-117855553D01*
X37838481Y-117843927D01*
X37848202Y-117833202D01*
X37858927Y-117823481D01*
X37870553Y-117814858D01*
X37882969Y-117807417D01*
X37896054Y-117801228D01*
X37909683Y-117796351D01*
X37923724Y-117792834D01*
X37938042Y-117790710D01*
X37952500Y-117790000D01*
X38247500Y-117790000D01*
X38261958Y-117790710D01*
X38261958Y-117790710D01*
G37*
D14*
X38100000Y-118110000D03*
D10*
G36*
X52347691Y-126116053D02*
G01*
X52368926Y-126119203D01*
X52389750Y-126124419D01*
X52409962Y-126131651D01*
X52429368Y-126140830D01*
X52447781Y-126151866D01*
X52465024Y-126164654D01*
X52480930Y-126179070D01*
X52495346Y-126194976D01*
X52508134Y-126212219D01*
X52519170Y-126230632D01*
X52528349Y-126250038D01*
X52535581Y-126270250D01*
X52540797Y-126291074D01*
X52543947Y-126312309D01*
X52545000Y-126333750D01*
X52545000Y-126771250D01*
X52543947Y-126792691D01*
X52540797Y-126813926D01*
X52535581Y-126834750D01*
X52528349Y-126854962D01*
X52519170Y-126874368D01*
X52508134Y-126892781D01*
X52495346Y-126910024D01*
X52480930Y-126925930D01*
X52465024Y-126940346D01*
X52447781Y-126953134D01*
X52429368Y-126964170D01*
X52409962Y-126973349D01*
X52389750Y-126980581D01*
X52368926Y-126985797D01*
X52347691Y-126988947D01*
X52326250Y-126990000D01*
X51813750Y-126990000D01*
X51792309Y-126988947D01*
X51771074Y-126985797D01*
X51750250Y-126980581D01*
X51730038Y-126973349D01*
X51710632Y-126964170D01*
X51692219Y-126953134D01*
X51674976Y-126940346D01*
X51659070Y-126925930D01*
X51644654Y-126910024D01*
X51631866Y-126892781D01*
X51620830Y-126874368D01*
X51611651Y-126854962D01*
X51604419Y-126834750D01*
X51599203Y-126813926D01*
X51596053Y-126792691D01*
X51595000Y-126771250D01*
X51595000Y-126333750D01*
X51596053Y-126312309D01*
X51599203Y-126291074D01*
X51604419Y-126270250D01*
X51611651Y-126250038D01*
X51620830Y-126230632D01*
X51631866Y-126212219D01*
X51644654Y-126194976D01*
X51659070Y-126179070D01*
X51674976Y-126164654D01*
X51692219Y-126151866D01*
X51710632Y-126140830D01*
X51730038Y-126131651D01*
X51750250Y-126124419D01*
X51771074Y-126119203D01*
X51792309Y-126116053D01*
X51813750Y-126115000D01*
X52326250Y-126115000D01*
X52347691Y-126116053D01*
X52347691Y-126116053D01*
G37*
D13*
X52070000Y-126552500D03*
D10*
G36*
X52347691Y-124541053D02*
G01*
X52368926Y-124544203D01*
X52389750Y-124549419D01*
X52409962Y-124556651D01*
X52429368Y-124565830D01*
X52447781Y-124576866D01*
X52465024Y-124589654D01*
X52480930Y-124604070D01*
X52495346Y-124619976D01*
X52508134Y-124637219D01*
X52519170Y-124655632D01*
X52528349Y-124675038D01*
X52535581Y-124695250D01*
X52540797Y-124716074D01*
X52543947Y-124737309D01*
X52545000Y-124758750D01*
X52545000Y-125196250D01*
X52543947Y-125217691D01*
X52540797Y-125238926D01*
X52535581Y-125259750D01*
X52528349Y-125279962D01*
X52519170Y-125299368D01*
X52508134Y-125317781D01*
X52495346Y-125335024D01*
X52480930Y-125350930D01*
X52465024Y-125365346D01*
X52447781Y-125378134D01*
X52429368Y-125389170D01*
X52409962Y-125398349D01*
X52389750Y-125405581D01*
X52368926Y-125410797D01*
X52347691Y-125413947D01*
X52326250Y-125415000D01*
X51813750Y-125415000D01*
X51792309Y-125413947D01*
X51771074Y-125410797D01*
X51750250Y-125405581D01*
X51730038Y-125398349D01*
X51710632Y-125389170D01*
X51692219Y-125378134D01*
X51674976Y-125365346D01*
X51659070Y-125350930D01*
X51644654Y-125335024D01*
X51631866Y-125317781D01*
X51620830Y-125299368D01*
X51611651Y-125279962D01*
X51604419Y-125259750D01*
X51599203Y-125238926D01*
X51596053Y-125217691D01*
X51595000Y-125196250D01*
X51595000Y-124758750D01*
X51596053Y-124737309D01*
X51599203Y-124716074D01*
X51604419Y-124695250D01*
X51611651Y-124675038D01*
X51620830Y-124655632D01*
X51631866Y-124637219D01*
X51644654Y-124619976D01*
X51659070Y-124604070D01*
X51674976Y-124589654D01*
X51692219Y-124576866D01*
X51710632Y-124565830D01*
X51730038Y-124556651D01*
X51750250Y-124549419D01*
X51771074Y-124544203D01*
X51792309Y-124541053D01*
X51813750Y-124540000D01*
X52326250Y-124540000D01*
X52347691Y-124541053D01*
X52347691Y-124541053D01*
G37*
D13*
X52070000Y-124977500D03*
D10*
G36*
X38596958Y-126045710D02*
G01*
X38611276Y-126047834D01*
X38625317Y-126051351D01*
X38638946Y-126056228D01*
X38652031Y-126062417D01*
X38664447Y-126069858D01*
X38676073Y-126078481D01*
X38686798Y-126088202D01*
X38696519Y-126098927D01*
X38705142Y-126110553D01*
X38712583Y-126122969D01*
X38718772Y-126136054D01*
X38723649Y-126149683D01*
X38727166Y-126163724D01*
X38729290Y-126178042D01*
X38730000Y-126192500D01*
X38730000Y-126537500D01*
X38729290Y-126551958D01*
X38727166Y-126566276D01*
X38723649Y-126580317D01*
X38718772Y-126593946D01*
X38712583Y-126607031D01*
X38705142Y-126619447D01*
X38696519Y-126631073D01*
X38686798Y-126641798D01*
X38676073Y-126651519D01*
X38664447Y-126660142D01*
X38652031Y-126667583D01*
X38638946Y-126673772D01*
X38625317Y-126678649D01*
X38611276Y-126682166D01*
X38596958Y-126684290D01*
X38582500Y-126685000D01*
X38287500Y-126685000D01*
X38273042Y-126684290D01*
X38258724Y-126682166D01*
X38244683Y-126678649D01*
X38231054Y-126673772D01*
X38217969Y-126667583D01*
X38205553Y-126660142D01*
X38193927Y-126651519D01*
X38183202Y-126641798D01*
X38173481Y-126631073D01*
X38164858Y-126619447D01*
X38157417Y-126607031D01*
X38151228Y-126593946D01*
X38146351Y-126580317D01*
X38142834Y-126566276D01*
X38140710Y-126551958D01*
X38140000Y-126537500D01*
X38140000Y-126192500D01*
X38140710Y-126178042D01*
X38142834Y-126163724D01*
X38146351Y-126149683D01*
X38151228Y-126136054D01*
X38157417Y-126122969D01*
X38164858Y-126110553D01*
X38173481Y-126098927D01*
X38183202Y-126088202D01*
X38193927Y-126078481D01*
X38205553Y-126069858D01*
X38217969Y-126062417D01*
X38231054Y-126056228D01*
X38244683Y-126051351D01*
X38258724Y-126047834D01*
X38273042Y-126045710D01*
X38287500Y-126045000D01*
X38582500Y-126045000D01*
X38596958Y-126045710D01*
X38596958Y-126045710D01*
G37*
D14*
X38435000Y-126365000D03*
D10*
G36*
X37626958Y-126045710D02*
G01*
X37641276Y-126047834D01*
X37655317Y-126051351D01*
X37668946Y-126056228D01*
X37682031Y-126062417D01*
X37694447Y-126069858D01*
X37706073Y-126078481D01*
X37716798Y-126088202D01*
X37726519Y-126098927D01*
X37735142Y-126110553D01*
X37742583Y-126122969D01*
X37748772Y-126136054D01*
X37753649Y-126149683D01*
X37757166Y-126163724D01*
X37759290Y-126178042D01*
X37760000Y-126192500D01*
X37760000Y-126537500D01*
X37759290Y-126551958D01*
X37757166Y-126566276D01*
X37753649Y-126580317D01*
X37748772Y-126593946D01*
X37742583Y-126607031D01*
X37735142Y-126619447D01*
X37726519Y-126631073D01*
X37716798Y-126641798D01*
X37706073Y-126651519D01*
X37694447Y-126660142D01*
X37682031Y-126667583D01*
X37668946Y-126673772D01*
X37655317Y-126678649D01*
X37641276Y-126682166D01*
X37626958Y-126684290D01*
X37612500Y-126685000D01*
X37317500Y-126685000D01*
X37303042Y-126684290D01*
X37288724Y-126682166D01*
X37274683Y-126678649D01*
X37261054Y-126673772D01*
X37247969Y-126667583D01*
X37235553Y-126660142D01*
X37223927Y-126651519D01*
X37213202Y-126641798D01*
X37203481Y-126631073D01*
X37194858Y-126619447D01*
X37187417Y-126607031D01*
X37181228Y-126593946D01*
X37176351Y-126580317D01*
X37172834Y-126566276D01*
X37170710Y-126551958D01*
X37170000Y-126537500D01*
X37170000Y-126192500D01*
X37170710Y-126178042D01*
X37172834Y-126163724D01*
X37176351Y-126149683D01*
X37181228Y-126136054D01*
X37187417Y-126122969D01*
X37194858Y-126110553D01*
X37203481Y-126098927D01*
X37213202Y-126088202D01*
X37223927Y-126078481D01*
X37235553Y-126069858D01*
X37247969Y-126062417D01*
X37261054Y-126056228D01*
X37274683Y-126051351D01*
X37288724Y-126047834D01*
X37303042Y-126045710D01*
X37317500Y-126045000D01*
X37612500Y-126045000D01*
X37626958Y-126045710D01*
X37626958Y-126045710D01*
G37*
D14*
X37465000Y-126365000D03*
D10*
G36*
X39577958Y-137221710D02*
G01*
X39592276Y-137223834D01*
X39606317Y-137227351D01*
X39619946Y-137232228D01*
X39633031Y-137238417D01*
X39645447Y-137245858D01*
X39657073Y-137254481D01*
X39667798Y-137264202D01*
X39677519Y-137274927D01*
X39686142Y-137286553D01*
X39693583Y-137298969D01*
X39699772Y-137312054D01*
X39704649Y-137325683D01*
X39708166Y-137339724D01*
X39710290Y-137354042D01*
X39711000Y-137368500D01*
X39711000Y-137713500D01*
X39710290Y-137727958D01*
X39708166Y-137742276D01*
X39704649Y-137756317D01*
X39699772Y-137769946D01*
X39693583Y-137783031D01*
X39686142Y-137795447D01*
X39677519Y-137807073D01*
X39667798Y-137817798D01*
X39657073Y-137827519D01*
X39645447Y-137836142D01*
X39633031Y-137843583D01*
X39619946Y-137849772D01*
X39606317Y-137854649D01*
X39592276Y-137858166D01*
X39577958Y-137860290D01*
X39563500Y-137861000D01*
X39268500Y-137861000D01*
X39254042Y-137860290D01*
X39239724Y-137858166D01*
X39225683Y-137854649D01*
X39212054Y-137849772D01*
X39198969Y-137843583D01*
X39186553Y-137836142D01*
X39174927Y-137827519D01*
X39164202Y-137817798D01*
X39154481Y-137807073D01*
X39145858Y-137795447D01*
X39138417Y-137783031D01*
X39132228Y-137769946D01*
X39127351Y-137756317D01*
X39123834Y-137742276D01*
X39121710Y-137727958D01*
X39121000Y-137713500D01*
X39121000Y-137368500D01*
X39121710Y-137354042D01*
X39123834Y-137339724D01*
X39127351Y-137325683D01*
X39132228Y-137312054D01*
X39138417Y-137298969D01*
X39145858Y-137286553D01*
X39154481Y-137274927D01*
X39164202Y-137264202D01*
X39174927Y-137254481D01*
X39186553Y-137245858D01*
X39198969Y-137238417D01*
X39212054Y-137232228D01*
X39225683Y-137227351D01*
X39239724Y-137223834D01*
X39254042Y-137221710D01*
X39268500Y-137221000D01*
X39563500Y-137221000D01*
X39577958Y-137221710D01*
X39577958Y-137221710D01*
G37*
D14*
X39416000Y-137541000D03*
D10*
G36*
X40547958Y-137221710D02*
G01*
X40562276Y-137223834D01*
X40576317Y-137227351D01*
X40589946Y-137232228D01*
X40603031Y-137238417D01*
X40615447Y-137245858D01*
X40627073Y-137254481D01*
X40637798Y-137264202D01*
X40647519Y-137274927D01*
X40656142Y-137286553D01*
X40663583Y-137298969D01*
X40669772Y-137312054D01*
X40674649Y-137325683D01*
X40678166Y-137339724D01*
X40680290Y-137354042D01*
X40681000Y-137368500D01*
X40681000Y-137713500D01*
X40680290Y-137727958D01*
X40678166Y-137742276D01*
X40674649Y-137756317D01*
X40669772Y-137769946D01*
X40663583Y-137783031D01*
X40656142Y-137795447D01*
X40647519Y-137807073D01*
X40637798Y-137817798D01*
X40627073Y-137827519D01*
X40615447Y-137836142D01*
X40603031Y-137843583D01*
X40589946Y-137849772D01*
X40576317Y-137854649D01*
X40562276Y-137858166D01*
X40547958Y-137860290D01*
X40533500Y-137861000D01*
X40238500Y-137861000D01*
X40224042Y-137860290D01*
X40209724Y-137858166D01*
X40195683Y-137854649D01*
X40182054Y-137849772D01*
X40168969Y-137843583D01*
X40156553Y-137836142D01*
X40144927Y-137827519D01*
X40134202Y-137817798D01*
X40124481Y-137807073D01*
X40115858Y-137795447D01*
X40108417Y-137783031D01*
X40102228Y-137769946D01*
X40097351Y-137756317D01*
X40093834Y-137742276D01*
X40091710Y-137727958D01*
X40091000Y-137713500D01*
X40091000Y-137368500D01*
X40091710Y-137354042D01*
X40093834Y-137339724D01*
X40097351Y-137325683D01*
X40102228Y-137312054D01*
X40108417Y-137298969D01*
X40115858Y-137286553D01*
X40124481Y-137274927D01*
X40134202Y-137264202D01*
X40144927Y-137254481D01*
X40156553Y-137245858D01*
X40168969Y-137238417D01*
X40182054Y-137232228D01*
X40195683Y-137227351D01*
X40209724Y-137223834D01*
X40224042Y-137221710D01*
X40238500Y-137221000D01*
X40533500Y-137221000D01*
X40547958Y-137221710D01*
X40547958Y-137221710D01*
G37*
D14*
X40386000Y-137541000D03*
D10*
G36*
X40501958Y-138745710D02*
G01*
X40516276Y-138747834D01*
X40530317Y-138751351D01*
X40543946Y-138756228D01*
X40557031Y-138762417D01*
X40569447Y-138769858D01*
X40581073Y-138778481D01*
X40591798Y-138788202D01*
X40601519Y-138798927D01*
X40610142Y-138810553D01*
X40617583Y-138822969D01*
X40623772Y-138836054D01*
X40628649Y-138849683D01*
X40632166Y-138863724D01*
X40634290Y-138878042D01*
X40635000Y-138892500D01*
X40635000Y-139237500D01*
X40634290Y-139251958D01*
X40632166Y-139266276D01*
X40628649Y-139280317D01*
X40623772Y-139293946D01*
X40617583Y-139307031D01*
X40610142Y-139319447D01*
X40601519Y-139331073D01*
X40591798Y-139341798D01*
X40581073Y-139351519D01*
X40569447Y-139360142D01*
X40557031Y-139367583D01*
X40543946Y-139373772D01*
X40530317Y-139378649D01*
X40516276Y-139382166D01*
X40501958Y-139384290D01*
X40487500Y-139385000D01*
X40192500Y-139385000D01*
X40178042Y-139384290D01*
X40163724Y-139382166D01*
X40149683Y-139378649D01*
X40136054Y-139373772D01*
X40122969Y-139367583D01*
X40110553Y-139360142D01*
X40098927Y-139351519D01*
X40088202Y-139341798D01*
X40078481Y-139331073D01*
X40069858Y-139319447D01*
X40062417Y-139307031D01*
X40056228Y-139293946D01*
X40051351Y-139280317D01*
X40047834Y-139266276D01*
X40045710Y-139251958D01*
X40045000Y-139237500D01*
X40045000Y-138892500D01*
X40045710Y-138878042D01*
X40047834Y-138863724D01*
X40051351Y-138849683D01*
X40056228Y-138836054D01*
X40062417Y-138822969D01*
X40069858Y-138810553D01*
X40078481Y-138798927D01*
X40088202Y-138788202D01*
X40098927Y-138778481D01*
X40110553Y-138769858D01*
X40122969Y-138762417D01*
X40136054Y-138756228D01*
X40149683Y-138751351D01*
X40163724Y-138747834D01*
X40178042Y-138745710D01*
X40192500Y-138745000D01*
X40487500Y-138745000D01*
X40501958Y-138745710D01*
X40501958Y-138745710D01*
G37*
D14*
X40340000Y-139065000D03*
D10*
G36*
X39531958Y-138745710D02*
G01*
X39546276Y-138747834D01*
X39560317Y-138751351D01*
X39573946Y-138756228D01*
X39587031Y-138762417D01*
X39599447Y-138769858D01*
X39611073Y-138778481D01*
X39621798Y-138788202D01*
X39631519Y-138798927D01*
X39640142Y-138810553D01*
X39647583Y-138822969D01*
X39653772Y-138836054D01*
X39658649Y-138849683D01*
X39662166Y-138863724D01*
X39664290Y-138878042D01*
X39665000Y-138892500D01*
X39665000Y-139237500D01*
X39664290Y-139251958D01*
X39662166Y-139266276D01*
X39658649Y-139280317D01*
X39653772Y-139293946D01*
X39647583Y-139307031D01*
X39640142Y-139319447D01*
X39631519Y-139331073D01*
X39621798Y-139341798D01*
X39611073Y-139351519D01*
X39599447Y-139360142D01*
X39587031Y-139367583D01*
X39573946Y-139373772D01*
X39560317Y-139378649D01*
X39546276Y-139382166D01*
X39531958Y-139384290D01*
X39517500Y-139385000D01*
X39222500Y-139385000D01*
X39208042Y-139384290D01*
X39193724Y-139382166D01*
X39179683Y-139378649D01*
X39166054Y-139373772D01*
X39152969Y-139367583D01*
X39140553Y-139360142D01*
X39128927Y-139351519D01*
X39118202Y-139341798D01*
X39108481Y-139331073D01*
X39099858Y-139319447D01*
X39092417Y-139307031D01*
X39086228Y-139293946D01*
X39081351Y-139280317D01*
X39077834Y-139266276D01*
X39075710Y-139251958D01*
X39075000Y-139237500D01*
X39075000Y-138892500D01*
X39075710Y-138878042D01*
X39077834Y-138863724D01*
X39081351Y-138849683D01*
X39086228Y-138836054D01*
X39092417Y-138822969D01*
X39099858Y-138810553D01*
X39108481Y-138798927D01*
X39118202Y-138788202D01*
X39128927Y-138778481D01*
X39140553Y-138769858D01*
X39152969Y-138762417D01*
X39166054Y-138756228D01*
X39179683Y-138751351D01*
X39193724Y-138747834D01*
X39208042Y-138745710D01*
X39222500Y-138745000D01*
X39517500Y-138745000D01*
X39531958Y-138745710D01*
X39531958Y-138745710D01*
G37*
D14*
X39370000Y-139065000D03*
D10*
G36*
X33841958Y-152105710D02*
G01*
X33856276Y-152107834D01*
X33870317Y-152111351D01*
X33883946Y-152116228D01*
X33897031Y-152122417D01*
X33909447Y-152129858D01*
X33921073Y-152138481D01*
X33931798Y-152148202D01*
X33941519Y-152158927D01*
X33950142Y-152170553D01*
X33957583Y-152182969D01*
X33963772Y-152196054D01*
X33968649Y-152209683D01*
X33972166Y-152223724D01*
X33974290Y-152238042D01*
X33975000Y-152252500D01*
X33975000Y-152547500D01*
X33974290Y-152561958D01*
X33972166Y-152576276D01*
X33968649Y-152590317D01*
X33963772Y-152603946D01*
X33957583Y-152617031D01*
X33950142Y-152629447D01*
X33941519Y-152641073D01*
X33931798Y-152651798D01*
X33921073Y-152661519D01*
X33909447Y-152670142D01*
X33897031Y-152677583D01*
X33883946Y-152683772D01*
X33870317Y-152688649D01*
X33856276Y-152692166D01*
X33841958Y-152694290D01*
X33827500Y-152695000D01*
X33482500Y-152695000D01*
X33468042Y-152694290D01*
X33453724Y-152692166D01*
X33439683Y-152688649D01*
X33426054Y-152683772D01*
X33412969Y-152677583D01*
X33400553Y-152670142D01*
X33388927Y-152661519D01*
X33378202Y-152651798D01*
X33368481Y-152641073D01*
X33359858Y-152629447D01*
X33352417Y-152617031D01*
X33346228Y-152603946D01*
X33341351Y-152590317D01*
X33337834Y-152576276D01*
X33335710Y-152561958D01*
X33335000Y-152547500D01*
X33335000Y-152252500D01*
X33335710Y-152238042D01*
X33337834Y-152223724D01*
X33341351Y-152209683D01*
X33346228Y-152196054D01*
X33352417Y-152182969D01*
X33359858Y-152170553D01*
X33368481Y-152158927D01*
X33378202Y-152148202D01*
X33388927Y-152138481D01*
X33400553Y-152129858D01*
X33412969Y-152122417D01*
X33426054Y-152116228D01*
X33439683Y-152111351D01*
X33453724Y-152107834D01*
X33468042Y-152105710D01*
X33482500Y-152105000D01*
X33827500Y-152105000D01*
X33841958Y-152105710D01*
X33841958Y-152105710D01*
G37*
D14*
X33655000Y-152400000D03*
D10*
G36*
X33841958Y-151135710D02*
G01*
X33856276Y-151137834D01*
X33870317Y-151141351D01*
X33883946Y-151146228D01*
X33897031Y-151152417D01*
X33909447Y-151159858D01*
X33921073Y-151168481D01*
X33931798Y-151178202D01*
X33941519Y-151188927D01*
X33950142Y-151200553D01*
X33957583Y-151212969D01*
X33963772Y-151226054D01*
X33968649Y-151239683D01*
X33972166Y-151253724D01*
X33974290Y-151268042D01*
X33975000Y-151282500D01*
X33975000Y-151577500D01*
X33974290Y-151591958D01*
X33972166Y-151606276D01*
X33968649Y-151620317D01*
X33963772Y-151633946D01*
X33957583Y-151647031D01*
X33950142Y-151659447D01*
X33941519Y-151671073D01*
X33931798Y-151681798D01*
X33921073Y-151691519D01*
X33909447Y-151700142D01*
X33897031Y-151707583D01*
X33883946Y-151713772D01*
X33870317Y-151718649D01*
X33856276Y-151722166D01*
X33841958Y-151724290D01*
X33827500Y-151725000D01*
X33482500Y-151725000D01*
X33468042Y-151724290D01*
X33453724Y-151722166D01*
X33439683Y-151718649D01*
X33426054Y-151713772D01*
X33412969Y-151707583D01*
X33400553Y-151700142D01*
X33388927Y-151691519D01*
X33378202Y-151681798D01*
X33368481Y-151671073D01*
X33359858Y-151659447D01*
X33352417Y-151647031D01*
X33346228Y-151633946D01*
X33341351Y-151620317D01*
X33337834Y-151606276D01*
X33335710Y-151591958D01*
X33335000Y-151577500D01*
X33335000Y-151282500D01*
X33335710Y-151268042D01*
X33337834Y-151253724D01*
X33341351Y-151239683D01*
X33346228Y-151226054D01*
X33352417Y-151212969D01*
X33359858Y-151200553D01*
X33368481Y-151188927D01*
X33378202Y-151178202D01*
X33388927Y-151168481D01*
X33400553Y-151159858D01*
X33412969Y-151152417D01*
X33426054Y-151146228D01*
X33439683Y-151141351D01*
X33453724Y-151137834D01*
X33468042Y-151135710D01*
X33482500Y-151135000D01*
X33827500Y-151135000D01*
X33841958Y-151135710D01*
X33841958Y-151135710D01*
G37*
D14*
X33655000Y-151430000D03*
D10*
G36*
X37016958Y-151135710D02*
G01*
X37031276Y-151137834D01*
X37045317Y-151141351D01*
X37058946Y-151146228D01*
X37072031Y-151152417D01*
X37084447Y-151159858D01*
X37096073Y-151168481D01*
X37106798Y-151178202D01*
X37116519Y-151188927D01*
X37125142Y-151200553D01*
X37132583Y-151212969D01*
X37138772Y-151226054D01*
X37143649Y-151239683D01*
X37147166Y-151253724D01*
X37149290Y-151268042D01*
X37150000Y-151282500D01*
X37150000Y-151577500D01*
X37149290Y-151591958D01*
X37147166Y-151606276D01*
X37143649Y-151620317D01*
X37138772Y-151633946D01*
X37132583Y-151647031D01*
X37125142Y-151659447D01*
X37116519Y-151671073D01*
X37106798Y-151681798D01*
X37096073Y-151691519D01*
X37084447Y-151700142D01*
X37072031Y-151707583D01*
X37058946Y-151713772D01*
X37045317Y-151718649D01*
X37031276Y-151722166D01*
X37016958Y-151724290D01*
X37002500Y-151725000D01*
X36657500Y-151725000D01*
X36643042Y-151724290D01*
X36628724Y-151722166D01*
X36614683Y-151718649D01*
X36601054Y-151713772D01*
X36587969Y-151707583D01*
X36575553Y-151700142D01*
X36563927Y-151691519D01*
X36553202Y-151681798D01*
X36543481Y-151671073D01*
X36534858Y-151659447D01*
X36527417Y-151647031D01*
X36521228Y-151633946D01*
X36516351Y-151620317D01*
X36512834Y-151606276D01*
X36510710Y-151591958D01*
X36510000Y-151577500D01*
X36510000Y-151282500D01*
X36510710Y-151268042D01*
X36512834Y-151253724D01*
X36516351Y-151239683D01*
X36521228Y-151226054D01*
X36527417Y-151212969D01*
X36534858Y-151200553D01*
X36543481Y-151188927D01*
X36553202Y-151178202D01*
X36563927Y-151168481D01*
X36575553Y-151159858D01*
X36587969Y-151152417D01*
X36601054Y-151146228D01*
X36614683Y-151141351D01*
X36628724Y-151137834D01*
X36643042Y-151135710D01*
X36657500Y-151135000D01*
X37002500Y-151135000D01*
X37016958Y-151135710D01*
X37016958Y-151135710D01*
G37*
D14*
X36830000Y-151430000D03*
D10*
G36*
X37016958Y-152105710D02*
G01*
X37031276Y-152107834D01*
X37045317Y-152111351D01*
X37058946Y-152116228D01*
X37072031Y-152122417D01*
X37084447Y-152129858D01*
X37096073Y-152138481D01*
X37106798Y-152148202D01*
X37116519Y-152158927D01*
X37125142Y-152170553D01*
X37132583Y-152182969D01*
X37138772Y-152196054D01*
X37143649Y-152209683D01*
X37147166Y-152223724D01*
X37149290Y-152238042D01*
X37150000Y-152252500D01*
X37150000Y-152547500D01*
X37149290Y-152561958D01*
X37147166Y-152576276D01*
X37143649Y-152590317D01*
X37138772Y-152603946D01*
X37132583Y-152617031D01*
X37125142Y-152629447D01*
X37116519Y-152641073D01*
X37106798Y-152651798D01*
X37096073Y-152661519D01*
X37084447Y-152670142D01*
X37072031Y-152677583D01*
X37058946Y-152683772D01*
X37045317Y-152688649D01*
X37031276Y-152692166D01*
X37016958Y-152694290D01*
X37002500Y-152695000D01*
X36657500Y-152695000D01*
X36643042Y-152694290D01*
X36628724Y-152692166D01*
X36614683Y-152688649D01*
X36601054Y-152683772D01*
X36587969Y-152677583D01*
X36575553Y-152670142D01*
X36563927Y-152661519D01*
X36553202Y-152651798D01*
X36543481Y-152641073D01*
X36534858Y-152629447D01*
X36527417Y-152617031D01*
X36521228Y-152603946D01*
X36516351Y-152590317D01*
X36512834Y-152576276D01*
X36510710Y-152561958D01*
X36510000Y-152547500D01*
X36510000Y-152252500D01*
X36510710Y-152238042D01*
X36512834Y-152223724D01*
X36516351Y-152209683D01*
X36521228Y-152196054D01*
X36527417Y-152182969D01*
X36534858Y-152170553D01*
X36543481Y-152158927D01*
X36553202Y-152148202D01*
X36563927Y-152138481D01*
X36575553Y-152129858D01*
X36587969Y-152122417D01*
X36601054Y-152116228D01*
X36614683Y-152111351D01*
X36628724Y-152107834D01*
X36643042Y-152105710D01*
X36657500Y-152105000D01*
X37002500Y-152105000D01*
X37016958Y-152105710D01*
X37016958Y-152105710D01*
G37*
D14*
X36830000Y-152400000D03*
D20*
X33905000Y-147730000D03*
X34555000Y-147730000D03*
X35205000Y-147730000D03*
X35855000Y-147730000D03*
X36505000Y-147730000D03*
X37155000Y-147730000D03*
X37805000Y-147730000D03*
X38455000Y-147730000D03*
X39105000Y-147730000D03*
X39755000Y-147730000D03*
X39755000Y-141830000D03*
X39105000Y-141830000D03*
X38455000Y-141830000D03*
X37805000Y-141830000D03*
X37155000Y-141830000D03*
X36505000Y-141830000D03*
X35855000Y-141830000D03*
X35205000Y-141830000D03*
X34555000Y-141830000D03*
X33905000Y-141830000D03*
D19*
X42545000Y-130445000D03*
X43495000Y-132445000D03*
X41595000Y-132445000D03*
D21*
X31115000Y-134935000D03*
X29845000Y-134935000D03*
X28575000Y-134935000D03*
X27305000Y-134935000D03*
X27305000Y-140335000D03*
X28575000Y-140335000D03*
X29845000Y-140335000D03*
X31115000Y-140335000D03*
M02*
