M48
; DRILL file {KiCad (5.1.4)} date Fri 13 Dec 2019 10:41:40 PM CET
; FORMAT={-:-/ absolute / inch / decimal}
; #@! TF.CreationDate,2019-12-13T22:41:40+01:00
; #@! TF.GenerationSoftware,Kicad,Pcbnew,(5.1.4)
; #@! TF.FileFunction,Plated,1,4,PTH
FMAT,2
INCH
T1C0.0098
T2C0.0394
T3C0.0787
%
G90
G05
T1
X1.055Y-5.95
X1.08Y-5.64
X1.08Y-5.845
X1.085Y-4.97
X1.085Y-6.02
X1.095Y-4.79
X1.095Y-4.885
X1.1146Y-4.695
X1.13Y-4.82
X1.145Y-5.16
X1.15Y-4.94
X1.18Y-5.855
X1.21Y-5.46
X1.225Y-5.595
X1.225Y-5.87
X1.2263Y-5.7563
X1.235Y-6.005
X1.28Y-5.46
X1.285Y-5.65
X1.285Y-6.035
X1.3Y-5.395
X1.305Y-5.25
X1.315Y-5.325
X1.315Y-5.905
X1.375Y-4.965
X1.375Y-5.035
X1.385Y-4.85
X1.4Y-5.675
X1.41Y-4.73
X1.42Y-4.65
X1.42Y-5.51
X1.435Y-5.735
X1.435Y-5.92
X1.44Y-4.92
X1.44Y-5.26
X1.4457Y-5.8784
X1.515Y-5.64
X1.55Y-6.005
X1.585Y-4.975
X1.6186Y-5.4873
X1.63Y-4.873
X1.635Y-4.715
X1.635Y-5.46
X1.635Y-5.715
X1.635Y-5.87
X1.64Y-5.065
X1.64Y-6.025
X1.675Y-5.53
X1.73Y-5.34
X1.755Y-4.715
X1.775Y-5.26
X1.78Y-5.065
X1.79Y-5.87
X1.79Y-6.025
X1.795Y-5.385
X1.795Y-5.66
X1.8Y-5.52
X1.815Y-4.9
X1.86Y-5.3
X1.875Y-5.34
X1.9Y-5.06
X1.93Y-4.715
X1.935Y-5.87
X1.935Y-6.025
X1.98Y-5.065
X1.995Y-5.51
X2.0Y-5.66
X2.08Y-5.07
X2.08Y-5.87
X2.08Y-6.025
X2.105Y-4.715
X2.105Y-4.855
X2.1284Y-5.3947
X2.145Y-5.35
X2.15Y-5.66
X2.155Y-5.55
X2.16Y-5.1333
X2.16Y-5.49
X2.16Y-5.52
X2.165Y-5.32
X2.17Y-5.19
X2.175Y-5.075
X2.185Y-5.455
X2.195Y-5.32
X2.2Y-5.6
X2.225Y-5.87
X2.225Y-6.025
X2.28Y-4.715
X2.28Y-4.85
X2.28Y-4.98
X2.295Y-5.41
X2.3Y-5.225
X2.3Y-5.275
X2.315Y-5.32
X2.335Y-5.13
X2.335Y-5.3546
X2.335Y-5.495
X2.335Y-5.545
X2.34Y-5.58
X2.345Y-5.16
X2.345Y-5.225
X2.355Y-5.43
X2.4Y-5.765
X2.455Y-4.715
X2.455Y-4.85
X2.455Y-4.985
X2.51Y-5.07
X2.51Y-5.155
X2.51Y-5.23
X2.51Y-5.31
X2.51Y-5.39
X2.51Y-5.465
X2.51Y-5.545
X2.51Y-5.625
X2.51Y-5.7
T2
X1.225Y-4.7
X1.325Y-4.7
T3
X2.55Y-4.73
T0
M30
