G04 #@! TF.GenerationSoftware,KiCad,Pcbnew,(5.1.4)*
G04 #@! TF.CreationDate,2019-12-13T22:41:35+01:00*
G04 #@! TF.ProjectId,hardware,68617264-7761-4726-952e-6b696361645f,rev?*
G04 #@! TF.SameCoordinates,Original*
G04 #@! TF.FileFunction,Soldermask,Top*
G04 #@! TF.FilePolarity,Negative*
%FSLAX46Y46*%
G04 Gerber Fmt 4.6, Leading zero omitted, Abs format (unit mm)*
G04 Created by KiCad (PCBNEW (5.1.4)) date 2019-12-13 22:41:35*
%MOMM*%
%LPD*%
G04 APERTURE LIST*
%ADD10C,0.100000*%
G04 APERTURE END LIST*
D10*
G36*
X33936938Y-152056716D02*
G01*
X33957557Y-152062971D01*
X33976553Y-152073124D01*
X33993208Y-152086792D01*
X34006876Y-152103447D01*
X34017029Y-152122443D01*
X34023284Y-152143062D01*
X34026000Y-152170640D01*
X34026000Y-152629360D01*
X34023284Y-152656938D01*
X34017029Y-152677557D01*
X34006876Y-152696553D01*
X33993208Y-152713208D01*
X33976553Y-152726876D01*
X33957557Y-152737029D01*
X33936938Y-152743284D01*
X33909360Y-152746000D01*
X33400640Y-152746000D01*
X33373062Y-152743284D01*
X33352443Y-152737029D01*
X33333447Y-152726876D01*
X33316792Y-152713208D01*
X33303124Y-152696553D01*
X33292971Y-152677557D01*
X33286716Y-152656938D01*
X33284000Y-152629360D01*
X33284000Y-152170640D01*
X33286716Y-152143062D01*
X33292971Y-152122443D01*
X33303124Y-152103447D01*
X33316792Y-152086792D01*
X33333447Y-152073124D01*
X33352443Y-152062971D01*
X33373062Y-152056716D01*
X33400640Y-152054000D01*
X33909360Y-152054000D01*
X33936938Y-152056716D01*
X33936938Y-152056716D01*
G37*
G36*
X35524438Y-152056716D02*
G01*
X35545057Y-152062971D01*
X35564053Y-152073124D01*
X35580708Y-152086792D01*
X35594376Y-152103447D01*
X35604529Y-152122443D01*
X35610784Y-152143062D01*
X35613500Y-152170640D01*
X35613500Y-152629360D01*
X35610784Y-152656938D01*
X35604529Y-152677557D01*
X35594376Y-152696553D01*
X35580708Y-152713208D01*
X35564053Y-152726876D01*
X35545057Y-152737029D01*
X35524438Y-152743284D01*
X35496860Y-152746000D01*
X34988140Y-152746000D01*
X34960562Y-152743284D01*
X34939943Y-152737029D01*
X34920947Y-152726876D01*
X34904292Y-152713208D01*
X34890624Y-152696553D01*
X34880471Y-152677557D01*
X34874216Y-152656938D01*
X34871500Y-152629360D01*
X34871500Y-152170640D01*
X34874216Y-152143062D01*
X34880471Y-152122443D01*
X34890624Y-152103447D01*
X34904292Y-152086792D01*
X34920947Y-152073124D01*
X34939943Y-152062971D01*
X34960562Y-152056716D01*
X34988140Y-152054000D01*
X35496860Y-152054000D01*
X35524438Y-152056716D01*
X35524438Y-152056716D01*
G37*
G36*
X37111938Y-152056716D02*
G01*
X37132557Y-152062971D01*
X37151553Y-152073124D01*
X37168208Y-152086792D01*
X37181876Y-152103447D01*
X37192029Y-152122443D01*
X37198284Y-152143062D01*
X37201000Y-152170640D01*
X37201000Y-152629360D01*
X37198284Y-152656938D01*
X37192029Y-152677557D01*
X37181876Y-152696553D01*
X37168208Y-152713208D01*
X37151553Y-152726876D01*
X37132557Y-152737029D01*
X37111938Y-152743284D01*
X37084360Y-152746000D01*
X36575640Y-152746000D01*
X36548062Y-152743284D01*
X36527443Y-152737029D01*
X36508447Y-152726876D01*
X36491792Y-152713208D01*
X36478124Y-152696553D01*
X36467971Y-152677557D01*
X36461716Y-152656938D01*
X36459000Y-152629360D01*
X36459000Y-152170640D01*
X36461716Y-152143062D01*
X36467971Y-152122443D01*
X36478124Y-152103447D01*
X36491792Y-152086792D01*
X36508447Y-152073124D01*
X36527443Y-152062971D01*
X36548062Y-152056716D01*
X36575640Y-152054000D01*
X37084360Y-152054000D01*
X37111938Y-152056716D01*
X37111938Y-152056716D01*
G37*
G36*
X26776578Y-151610197D02*
G01*
X26829350Y-151620694D01*
X26928770Y-151661875D01*
X27018246Y-151721661D01*
X27094339Y-151797754D01*
X27154125Y-151887230D01*
X27195306Y-151986650D01*
X27195306Y-151986651D01*
X27215226Y-152086792D01*
X27216300Y-152092194D01*
X27216300Y-152199806D01*
X27195306Y-152305350D01*
X27154125Y-152404770D01*
X27094339Y-152494246D01*
X27018246Y-152570339D01*
X26928770Y-152630125D01*
X26829350Y-152671306D01*
X26797924Y-152677557D01*
X26723807Y-152692300D01*
X26616193Y-152692300D01*
X26542076Y-152677557D01*
X26510650Y-152671306D01*
X26411230Y-152630125D01*
X26321754Y-152570339D01*
X26245661Y-152494246D01*
X26185875Y-152404770D01*
X26144694Y-152305350D01*
X26123700Y-152199806D01*
X26123700Y-152092194D01*
X26124775Y-152086792D01*
X26144694Y-151986651D01*
X26144694Y-151986650D01*
X26185875Y-151887230D01*
X26245661Y-151797754D01*
X26321754Y-151721661D01*
X26411230Y-151661875D01*
X26510650Y-151620694D01*
X26563422Y-151610197D01*
X26616193Y-151599700D01*
X26723807Y-151599700D01*
X26776578Y-151610197D01*
X26776578Y-151610197D01*
G37*
G36*
X35524438Y-151086716D02*
G01*
X35545057Y-151092971D01*
X35564053Y-151103124D01*
X35580708Y-151116792D01*
X35594376Y-151133447D01*
X35604529Y-151152443D01*
X35610784Y-151173062D01*
X35613500Y-151200640D01*
X35613500Y-151659360D01*
X35610784Y-151686938D01*
X35604529Y-151707557D01*
X35594376Y-151726553D01*
X35580708Y-151743208D01*
X35564053Y-151756876D01*
X35545057Y-151767029D01*
X35524438Y-151773284D01*
X35496860Y-151776000D01*
X34988140Y-151776000D01*
X34960562Y-151773284D01*
X34939943Y-151767029D01*
X34920947Y-151756876D01*
X34904292Y-151743208D01*
X34890624Y-151726553D01*
X34880471Y-151707557D01*
X34874216Y-151686938D01*
X34871500Y-151659360D01*
X34871500Y-151200640D01*
X34874216Y-151173062D01*
X34880471Y-151152443D01*
X34890624Y-151133447D01*
X34904292Y-151116792D01*
X34920947Y-151103124D01*
X34939943Y-151092971D01*
X34960562Y-151086716D01*
X34988140Y-151084000D01*
X35496860Y-151084000D01*
X35524438Y-151086716D01*
X35524438Y-151086716D01*
G37*
G36*
X33936938Y-151086716D02*
G01*
X33957557Y-151092971D01*
X33976553Y-151103124D01*
X33993208Y-151116792D01*
X34006876Y-151133447D01*
X34017029Y-151152443D01*
X34023284Y-151173062D01*
X34026000Y-151200640D01*
X34026000Y-151659360D01*
X34023284Y-151686938D01*
X34017029Y-151707557D01*
X34006876Y-151726553D01*
X33993208Y-151743208D01*
X33976553Y-151756876D01*
X33957557Y-151767029D01*
X33936938Y-151773284D01*
X33909360Y-151776000D01*
X33400640Y-151776000D01*
X33373062Y-151773284D01*
X33352443Y-151767029D01*
X33333447Y-151756876D01*
X33316792Y-151743208D01*
X33303124Y-151726553D01*
X33292971Y-151707557D01*
X33286716Y-151686938D01*
X33284000Y-151659360D01*
X33284000Y-151200640D01*
X33286716Y-151173062D01*
X33292971Y-151152443D01*
X33303124Y-151133447D01*
X33316792Y-151116792D01*
X33333447Y-151103124D01*
X33352443Y-151092971D01*
X33373062Y-151086716D01*
X33400640Y-151084000D01*
X33909360Y-151084000D01*
X33936938Y-151086716D01*
X33936938Y-151086716D01*
G37*
G36*
X37111938Y-151086716D02*
G01*
X37132557Y-151092971D01*
X37151553Y-151103124D01*
X37168208Y-151116792D01*
X37181876Y-151133447D01*
X37192029Y-151152443D01*
X37198284Y-151173062D01*
X37201000Y-151200640D01*
X37201000Y-151659360D01*
X37198284Y-151686938D01*
X37192029Y-151707557D01*
X37181876Y-151726553D01*
X37168208Y-151743208D01*
X37151553Y-151756876D01*
X37132557Y-151767029D01*
X37111938Y-151773284D01*
X37084360Y-151776000D01*
X36575640Y-151776000D01*
X36548062Y-151773284D01*
X36527443Y-151767029D01*
X36508447Y-151756876D01*
X36491792Y-151743208D01*
X36478124Y-151726553D01*
X36467971Y-151707557D01*
X36461716Y-151686938D01*
X36459000Y-151659360D01*
X36459000Y-151200640D01*
X36461716Y-151173062D01*
X36467971Y-151152443D01*
X36478124Y-151133447D01*
X36491792Y-151116792D01*
X36508447Y-151103124D01*
X36527443Y-151092971D01*
X36548062Y-151086716D01*
X36575640Y-151084000D01*
X37084360Y-151084000D01*
X37111938Y-151086716D01*
X37111938Y-151086716D01*
G37*
G36*
X31856578Y-150594197D02*
G01*
X31909350Y-150604694D01*
X32008770Y-150645875D01*
X32098246Y-150705661D01*
X32174339Y-150781754D01*
X32234125Y-150871230D01*
X32275306Y-150970650D01*
X32296300Y-151076194D01*
X32296300Y-151183806D01*
X32275306Y-151289350D01*
X32234125Y-151388770D01*
X32174339Y-151478246D01*
X32098246Y-151554339D01*
X32008770Y-151614125D01*
X31909350Y-151655306D01*
X31888969Y-151659360D01*
X31803807Y-151676300D01*
X31696193Y-151676300D01*
X31611031Y-151659360D01*
X31590650Y-151655306D01*
X31491230Y-151614125D01*
X31401754Y-151554339D01*
X31325661Y-151478246D01*
X31265875Y-151388770D01*
X31224694Y-151289350D01*
X31203700Y-151183806D01*
X31203700Y-151076194D01*
X31224694Y-150970650D01*
X31265875Y-150871230D01*
X31325661Y-150781754D01*
X31401754Y-150705661D01*
X31491230Y-150645875D01*
X31590650Y-150604694D01*
X31643422Y-150594197D01*
X31696193Y-150583700D01*
X31803807Y-150583700D01*
X31856578Y-150594197D01*
X31856578Y-150594197D01*
G37*
G36*
X61193642Y-149089781D02*
G01*
X61339414Y-149150162D01*
X61339416Y-149150163D01*
X61470608Y-149237822D01*
X61582178Y-149349392D01*
X61669837Y-149480584D01*
X61669838Y-149480586D01*
X61730219Y-149626358D01*
X61761000Y-149781107D01*
X61761000Y-149938893D01*
X61730219Y-150093642D01*
X61669838Y-150239414D01*
X61669837Y-150239416D01*
X61582178Y-150370608D01*
X61470608Y-150482178D01*
X61339416Y-150569837D01*
X61339415Y-150569838D01*
X61339414Y-150569838D01*
X61193642Y-150630219D01*
X61038893Y-150661000D01*
X60881107Y-150661000D01*
X60726358Y-150630219D01*
X60580586Y-150569838D01*
X60580585Y-150569838D01*
X60580584Y-150569837D01*
X60449392Y-150482178D01*
X60337822Y-150370608D01*
X60250163Y-150239416D01*
X60250162Y-150239414D01*
X60189781Y-150093642D01*
X60159000Y-149938893D01*
X60159000Y-149781107D01*
X60189781Y-149626358D01*
X60250162Y-149480586D01*
X60250163Y-149480584D01*
X60337822Y-149349392D01*
X60449392Y-149237822D01*
X60580584Y-149150163D01*
X60580586Y-149150162D01*
X60726358Y-149089781D01*
X60881107Y-149059000D01*
X61038893Y-149059000D01*
X61193642Y-149089781D01*
X61193642Y-149089781D01*
G37*
G36*
X26776578Y-149578197D02*
G01*
X26829350Y-149588694D01*
X26928770Y-149629875D01*
X27018246Y-149689661D01*
X27094339Y-149765754D01*
X27154125Y-149855230D01*
X27195306Y-149954650D01*
X27216300Y-150060194D01*
X27216300Y-150167806D01*
X27195306Y-150273350D01*
X27154125Y-150372770D01*
X27094339Y-150462246D01*
X27018246Y-150538339D01*
X26928770Y-150598125D01*
X26829350Y-150639306D01*
X26796325Y-150645875D01*
X26723807Y-150660300D01*
X26616193Y-150660300D01*
X26543675Y-150645875D01*
X26510650Y-150639306D01*
X26411230Y-150598125D01*
X26321754Y-150538339D01*
X26245661Y-150462246D01*
X26185875Y-150372770D01*
X26144694Y-150273350D01*
X26123700Y-150167806D01*
X26123700Y-150060194D01*
X26144694Y-149954650D01*
X26185875Y-149855230D01*
X26245661Y-149765754D01*
X26321754Y-149689661D01*
X26411230Y-149629875D01*
X26510650Y-149588694D01*
X26563422Y-149578197D01*
X26616193Y-149567700D01*
X26723807Y-149567700D01*
X26776578Y-149578197D01*
X26776578Y-149578197D01*
G37*
G36*
X40031000Y-148506000D02*
G01*
X33629000Y-148506000D01*
X33629000Y-146954000D01*
X40031000Y-146954000D01*
X40031000Y-148506000D01*
X40031000Y-148506000D01*
G37*
G36*
X48911000Y-147821000D02*
G01*
X47609000Y-147821000D01*
X47609000Y-146819000D01*
X48911000Y-146819000D01*
X48911000Y-147821000D01*
X48911000Y-147821000D01*
G37*
G36*
X57166000Y-147821000D02*
G01*
X55864000Y-147821000D01*
X55864000Y-146819000D01*
X57166000Y-146819000D01*
X57166000Y-147821000D01*
X57166000Y-147821000D01*
G37*
G36*
X31071938Y-146951716D02*
G01*
X31092557Y-146957971D01*
X31111553Y-146968124D01*
X31128208Y-146981792D01*
X31141876Y-146998447D01*
X31152029Y-147017443D01*
X31158284Y-147038062D01*
X31161000Y-147065640D01*
X31161000Y-147574360D01*
X31158284Y-147601938D01*
X31152029Y-147622557D01*
X31141876Y-147641553D01*
X31128208Y-147658208D01*
X31111553Y-147671876D01*
X31092557Y-147682029D01*
X31071938Y-147688284D01*
X31044360Y-147691000D01*
X30585640Y-147691000D01*
X30558062Y-147688284D01*
X30537443Y-147682029D01*
X30518447Y-147671876D01*
X30501792Y-147658208D01*
X30488124Y-147641553D01*
X30477971Y-147622557D01*
X30471716Y-147601938D01*
X30469000Y-147574360D01*
X30469000Y-147065640D01*
X30471716Y-147038062D01*
X30477971Y-147017443D01*
X30488124Y-146998447D01*
X30501792Y-146981792D01*
X30518447Y-146968124D01*
X30537443Y-146957971D01*
X30558062Y-146951716D01*
X30585640Y-146949000D01*
X31044360Y-146949000D01*
X31071938Y-146951716D01*
X31071938Y-146951716D01*
G37*
G36*
X30101938Y-146951716D02*
G01*
X30122557Y-146957971D01*
X30141553Y-146968124D01*
X30158208Y-146981792D01*
X30171876Y-146998447D01*
X30182029Y-147017443D01*
X30188284Y-147038062D01*
X30191000Y-147065640D01*
X30191000Y-147574360D01*
X30188284Y-147601938D01*
X30182029Y-147622557D01*
X30171876Y-147641553D01*
X30158208Y-147658208D01*
X30141553Y-147671876D01*
X30122557Y-147682029D01*
X30101938Y-147688284D01*
X30074360Y-147691000D01*
X29615640Y-147691000D01*
X29588062Y-147688284D01*
X29567443Y-147682029D01*
X29548447Y-147671876D01*
X29531792Y-147658208D01*
X29518124Y-147641553D01*
X29507971Y-147622557D01*
X29501716Y-147601938D01*
X29499000Y-147574360D01*
X29499000Y-147065640D01*
X29501716Y-147038062D01*
X29507971Y-147017443D01*
X29518124Y-146998447D01*
X29531792Y-146981792D01*
X29548447Y-146968124D01*
X29567443Y-146957971D01*
X29588062Y-146951716D01*
X29615640Y-146949000D01*
X30074360Y-146949000D01*
X30101938Y-146951716D01*
X30101938Y-146951716D01*
G37*
G36*
X53084591Y-145103085D02*
G01*
X53118569Y-145113393D01*
X53149890Y-145130134D01*
X53177339Y-145152661D01*
X53199866Y-145180110D01*
X53216607Y-145211431D01*
X53226915Y-145245409D01*
X53231000Y-145286890D01*
X53231000Y-145888110D01*
X53226915Y-145929591D01*
X53216607Y-145963569D01*
X53199866Y-145994890D01*
X53177339Y-146022339D01*
X53149890Y-146044866D01*
X53118569Y-146061607D01*
X53084591Y-146071915D01*
X53043110Y-146076000D01*
X52366890Y-146076000D01*
X52325409Y-146071915D01*
X52291431Y-146061607D01*
X52260110Y-146044866D01*
X52232661Y-146022339D01*
X52210134Y-145994890D01*
X52193393Y-145963569D01*
X52183085Y-145929591D01*
X52179000Y-145888110D01*
X52179000Y-145286890D01*
X52183085Y-145245409D01*
X52193393Y-145211431D01*
X52210134Y-145180110D01*
X52232661Y-145152661D01*
X52260110Y-145130134D01*
X52291431Y-145113393D01*
X52325409Y-145103085D01*
X52366890Y-145099000D01*
X53043110Y-145099000D01*
X53084591Y-145103085D01*
X53084591Y-145103085D01*
G37*
G36*
X61302091Y-144283485D02*
G01*
X61336069Y-144293793D01*
X61367390Y-144310534D01*
X61394839Y-144333061D01*
X61417366Y-144360510D01*
X61434107Y-144391831D01*
X61444415Y-144425809D01*
X61448500Y-144467290D01*
X61448500Y-145143510D01*
X61444415Y-145184991D01*
X61434107Y-145218969D01*
X61417366Y-145250290D01*
X61394839Y-145277739D01*
X61367390Y-145300266D01*
X61336069Y-145317007D01*
X61302091Y-145327315D01*
X61260610Y-145331400D01*
X60659390Y-145331400D01*
X60617909Y-145327315D01*
X60583931Y-145317007D01*
X60552610Y-145300266D01*
X60525161Y-145277739D01*
X60502634Y-145250290D01*
X60485893Y-145218969D01*
X60475585Y-145184991D01*
X60471500Y-145143510D01*
X60471500Y-144467290D01*
X60475585Y-144425809D01*
X60485893Y-144391831D01*
X60502634Y-144360510D01*
X60525161Y-144333061D01*
X60552610Y-144310534D01*
X60583931Y-144293793D01*
X60617909Y-144283485D01*
X60659390Y-144279400D01*
X61260610Y-144279400D01*
X61302091Y-144283485D01*
X61302091Y-144283485D01*
G37*
G36*
X62877091Y-144283485D02*
G01*
X62911069Y-144293793D01*
X62942390Y-144310534D01*
X62969839Y-144333061D01*
X62992366Y-144360510D01*
X63009107Y-144391831D01*
X63019415Y-144425809D01*
X63023500Y-144467290D01*
X63023500Y-145143510D01*
X63019415Y-145184991D01*
X63009107Y-145218969D01*
X62992366Y-145250290D01*
X62969839Y-145277739D01*
X62942390Y-145300266D01*
X62911069Y-145317007D01*
X62877091Y-145327315D01*
X62835610Y-145331400D01*
X62234390Y-145331400D01*
X62192909Y-145327315D01*
X62158931Y-145317007D01*
X62127610Y-145300266D01*
X62100161Y-145277739D01*
X62077634Y-145250290D01*
X62060893Y-145218969D01*
X62050585Y-145184991D01*
X62046500Y-145143510D01*
X62046500Y-144467290D01*
X62050585Y-144425809D01*
X62060893Y-144391831D01*
X62077634Y-144360510D01*
X62100161Y-144333061D01*
X62127610Y-144310534D01*
X62158931Y-144293793D01*
X62192909Y-144283485D01*
X62234390Y-144279400D01*
X62835610Y-144279400D01*
X62877091Y-144283485D01*
X62877091Y-144283485D01*
G37*
G36*
X31457091Y-144258085D02*
G01*
X31491069Y-144268393D01*
X31522390Y-144285134D01*
X31549839Y-144307661D01*
X31572366Y-144335110D01*
X31589107Y-144366431D01*
X31599415Y-144400409D01*
X31603500Y-144441890D01*
X31603500Y-145118110D01*
X31599415Y-145159591D01*
X31589107Y-145193569D01*
X31572366Y-145224890D01*
X31549839Y-145252339D01*
X31522390Y-145274866D01*
X31491069Y-145291607D01*
X31457091Y-145301915D01*
X31415610Y-145306000D01*
X30814390Y-145306000D01*
X30772909Y-145301915D01*
X30738931Y-145291607D01*
X30707610Y-145274866D01*
X30680161Y-145252339D01*
X30657634Y-145224890D01*
X30640893Y-145193569D01*
X30630585Y-145159591D01*
X30626500Y-145118110D01*
X30626500Y-144441890D01*
X30630585Y-144400409D01*
X30640893Y-144366431D01*
X30657634Y-144335110D01*
X30680161Y-144307661D01*
X30707610Y-144285134D01*
X30738931Y-144268393D01*
X30772909Y-144258085D01*
X30814390Y-144254000D01*
X31415610Y-144254000D01*
X31457091Y-144258085D01*
X31457091Y-144258085D01*
G37*
G36*
X29882091Y-144258085D02*
G01*
X29916069Y-144268393D01*
X29947390Y-144285134D01*
X29974839Y-144307661D01*
X29997366Y-144335110D01*
X30014107Y-144366431D01*
X30024415Y-144400409D01*
X30028500Y-144441890D01*
X30028500Y-145118110D01*
X30024415Y-145159591D01*
X30014107Y-145193569D01*
X29997366Y-145224890D01*
X29974839Y-145252339D01*
X29947390Y-145274866D01*
X29916069Y-145291607D01*
X29882091Y-145301915D01*
X29840610Y-145306000D01*
X29239390Y-145306000D01*
X29197909Y-145301915D01*
X29163931Y-145291607D01*
X29132610Y-145274866D01*
X29105161Y-145252339D01*
X29082634Y-145224890D01*
X29065893Y-145193569D01*
X29055585Y-145159591D01*
X29051500Y-145118110D01*
X29051500Y-144441890D01*
X29055585Y-144400409D01*
X29065893Y-144366431D01*
X29082634Y-144335110D01*
X29105161Y-144307661D01*
X29132610Y-144285134D01*
X29163931Y-144268393D01*
X29197909Y-144258085D01*
X29239390Y-144254000D01*
X29840610Y-144254000D01*
X29882091Y-144258085D01*
X29882091Y-144258085D01*
G37*
G36*
X57166000Y-144521000D02*
G01*
X55864000Y-144521000D01*
X55864000Y-143519000D01*
X57166000Y-143519000D01*
X57166000Y-144521000D01*
X57166000Y-144521000D01*
G37*
G36*
X48911000Y-144521000D02*
G01*
X47609000Y-144521000D01*
X47609000Y-143519000D01*
X48911000Y-143519000D01*
X48911000Y-144521000D01*
X48911000Y-144521000D01*
G37*
G36*
X53084591Y-143528085D02*
G01*
X53118569Y-143538393D01*
X53149890Y-143555134D01*
X53177339Y-143577661D01*
X53199866Y-143605110D01*
X53216607Y-143636431D01*
X53226915Y-143670409D01*
X53231000Y-143711890D01*
X53231000Y-144313110D01*
X53226915Y-144354591D01*
X53216607Y-144388569D01*
X53199866Y-144419890D01*
X53177339Y-144447339D01*
X53149890Y-144469866D01*
X53118569Y-144486607D01*
X53084591Y-144496915D01*
X53043110Y-144501000D01*
X52366890Y-144501000D01*
X52325409Y-144496915D01*
X52291431Y-144486607D01*
X52260110Y-144469866D01*
X52232661Y-144447339D01*
X52210134Y-144419890D01*
X52193393Y-144388569D01*
X52183085Y-144354591D01*
X52179000Y-144313110D01*
X52179000Y-143711890D01*
X52183085Y-143670409D01*
X52193393Y-143636431D01*
X52210134Y-143605110D01*
X52232661Y-143577661D01*
X52260110Y-143555134D01*
X52291431Y-143538393D01*
X52325409Y-143528085D01*
X52366890Y-143524000D01*
X53043110Y-143524000D01*
X53084591Y-143528085D01*
X53084591Y-143528085D01*
G37*
G36*
X62877091Y-142353085D02*
G01*
X62911069Y-142363393D01*
X62942390Y-142380134D01*
X62969839Y-142402661D01*
X62992366Y-142430110D01*
X63009107Y-142461431D01*
X63019415Y-142495409D01*
X63023500Y-142536890D01*
X63023500Y-143213110D01*
X63019415Y-143254591D01*
X63009107Y-143288569D01*
X62992366Y-143319890D01*
X62969839Y-143347339D01*
X62942390Y-143369866D01*
X62911069Y-143386607D01*
X62877091Y-143396915D01*
X62835610Y-143401000D01*
X62234390Y-143401000D01*
X62192909Y-143396915D01*
X62158931Y-143386607D01*
X62127610Y-143369866D01*
X62100161Y-143347339D01*
X62077634Y-143319890D01*
X62060893Y-143288569D01*
X62050585Y-143254591D01*
X62046500Y-143213110D01*
X62046500Y-142536890D01*
X62050585Y-142495409D01*
X62060893Y-142461431D01*
X62077634Y-142430110D01*
X62100161Y-142402661D01*
X62127610Y-142380134D01*
X62158931Y-142363393D01*
X62192909Y-142353085D01*
X62234390Y-142349000D01*
X62835610Y-142349000D01*
X62877091Y-142353085D01*
X62877091Y-142353085D01*
G37*
G36*
X61302091Y-142353085D02*
G01*
X61336069Y-142363393D01*
X61367390Y-142380134D01*
X61394839Y-142402661D01*
X61417366Y-142430110D01*
X61434107Y-142461431D01*
X61444415Y-142495409D01*
X61448500Y-142536890D01*
X61448500Y-143213110D01*
X61444415Y-143254591D01*
X61434107Y-143288569D01*
X61417366Y-143319890D01*
X61394839Y-143347339D01*
X61367390Y-143369866D01*
X61336069Y-143386607D01*
X61302091Y-143396915D01*
X61260610Y-143401000D01*
X60659390Y-143401000D01*
X60617909Y-143396915D01*
X60583931Y-143386607D01*
X60552610Y-143369866D01*
X60525161Y-143347339D01*
X60502634Y-143319890D01*
X60485893Y-143288569D01*
X60475585Y-143254591D01*
X60471500Y-143213110D01*
X60471500Y-142536890D01*
X60475585Y-142495409D01*
X60485893Y-142461431D01*
X60502634Y-142430110D01*
X60525161Y-142402661D01*
X60552610Y-142380134D01*
X60583931Y-142363393D01*
X60617909Y-142353085D01*
X60659390Y-142349000D01*
X61260610Y-142349000D01*
X61302091Y-142353085D01*
X61302091Y-142353085D01*
G37*
G36*
X40031000Y-142606000D02*
G01*
X33629000Y-142606000D01*
X33629000Y-141054000D01*
X40031000Y-141054000D01*
X40031000Y-142606000D01*
X40031000Y-142606000D01*
G37*
G36*
X61302091Y-140357369D02*
G01*
X61336069Y-140367677D01*
X61367390Y-140384418D01*
X61394839Y-140406945D01*
X61417366Y-140434394D01*
X61434107Y-140465715D01*
X61444415Y-140499693D01*
X61448500Y-140541174D01*
X61448500Y-141217394D01*
X61444415Y-141258875D01*
X61434107Y-141292853D01*
X61417366Y-141324174D01*
X61394839Y-141351623D01*
X61367390Y-141374150D01*
X61336069Y-141390891D01*
X61302091Y-141401199D01*
X61260610Y-141405284D01*
X60659390Y-141405284D01*
X60617909Y-141401199D01*
X60583931Y-141390891D01*
X60552610Y-141374150D01*
X60525161Y-141351623D01*
X60502634Y-141324174D01*
X60485893Y-141292853D01*
X60475585Y-141258875D01*
X60471500Y-141217394D01*
X60471500Y-140541174D01*
X60475585Y-140499693D01*
X60485893Y-140465715D01*
X60502634Y-140434394D01*
X60525161Y-140406945D01*
X60552610Y-140384418D01*
X60583931Y-140367677D01*
X60617909Y-140357369D01*
X60659390Y-140353284D01*
X61260610Y-140353284D01*
X61302091Y-140357369D01*
X61302091Y-140357369D01*
G37*
G36*
X62877091Y-140357369D02*
G01*
X62911069Y-140367677D01*
X62942390Y-140384418D01*
X62969839Y-140406945D01*
X62992366Y-140434394D01*
X63009107Y-140465715D01*
X63019415Y-140499693D01*
X63023500Y-140541174D01*
X63023500Y-141217394D01*
X63019415Y-141258875D01*
X63009107Y-141292853D01*
X62992366Y-141324174D01*
X62969839Y-141351623D01*
X62942390Y-141374150D01*
X62911069Y-141390891D01*
X62877091Y-141401199D01*
X62835610Y-141405284D01*
X62234390Y-141405284D01*
X62192909Y-141401199D01*
X62158931Y-141390891D01*
X62127610Y-141374150D01*
X62100161Y-141351623D01*
X62077634Y-141324174D01*
X62060893Y-141292853D01*
X62050585Y-141258875D01*
X62046500Y-141217394D01*
X62046500Y-140541174D01*
X62050585Y-140499693D01*
X62060893Y-140465715D01*
X62077634Y-140434394D01*
X62100161Y-140406945D01*
X62127610Y-140384418D01*
X62158931Y-140367677D01*
X62192909Y-140357369D01*
X62234390Y-140353284D01*
X62835610Y-140353284D01*
X62877091Y-140357369D01*
X62877091Y-140357369D01*
G37*
G36*
X31466000Y-141161000D02*
G01*
X30764000Y-141161000D01*
X30764000Y-139509000D01*
X31466000Y-139509000D01*
X31466000Y-141161000D01*
X31466000Y-141161000D01*
G37*
G36*
X28926000Y-141161000D02*
G01*
X28224000Y-141161000D01*
X28224000Y-139509000D01*
X28926000Y-139509000D01*
X28926000Y-141161000D01*
X28926000Y-141161000D01*
G37*
G36*
X27656000Y-141161000D02*
G01*
X26954000Y-141161000D01*
X26954000Y-139509000D01*
X27656000Y-139509000D01*
X27656000Y-141161000D01*
X27656000Y-141161000D01*
G37*
G36*
X30196000Y-141161000D02*
G01*
X29494000Y-141161000D01*
X29494000Y-139509000D01*
X30196000Y-139509000D01*
X30196000Y-141161000D01*
X30196000Y-141161000D01*
G37*
G36*
X53356000Y-140836000D02*
G01*
X52054000Y-140836000D01*
X52054000Y-139834000D01*
X53356000Y-139834000D01*
X53356000Y-140836000D01*
X53356000Y-140836000D01*
G37*
G36*
X49028604Y-139413347D02*
G01*
X49065144Y-139424432D01*
X49098821Y-139442433D01*
X49128341Y-139466659D01*
X49152567Y-139496179D01*
X49170568Y-139529856D01*
X49181653Y-139566396D01*
X49186000Y-139610538D01*
X49186000Y-140559462D01*
X49181653Y-140603604D01*
X49170568Y-140640144D01*
X49152567Y-140673821D01*
X49128341Y-140703341D01*
X49098821Y-140727567D01*
X49065144Y-140745568D01*
X49028604Y-140756653D01*
X48984462Y-140761000D01*
X47535538Y-140761000D01*
X47491396Y-140756653D01*
X47454856Y-140745568D01*
X47421179Y-140727567D01*
X47391659Y-140703341D01*
X47367433Y-140673821D01*
X47349432Y-140640144D01*
X47338347Y-140603604D01*
X47334000Y-140559462D01*
X47334000Y-139610538D01*
X47338347Y-139566396D01*
X47349432Y-139529856D01*
X47367433Y-139496179D01*
X47391659Y-139466659D01*
X47421179Y-139442433D01*
X47454856Y-139424432D01*
X47491396Y-139413347D01*
X47535538Y-139409000D01*
X48984462Y-139409000D01*
X49028604Y-139413347D01*
X49028604Y-139413347D01*
G37*
G36*
X40596938Y-138696716D02*
G01*
X40617557Y-138702971D01*
X40636553Y-138713124D01*
X40653208Y-138726792D01*
X40666876Y-138743447D01*
X40677029Y-138762443D01*
X40683284Y-138783062D01*
X40686000Y-138810640D01*
X40686000Y-139319360D01*
X40683284Y-139346938D01*
X40677029Y-139367557D01*
X40666876Y-139386553D01*
X40653208Y-139403208D01*
X40636553Y-139416876D01*
X40617557Y-139427029D01*
X40596938Y-139433284D01*
X40569360Y-139436000D01*
X40110640Y-139436000D01*
X40083062Y-139433284D01*
X40062443Y-139427029D01*
X40043447Y-139416876D01*
X40026792Y-139403208D01*
X40013124Y-139386553D01*
X40002971Y-139367557D01*
X39996716Y-139346938D01*
X39994000Y-139319360D01*
X39994000Y-138810640D01*
X39996716Y-138783062D01*
X40002971Y-138762443D01*
X40013124Y-138743447D01*
X40026792Y-138726792D01*
X40043447Y-138713124D01*
X40062443Y-138702971D01*
X40083062Y-138696716D01*
X40110640Y-138694000D01*
X40569360Y-138694000D01*
X40596938Y-138696716D01*
X40596938Y-138696716D01*
G37*
G36*
X39626938Y-138696716D02*
G01*
X39647557Y-138702971D01*
X39666553Y-138713124D01*
X39683208Y-138726792D01*
X39696876Y-138743447D01*
X39707029Y-138762443D01*
X39713284Y-138783062D01*
X39716000Y-138810640D01*
X39716000Y-139319360D01*
X39713284Y-139346938D01*
X39707029Y-139367557D01*
X39696876Y-139386553D01*
X39683208Y-139403208D01*
X39666553Y-139416876D01*
X39647557Y-139427029D01*
X39626938Y-139433284D01*
X39599360Y-139436000D01*
X39140640Y-139436000D01*
X39113062Y-139433284D01*
X39092443Y-139427029D01*
X39073447Y-139416876D01*
X39056792Y-139403208D01*
X39043124Y-139386553D01*
X39032971Y-139367557D01*
X39026716Y-139346938D01*
X39024000Y-139319360D01*
X39024000Y-138810640D01*
X39026716Y-138783062D01*
X39032971Y-138762443D01*
X39043124Y-138743447D01*
X39056792Y-138726792D01*
X39073447Y-138713124D01*
X39092443Y-138702971D01*
X39113062Y-138696716D01*
X39140640Y-138694000D01*
X39599360Y-138694000D01*
X39626938Y-138696716D01*
X39626938Y-138696716D01*
G37*
G36*
X62877091Y-138361655D02*
G01*
X62911069Y-138371963D01*
X62942390Y-138388704D01*
X62969839Y-138411231D01*
X62992366Y-138438680D01*
X63009107Y-138470001D01*
X63019415Y-138503979D01*
X63023500Y-138545460D01*
X63023500Y-139221680D01*
X63019415Y-139263161D01*
X63009107Y-139297139D01*
X62992366Y-139328460D01*
X62969839Y-139355909D01*
X62942390Y-139378436D01*
X62911069Y-139395177D01*
X62877091Y-139405485D01*
X62835610Y-139409570D01*
X62234390Y-139409570D01*
X62192909Y-139405485D01*
X62158931Y-139395177D01*
X62127610Y-139378436D01*
X62100161Y-139355909D01*
X62077634Y-139328460D01*
X62060893Y-139297139D01*
X62050585Y-139263161D01*
X62046500Y-139221680D01*
X62046500Y-138545460D01*
X62050585Y-138503979D01*
X62060893Y-138470001D01*
X62077634Y-138438680D01*
X62100161Y-138411231D01*
X62127610Y-138388704D01*
X62158931Y-138371963D01*
X62192909Y-138361655D01*
X62234390Y-138357570D01*
X62835610Y-138357570D01*
X62877091Y-138361655D01*
X62877091Y-138361655D01*
G37*
G36*
X61302091Y-138361655D02*
G01*
X61336069Y-138371963D01*
X61367390Y-138388704D01*
X61394839Y-138411231D01*
X61417366Y-138438680D01*
X61434107Y-138470001D01*
X61444415Y-138503979D01*
X61448500Y-138545460D01*
X61448500Y-139221680D01*
X61444415Y-139263161D01*
X61434107Y-139297139D01*
X61417366Y-139328460D01*
X61394839Y-139355909D01*
X61367390Y-139378436D01*
X61336069Y-139395177D01*
X61302091Y-139405485D01*
X61260610Y-139409570D01*
X60659390Y-139409570D01*
X60617909Y-139405485D01*
X60583931Y-139395177D01*
X60552610Y-139378436D01*
X60525161Y-139355909D01*
X60502634Y-139328460D01*
X60485893Y-139297139D01*
X60475585Y-139263161D01*
X60471500Y-139221680D01*
X60471500Y-138545460D01*
X60475585Y-138503979D01*
X60485893Y-138470001D01*
X60502634Y-138438680D01*
X60525161Y-138411231D01*
X60552610Y-138388704D01*
X60583931Y-138371963D01*
X60617909Y-138361655D01*
X60659390Y-138357570D01*
X61260610Y-138357570D01*
X61302091Y-138361655D01*
X61302091Y-138361655D01*
G37*
G36*
X34994468Y-137048565D02*
G01*
X35033138Y-137060296D01*
X35068777Y-137079346D01*
X35100017Y-137104983D01*
X35125654Y-137136223D01*
X35144704Y-137171862D01*
X35156435Y-137210532D01*
X35161000Y-137256888D01*
X35161000Y-138333112D01*
X35156435Y-138379468D01*
X35144704Y-138418138D01*
X35125654Y-138453777D01*
X35100017Y-138485017D01*
X35068777Y-138510654D01*
X35033138Y-138529704D01*
X34994468Y-138541435D01*
X34948112Y-138546000D01*
X34296888Y-138546000D01*
X34250532Y-138541435D01*
X34211862Y-138529704D01*
X34176223Y-138510654D01*
X34144983Y-138485017D01*
X34119346Y-138453777D01*
X34100296Y-138418138D01*
X34088565Y-138379468D01*
X34084000Y-138333112D01*
X34084000Y-137256888D01*
X34088565Y-137210532D01*
X34100296Y-137171862D01*
X34119346Y-137136223D01*
X34144983Y-137104983D01*
X34176223Y-137079346D01*
X34211862Y-137060296D01*
X34250532Y-137048565D01*
X34296888Y-137044000D01*
X34948112Y-137044000D01*
X34994468Y-137048565D01*
X34994468Y-137048565D01*
G37*
G36*
X36869468Y-137048565D02*
G01*
X36908138Y-137060296D01*
X36943777Y-137079346D01*
X36975017Y-137104983D01*
X37000654Y-137136223D01*
X37019704Y-137171862D01*
X37031435Y-137210532D01*
X37036000Y-137256888D01*
X37036000Y-138333112D01*
X37031435Y-138379468D01*
X37019704Y-138418138D01*
X37000654Y-138453777D01*
X36975017Y-138485017D01*
X36943777Y-138510654D01*
X36908138Y-138529704D01*
X36869468Y-138541435D01*
X36823112Y-138546000D01*
X36171888Y-138546000D01*
X36125532Y-138541435D01*
X36086862Y-138529704D01*
X36051223Y-138510654D01*
X36019983Y-138485017D01*
X35994346Y-138453777D01*
X35975296Y-138418138D01*
X35963565Y-138379468D01*
X35959000Y-138333112D01*
X35959000Y-137256888D01*
X35963565Y-137210532D01*
X35975296Y-137171862D01*
X35994346Y-137136223D01*
X36019983Y-137104983D01*
X36051223Y-137079346D01*
X36086862Y-137060296D01*
X36125532Y-137048565D01*
X36171888Y-137044000D01*
X36823112Y-137044000D01*
X36869468Y-137048565D01*
X36869468Y-137048565D01*
G37*
G36*
X49028604Y-136613347D02*
G01*
X49065144Y-136624432D01*
X49098821Y-136642433D01*
X49128341Y-136666659D01*
X49152567Y-136696179D01*
X49170568Y-136729856D01*
X49181653Y-136766396D01*
X49186000Y-136810538D01*
X49186000Y-137759462D01*
X49181653Y-137803604D01*
X49170568Y-137840144D01*
X49152567Y-137873821D01*
X49128341Y-137903341D01*
X49098821Y-137927567D01*
X49065144Y-137945568D01*
X49028604Y-137956653D01*
X48984462Y-137961000D01*
X47535538Y-137961000D01*
X47491396Y-137956653D01*
X47454856Y-137945568D01*
X47421179Y-137927567D01*
X47391659Y-137903341D01*
X47367433Y-137873821D01*
X47349432Y-137840144D01*
X47338347Y-137803604D01*
X47334000Y-137759462D01*
X47334000Y-136810538D01*
X47338347Y-136766396D01*
X47349432Y-136729856D01*
X47367433Y-136696179D01*
X47391659Y-136666659D01*
X47421179Y-136642433D01*
X47454856Y-136624432D01*
X47491396Y-136613347D01*
X47535538Y-136609000D01*
X48984462Y-136609000D01*
X49028604Y-136613347D01*
X49028604Y-136613347D01*
G37*
G36*
X39672938Y-137172716D02*
G01*
X39693557Y-137178971D01*
X39712553Y-137189124D01*
X39729208Y-137202792D01*
X39742876Y-137219447D01*
X39753029Y-137238443D01*
X39759284Y-137259062D01*
X39762000Y-137286640D01*
X39762000Y-137795360D01*
X39759284Y-137822938D01*
X39753029Y-137843557D01*
X39742876Y-137862553D01*
X39729208Y-137879208D01*
X39712553Y-137892876D01*
X39693557Y-137903029D01*
X39672938Y-137909284D01*
X39645360Y-137912000D01*
X39186640Y-137912000D01*
X39159062Y-137909284D01*
X39138443Y-137903029D01*
X39119447Y-137892876D01*
X39102792Y-137879208D01*
X39089124Y-137862553D01*
X39078971Y-137843557D01*
X39072716Y-137822938D01*
X39070000Y-137795360D01*
X39070000Y-137286640D01*
X39072716Y-137259062D01*
X39078971Y-137238443D01*
X39089124Y-137219447D01*
X39102792Y-137202792D01*
X39119447Y-137189124D01*
X39138443Y-137178971D01*
X39159062Y-137172716D01*
X39186640Y-137170000D01*
X39645360Y-137170000D01*
X39672938Y-137172716D01*
X39672938Y-137172716D01*
G37*
G36*
X40642938Y-137172716D02*
G01*
X40663557Y-137178971D01*
X40682553Y-137189124D01*
X40699208Y-137202792D01*
X40712876Y-137219447D01*
X40723029Y-137238443D01*
X40729284Y-137259062D01*
X40732000Y-137286640D01*
X40732000Y-137795360D01*
X40729284Y-137822938D01*
X40723029Y-137843557D01*
X40712876Y-137862553D01*
X40699208Y-137879208D01*
X40682553Y-137892876D01*
X40663557Y-137903029D01*
X40642938Y-137909284D01*
X40615360Y-137912000D01*
X40156640Y-137912000D01*
X40129062Y-137909284D01*
X40108443Y-137903029D01*
X40089447Y-137892876D01*
X40072792Y-137879208D01*
X40059124Y-137862553D01*
X40048971Y-137843557D01*
X40042716Y-137822938D01*
X40040000Y-137795360D01*
X40040000Y-137286640D01*
X40042716Y-137259062D01*
X40048971Y-137238443D01*
X40059124Y-137219447D01*
X40072792Y-137202792D01*
X40089447Y-137189124D01*
X40108443Y-137178971D01*
X40129062Y-137172716D01*
X40156640Y-137170000D01*
X40615360Y-137170000D01*
X40642938Y-137172716D01*
X40642938Y-137172716D01*
G37*
G36*
X53356000Y-137536000D02*
G01*
X52054000Y-137536000D01*
X52054000Y-136534000D01*
X53356000Y-136534000D01*
X53356000Y-137536000D01*
X53356000Y-137536000D01*
G37*
G36*
X61302091Y-136365941D02*
G01*
X61336069Y-136376249D01*
X61367390Y-136392990D01*
X61394839Y-136415517D01*
X61417366Y-136442966D01*
X61434107Y-136474287D01*
X61444415Y-136508265D01*
X61448500Y-136549746D01*
X61448500Y-137225966D01*
X61444415Y-137267447D01*
X61434107Y-137301425D01*
X61417366Y-137332746D01*
X61394839Y-137360195D01*
X61367390Y-137382722D01*
X61336069Y-137399463D01*
X61302091Y-137409771D01*
X61260610Y-137413856D01*
X60659390Y-137413856D01*
X60617909Y-137409771D01*
X60583931Y-137399463D01*
X60552610Y-137382722D01*
X60525161Y-137360195D01*
X60502634Y-137332746D01*
X60485893Y-137301425D01*
X60475585Y-137267447D01*
X60471500Y-137225966D01*
X60471500Y-136549746D01*
X60475585Y-136508265D01*
X60485893Y-136474287D01*
X60502634Y-136442966D01*
X60525161Y-136415517D01*
X60552610Y-136392990D01*
X60583931Y-136376249D01*
X60617909Y-136365941D01*
X60659390Y-136361856D01*
X61260610Y-136361856D01*
X61302091Y-136365941D01*
X61302091Y-136365941D01*
G37*
G36*
X62877091Y-136365941D02*
G01*
X62911069Y-136376249D01*
X62942390Y-136392990D01*
X62969839Y-136415517D01*
X62992366Y-136442966D01*
X63009107Y-136474287D01*
X63019415Y-136508265D01*
X63023500Y-136549746D01*
X63023500Y-137225966D01*
X63019415Y-137267447D01*
X63009107Y-137301425D01*
X62992366Y-137332746D01*
X62969839Y-137360195D01*
X62942390Y-137382722D01*
X62911069Y-137399463D01*
X62877091Y-137409771D01*
X62835610Y-137413856D01*
X62234390Y-137413856D01*
X62192909Y-137409771D01*
X62158931Y-137399463D01*
X62127610Y-137382722D01*
X62100161Y-137360195D01*
X62077634Y-137332746D01*
X62060893Y-137301425D01*
X62050585Y-137267447D01*
X62046500Y-137225966D01*
X62046500Y-136549746D01*
X62050585Y-136508265D01*
X62060893Y-136474287D01*
X62077634Y-136442966D01*
X62100161Y-136415517D01*
X62127610Y-136392990D01*
X62158931Y-136376249D01*
X62192909Y-136365941D01*
X62234390Y-136361856D01*
X62835610Y-136361856D01*
X62877091Y-136365941D01*
X62877091Y-136365941D01*
G37*
G36*
X38442091Y-134733085D02*
G01*
X38476069Y-134743393D01*
X38507390Y-134760134D01*
X38534839Y-134782661D01*
X38557366Y-134810110D01*
X38574107Y-134841431D01*
X38584415Y-134875409D01*
X38588500Y-134916890D01*
X38588500Y-135593110D01*
X38584415Y-135634591D01*
X38574107Y-135668569D01*
X38557366Y-135699890D01*
X38534839Y-135727339D01*
X38507390Y-135749866D01*
X38476069Y-135766607D01*
X38442091Y-135776915D01*
X38400610Y-135781000D01*
X37799390Y-135781000D01*
X37757909Y-135776915D01*
X37723931Y-135766607D01*
X37692610Y-135749866D01*
X37665161Y-135727339D01*
X37642634Y-135699890D01*
X37625893Y-135668569D01*
X37615585Y-135634591D01*
X37611500Y-135593110D01*
X37611500Y-134916890D01*
X37615585Y-134875409D01*
X37625893Y-134841431D01*
X37642634Y-134810110D01*
X37665161Y-134782661D01*
X37692610Y-134760134D01*
X37723931Y-134743393D01*
X37757909Y-134733085D01*
X37799390Y-134729000D01*
X38400610Y-134729000D01*
X38442091Y-134733085D01*
X38442091Y-134733085D01*
G37*
G36*
X40017091Y-134733085D02*
G01*
X40051069Y-134743393D01*
X40082390Y-134760134D01*
X40109839Y-134782661D01*
X40132366Y-134810110D01*
X40149107Y-134841431D01*
X40159415Y-134875409D01*
X40163500Y-134916890D01*
X40163500Y-135593110D01*
X40159415Y-135634591D01*
X40149107Y-135668569D01*
X40132366Y-135699890D01*
X40109839Y-135727339D01*
X40082390Y-135749866D01*
X40051069Y-135766607D01*
X40017091Y-135776915D01*
X39975610Y-135781000D01*
X39374390Y-135781000D01*
X39332909Y-135776915D01*
X39298931Y-135766607D01*
X39267610Y-135749866D01*
X39240161Y-135727339D01*
X39217634Y-135699890D01*
X39200893Y-135668569D01*
X39190585Y-135634591D01*
X39186500Y-135593110D01*
X39186500Y-134916890D01*
X39190585Y-134875409D01*
X39200893Y-134841431D01*
X39217634Y-134810110D01*
X39240161Y-134782661D01*
X39267610Y-134760134D01*
X39298931Y-134743393D01*
X39332909Y-134733085D01*
X39374390Y-134729000D01*
X39975610Y-134729000D01*
X40017091Y-134733085D01*
X40017091Y-134733085D01*
G37*
G36*
X31466000Y-135761000D02*
G01*
X30764000Y-135761000D01*
X30764000Y-134109000D01*
X31466000Y-134109000D01*
X31466000Y-135761000D01*
X31466000Y-135761000D01*
G37*
G36*
X27656000Y-135761000D02*
G01*
X26954000Y-135761000D01*
X26954000Y-134109000D01*
X27656000Y-134109000D01*
X27656000Y-135761000D01*
X27656000Y-135761000D01*
G37*
G36*
X28926000Y-135761000D02*
G01*
X28224000Y-135761000D01*
X28224000Y-134109000D01*
X28926000Y-134109000D01*
X28926000Y-135761000D01*
X28926000Y-135761000D01*
G37*
G36*
X30196000Y-135761000D02*
G01*
X29494000Y-135761000D01*
X29494000Y-134109000D01*
X30196000Y-134109000D01*
X30196000Y-135761000D01*
X30196000Y-135761000D01*
G37*
G36*
X35816938Y-134886716D02*
G01*
X35837557Y-134892971D01*
X35856553Y-134903124D01*
X35873208Y-134916792D01*
X35886876Y-134933447D01*
X35897029Y-134952443D01*
X35903284Y-134973062D01*
X35906000Y-135000640D01*
X35906000Y-135509360D01*
X35903284Y-135536938D01*
X35897029Y-135557557D01*
X35886876Y-135576553D01*
X35873208Y-135593208D01*
X35856553Y-135606876D01*
X35837557Y-135617029D01*
X35816938Y-135623284D01*
X35789360Y-135626000D01*
X35330640Y-135626000D01*
X35303062Y-135623284D01*
X35282443Y-135617029D01*
X35263447Y-135606876D01*
X35246792Y-135593208D01*
X35233124Y-135576553D01*
X35222971Y-135557557D01*
X35216716Y-135536938D01*
X35214000Y-135509360D01*
X35214000Y-135000640D01*
X35216716Y-134973062D01*
X35222971Y-134952443D01*
X35233124Y-134933447D01*
X35246792Y-134916792D01*
X35263447Y-134903124D01*
X35282443Y-134892971D01*
X35303062Y-134886716D01*
X35330640Y-134884000D01*
X35789360Y-134884000D01*
X35816938Y-134886716D01*
X35816938Y-134886716D01*
G37*
G36*
X34846938Y-134886716D02*
G01*
X34867557Y-134892971D01*
X34886553Y-134903124D01*
X34903208Y-134916792D01*
X34916876Y-134933447D01*
X34927029Y-134952443D01*
X34933284Y-134973062D01*
X34936000Y-135000640D01*
X34936000Y-135509360D01*
X34933284Y-135536938D01*
X34927029Y-135557557D01*
X34916876Y-135576553D01*
X34903208Y-135593208D01*
X34886553Y-135606876D01*
X34867557Y-135617029D01*
X34846938Y-135623284D01*
X34819360Y-135626000D01*
X34360640Y-135626000D01*
X34333062Y-135623284D01*
X34312443Y-135617029D01*
X34293447Y-135606876D01*
X34276792Y-135593208D01*
X34263124Y-135576553D01*
X34252971Y-135557557D01*
X34246716Y-135536938D01*
X34244000Y-135509360D01*
X34244000Y-135000640D01*
X34246716Y-134973062D01*
X34252971Y-134952443D01*
X34263124Y-134933447D01*
X34276792Y-134916792D01*
X34293447Y-134903124D01*
X34312443Y-134892971D01*
X34333062Y-134886716D01*
X34360640Y-134884000D01*
X34819360Y-134884000D01*
X34846938Y-134886716D01*
X34846938Y-134886716D01*
G37*
G36*
X61302091Y-134370227D02*
G01*
X61336069Y-134380535D01*
X61367390Y-134397276D01*
X61394839Y-134419803D01*
X61417366Y-134447252D01*
X61434107Y-134478573D01*
X61444415Y-134512551D01*
X61448500Y-134554032D01*
X61448500Y-135230252D01*
X61444415Y-135271733D01*
X61434107Y-135305711D01*
X61417366Y-135337032D01*
X61394839Y-135364481D01*
X61367390Y-135387008D01*
X61336069Y-135403749D01*
X61302091Y-135414057D01*
X61260610Y-135418142D01*
X60659390Y-135418142D01*
X60617909Y-135414057D01*
X60583931Y-135403749D01*
X60552610Y-135387008D01*
X60525161Y-135364481D01*
X60502634Y-135337032D01*
X60485893Y-135305711D01*
X60475585Y-135271733D01*
X60471500Y-135230252D01*
X60471500Y-134554032D01*
X60475585Y-134512551D01*
X60485893Y-134478573D01*
X60502634Y-134447252D01*
X60525161Y-134419803D01*
X60552610Y-134397276D01*
X60583931Y-134380535D01*
X60617909Y-134370227D01*
X60659390Y-134366142D01*
X61260610Y-134366142D01*
X61302091Y-134370227D01*
X61302091Y-134370227D01*
G37*
G36*
X62877091Y-134370227D02*
G01*
X62911069Y-134380535D01*
X62942390Y-134397276D01*
X62969839Y-134419803D01*
X62992366Y-134447252D01*
X63009107Y-134478573D01*
X63019415Y-134512551D01*
X63023500Y-134554032D01*
X63023500Y-135230252D01*
X63019415Y-135271733D01*
X63009107Y-135305711D01*
X62992366Y-135337032D01*
X62969839Y-135364481D01*
X62942390Y-135387008D01*
X62911069Y-135403749D01*
X62877091Y-135414057D01*
X62835610Y-135418142D01*
X62234390Y-135418142D01*
X62192909Y-135414057D01*
X62158931Y-135403749D01*
X62127610Y-135387008D01*
X62100161Y-135364481D01*
X62077634Y-135337032D01*
X62060893Y-135305711D01*
X62050585Y-135271733D01*
X62046500Y-135230252D01*
X62046500Y-134554032D01*
X62050585Y-134512551D01*
X62060893Y-134478573D01*
X62077634Y-134447252D01*
X62100161Y-134419803D01*
X62127610Y-134397276D01*
X62158931Y-134380535D01*
X62192909Y-134370227D01*
X62234390Y-134366142D01*
X62835610Y-134366142D01*
X62877091Y-134370227D01*
X62877091Y-134370227D01*
G37*
G36*
X49478604Y-132678347D02*
G01*
X49515144Y-132689432D01*
X49548821Y-132707433D01*
X49578341Y-132731659D01*
X49602567Y-132761179D01*
X49620568Y-132794856D01*
X49631653Y-132831396D01*
X49636000Y-132875538D01*
X49636000Y-133824462D01*
X49631653Y-133868604D01*
X49620568Y-133905144D01*
X49602567Y-133938821D01*
X49578341Y-133968341D01*
X49548821Y-133992567D01*
X49515144Y-134010568D01*
X49478604Y-134021653D01*
X49434462Y-134026000D01*
X47085538Y-134026000D01*
X47041396Y-134021653D01*
X47004856Y-134010568D01*
X46971179Y-133992567D01*
X46941659Y-133968341D01*
X46917433Y-133938821D01*
X46899432Y-133905144D01*
X46888347Y-133868604D01*
X46884000Y-133824462D01*
X46884000Y-132875538D01*
X46888347Y-132831396D01*
X46899432Y-132794856D01*
X46917433Y-132761179D01*
X46941659Y-132731659D01*
X46971179Y-132707433D01*
X47004856Y-132689432D01*
X47041396Y-132678347D01*
X47085538Y-132674000D01*
X49434462Y-132674000D01*
X49478604Y-132678347D01*
X49478604Y-132678347D01*
G37*
G36*
X53156000Y-133581000D02*
G01*
X52254000Y-133581000D01*
X52254000Y-132579000D01*
X53156000Y-132579000D01*
X53156000Y-133581000D01*
X53156000Y-133581000D01*
G37*
G36*
X62877091Y-132374513D02*
G01*
X62911069Y-132384821D01*
X62942390Y-132401562D01*
X62969839Y-132424089D01*
X62992366Y-132451538D01*
X63009107Y-132482859D01*
X63019415Y-132516837D01*
X63023500Y-132558318D01*
X63023500Y-133234538D01*
X63019415Y-133276019D01*
X63009107Y-133309997D01*
X62992366Y-133341318D01*
X62969839Y-133368767D01*
X62942390Y-133391294D01*
X62911069Y-133408035D01*
X62877091Y-133418343D01*
X62835610Y-133422428D01*
X62234390Y-133422428D01*
X62192909Y-133418343D01*
X62158931Y-133408035D01*
X62127610Y-133391294D01*
X62100161Y-133368767D01*
X62077634Y-133341318D01*
X62060893Y-133309997D01*
X62050585Y-133276019D01*
X62046500Y-133234538D01*
X62046500Y-132558318D01*
X62050585Y-132516837D01*
X62060893Y-132482859D01*
X62077634Y-132451538D01*
X62100161Y-132424089D01*
X62127610Y-132401562D01*
X62158931Y-132384821D01*
X62192909Y-132374513D01*
X62234390Y-132370428D01*
X62835610Y-132370428D01*
X62877091Y-132374513D01*
X62877091Y-132374513D01*
G37*
G36*
X61302091Y-132374513D02*
G01*
X61336069Y-132384821D01*
X61367390Y-132401562D01*
X61394839Y-132424089D01*
X61417366Y-132451538D01*
X61434107Y-132482859D01*
X61444415Y-132516837D01*
X61448500Y-132558318D01*
X61448500Y-133234538D01*
X61444415Y-133276019D01*
X61434107Y-133309997D01*
X61417366Y-133341318D01*
X61394839Y-133368767D01*
X61367390Y-133391294D01*
X61336069Y-133408035D01*
X61302091Y-133418343D01*
X61260610Y-133422428D01*
X60659390Y-133422428D01*
X60617909Y-133418343D01*
X60583931Y-133408035D01*
X60552610Y-133391294D01*
X60525161Y-133368767D01*
X60502634Y-133341318D01*
X60485893Y-133309997D01*
X60475585Y-133276019D01*
X60471500Y-133234538D01*
X60471500Y-132558318D01*
X60475585Y-132516837D01*
X60485893Y-132482859D01*
X60502634Y-132451538D01*
X60525161Y-132424089D01*
X60552610Y-132401562D01*
X60583931Y-132384821D01*
X60617909Y-132374513D01*
X60659390Y-132370428D01*
X61260610Y-132370428D01*
X61302091Y-132374513D01*
X61302091Y-132374513D01*
G37*
G36*
X43946000Y-132946000D02*
G01*
X43044000Y-132946000D01*
X43044000Y-131944000D01*
X43946000Y-131944000D01*
X43946000Y-132946000D01*
X43946000Y-132946000D01*
G37*
G36*
X42046000Y-132946000D02*
G01*
X41144000Y-132946000D01*
X41144000Y-131944000D01*
X42046000Y-131944000D01*
X42046000Y-132946000D01*
X42046000Y-132946000D01*
G37*
G36*
X38774468Y-130698565D02*
G01*
X38813138Y-130710296D01*
X38848777Y-130729346D01*
X38880017Y-130754983D01*
X38905654Y-130786223D01*
X38924704Y-130821862D01*
X38936435Y-130860532D01*
X38941000Y-130906888D01*
X38941000Y-131983112D01*
X38936435Y-132029468D01*
X38924704Y-132068138D01*
X38905654Y-132103777D01*
X38880017Y-132135017D01*
X38848777Y-132160654D01*
X38813138Y-132179704D01*
X38774468Y-132191435D01*
X38728112Y-132196000D01*
X38076888Y-132196000D01*
X38030532Y-132191435D01*
X37991862Y-132179704D01*
X37956223Y-132160654D01*
X37924983Y-132135017D01*
X37899346Y-132103777D01*
X37880296Y-132068138D01*
X37868565Y-132029468D01*
X37864000Y-131983112D01*
X37864000Y-130906888D01*
X37868565Y-130860532D01*
X37880296Y-130821862D01*
X37899346Y-130786223D01*
X37924983Y-130754983D01*
X37956223Y-130729346D01*
X37991862Y-130710296D01*
X38030532Y-130698565D01*
X38076888Y-130694000D01*
X38728112Y-130694000D01*
X38774468Y-130698565D01*
X38774468Y-130698565D01*
G37*
G36*
X36899468Y-130698565D02*
G01*
X36938138Y-130710296D01*
X36973777Y-130729346D01*
X37005017Y-130754983D01*
X37030654Y-130786223D01*
X37049704Y-130821862D01*
X37061435Y-130860532D01*
X37066000Y-130906888D01*
X37066000Y-131983112D01*
X37061435Y-132029468D01*
X37049704Y-132068138D01*
X37030654Y-132103777D01*
X37005017Y-132135017D01*
X36973777Y-132160654D01*
X36938138Y-132179704D01*
X36899468Y-132191435D01*
X36853112Y-132196000D01*
X36201888Y-132196000D01*
X36155532Y-132191435D01*
X36116862Y-132179704D01*
X36081223Y-132160654D01*
X36049983Y-132135017D01*
X36024346Y-132103777D01*
X36005296Y-132068138D01*
X35993565Y-132029468D01*
X35989000Y-131983112D01*
X35989000Y-130906888D01*
X35993565Y-130860532D01*
X36005296Y-130821862D01*
X36024346Y-130786223D01*
X36049983Y-130754983D01*
X36081223Y-130729346D01*
X36116862Y-130710296D01*
X36155532Y-130698565D01*
X36201888Y-130694000D01*
X36853112Y-130694000D01*
X36899468Y-130698565D01*
X36899468Y-130698565D01*
G37*
G36*
X26795591Y-130960585D02*
G01*
X26829569Y-130970893D01*
X26860890Y-130987634D01*
X26888339Y-131010161D01*
X26910866Y-131037610D01*
X26927607Y-131068931D01*
X26937915Y-131102909D01*
X26942000Y-131144390D01*
X26942000Y-131745610D01*
X26937915Y-131787091D01*
X26927607Y-131821069D01*
X26910866Y-131852390D01*
X26888339Y-131879839D01*
X26860890Y-131902366D01*
X26829569Y-131919107D01*
X26795591Y-131929415D01*
X26754110Y-131933500D01*
X26077890Y-131933500D01*
X26036409Y-131929415D01*
X26002431Y-131919107D01*
X25971110Y-131902366D01*
X25943661Y-131879839D01*
X25921134Y-131852390D01*
X25904393Y-131821069D01*
X25894085Y-131787091D01*
X25890000Y-131745610D01*
X25890000Y-131144390D01*
X25894085Y-131102909D01*
X25904393Y-131068931D01*
X25921134Y-131037610D01*
X25943661Y-131010161D01*
X25971110Y-130987634D01*
X26002431Y-130970893D01*
X26036409Y-130960585D01*
X26077890Y-130956500D01*
X26754110Y-130956500D01*
X26795591Y-130960585D01*
X26795591Y-130960585D01*
G37*
G36*
X52206000Y-131581000D02*
G01*
X51304000Y-131581000D01*
X51304000Y-130579000D01*
X52206000Y-130579000D01*
X52206000Y-131581000D01*
X52206000Y-131581000D01*
G37*
G36*
X54106000Y-131581000D02*
G01*
X53204000Y-131581000D01*
X53204000Y-130579000D01*
X54106000Y-130579000D01*
X54106000Y-131581000D01*
X54106000Y-131581000D01*
G37*
G36*
X61302091Y-130378799D02*
G01*
X61336069Y-130389107D01*
X61367390Y-130405848D01*
X61394839Y-130428375D01*
X61417366Y-130455824D01*
X61434107Y-130487145D01*
X61444415Y-130521123D01*
X61448500Y-130562604D01*
X61448500Y-131238824D01*
X61444415Y-131280305D01*
X61434107Y-131314283D01*
X61417366Y-131345604D01*
X61394839Y-131373053D01*
X61367390Y-131395580D01*
X61336069Y-131412321D01*
X61302091Y-131422629D01*
X61260610Y-131426714D01*
X60659390Y-131426714D01*
X60617909Y-131422629D01*
X60583931Y-131412321D01*
X60552610Y-131395580D01*
X60525161Y-131373053D01*
X60502634Y-131345604D01*
X60485893Y-131314283D01*
X60475585Y-131280305D01*
X60471500Y-131238824D01*
X60471500Y-130562604D01*
X60475585Y-130521123D01*
X60485893Y-130487145D01*
X60502634Y-130455824D01*
X60525161Y-130428375D01*
X60552610Y-130405848D01*
X60583931Y-130389107D01*
X60617909Y-130378799D01*
X60659390Y-130374714D01*
X61260610Y-130374714D01*
X61302091Y-130378799D01*
X61302091Y-130378799D01*
G37*
G36*
X62877091Y-130378799D02*
G01*
X62911069Y-130389107D01*
X62942390Y-130405848D01*
X62969839Y-130428375D01*
X62992366Y-130455824D01*
X63009107Y-130487145D01*
X63019415Y-130521123D01*
X63023500Y-130562604D01*
X63023500Y-131238824D01*
X63019415Y-131280305D01*
X63009107Y-131314283D01*
X62992366Y-131345604D01*
X62969839Y-131373053D01*
X62942390Y-131395580D01*
X62911069Y-131412321D01*
X62877091Y-131422629D01*
X62835610Y-131426714D01*
X62234390Y-131426714D01*
X62192909Y-131422629D01*
X62158931Y-131412321D01*
X62127610Y-131395580D01*
X62100161Y-131373053D01*
X62077634Y-131345604D01*
X62060893Y-131314283D01*
X62050585Y-131280305D01*
X62046500Y-131238824D01*
X62046500Y-130562604D01*
X62050585Y-130521123D01*
X62060893Y-130487145D01*
X62077634Y-130455824D01*
X62100161Y-130428375D01*
X62127610Y-130405848D01*
X62158931Y-130389107D01*
X62192909Y-130378799D01*
X62234390Y-130374714D01*
X62835610Y-130374714D01*
X62877091Y-130378799D01*
X62877091Y-130378799D01*
G37*
G36*
X33809938Y-130697716D02*
G01*
X33830557Y-130703971D01*
X33849553Y-130714124D01*
X33866208Y-130727792D01*
X33879876Y-130744447D01*
X33890029Y-130763443D01*
X33896284Y-130784062D01*
X33899000Y-130811640D01*
X33899000Y-131270360D01*
X33896284Y-131297938D01*
X33890029Y-131318557D01*
X33879876Y-131337553D01*
X33866208Y-131354208D01*
X33849553Y-131367876D01*
X33830557Y-131378029D01*
X33809938Y-131384284D01*
X33782360Y-131387000D01*
X33273640Y-131387000D01*
X33246062Y-131384284D01*
X33225443Y-131378029D01*
X33206447Y-131367876D01*
X33189792Y-131354208D01*
X33176124Y-131337553D01*
X33165971Y-131318557D01*
X33159716Y-131297938D01*
X33157000Y-131270360D01*
X33157000Y-130811640D01*
X33159716Y-130784062D01*
X33165971Y-130763443D01*
X33176124Y-130744447D01*
X33189792Y-130727792D01*
X33206447Y-130714124D01*
X33225443Y-130703971D01*
X33246062Y-130697716D01*
X33273640Y-130695000D01*
X33782360Y-130695000D01*
X33809938Y-130697716D01*
X33809938Y-130697716D01*
G37*
G36*
X31269938Y-130697716D02*
G01*
X31290557Y-130703971D01*
X31309553Y-130714124D01*
X31326208Y-130727792D01*
X31339876Y-130744447D01*
X31350029Y-130763443D01*
X31356284Y-130784062D01*
X31359000Y-130811640D01*
X31359000Y-131270360D01*
X31356284Y-131297938D01*
X31350029Y-131318557D01*
X31339876Y-131337553D01*
X31326208Y-131354208D01*
X31309553Y-131367876D01*
X31290557Y-131378029D01*
X31269938Y-131384284D01*
X31242360Y-131387000D01*
X30733640Y-131387000D01*
X30706062Y-131384284D01*
X30685443Y-131378029D01*
X30666447Y-131367876D01*
X30649792Y-131354208D01*
X30636124Y-131337553D01*
X30625971Y-131318557D01*
X30619716Y-131297938D01*
X30617000Y-131270360D01*
X30617000Y-130811640D01*
X30619716Y-130784062D01*
X30625971Y-130763443D01*
X30636124Y-130744447D01*
X30649792Y-130727792D01*
X30666447Y-130714124D01*
X30685443Y-130703971D01*
X30706062Y-130697716D01*
X30733640Y-130695000D01*
X31242360Y-130695000D01*
X31269938Y-130697716D01*
X31269938Y-130697716D01*
G37*
G36*
X49478604Y-129878347D02*
G01*
X49515144Y-129889432D01*
X49548821Y-129907433D01*
X49578341Y-129931659D01*
X49602567Y-129961179D01*
X49620568Y-129994856D01*
X49631653Y-130031396D01*
X49636000Y-130075538D01*
X49636000Y-131024462D01*
X49631653Y-131068604D01*
X49620568Y-131105144D01*
X49602567Y-131138821D01*
X49578341Y-131168341D01*
X49548821Y-131192567D01*
X49515144Y-131210568D01*
X49478604Y-131221653D01*
X49434462Y-131226000D01*
X47085538Y-131226000D01*
X47041396Y-131221653D01*
X47004856Y-131210568D01*
X46971179Y-131192567D01*
X46941659Y-131168341D01*
X46917433Y-131138821D01*
X46899432Y-131105144D01*
X46888347Y-131068604D01*
X46884000Y-131024462D01*
X46884000Y-130075538D01*
X46888347Y-130031396D01*
X46899432Y-129994856D01*
X46917433Y-129961179D01*
X46941659Y-129931659D01*
X46971179Y-129907433D01*
X47004856Y-129889432D01*
X47041396Y-129878347D01*
X47085538Y-129874000D01*
X49434462Y-129874000D01*
X49478604Y-129878347D01*
X49478604Y-129878347D01*
G37*
G36*
X42996000Y-130946000D02*
G01*
X42094000Y-130946000D01*
X42094000Y-129944000D01*
X42996000Y-129944000D01*
X42996000Y-130946000D01*
X42996000Y-130946000D01*
G37*
G36*
X33809938Y-129727716D02*
G01*
X33830557Y-129733971D01*
X33849553Y-129744124D01*
X33866208Y-129757792D01*
X33879876Y-129774447D01*
X33890029Y-129793443D01*
X33896284Y-129814062D01*
X33899000Y-129841640D01*
X33899000Y-130300360D01*
X33896284Y-130327938D01*
X33890029Y-130348557D01*
X33879876Y-130367553D01*
X33866208Y-130384208D01*
X33849553Y-130397876D01*
X33830557Y-130408029D01*
X33809938Y-130414284D01*
X33782360Y-130417000D01*
X33273640Y-130417000D01*
X33246062Y-130414284D01*
X33225443Y-130408029D01*
X33206447Y-130397876D01*
X33189792Y-130384208D01*
X33176124Y-130367553D01*
X33165971Y-130348557D01*
X33159716Y-130327938D01*
X33157000Y-130300360D01*
X33157000Y-129841640D01*
X33159716Y-129814062D01*
X33165971Y-129793443D01*
X33176124Y-129774447D01*
X33189792Y-129757792D01*
X33206447Y-129744124D01*
X33225443Y-129733971D01*
X33246062Y-129727716D01*
X33273640Y-129725000D01*
X33782360Y-129725000D01*
X33809938Y-129727716D01*
X33809938Y-129727716D01*
G37*
G36*
X31269938Y-129727716D02*
G01*
X31290557Y-129733971D01*
X31309553Y-129744124D01*
X31326208Y-129757792D01*
X31339876Y-129774447D01*
X31350029Y-129793443D01*
X31356284Y-129814062D01*
X31359000Y-129841640D01*
X31359000Y-130300360D01*
X31356284Y-130327938D01*
X31350029Y-130348557D01*
X31339876Y-130367553D01*
X31326208Y-130384208D01*
X31309553Y-130397876D01*
X31290557Y-130408029D01*
X31269938Y-130414284D01*
X31242360Y-130417000D01*
X30733640Y-130417000D01*
X30706062Y-130414284D01*
X30685443Y-130408029D01*
X30666447Y-130397876D01*
X30649792Y-130384208D01*
X30636124Y-130367553D01*
X30625971Y-130348557D01*
X30619716Y-130327938D01*
X30617000Y-130300360D01*
X30617000Y-129841640D01*
X30619716Y-129814062D01*
X30625971Y-129793443D01*
X30636124Y-129774447D01*
X30649792Y-129757792D01*
X30666447Y-129744124D01*
X30685443Y-129733971D01*
X30706062Y-129727716D01*
X30733640Y-129725000D01*
X31242360Y-129725000D01*
X31269938Y-129727716D01*
X31269938Y-129727716D01*
G37*
G36*
X26795591Y-129385585D02*
G01*
X26829569Y-129395893D01*
X26860890Y-129412634D01*
X26888339Y-129435161D01*
X26910866Y-129462610D01*
X26927607Y-129493931D01*
X26937915Y-129527909D01*
X26942000Y-129569390D01*
X26942000Y-130170610D01*
X26937915Y-130212091D01*
X26927607Y-130246069D01*
X26910866Y-130277390D01*
X26888339Y-130304839D01*
X26860890Y-130327366D01*
X26829569Y-130344107D01*
X26795591Y-130354415D01*
X26754110Y-130358500D01*
X26077890Y-130358500D01*
X26036409Y-130354415D01*
X26002431Y-130344107D01*
X25971110Y-130327366D01*
X25943661Y-130304839D01*
X25921134Y-130277390D01*
X25904393Y-130246069D01*
X25894085Y-130212091D01*
X25890000Y-130170610D01*
X25890000Y-129569390D01*
X25894085Y-129527909D01*
X25904393Y-129493931D01*
X25921134Y-129462610D01*
X25943661Y-129435161D01*
X25971110Y-129412634D01*
X26002431Y-129395893D01*
X26036409Y-129385585D01*
X26077890Y-129381500D01*
X26754110Y-129381500D01*
X26795591Y-129385585D01*
X26795591Y-129385585D01*
G37*
G36*
X37654591Y-128383085D02*
G01*
X37688569Y-128393393D01*
X37719890Y-128410134D01*
X37747339Y-128432661D01*
X37769866Y-128460110D01*
X37786607Y-128491431D01*
X37796915Y-128525409D01*
X37801000Y-128566890D01*
X37801000Y-129243110D01*
X37796915Y-129284591D01*
X37786607Y-129318569D01*
X37769866Y-129349890D01*
X37747339Y-129377339D01*
X37719890Y-129399866D01*
X37688569Y-129416607D01*
X37654591Y-129426915D01*
X37613110Y-129431000D01*
X37011890Y-129431000D01*
X36970409Y-129426915D01*
X36936431Y-129416607D01*
X36905110Y-129399866D01*
X36877661Y-129377339D01*
X36855134Y-129349890D01*
X36838393Y-129318569D01*
X36828085Y-129284591D01*
X36824000Y-129243110D01*
X36824000Y-128566890D01*
X36828085Y-128525409D01*
X36838393Y-128491431D01*
X36855134Y-128460110D01*
X36877661Y-128432661D01*
X36905110Y-128410134D01*
X36936431Y-128393393D01*
X36970409Y-128383085D01*
X37011890Y-128379000D01*
X37613110Y-128379000D01*
X37654591Y-128383085D01*
X37654591Y-128383085D01*
G37*
G36*
X62877091Y-128383085D02*
G01*
X62911069Y-128393393D01*
X62942390Y-128410134D01*
X62969839Y-128432661D01*
X62992366Y-128460110D01*
X63009107Y-128491431D01*
X63019415Y-128525409D01*
X63023500Y-128566890D01*
X63023500Y-129243110D01*
X63019415Y-129284591D01*
X63009107Y-129318569D01*
X62992366Y-129349890D01*
X62969839Y-129377339D01*
X62942390Y-129399866D01*
X62911069Y-129416607D01*
X62877091Y-129426915D01*
X62835610Y-129431000D01*
X62234390Y-129431000D01*
X62192909Y-129426915D01*
X62158931Y-129416607D01*
X62127610Y-129399866D01*
X62100161Y-129377339D01*
X62077634Y-129349890D01*
X62060893Y-129318569D01*
X62050585Y-129284591D01*
X62046500Y-129243110D01*
X62046500Y-128566890D01*
X62050585Y-128525409D01*
X62060893Y-128491431D01*
X62077634Y-128460110D01*
X62100161Y-128432661D01*
X62127610Y-128410134D01*
X62158931Y-128393393D01*
X62192909Y-128383085D01*
X62234390Y-128379000D01*
X62835610Y-128379000D01*
X62877091Y-128383085D01*
X62877091Y-128383085D01*
G37*
G36*
X61302091Y-128383085D02*
G01*
X61336069Y-128393393D01*
X61367390Y-128410134D01*
X61394839Y-128432661D01*
X61417366Y-128460110D01*
X61434107Y-128491431D01*
X61444415Y-128525409D01*
X61448500Y-128566890D01*
X61448500Y-129243110D01*
X61444415Y-129284591D01*
X61434107Y-129318569D01*
X61417366Y-129349890D01*
X61394839Y-129377339D01*
X61367390Y-129399866D01*
X61336069Y-129416607D01*
X61302091Y-129426915D01*
X61260610Y-129431000D01*
X60659390Y-129431000D01*
X60617909Y-129426915D01*
X60583931Y-129416607D01*
X60552610Y-129399866D01*
X60525161Y-129377339D01*
X60502634Y-129349890D01*
X60485893Y-129318569D01*
X60475585Y-129284591D01*
X60471500Y-129243110D01*
X60471500Y-128566890D01*
X60475585Y-128525409D01*
X60485893Y-128491431D01*
X60502634Y-128460110D01*
X60525161Y-128432661D01*
X60552610Y-128410134D01*
X60583931Y-128393393D01*
X60617909Y-128383085D01*
X60659390Y-128379000D01*
X61260610Y-128379000D01*
X61302091Y-128383085D01*
X61302091Y-128383085D01*
G37*
G36*
X39229591Y-128383085D02*
G01*
X39263569Y-128393393D01*
X39294890Y-128410134D01*
X39322339Y-128432661D01*
X39344866Y-128460110D01*
X39361607Y-128491431D01*
X39371915Y-128525409D01*
X39376000Y-128566890D01*
X39376000Y-129243110D01*
X39371915Y-129284591D01*
X39361607Y-129318569D01*
X39344866Y-129349890D01*
X39322339Y-129377339D01*
X39294890Y-129399866D01*
X39263569Y-129416607D01*
X39229591Y-129426915D01*
X39188110Y-129431000D01*
X38586890Y-129431000D01*
X38545409Y-129426915D01*
X38511431Y-129416607D01*
X38480110Y-129399866D01*
X38452661Y-129377339D01*
X38430134Y-129349890D01*
X38413393Y-129318569D01*
X38403085Y-129284591D01*
X38399000Y-129243110D01*
X38399000Y-128566890D01*
X38403085Y-128525409D01*
X38413393Y-128491431D01*
X38430134Y-128460110D01*
X38452661Y-128432661D01*
X38480110Y-128410134D01*
X38511431Y-128393393D01*
X38545409Y-128383085D01*
X38586890Y-128379000D01*
X39188110Y-128379000D01*
X39229591Y-128383085D01*
X39229591Y-128383085D01*
G37*
G36*
X30246000Y-128546000D02*
G01*
X29444000Y-128546000D01*
X29444000Y-127144000D01*
X30246000Y-127144000D01*
X30246000Y-128546000D01*
X30246000Y-128546000D01*
G37*
G36*
X34056000Y-128546000D02*
G01*
X33254000Y-128546000D01*
X33254000Y-127144000D01*
X34056000Y-127144000D01*
X34056000Y-128546000D01*
X34056000Y-128546000D01*
G37*
G36*
X32786000Y-128546000D02*
G01*
X31984000Y-128546000D01*
X31984000Y-127144000D01*
X32786000Y-127144000D01*
X32786000Y-128546000D01*
X32786000Y-128546000D01*
G37*
G36*
X31516000Y-128546000D02*
G01*
X30714000Y-128546000D01*
X30714000Y-127144000D01*
X31516000Y-127144000D01*
X31516000Y-128546000D01*
X31516000Y-128546000D01*
G37*
G36*
X26697938Y-127591716D02*
G01*
X26718557Y-127597971D01*
X26737553Y-127608124D01*
X26754208Y-127621792D01*
X26767876Y-127638447D01*
X26778029Y-127657443D01*
X26784284Y-127678062D01*
X26787000Y-127705640D01*
X26787000Y-128164360D01*
X26784284Y-128191938D01*
X26778029Y-128212557D01*
X26767876Y-128231553D01*
X26754208Y-128248208D01*
X26737553Y-128261876D01*
X26718557Y-128272029D01*
X26697938Y-128278284D01*
X26670360Y-128281000D01*
X26161640Y-128281000D01*
X26134062Y-128278284D01*
X26113443Y-128272029D01*
X26094447Y-128261876D01*
X26077792Y-128248208D01*
X26064124Y-128231553D01*
X26053971Y-128212557D01*
X26047716Y-128191938D01*
X26045000Y-128164360D01*
X26045000Y-127705640D01*
X26047716Y-127678062D01*
X26053971Y-127657443D01*
X26064124Y-127638447D01*
X26077792Y-127621792D01*
X26094447Y-127608124D01*
X26113443Y-127597971D01*
X26134062Y-127591716D01*
X26161640Y-127589000D01*
X26670360Y-127589000D01*
X26697938Y-127591716D01*
X26697938Y-127591716D01*
G37*
G36*
X26697938Y-126621716D02*
G01*
X26718557Y-126627971D01*
X26737553Y-126638124D01*
X26754208Y-126651792D01*
X26767876Y-126668447D01*
X26778029Y-126687443D01*
X26784284Y-126708062D01*
X26787000Y-126735640D01*
X26787000Y-127194360D01*
X26784284Y-127221938D01*
X26778029Y-127242557D01*
X26767876Y-127261553D01*
X26754208Y-127278208D01*
X26737553Y-127291876D01*
X26718557Y-127302029D01*
X26697938Y-127308284D01*
X26670360Y-127311000D01*
X26161640Y-127311000D01*
X26134062Y-127308284D01*
X26113443Y-127302029D01*
X26094447Y-127291876D01*
X26077792Y-127278208D01*
X26064124Y-127261553D01*
X26053971Y-127242557D01*
X26047716Y-127221938D01*
X26045000Y-127194360D01*
X26045000Y-126735640D01*
X26047716Y-126708062D01*
X26053971Y-126687443D01*
X26064124Y-126668447D01*
X26077792Y-126651792D01*
X26094447Y-126638124D01*
X26113443Y-126627971D01*
X26134062Y-126621716D01*
X26161640Y-126619000D01*
X26670360Y-126619000D01*
X26697938Y-126621716D01*
X26697938Y-126621716D01*
G37*
G36*
X54891938Y-126456716D02*
G01*
X54912557Y-126462971D01*
X54931553Y-126473124D01*
X54948208Y-126486792D01*
X54961876Y-126503447D01*
X54972029Y-126522443D01*
X54978284Y-126543062D01*
X54981000Y-126570640D01*
X54981000Y-127029360D01*
X54978284Y-127056938D01*
X54972029Y-127077557D01*
X54961876Y-127096553D01*
X54948208Y-127113208D01*
X54931553Y-127126876D01*
X54912557Y-127137029D01*
X54891938Y-127143284D01*
X54864360Y-127146000D01*
X54355640Y-127146000D01*
X54328062Y-127143284D01*
X54307443Y-127137029D01*
X54288447Y-127126876D01*
X54271792Y-127113208D01*
X54258124Y-127096553D01*
X54247971Y-127077557D01*
X54241716Y-127056938D01*
X54239000Y-127029360D01*
X54239000Y-126570640D01*
X54241716Y-126543062D01*
X54247971Y-126522443D01*
X54258124Y-126503447D01*
X54271792Y-126486792D01*
X54288447Y-126473124D01*
X54307443Y-126462971D01*
X54328062Y-126456716D01*
X54355640Y-126454000D01*
X54864360Y-126454000D01*
X54891938Y-126456716D01*
X54891938Y-126456716D01*
G37*
G36*
X49028604Y-125693347D02*
G01*
X49065144Y-125704432D01*
X49098821Y-125722433D01*
X49128341Y-125746659D01*
X49152567Y-125776179D01*
X49170568Y-125809856D01*
X49181653Y-125846396D01*
X49186000Y-125890538D01*
X49186000Y-126839462D01*
X49181653Y-126883604D01*
X49170568Y-126920144D01*
X49152567Y-126953821D01*
X49128341Y-126983341D01*
X49098821Y-127007567D01*
X49065144Y-127025568D01*
X49028604Y-127036653D01*
X48984462Y-127041000D01*
X47535538Y-127041000D01*
X47491396Y-127036653D01*
X47454856Y-127025568D01*
X47421179Y-127007567D01*
X47391659Y-126983341D01*
X47367433Y-126953821D01*
X47349432Y-126920144D01*
X47338347Y-126883604D01*
X47334000Y-126839462D01*
X47334000Y-125890538D01*
X47338347Y-125846396D01*
X47349432Y-125809856D01*
X47367433Y-125776179D01*
X47391659Y-125746659D01*
X47421179Y-125722433D01*
X47454856Y-125704432D01*
X47491396Y-125693347D01*
X47535538Y-125689000D01*
X48984462Y-125689000D01*
X49028604Y-125693347D01*
X49028604Y-125693347D01*
G37*
G36*
X52449591Y-126068085D02*
G01*
X52483569Y-126078393D01*
X52514890Y-126095134D01*
X52542339Y-126117661D01*
X52564866Y-126145110D01*
X52581607Y-126176431D01*
X52591915Y-126210409D01*
X52596000Y-126251890D01*
X52596000Y-126853110D01*
X52591915Y-126894591D01*
X52581607Y-126928569D01*
X52564866Y-126959890D01*
X52542339Y-126987339D01*
X52514890Y-127009866D01*
X52483569Y-127026607D01*
X52449591Y-127036915D01*
X52408110Y-127041000D01*
X51731890Y-127041000D01*
X51690409Y-127036915D01*
X51656431Y-127026607D01*
X51625110Y-127009866D01*
X51597661Y-126987339D01*
X51575134Y-126959890D01*
X51558393Y-126928569D01*
X51548085Y-126894591D01*
X51544000Y-126853110D01*
X51544000Y-126251890D01*
X51548085Y-126210409D01*
X51558393Y-126176431D01*
X51575134Y-126145110D01*
X51597661Y-126117661D01*
X51625110Y-126095134D01*
X51656431Y-126078393D01*
X51690409Y-126068085D01*
X51731890Y-126064000D01*
X52408110Y-126064000D01*
X52449591Y-126068085D01*
X52449591Y-126068085D01*
G37*
G36*
X38691938Y-125996716D02*
G01*
X38712557Y-126002971D01*
X38731553Y-126013124D01*
X38748208Y-126026792D01*
X38761876Y-126043447D01*
X38772029Y-126062443D01*
X38778284Y-126083062D01*
X38781000Y-126110640D01*
X38781000Y-126619360D01*
X38778284Y-126646938D01*
X38772029Y-126667557D01*
X38761876Y-126686553D01*
X38748208Y-126703208D01*
X38731553Y-126716876D01*
X38712557Y-126727029D01*
X38691938Y-126733284D01*
X38664360Y-126736000D01*
X38205640Y-126736000D01*
X38178062Y-126733284D01*
X38157443Y-126727029D01*
X38138447Y-126716876D01*
X38121792Y-126703208D01*
X38108124Y-126686553D01*
X38097971Y-126667557D01*
X38091716Y-126646938D01*
X38089000Y-126619360D01*
X38089000Y-126110640D01*
X38091716Y-126083062D01*
X38097971Y-126062443D01*
X38108124Y-126043447D01*
X38121792Y-126026792D01*
X38138447Y-126013124D01*
X38157443Y-126002971D01*
X38178062Y-125996716D01*
X38205640Y-125994000D01*
X38664360Y-125994000D01*
X38691938Y-125996716D01*
X38691938Y-125996716D01*
G37*
G36*
X37721938Y-125996716D02*
G01*
X37742557Y-126002971D01*
X37761553Y-126013124D01*
X37778208Y-126026792D01*
X37791876Y-126043447D01*
X37802029Y-126062443D01*
X37808284Y-126083062D01*
X37811000Y-126110640D01*
X37811000Y-126619360D01*
X37808284Y-126646938D01*
X37802029Y-126667557D01*
X37791876Y-126686553D01*
X37778208Y-126703208D01*
X37761553Y-126716876D01*
X37742557Y-126727029D01*
X37721938Y-126733284D01*
X37694360Y-126736000D01*
X37235640Y-126736000D01*
X37208062Y-126733284D01*
X37187443Y-126727029D01*
X37168447Y-126716876D01*
X37151792Y-126703208D01*
X37138124Y-126686553D01*
X37127971Y-126667557D01*
X37121716Y-126646938D01*
X37119000Y-126619360D01*
X37119000Y-126110640D01*
X37121716Y-126083062D01*
X37127971Y-126062443D01*
X37138124Y-126043447D01*
X37151792Y-126026792D01*
X37168447Y-126013124D01*
X37187443Y-126002971D01*
X37208062Y-125996716D01*
X37235640Y-125994000D01*
X37694360Y-125994000D01*
X37721938Y-125996716D01*
X37721938Y-125996716D01*
G37*
G36*
X54891938Y-125486716D02*
G01*
X54912557Y-125492971D01*
X54931553Y-125503124D01*
X54948208Y-125516792D01*
X54961876Y-125533447D01*
X54972029Y-125552443D01*
X54978284Y-125573062D01*
X54981000Y-125600640D01*
X54981000Y-126059360D01*
X54978284Y-126086938D01*
X54972029Y-126107557D01*
X54961876Y-126126553D01*
X54948208Y-126143208D01*
X54931553Y-126156876D01*
X54912557Y-126167029D01*
X54891938Y-126173284D01*
X54864360Y-126176000D01*
X54355640Y-126176000D01*
X54328062Y-126173284D01*
X54307443Y-126167029D01*
X54288447Y-126156876D01*
X54271792Y-126143208D01*
X54258124Y-126126553D01*
X54247971Y-126107557D01*
X54241716Y-126086938D01*
X54239000Y-126059360D01*
X54239000Y-125600640D01*
X54241716Y-125573062D01*
X54247971Y-125552443D01*
X54258124Y-125533447D01*
X54271792Y-125516792D01*
X54288447Y-125503124D01*
X54307443Y-125492971D01*
X54328062Y-125486716D01*
X54355640Y-125484000D01*
X54864360Y-125484000D01*
X54891938Y-125486716D01*
X54891938Y-125486716D01*
G37*
G36*
X43316000Y-125861000D02*
G01*
X42314000Y-125861000D01*
X42314000Y-124959000D01*
X43316000Y-124959000D01*
X43316000Y-125861000D01*
X43316000Y-125861000D01*
G37*
G36*
X26697938Y-125086716D02*
G01*
X26718557Y-125092971D01*
X26737553Y-125103124D01*
X26754208Y-125116792D01*
X26767876Y-125133447D01*
X26778029Y-125152443D01*
X26784284Y-125173062D01*
X26787000Y-125200640D01*
X26787000Y-125659360D01*
X26784284Y-125686938D01*
X26778029Y-125707557D01*
X26767876Y-125726553D01*
X26754208Y-125743208D01*
X26737553Y-125756876D01*
X26718557Y-125767029D01*
X26697938Y-125773284D01*
X26670360Y-125776000D01*
X26161640Y-125776000D01*
X26134062Y-125773284D01*
X26113443Y-125767029D01*
X26094447Y-125756876D01*
X26077792Y-125743208D01*
X26064124Y-125726553D01*
X26053971Y-125707557D01*
X26047716Y-125686938D01*
X26045000Y-125659360D01*
X26045000Y-125200640D01*
X26047716Y-125173062D01*
X26053971Y-125152443D01*
X26064124Y-125133447D01*
X26077792Y-125116792D01*
X26094447Y-125103124D01*
X26113443Y-125092971D01*
X26134062Y-125086716D01*
X26161640Y-125084000D01*
X26670360Y-125084000D01*
X26697938Y-125086716D01*
X26697938Y-125086716D01*
G37*
G36*
X52449591Y-124493085D02*
G01*
X52483569Y-124503393D01*
X52514890Y-124520134D01*
X52542339Y-124542661D01*
X52564866Y-124570110D01*
X52581607Y-124601431D01*
X52591915Y-124635409D01*
X52596000Y-124676890D01*
X52596000Y-125278110D01*
X52591915Y-125319591D01*
X52581607Y-125353569D01*
X52564866Y-125384890D01*
X52542339Y-125412339D01*
X52514890Y-125434866D01*
X52483569Y-125451607D01*
X52449591Y-125461915D01*
X52408110Y-125466000D01*
X51731890Y-125466000D01*
X51690409Y-125461915D01*
X51656431Y-125451607D01*
X51625110Y-125434866D01*
X51597661Y-125412339D01*
X51575134Y-125384890D01*
X51558393Y-125353569D01*
X51548085Y-125319591D01*
X51544000Y-125278110D01*
X51544000Y-124676890D01*
X51548085Y-124635409D01*
X51558393Y-124601431D01*
X51575134Y-124570110D01*
X51597661Y-124542661D01*
X51625110Y-124520134D01*
X51656431Y-124503393D01*
X51690409Y-124493085D01*
X51731890Y-124489000D01*
X52408110Y-124489000D01*
X52449591Y-124493085D01*
X52449591Y-124493085D01*
G37*
G36*
X45316000Y-124911000D02*
G01*
X44314000Y-124911000D01*
X44314000Y-124009000D01*
X45316000Y-124009000D01*
X45316000Y-124911000D01*
X45316000Y-124911000D01*
G37*
G36*
X26697938Y-124116716D02*
G01*
X26718557Y-124122971D01*
X26737553Y-124133124D01*
X26754208Y-124146792D01*
X26767876Y-124163447D01*
X26778029Y-124182443D01*
X26784284Y-124203062D01*
X26787000Y-124230640D01*
X26787000Y-124689360D01*
X26784284Y-124716938D01*
X26778029Y-124737557D01*
X26767876Y-124756553D01*
X26754208Y-124773208D01*
X26737553Y-124786876D01*
X26718557Y-124797029D01*
X26697938Y-124803284D01*
X26670360Y-124806000D01*
X26161640Y-124806000D01*
X26134062Y-124803284D01*
X26113443Y-124797029D01*
X26094447Y-124786876D01*
X26077792Y-124773208D01*
X26064124Y-124756553D01*
X26053971Y-124737557D01*
X26047716Y-124716938D01*
X26045000Y-124689360D01*
X26045000Y-124230640D01*
X26047716Y-124203062D01*
X26053971Y-124182443D01*
X26064124Y-124163447D01*
X26077792Y-124146792D01*
X26094447Y-124133124D01*
X26113443Y-124122971D01*
X26134062Y-124116716D01*
X26161640Y-124114000D01*
X26670360Y-124114000D01*
X26697938Y-124116716D01*
X26697938Y-124116716D01*
G37*
G36*
X49028604Y-122893347D02*
G01*
X49065144Y-122904432D01*
X49098821Y-122922433D01*
X49128341Y-122946659D01*
X49152567Y-122976179D01*
X49170568Y-123009856D01*
X49181653Y-123046396D01*
X49186000Y-123090538D01*
X49186000Y-124039462D01*
X49181653Y-124083604D01*
X49170568Y-124120144D01*
X49152567Y-124153821D01*
X49128341Y-124183341D01*
X49098821Y-124207567D01*
X49065144Y-124225568D01*
X49028604Y-124236653D01*
X48984462Y-124241000D01*
X47535538Y-124241000D01*
X47491396Y-124236653D01*
X47454856Y-124225568D01*
X47421179Y-124207567D01*
X47391659Y-124183341D01*
X47367433Y-124153821D01*
X47349432Y-124120144D01*
X47338347Y-124083604D01*
X47334000Y-124039462D01*
X47334000Y-123090538D01*
X47338347Y-123046396D01*
X47349432Y-123009856D01*
X47367433Y-122976179D01*
X47391659Y-122946659D01*
X47421179Y-122922433D01*
X47454856Y-122904432D01*
X47491396Y-122893347D01*
X47535538Y-122889000D01*
X48984462Y-122889000D01*
X49028604Y-122893347D01*
X49028604Y-122893347D01*
G37*
G36*
X43316000Y-123961000D02*
G01*
X42314000Y-123961000D01*
X42314000Y-123059000D01*
X43316000Y-123059000D01*
X43316000Y-123961000D01*
X43316000Y-123961000D01*
G37*
G36*
X40251000Y-123841000D02*
G01*
X39249000Y-123841000D01*
X39249000Y-122539000D01*
X40251000Y-122539000D01*
X40251000Y-123841000D01*
X40251000Y-123841000D01*
G37*
G36*
X36951000Y-123841000D02*
G01*
X35949000Y-123841000D01*
X35949000Y-122539000D01*
X36951000Y-122539000D01*
X36951000Y-123841000D01*
X36951000Y-123841000D01*
G37*
G36*
X31516000Y-123046000D02*
G01*
X30714000Y-123046000D01*
X30714000Y-121644000D01*
X31516000Y-121644000D01*
X31516000Y-123046000D01*
X31516000Y-123046000D01*
G37*
G36*
X30246000Y-123046000D02*
G01*
X29444000Y-123046000D01*
X29444000Y-121644000D01*
X30246000Y-121644000D01*
X30246000Y-123046000D01*
X30246000Y-123046000D01*
G37*
G36*
X32786000Y-123046000D02*
G01*
X31984000Y-123046000D01*
X31984000Y-121644000D01*
X32786000Y-121644000D01*
X32786000Y-123046000D01*
X32786000Y-123046000D01*
G37*
G36*
X34056000Y-123046000D02*
G01*
X33254000Y-123046000D01*
X33254000Y-121644000D01*
X34056000Y-121644000D01*
X34056000Y-123046000D01*
X34056000Y-123046000D01*
G37*
G36*
X26795591Y-122070585D02*
G01*
X26829569Y-122080893D01*
X26860890Y-122097634D01*
X26888339Y-122120161D01*
X26910866Y-122147610D01*
X26927607Y-122178931D01*
X26937915Y-122212909D01*
X26942000Y-122254390D01*
X26942000Y-122855610D01*
X26937915Y-122897091D01*
X26927607Y-122931069D01*
X26910866Y-122962390D01*
X26888339Y-122989839D01*
X26860890Y-123012366D01*
X26829569Y-123029107D01*
X26795591Y-123039415D01*
X26754110Y-123043500D01*
X26077890Y-123043500D01*
X26036409Y-123039415D01*
X26002431Y-123029107D01*
X25971110Y-123012366D01*
X25943661Y-122989839D01*
X25921134Y-122962390D01*
X25904393Y-122931069D01*
X25894085Y-122897091D01*
X25890000Y-122855610D01*
X25890000Y-122254390D01*
X25894085Y-122212909D01*
X25904393Y-122178931D01*
X25921134Y-122147610D01*
X25943661Y-122120161D01*
X25971110Y-122097634D01*
X26002431Y-122080893D01*
X26036409Y-122070585D01*
X26077890Y-122066500D01*
X26754110Y-122066500D01*
X26795591Y-122070585D01*
X26795591Y-122070585D01*
G37*
G36*
X26795591Y-120495585D02*
G01*
X26829569Y-120505893D01*
X26860890Y-120522634D01*
X26888339Y-120545161D01*
X26910866Y-120572610D01*
X26927607Y-120603931D01*
X26937915Y-120637909D01*
X26942000Y-120679390D01*
X26942000Y-121280610D01*
X26937915Y-121322091D01*
X26927607Y-121356069D01*
X26910866Y-121387390D01*
X26888339Y-121414839D01*
X26860890Y-121437366D01*
X26829569Y-121454107D01*
X26795591Y-121464415D01*
X26754110Y-121468500D01*
X26077890Y-121468500D01*
X26036409Y-121464415D01*
X26002431Y-121454107D01*
X25971110Y-121437366D01*
X25943661Y-121414839D01*
X25921134Y-121387390D01*
X25904393Y-121356069D01*
X25894085Y-121322091D01*
X25890000Y-121280610D01*
X25890000Y-120679390D01*
X25894085Y-120637909D01*
X25904393Y-120603931D01*
X25921134Y-120572610D01*
X25943661Y-120545161D01*
X25971110Y-120522634D01*
X26002431Y-120505893D01*
X26036409Y-120495585D01*
X26077890Y-120491500D01*
X26754110Y-120491500D01*
X26795591Y-120495585D01*
X26795591Y-120495585D01*
G37*
G36*
X37455968Y-119395565D02*
G01*
X37494638Y-119407296D01*
X37530277Y-119426346D01*
X37561517Y-119451983D01*
X37587154Y-119483223D01*
X37606204Y-119518862D01*
X37617935Y-119557532D01*
X37622500Y-119603888D01*
X37622500Y-120680112D01*
X37617935Y-120726468D01*
X37606204Y-120765138D01*
X37587154Y-120800777D01*
X37561517Y-120832017D01*
X37530277Y-120857654D01*
X37494638Y-120876704D01*
X37455968Y-120888435D01*
X37409612Y-120893000D01*
X36758388Y-120893000D01*
X36712032Y-120888435D01*
X36673362Y-120876704D01*
X36637723Y-120857654D01*
X36606483Y-120832017D01*
X36580846Y-120800777D01*
X36561796Y-120765138D01*
X36550065Y-120726468D01*
X36545500Y-120680112D01*
X36545500Y-119603888D01*
X36550065Y-119557532D01*
X36561796Y-119518862D01*
X36580846Y-119483223D01*
X36606483Y-119451983D01*
X36637723Y-119426346D01*
X36673362Y-119407296D01*
X36712032Y-119395565D01*
X36758388Y-119391000D01*
X37409612Y-119391000D01*
X37455968Y-119395565D01*
X37455968Y-119395565D01*
G37*
G36*
X39330968Y-119395565D02*
G01*
X39369638Y-119407296D01*
X39405277Y-119426346D01*
X39436517Y-119451983D01*
X39462154Y-119483223D01*
X39481204Y-119518862D01*
X39492935Y-119557532D01*
X39497500Y-119603888D01*
X39497500Y-120680112D01*
X39492935Y-120726468D01*
X39481204Y-120765138D01*
X39462154Y-120800777D01*
X39436517Y-120832017D01*
X39405277Y-120857654D01*
X39369638Y-120876704D01*
X39330968Y-120888435D01*
X39284612Y-120893000D01*
X38633388Y-120893000D01*
X38587032Y-120888435D01*
X38548362Y-120876704D01*
X38512723Y-120857654D01*
X38481483Y-120832017D01*
X38455846Y-120800777D01*
X38436796Y-120765138D01*
X38425065Y-120726468D01*
X38420500Y-120680112D01*
X38420500Y-119603888D01*
X38425065Y-119557532D01*
X38436796Y-119518862D01*
X38455846Y-119483223D01*
X38481483Y-119451983D01*
X38512723Y-119426346D01*
X38548362Y-119407296D01*
X38587032Y-119395565D01*
X38633388Y-119391000D01*
X39284612Y-119391000D01*
X39330968Y-119395565D01*
X39330968Y-119395565D01*
G37*
G36*
X33765442Y-118485518D02*
G01*
X33831627Y-118492037D01*
X34001466Y-118543557D01*
X34157991Y-118627222D01*
X34193729Y-118656552D01*
X34295186Y-118739814D01*
X34378448Y-118841271D01*
X34407778Y-118877009D01*
X34491443Y-119033534D01*
X34542963Y-119203373D01*
X34560359Y-119380000D01*
X34542963Y-119556627D01*
X34491443Y-119726466D01*
X34407778Y-119882991D01*
X34378448Y-119918729D01*
X34295186Y-120020186D01*
X34193729Y-120103448D01*
X34157991Y-120132778D01*
X34001466Y-120216443D01*
X33831627Y-120267963D01*
X33765442Y-120274482D01*
X33699260Y-120281000D01*
X33610740Y-120281000D01*
X33544558Y-120274482D01*
X33478373Y-120267963D01*
X33308534Y-120216443D01*
X33152009Y-120132778D01*
X33116271Y-120103448D01*
X33014814Y-120020186D01*
X32931552Y-119918729D01*
X32902222Y-119882991D01*
X32818557Y-119726466D01*
X32767037Y-119556627D01*
X32749641Y-119380000D01*
X32767037Y-119203373D01*
X32818557Y-119033534D01*
X32902222Y-118877009D01*
X32931552Y-118841271D01*
X33014814Y-118739814D01*
X33116271Y-118656552D01*
X33152009Y-118627222D01*
X33308534Y-118543557D01*
X33478373Y-118492037D01*
X33544558Y-118485518D01*
X33610740Y-118479000D01*
X33699260Y-118479000D01*
X33765442Y-118485518D01*
X33765442Y-118485518D01*
G37*
G36*
X32016000Y-120281000D02*
G01*
X30214000Y-120281000D01*
X30214000Y-118479000D01*
X32016000Y-118479000D01*
X32016000Y-120281000D01*
X32016000Y-120281000D01*
G37*
G36*
X37386938Y-117741716D02*
G01*
X37407557Y-117747971D01*
X37426553Y-117758124D01*
X37443208Y-117771792D01*
X37456876Y-117788447D01*
X37467029Y-117807443D01*
X37473284Y-117828062D01*
X37476000Y-117855640D01*
X37476000Y-118364360D01*
X37473284Y-118391938D01*
X37467029Y-118412557D01*
X37456876Y-118431553D01*
X37443208Y-118448208D01*
X37426553Y-118461876D01*
X37407557Y-118472029D01*
X37386938Y-118478284D01*
X37359360Y-118481000D01*
X36900640Y-118481000D01*
X36873062Y-118478284D01*
X36852443Y-118472029D01*
X36833447Y-118461876D01*
X36816792Y-118448208D01*
X36803124Y-118431553D01*
X36792971Y-118412557D01*
X36786716Y-118391938D01*
X36784000Y-118364360D01*
X36784000Y-117855640D01*
X36786716Y-117828062D01*
X36792971Y-117807443D01*
X36803124Y-117788447D01*
X36816792Y-117771792D01*
X36833447Y-117758124D01*
X36852443Y-117747971D01*
X36873062Y-117741716D01*
X36900640Y-117739000D01*
X37359360Y-117739000D01*
X37386938Y-117741716D01*
X37386938Y-117741716D01*
G37*
G36*
X38356938Y-117741716D02*
G01*
X38377557Y-117747971D01*
X38396553Y-117758124D01*
X38413208Y-117771792D01*
X38426876Y-117788447D01*
X38437029Y-117807443D01*
X38443284Y-117828062D01*
X38446000Y-117855640D01*
X38446000Y-118364360D01*
X38443284Y-118391938D01*
X38437029Y-118412557D01*
X38426876Y-118431553D01*
X38413208Y-118448208D01*
X38396553Y-118461876D01*
X38377557Y-118472029D01*
X38356938Y-118478284D01*
X38329360Y-118481000D01*
X37870640Y-118481000D01*
X37843062Y-118478284D01*
X37822443Y-118472029D01*
X37803447Y-118461876D01*
X37786792Y-118448208D01*
X37773124Y-118431553D01*
X37762971Y-118412557D01*
X37756716Y-118391938D01*
X37754000Y-118364360D01*
X37754000Y-117855640D01*
X37756716Y-117828062D01*
X37762971Y-117807443D01*
X37773124Y-117788447D01*
X37786792Y-117771792D01*
X37803447Y-117758124D01*
X37822443Y-117747971D01*
X37843062Y-117741716D01*
X37870640Y-117739000D01*
X38329360Y-117739000D01*
X38356938Y-117741716D01*
X38356938Y-117741716D01*
G37*
M02*
