G04 #@! TF.GenerationSoftware,KiCad,Pcbnew,(5.1.4)*
G04 #@! TF.CreationDate,2019-12-13T22:41:35+01:00*
G04 #@! TF.ProjectId,hardware,68617264-7761-4726-952e-6b696361645f,rev?*
G04 #@! TF.SameCoordinates,Original*
G04 #@! TF.FileFunction,Copper,L3,Inr*
G04 #@! TF.FilePolarity,Positive*
%FSLAX46Y46*%
G04 Gerber Fmt 4.6, Leading zero omitted, Abs format (unit mm)*
G04 Created by KiCad (PCBNEW (5.1.4)) date 2019-12-13 22:41:35*
%MOMM*%
%LPD*%
G04 APERTURE LIST*
%ADD10R,1.700000X1.700000*%
%ADD11O,1.700000X1.700000*%
%ADD12C,2.200000*%
%ADD13C,0.450000*%
%ADD14C,0.762000*%
%ADD15C,0.500000*%
%ADD16C,0.254000*%
G04 APERTURE END LIST*
D10*
X31115000Y-119380000D03*
D11*
X33655000Y-119380000D03*
D12*
X64770000Y-120142000D03*
D13*
X58293000Y-137414000D03*
D14*
X45593000Y-143764000D03*
X50800000Y-143764000D03*
X54610000Y-143764000D03*
X50673000Y-139954000D03*
D15*
X45720000Y-140208000D03*
X54737000Y-140970000D03*
X54864000Y-139446000D03*
D14*
X62357000Y-123190000D03*
X57912000Y-123190000D03*
X57912000Y-126492000D03*
X62357000Y-126619000D03*
X53467000Y-123317000D03*
X50292000Y-128651000D03*
X55245000Y-128905000D03*
X52832000Y-128778000D03*
X45212000Y-128651000D03*
X41656000Y-128651000D03*
X40259000Y-126365000D03*
X36576000Y-124968000D03*
X27813000Y-121666000D03*
X28310000Y-119253000D03*
X29210000Y-125476000D03*
X29083000Y-131064000D03*
X33147000Y-133350000D03*
X33020000Y-137033000D03*
D15*
X42545000Y-140462000D03*
D14*
X41529000Y-145161000D03*
X32639000Y-143510000D03*
X36449000Y-145669000D03*
X27432000Y-143256000D03*
D15*
X27432000Y-148463000D03*
D14*
X33401000Y-149987000D03*
X47625000Y-135636000D03*
X45593000Y-136779000D03*
X45085000Y-133604000D03*
X34925000Y-126111000D03*
X27813000Y-124079000D03*
X62357000Y-119761000D03*
X57912000Y-119761000D03*
X53467000Y-119761000D03*
X49022000Y-119761000D03*
X44577000Y-119761000D03*
X41529000Y-119761000D03*
X56515000Y-149098000D03*
X56515000Y-153035000D03*
X45466000Y-149098000D03*
X45466000Y-153035000D03*
X49149000Y-149098000D03*
X49149000Y-153035000D03*
X52832000Y-153035000D03*
X52832000Y-149098000D03*
X41529000Y-149098000D03*
X41656000Y-153035000D03*
X39370000Y-152527000D03*
D15*
X58420000Y-132715000D03*
X59563000Y-132715000D03*
X63754000Y-128778000D03*
X63754000Y-130937000D03*
X63754000Y-132842000D03*
X63754000Y-134874000D03*
X63754000Y-136906000D03*
X63754000Y-138811000D03*
X63754000Y-140843000D03*
X63754000Y-142875000D03*
X63754000Y-144780000D03*
X58420000Y-133985000D03*
X27559000Y-152908000D03*
D14*
X36449000Y-150368000D03*
X36576000Y-133604000D03*
X46101000Y-124460000D03*
X41529000Y-138684000D03*
X48260000Y-128524000D03*
X31369000Y-152527000D03*
X31149168Y-146211168D03*
X31115000Y-142113000D03*
X43942000Y-135636000D03*
X36068000Y-139954000D03*
X60960000Y-146431000D03*
X55499000Y-138557000D03*
X36721083Y-149312454D03*
D15*
X33401000Y-135255000D03*
D14*
X27559000Y-126238000D03*
X28702000Y-122428000D03*
X35179000Y-123190000D03*
X34925000Y-127889000D03*
X36068000Y-118110000D03*
X35814000Y-120142000D03*
X41402000Y-123773802D03*
D15*
X54864000Y-140208000D03*
X59309000Y-136005642D03*
X58801000Y-135128000D03*
X59309000Y-140843000D03*
X55880000Y-142240000D03*
X59309000Y-130302000D03*
X59817000Y-137922000D03*
X59309000Y-139573000D03*
X59563000Y-131064000D03*
X59436000Y-141732000D03*
X54864000Y-130385300D03*
X55118000Y-131826000D03*
X47244000Y-134620000D03*
X54991000Y-135128000D03*
X55753000Y-135128000D03*
X54483000Y-135890000D03*
X54061540Y-137026385D03*
X38481000Y-143256000D03*
X31115000Y-149098000D03*
X32639000Y-153289000D03*
X29972000Y-148717000D03*
X26797000Y-151130000D03*
X32512000Y-138684000D03*
X30734000Y-138684000D03*
X41112875Y-139377542D03*
X35560000Y-144145000D03*
D16*
G36*
X42926000Y-129159910D02*
G01*
X42536015Y-129162716D01*
X42556368Y-129132256D01*
X42632956Y-128947356D01*
X42672000Y-128751067D01*
X42672000Y-128550933D01*
X42632956Y-128354644D01*
X42556368Y-128169744D01*
X42445179Y-128003338D01*
X42303662Y-127861821D01*
X42137256Y-127750632D01*
X41952356Y-127674044D01*
X41756067Y-127635000D01*
X41555933Y-127635000D01*
X41359644Y-127674044D01*
X41174744Y-127750632D01*
X41008338Y-127861821D01*
X40866821Y-128003338D01*
X40755632Y-128169744D01*
X40679044Y-128354644D01*
X40640000Y-128550933D01*
X40640000Y-128751067D01*
X40679044Y-128947356D01*
X40755632Y-129132256D01*
X40784405Y-129175317D01*
X26060000Y-129281248D01*
X26060000Y-123978933D01*
X26797000Y-123978933D01*
X26797000Y-124179067D01*
X26836044Y-124375356D01*
X26912632Y-124560256D01*
X27023821Y-124726662D01*
X27165338Y-124868179D01*
X27331744Y-124979368D01*
X27516644Y-125055956D01*
X27712933Y-125095000D01*
X27913067Y-125095000D01*
X28109356Y-125055956D01*
X28294256Y-124979368D01*
X28340594Y-124948406D01*
X28309632Y-124994744D01*
X28233044Y-125179644D01*
X28194000Y-125375933D01*
X28194000Y-125576067D01*
X28233044Y-125772356D01*
X28309632Y-125957256D01*
X28420821Y-126123662D01*
X28562338Y-126265179D01*
X28728744Y-126376368D01*
X28913644Y-126452956D01*
X29109933Y-126492000D01*
X29310067Y-126492000D01*
X29506356Y-126452956D01*
X29691256Y-126376368D01*
X29857662Y-126265179D01*
X29999179Y-126123662D01*
X30074502Y-126010933D01*
X33909000Y-126010933D01*
X33909000Y-126211067D01*
X33948044Y-126407356D01*
X34024632Y-126592256D01*
X34135821Y-126758662D01*
X34277338Y-126900179D01*
X34443744Y-127011368D01*
X34628644Y-127087956D01*
X34824933Y-127127000D01*
X35025067Y-127127000D01*
X35221356Y-127087956D01*
X35406256Y-127011368D01*
X35572662Y-126900179D01*
X35714179Y-126758662D01*
X35825368Y-126592256D01*
X35901956Y-126407356D01*
X35930285Y-126264933D01*
X39243000Y-126264933D01*
X39243000Y-126465067D01*
X39282044Y-126661356D01*
X39358632Y-126846256D01*
X39469821Y-127012662D01*
X39611338Y-127154179D01*
X39777744Y-127265368D01*
X39962644Y-127341956D01*
X40158933Y-127381000D01*
X40359067Y-127381000D01*
X40555356Y-127341956D01*
X40740256Y-127265368D01*
X40906662Y-127154179D01*
X41048179Y-127012662D01*
X41159368Y-126846256D01*
X41235956Y-126661356D01*
X41275000Y-126465067D01*
X41275000Y-126264933D01*
X41235956Y-126068644D01*
X41159368Y-125883744D01*
X41048179Y-125717338D01*
X40906662Y-125575821D01*
X40740256Y-125464632D01*
X40555356Y-125388044D01*
X40359067Y-125349000D01*
X40158933Y-125349000D01*
X39962644Y-125388044D01*
X39777744Y-125464632D01*
X39611338Y-125575821D01*
X39469821Y-125717338D01*
X39358632Y-125883744D01*
X39282044Y-126068644D01*
X39243000Y-126264933D01*
X35930285Y-126264933D01*
X35941000Y-126211067D01*
X35941000Y-126010933D01*
X35901956Y-125814644D01*
X35842667Y-125671508D01*
X35928338Y-125757179D01*
X36094744Y-125868368D01*
X36279644Y-125944956D01*
X36475933Y-125984000D01*
X36676067Y-125984000D01*
X36872356Y-125944956D01*
X37057256Y-125868368D01*
X37223662Y-125757179D01*
X37365179Y-125615662D01*
X37476368Y-125449256D01*
X37552956Y-125264356D01*
X37592000Y-125068067D01*
X37592000Y-124867933D01*
X37552956Y-124671644D01*
X37476368Y-124486744D01*
X37365179Y-124320338D01*
X37223662Y-124178821D01*
X37057256Y-124067632D01*
X36872356Y-123991044D01*
X36676067Y-123952000D01*
X36475933Y-123952000D01*
X36279644Y-123991044D01*
X36094744Y-124067632D01*
X35928338Y-124178821D01*
X35786821Y-124320338D01*
X35675632Y-124486744D01*
X35599044Y-124671644D01*
X35560000Y-124867933D01*
X35560000Y-125068067D01*
X35599044Y-125264356D01*
X35658333Y-125407492D01*
X35572662Y-125321821D01*
X35406256Y-125210632D01*
X35221356Y-125134044D01*
X35025067Y-125095000D01*
X34824933Y-125095000D01*
X34628644Y-125134044D01*
X34443744Y-125210632D01*
X34277338Y-125321821D01*
X34135821Y-125463338D01*
X34024632Y-125629744D01*
X33948044Y-125814644D01*
X33909000Y-126010933D01*
X30074502Y-126010933D01*
X30110368Y-125957256D01*
X30186956Y-125772356D01*
X30226000Y-125576067D01*
X30226000Y-125375933D01*
X30186956Y-125179644D01*
X30110368Y-124994744D01*
X29999179Y-124828338D01*
X29857662Y-124686821D01*
X29691256Y-124575632D01*
X29506356Y-124499044D01*
X29310067Y-124460000D01*
X29109933Y-124460000D01*
X28913644Y-124499044D01*
X28728744Y-124575632D01*
X28682406Y-124606594D01*
X28713368Y-124560256D01*
X28789956Y-124375356D01*
X28829000Y-124179067D01*
X28829000Y-123978933D01*
X28789956Y-123782644D01*
X28713368Y-123597744D01*
X28602179Y-123431338D01*
X28460662Y-123289821D01*
X28294256Y-123178632D01*
X28109356Y-123102044D01*
X27913067Y-123063000D01*
X27712933Y-123063000D01*
X27516644Y-123102044D01*
X27331744Y-123178632D01*
X27165338Y-123289821D01*
X27023821Y-123431338D01*
X26912632Y-123597744D01*
X26836044Y-123782644D01*
X26797000Y-123978933D01*
X26060000Y-123978933D01*
X26060000Y-121565933D01*
X26797000Y-121565933D01*
X26797000Y-121766067D01*
X26836044Y-121962356D01*
X26912632Y-122147256D01*
X27023821Y-122313662D01*
X27165338Y-122455179D01*
X27331744Y-122566368D01*
X27516644Y-122642956D01*
X27712933Y-122682000D01*
X27913067Y-122682000D01*
X28109356Y-122642956D01*
X28294256Y-122566368D01*
X28460662Y-122455179D01*
X28602179Y-122313662D01*
X28713368Y-122147256D01*
X28789956Y-121962356D01*
X28829000Y-121766067D01*
X28829000Y-121565933D01*
X28789956Y-121369644D01*
X28713368Y-121184744D01*
X28602179Y-121018338D01*
X28460662Y-120876821D01*
X28294256Y-120765632D01*
X28109356Y-120689044D01*
X27913067Y-120650000D01*
X27712933Y-120650000D01*
X27516644Y-120689044D01*
X27331744Y-120765632D01*
X27165338Y-120876821D01*
X27023821Y-121018338D01*
X26912632Y-121184744D01*
X26836044Y-121369644D01*
X26797000Y-121565933D01*
X26060000Y-121565933D01*
X26060000Y-120320470D01*
X26166000Y-120391297D01*
X26394216Y-120485827D01*
X26636490Y-120534018D01*
X26883510Y-120534018D01*
X27125784Y-120485827D01*
X27354000Y-120391297D01*
X27559390Y-120254060D01*
X27727639Y-120085811D01*
X27828744Y-120153368D01*
X28013644Y-120229956D01*
X28209933Y-120269000D01*
X28410067Y-120269000D01*
X28606356Y-120229956D01*
X28791256Y-120153368D01*
X28957662Y-120042179D01*
X29099179Y-119900662D01*
X29210368Y-119734256D01*
X29286956Y-119549356D01*
X29326000Y-119353067D01*
X29326000Y-119152933D01*
X29286956Y-118956644D01*
X29210368Y-118771744D01*
X29099179Y-118605338D01*
X28980202Y-118486361D01*
X29639671Y-118403927D01*
X29639188Y-118405518D01*
X29626928Y-118530000D01*
X29626928Y-120230000D01*
X29639188Y-120354482D01*
X29675498Y-120474180D01*
X29734463Y-120584494D01*
X29813815Y-120681185D01*
X29910506Y-120760537D01*
X30020820Y-120819502D01*
X30140518Y-120855812D01*
X30265000Y-120868072D01*
X31965000Y-120868072D01*
X32089482Y-120855812D01*
X32209180Y-120819502D01*
X32319494Y-120760537D01*
X32416185Y-120681185D01*
X32495537Y-120584494D01*
X32554502Y-120474180D01*
X32578966Y-120393534D01*
X32654731Y-120477588D01*
X32888080Y-120651641D01*
X33150901Y-120776825D01*
X33298110Y-120821476D01*
X33528000Y-120700155D01*
X33528000Y-119507000D01*
X33782000Y-119507000D01*
X33782000Y-120700155D01*
X34011890Y-120821476D01*
X34159099Y-120776825D01*
X34421920Y-120651641D01*
X34655269Y-120477588D01*
X34850178Y-120261355D01*
X34999157Y-120011252D01*
X35096481Y-119736891D01*
X35056612Y-119660933D01*
X40513000Y-119660933D01*
X40513000Y-119861067D01*
X40552044Y-120057356D01*
X40628632Y-120242256D01*
X40739821Y-120408662D01*
X40881338Y-120550179D01*
X41047744Y-120661368D01*
X41232644Y-120737956D01*
X41428933Y-120777000D01*
X41629067Y-120777000D01*
X41825356Y-120737956D01*
X42010256Y-120661368D01*
X42176662Y-120550179D01*
X42318179Y-120408662D01*
X42429368Y-120242256D01*
X42505956Y-120057356D01*
X42545000Y-119861067D01*
X42545000Y-119660933D01*
X42505956Y-119464644D01*
X42429368Y-119279744D01*
X42318179Y-119113338D01*
X42176662Y-118971821D01*
X42010256Y-118860632D01*
X41825356Y-118784044D01*
X41629067Y-118745000D01*
X41428933Y-118745000D01*
X41232644Y-118784044D01*
X41047744Y-118860632D01*
X40881338Y-118971821D01*
X40739821Y-119113338D01*
X40628632Y-119279744D01*
X40552044Y-119464644D01*
X40513000Y-119660933D01*
X35056612Y-119660933D01*
X34975814Y-119507000D01*
X33782000Y-119507000D01*
X33528000Y-119507000D01*
X33508000Y-119507000D01*
X33508000Y-119253000D01*
X33528000Y-119253000D01*
X33528000Y-119233000D01*
X33782000Y-119233000D01*
X33782000Y-119253000D01*
X34975814Y-119253000D01*
X35096481Y-119023109D01*
X34999157Y-118748748D01*
X34850178Y-118498645D01*
X34655269Y-118282412D01*
X34421920Y-118108359D01*
X34159099Y-117983175D01*
X34011890Y-117938524D01*
X33782002Y-118059844D01*
X33782002Y-117895000D01*
X33711093Y-117895000D01*
X36871095Y-117500000D01*
X42926000Y-117500000D01*
X42926000Y-129159910D01*
X42926000Y-129159910D01*
G37*
X42926000Y-129159910D02*
X42536015Y-129162716D01*
X42556368Y-129132256D01*
X42632956Y-128947356D01*
X42672000Y-128751067D01*
X42672000Y-128550933D01*
X42632956Y-128354644D01*
X42556368Y-128169744D01*
X42445179Y-128003338D01*
X42303662Y-127861821D01*
X42137256Y-127750632D01*
X41952356Y-127674044D01*
X41756067Y-127635000D01*
X41555933Y-127635000D01*
X41359644Y-127674044D01*
X41174744Y-127750632D01*
X41008338Y-127861821D01*
X40866821Y-128003338D01*
X40755632Y-128169744D01*
X40679044Y-128354644D01*
X40640000Y-128550933D01*
X40640000Y-128751067D01*
X40679044Y-128947356D01*
X40755632Y-129132256D01*
X40784405Y-129175317D01*
X26060000Y-129281248D01*
X26060000Y-123978933D01*
X26797000Y-123978933D01*
X26797000Y-124179067D01*
X26836044Y-124375356D01*
X26912632Y-124560256D01*
X27023821Y-124726662D01*
X27165338Y-124868179D01*
X27331744Y-124979368D01*
X27516644Y-125055956D01*
X27712933Y-125095000D01*
X27913067Y-125095000D01*
X28109356Y-125055956D01*
X28294256Y-124979368D01*
X28340594Y-124948406D01*
X28309632Y-124994744D01*
X28233044Y-125179644D01*
X28194000Y-125375933D01*
X28194000Y-125576067D01*
X28233044Y-125772356D01*
X28309632Y-125957256D01*
X28420821Y-126123662D01*
X28562338Y-126265179D01*
X28728744Y-126376368D01*
X28913644Y-126452956D01*
X29109933Y-126492000D01*
X29310067Y-126492000D01*
X29506356Y-126452956D01*
X29691256Y-126376368D01*
X29857662Y-126265179D01*
X29999179Y-126123662D01*
X30074502Y-126010933D01*
X33909000Y-126010933D01*
X33909000Y-126211067D01*
X33948044Y-126407356D01*
X34024632Y-126592256D01*
X34135821Y-126758662D01*
X34277338Y-126900179D01*
X34443744Y-127011368D01*
X34628644Y-127087956D01*
X34824933Y-127127000D01*
X35025067Y-127127000D01*
X35221356Y-127087956D01*
X35406256Y-127011368D01*
X35572662Y-126900179D01*
X35714179Y-126758662D01*
X35825368Y-126592256D01*
X35901956Y-126407356D01*
X35930285Y-126264933D01*
X39243000Y-126264933D01*
X39243000Y-126465067D01*
X39282044Y-126661356D01*
X39358632Y-126846256D01*
X39469821Y-127012662D01*
X39611338Y-127154179D01*
X39777744Y-127265368D01*
X39962644Y-127341956D01*
X40158933Y-127381000D01*
X40359067Y-127381000D01*
X40555356Y-127341956D01*
X40740256Y-127265368D01*
X40906662Y-127154179D01*
X41048179Y-127012662D01*
X41159368Y-126846256D01*
X41235956Y-126661356D01*
X41275000Y-126465067D01*
X41275000Y-126264933D01*
X41235956Y-126068644D01*
X41159368Y-125883744D01*
X41048179Y-125717338D01*
X40906662Y-125575821D01*
X40740256Y-125464632D01*
X40555356Y-125388044D01*
X40359067Y-125349000D01*
X40158933Y-125349000D01*
X39962644Y-125388044D01*
X39777744Y-125464632D01*
X39611338Y-125575821D01*
X39469821Y-125717338D01*
X39358632Y-125883744D01*
X39282044Y-126068644D01*
X39243000Y-126264933D01*
X35930285Y-126264933D01*
X35941000Y-126211067D01*
X35941000Y-126010933D01*
X35901956Y-125814644D01*
X35842667Y-125671508D01*
X35928338Y-125757179D01*
X36094744Y-125868368D01*
X36279644Y-125944956D01*
X36475933Y-125984000D01*
X36676067Y-125984000D01*
X36872356Y-125944956D01*
X37057256Y-125868368D01*
X37223662Y-125757179D01*
X37365179Y-125615662D01*
X37476368Y-125449256D01*
X37552956Y-125264356D01*
X37592000Y-125068067D01*
X37592000Y-124867933D01*
X37552956Y-124671644D01*
X37476368Y-124486744D01*
X37365179Y-124320338D01*
X37223662Y-124178821D01*
X37057256Y-124067632D01*
X36872356Y-123991044D01*
X36676067Y-123952000D01*
X36475933Y-123952000D01*
X36279644Y-123991044D01*
X36094744Y-124067632D01*
X35928338Y-124178821D01*
X35786821Y-124320338D01*
X35675632Y-124486744D01*
X35599044Y-124671644D01*
X35560000Y-124867933D01*
X35560000Y-125068067D01*
X35599044Y-125264356D01*
X35658333Y-125407492D01*
X35572662Y-125321821D01*
X35406256Y-125210632D01*
X35221356Y-125134044D01*
X35025067Y-125095000D01*
X34824933Y-125095000D01*
X34628644Y-125134044D01*
X34443744Y-125210632D01*
X34277338Y-125321821D01*
X34135821Y-125463338D01*
X34024632Y-125629744D01*
X33948044Y-125814644D01*
X33909000Y-126010933D01*
X30074502Y-126010933D01*
X30110368Y-125957256D01*
X30186956Y-125772356D01*
X30226000Y-125576067D01*
X30226000Y-125375933D01*
X30186956Y-125179644D01*
X30110368Y-124994744D01*
X29999179Y-124828338D01*
X29857662Y-124686821D01*
X29691256Y-124575632D01*
X29506356Y-124499044D01*
X29310067Y-124460000D01*
X29109933Y-124460000D01*
X28913644Y-124499044D01*
X28728744Y-124575632D01*
X28682406Y-124606594D01*
X28713368Y-124560256D01*
X28789956Y-124375356D01*
X28829000Y-124179067D01*
X28829000Y-123978933D01*
X28789956Y-123782644D01*
X28713368Y-123597744D01*
X28602179Y-123431338D01*
X28460662Y-123289821D01*
X28294256Y-123178632D01*
X28109356Y-123102044D01*
X27913067Y-123063000D01*
X27712933Y-123063000D01*
X27516644Y-123102044D01*
X27331744Y-123178632D01*
X27165338Y-123289821D01*
X27023821Y-123431338D01*
X26912632Y-123597744D01*
X26836044Y-123782644D01*
X26797000Y-123978933D01*
X26060000Y-123978933D01*
X26060000Y-121565933D01*
X26797000Y-121565933D01*
X26797000Y-121766067D01*
X26836044Y-121962356D01*
X26912632Y-122147256D01*
X27023821Y-122313662D01*
X27165338Y-122455179D01*
X27331744Y-122566368D01*
X27516644Y-122642956D01*
X27712933Y-122682000D01*
X27913067Y-122682000D01*
X28109356Y-122642956D01*
X28294256Y-122566368D01*
X28460662Y-122455179D01*
X28602179Y-122313662D01*
X28713368Y-122147256D01*
X28789956Y-121962356D01*
X28829000Y-121766067D01*
X28829000Y-121565933D01*
X28789956Y-121369644D01*
X28713368Y-121184744D01*
X28602179Y-121018338D01*
X28460662Y-120876821D01*
X28294256Y-120765632D01*
X28109356Y-120689044D01*
X27913067Y-120650000D01*
X27712933Y-120650000D01*
X27516644Y-120689044D01*
X27331744Y-120765632D01*
X27165338Y-120876821D01*
X27023821Y-121018338D01*
X26912632Y-121184744D01*
X26836044Y-121369644D01*
X26797000Y-121565933D01*
X26060000Y-121565933D01*
X26060000Y-120320470D01*
X26166000Y-120391297D01*
X26394216Y-120485827D01*
X26636490Y-120534018D01*
X26883510Y-120534018D01*
X27125784Y-120485827D01*
X27354000Y-120391297D01*
X27559390Y-120254060D01*
X27727639Y-120085811D01*
X27828744Y-120153368D01*
X28013644Y-120229956D01*
X28209933Y-120269000D01*
X28410067Y-120269000D01*
X28606356Y-120229956D01*
X28791256Y-120153368D01*
X28957662Y-120042179D01*
X29099179Y-119900662D01*
X29210368Y-119734256D01*
X29286956Y-119549356D01*
X29326000Y-119353067D01*
X29326000Y-119152933D01*
X29286956Y-118956644D01*
X29210368Y-118771744D01*
X29099179Y-118605338D01*
X28980202Y-118486361D01*
X29639671Y-118403927D01*
X29639188Y-118405518D01*
X29626928Y-118530000D01*
X29626928Y-120230000D01*
X29639188Y-120354482D01*
X29675498Y-120474180D01*
X29734463Y-120584494D01*
X29813815Y-120681185D01*
X29910506Y-120760537D01*
X30020820Y-120819502D01*
X30140518Y-120855812D01*
X30265000Y-120868072D01*
X31965000Y-120868072D01*
X32089482Y-120855812D01*
X32209180Y-120819502D01*
X32319494Y-120760537D01*
X32416185Y-120681185D01*
X32495537Y-120584494D01*
X32554502Y-120474180D01*
X32578966Y-120393534D01*
X32654731Y-120477588D01*
X32888080Y-120651641D01*
X33150901Y-120776825D01*
X33298110Y-120821476D01*
X33528000Y-120700155D01*
X33528000Y-119507000D01*
X33782000Y-119507000D01*
X33782000Y-120700155D01*
X34011890Y-120821476D01*
X34159099Y-120776825D01*
X34421920Y-120651641D01*
X34655269Y-120477588D01*
X34850178Y-120261355D01*
X34999157Y-120011252D01*
X35096481Y-119736891D01*
X35056612Y-119660933D01*
X40513000Y-119660933D01*
X40513000Y-119861067D01*
X40552044Y-120057356D01*
X40628632Y-120242256D01*
X40739821Y-120408662D01*
X40881338Y-120550179D01*
X41047744Y-120661368D01*
X41232644Y-120737956D01*
X41428933Y-120777000D01*
X41629067Y-120777000D01*
X41825356Y-120737956D01*
X42010256Y-120661368D01*
X42176662Y-120550179D01*
X42318179Y-120408662D01*
X42429368Y-120242256D01*
X42505956Y-120057356D01*
X42545000Y-119861067D01*
X42545000Y-119660933D01*
X42505956Y-119464644D01*
X42429368Y-119279744D01*
X42318179Y-119113338D01*
X42176662Y-118971821D01*
X42010256Y-118860632D01*
X41825356Y-118784044D01*
X41629067Y-118745000D01*
X41428933Y-118745000D01*
X41232644Y-118784044D01*
X41047744Y-118860632D01*
X40881338Y-118971821D01*
X40739821Y-119113338D01*
X40628632Y-119279744D01*
X40552044Y-119464644D01*
X40513000Y-119660933D01*
X35056612Y-119660933D01*
X34975814Y-119507000D01*
X33782000Y-119507000D01*
X33528000Y-119507000D01*
X33508000Y-119507000D01*
X33508000Y-119253000D01*
X33528000Y-119253000D01*
X33528000Y-119233000D01*
X33782000Y-119233000D01*
X33782000Y-119253000D01*
X34975814Y-119253000D01*
X35096481Y-119023109D01*
X34999157Y-118748748D01*
X34850178Y-118498645D01*
X34655269Y-118282412D01*
X34421920Y-118108359D01*
X34159099Y-117983175D01*
X34011890Y-117938524D01*
X33782002Y-118059844D01*
X33782002Y-117895000D01*
X33711093Y-117895000D01*
X36871095Y-117500000D01*
X42926000Y-117500000D01*
X42926000Y-129159910D01*
G36*
X64643000Y-118508854D02*
G01*
X64643000Y-118661000D01*
X64624134Y-118661000D01*
X64338008Y-118717914D01*
X64068483Y-118829555D01*
X63825917Y-118991632D01*
X63619632Y-119197917D01*
X63457555Y-119440483D01*
X63345914Y-119710008D01*
X63289000Y-119996134D01*
X63289000Y-120287866D01*
X63345914Y-120573992D01*
X63457555Y-120843517D01*
X63619632Y-121086083D01*
X63825917Y-121292368D01*
X64068483Y-121454445D01*
X64338008Y-121566086D01*
X64624134Y-121623000D01*
X64643000Y-121623000D01*
X64643000Y-121788256D01*
X64613879Y-121797090D01*
X64543347Y-121834790D01*
X64481526Y-121885526D01*
X64430790Y-121947348D01*
X64393090Y-122017880D01*
X64369875Y-122094411D01*
X64364000Y-122154060D01*
X64364000Y-128610279D01*
X64360751Y-128593944D01*
X64313185Y-128479109D01*
X64244130Y-128375761D01*
X64156239Y-128287870D01*
X64052891Y-128218815D01*
X63938056Y-128171249D01*
X63816148Y-128147000D01*
X63691852Y-128147000D01*
X63569944Y-128171249D01*
X63455109Y-128218815D01*
X63351761Y-128287870D01*
X63263870Y-128375761D01*
X63194815Y-128479109D01*
X63147249Y-128593944D01*
X63123000Y-128715852D01*
X63123000Y-128840148D01*
X63147249Y-128962056D01*
X63194815Y-129076891D01*
X63263870Y-129180239D01*
X63351761Y-129268130D01*
X63455109Y-129337185D01*
X63569944Y-129384751D01*
X63691852Y-129409000D01*
X63816148Y-129409000D01*
X63938056Y-129384751D01*
X64052891Y-129337185D01*
X64156239Y-129268130D01*
X64244130Y-129180239D01*
X64313185Y-129076891D01*
X64360751Y-128962056D01*
X64364000Y-128945721D01*
X64364000Y-130769279D01*
X64360751Y-130752944D01*
X64313185Y-130638109D01*
X64244130Y-130534761D01*
X64156239Y-130446870D01*
X64052891Y-130377815D01*
X63938056Y-130330249D01*
X63816148Y-130306000D01*
X63691852Y-130306000D01*
X63569944Y-130330249D01*
X63455109Y-130377815D01*
X63351761Y-130446870D01*
X63263870Y-130534761D01*
X63194815Y-130638109D01*
X63147249Y-130752944D01*
X63123000Y-130874852D01*
X63123000Y-130999148D01*
X63147249Y-131121056D01*
X63194815Y-131235891D01*
X63263870Y-131339239D01*
X63351761Y-131427130D01*
X63455109Y-131496185D01*
X63569944Y-131543751D01*
X63691852Y-131568000D01*
X63816148Y-131568000D01*
X63938056Y-131543751D01*
X64052891Y-131496185D01*
X64156239Y-131427130D01*
X64244130Y-131339239D01*
X64313185Y-131235891D01*
X64360751Y-131121056D01*
X64364000Y-131104721D01*
X64364000Y-132674280D01*
X64360751Y-132657944D01*
X64313185Y-132543109D01*
X64244130Y-132439761D01*
X64156239Y-132351870D01*
X64052891Y-132282815D01*
X63938056Y-132235249D01*
X63816148Y-132211000D01*
X63691852Y-132211000D01*
X63569944Y-132235249D01*
X63455109Y-132282815D01*
X63351761Y-132351870D01*
X63263870Y-132439761D01*
X63194815Y-132543109D01*
X63147249Y-132657944D01*
X63123000Y-132779852D01*
X63123000Y-132904148D01*
X63147249Y-133026056D01*
X63194815Y-133140891D01*
X63263870Y-133244239D01*
X63351761Y-133332130D01*
X63455109Y-133401185D01*
X63569944Y-133448751D01*
X63691852Y-133473000D01*
X63816148Y-133473000D01*
X63938056Y-133448751D01*
X64052891Y-133401185D01*
X64156239Y-133332130D01*
X64244130Y-133244239D01*
X64313185Y-133140891D01*
X64360751Y-133026056D01*
X64364000Y-133009720D01*
X64364000Y-134706280D01*
X64360751Y-134689944D01*
X64313185Y-134575109D01*
X64244130Y-134471761D01*
X64156239Y-134383870D01*
X64052891Y-134314815D01*
X63938056Y-134267249D01*
X63816148Y-134243000D01*
X63691852Y-134243000D01*
X63569944Y-134267249D01*
X63455109Y-134314815D01*
X63351761Y-134383870D01*
X63263870Y-134471761D01*
X63194815Y-134575109D01*
X63147249Y-134689944D01*
X63123000Y-134811852D01*
X63123000Y-134936148D01*
X63147249Y-135058056D01*
X63194815Y-135172891D01*
X63263870Y-135276239D01*
X63351761Y-135364130D01*
X63455109Y-135433185D01*
X63569944Y-135480751D01*
X63691852Y-135505000D01*
X63816148Y-135505000D01*
X63938056Y-135480751D01*
X64052891Y-135433185D01*
X64156239Y-135364130D01*
X64244130Y-135276239D01*
X64313185Y-135172891D01*
X64360751Y-135058056D01*
X64364000Y-135041720D01*
X64364000Y-136738280D01*
X64360751Y-136721944D01*
X64313185Y-136607109D01*
X64244130Y-136503761D01*
X64156239Y-136415870D01*
X64052891Y-136346815D01*
X63938056Y-136299249D01*
X63816148Y-136275000D01*
X63691852Y-136275000D01*
X63569944Y-136299249D01*
X63455109Y-136346815D01*
X63351761Y-136415870D01*
X63263870Y-136503761D01*
X63194815Y-136607109D01*
X63147249Y-136721944D01*
X63123000Y-136843852D01*
X63123000Y-136968148D01*
X63147249Y-137090056D01*
X63194815Y-137204891D01*
X63263870Y-137308239D01*
X63351761Y-137396130D01*
X63455109Y-137465185D01*
X63569944Y-137512751D01*
X63691852Y-137537000D01*
X63816148Y-137537000D01*
X63938056Y-137512751D01*
X64052891Y-137465185D01*
X64156239Y-137396130D01*
X64244130Y-137308239D01*
X64313185Y-137204891D01*
X64360751Y-137090056D01*
X64364000Y-137073720D01*
X64364001Y-138643281D01*
X64360751Y-138626944D01*
X64313185Y-138512109D01*
X64244130Y-138408761D01*
X64156239Y-138320870D01*
X64052891Y-138251815D01*
X63938056Y-138204249D01*
X63816148Y-138180000D01*
X63691852Y-138180000D01*
X63569944Y-138204249D01*
X63455109Y-138251815D01*
X63351761Y-138320870D01*
X63263870Y-138408761D01*
X63194815Y-138512109D01*
X63147249Y-138626944D01*
X63123000Y-138748852D01*
X63123000Y-138873148D01*
X63147249Y-138995056D01*
X63194815Y-139109891D01*
X63263870Y-139213239D01*
X63351761Y-139301130D01*
X63455109Y-139370185D01*
X63569944Y-139417751D01*
X63691852Y-139442000D01*
X63816148Y-139442000D01*
X63938056Y-139417751D01*
X64052891Y-139370185D01*
X64156239Y-139301130D01*
X64244130Y-139213239D01*
X64313185Y-139109891D01*
X64360751Y-138995056D01*
X64364001Y-138978719D01*
X64364001Y-140675281D01*
X64360751Y-140658944D01*
X64313185Y-140544109D01*
X64244130Y-140440761D01*
X64156239Y-140352870D01*
X64052891Y-140283815D01*
X63938056Y-140236249D01*
X63816148Y-140212000D01*
X63691852Y-140212000D01*
X63569944Y-140236249D01*
X63455109Y-140283815D01*
X63351761Y-140352870D01*
X63263870Y-140440761D01*
X63194815Y-140544109D01*
X63147249Y-140658944D01*
X63123000Y-140780852D01*
X63123000Y-140905148D01*
X63147249Y-141027056D01*
X63194815Y-141141891D01*
X63263870Y-141245239D01*
X63351761Y-141333130D01*
X63455109Y-141402185D01*
X63569944Y-141449751D01*
X63691852Y-141474000D01*
X63816148Y-141474000D01*
X63938056Y-141449751D01*
X64052891Y-141402185D01*
X64156239Y-141333130D01*
X64244130Y-141245239D01*
X64313185Y-141141891D01*
X64360751Y-141027056D01*
X64364001Y-141010719D01*
X64364001Y-142707281D01*
X64360751Y-142690944D01*
X64313185Y-142576109D01*
X64244130Y-142472761D01*
X64156239Y-142384870D01*
X64052891Y-142315815D01*
X63938056Y-142268249D01*
X63816148Y-142244000D01*
X63691852Y-142244000D01*
X63569944Y-142268249D01*
X63455109Y-142315815D01*
X63351761Y-142384870D01*
X63263870Y-142472761D01*
X63194815Y-142576109D01*
X63147249Y-142690944D01*
X63123000Y-142812852D01*
X63123000Y-142937148D01*
X63147249Y-143059056D01*
X63194815Y-143173891D01*
X63263870Y-143277239D01*
X63351761Y-143365130D01*
X63455109Y-143434185D01*
X63569944Y-143481751D01*
X63691852Y-143506000D01*
X63816148Y-143506000D01*
X63938056Y-143481751D01*
X64052891Y-143434185D01*
X64156239Y-143365130D01*
X64244130Y-143277239D01*
X64313185Y-143173891D01*
X64360751Y-143059056D01*
X64364001Y-143042719D01*
X64364001Y-144612282D01*
X64360751Y-144595944D01*
X64313185Y-144481109D01*
X64244130Y-144377761D01*
X64156239Y-144289870D01*
X64052891Y-144220815D01*
X63938056Y-144173249D01*
X63816148Y-144149000D01*
X63691852Y-144149000D01*
X63569944Y-144173249D01*
X63455109Y-144220815D01*
X63351761Y-144289870D01*
X63263870Y-144377761D01*
X63194815Y-144481109D01*
X63147249Y-144595944D01*
X63123000Y-144717852D01*
X63123000Y-144842148D01*
X63147249Y-144964056D01*
X63194815Y-145078891D01*
X63263870Y-145182239D01*
X63351761Y-145270130D01*
X63455109Y-145339185D01*
X63569944Y-145386751D01*
X63691852Y-145411000D01*
X63816148Y-145411000D01*
X63938056Y-145386751D01*
X64052891Y-145339185D01*
X64156239Y-145270130D01*
X64244130Y-145182239D01*
X64313185Y-145078891D01*
X64360751Y-144964056D01*
X64364001Y-144947718D01*
X64364001Y-152380136D01*
X64345636Y-152567441D01*
X64297008Y-152728503D01*
X64218023Y-152877051D01*
X64111689Y-153007430D01*
X63982054Y-153114674D01*
X63834058Y-153194695D01*
X63673339Y-153244446D01*
X63488698Y-153263852D01*
X56885207Y-153704085D01*
X57000747Y-153626884D01*
X57106884Y-153520747D01*
X57190276Y-153395942D01*
X57247717Y-153257267D01*
X57277000Y-153110050D01*
X57277000Y-152959950D01*
X57247717Y-152812733D01*
X57190276Y-152674058D01*
X57106884Y-152549253D01*
X57000747Y-152443116D01*
X56875942Y-152359724D01*
X56737267Y-152302283D01*
X56590050Y-152273000D01*
X56439950Y-152273000D01*
X56292733Y-152302283D01*
X56154058Y-152359724D01*
X56029253Y-152443116D01*
X55923116Y-152549253D01*
X55839724Y-152674058D01*
X55782283Y-152812733D01*
X55753000Y-152959950D01*
X55753000Y-153110050D01*
X55782283Y-153257267D01*
X55839724Y-153395942D01*
X55923116Y-153520747D01*
X56029253Y-153626884D01*
X56154058Y-153710276D01*
X56242547Y-153746929D01*
X44436487Y-154534000D01*
X36855280Y-154534000D01*
X27930836Y-153418445D01*
X27961239Y-153398130D01*
X28049130Y-153310239D01*
X28104847Y-153226852D01*
X32008000Y-153226852D01*
X32008000Y-153351148D01*
X32032249Y-153473056D01*
X32079815Y-153587891D01*
X32148870Y-153691239D01*
X32236761Y-153779130D01*
X32340109Y-153848185D01*
X32454944Y-153895751D01*
X32576852Y-153920000D01*
X32701148Y-153920000D01*
X32823056Y-153895751D01*
X32937891Y-153848185D01*
X33041239Y-153779130D01*
X33129130Y-153691239D01*
X33198185Y-153587891D01*
X33245751Y-153473056D01*
X33270000Y-153351148D01*
X33270000Y-153226852D01*
X33245751Y-153104944D01*
X33198185Y-152990109D01*
X33129130Y-152886761D01*
X33041239Y-152798870D01*
X32937891Y-152729815D01*
X32823056Y-152682249D01*
X32701148Y-152658000D01*
X32576852Y-152658000D01*
X32454944Y-152682249D01*
X32340109Y-152729815D01*
X32236761Y-152798870D01*
X32148870Y-152886761D01*
X32079815Y-152990109D01*
X32032249Y-153104944D01*
X32008000Y-153226852D01*
X28104847Y-153226852D01*
X28118185Y-153206891D01*
X28165751Y-153092056D01*
X28190000Y-152970148D01*
X28190000Y-152845852D01*
X28165751Y-152723944D01*
X28118185Y-152609109D01*
X28049130Y-152505761D01*
X27995319Y-152451950D01*
X38608000Y-152451950D01*
X38608000Y-152602050D01*
X38637283Y-152749267D01*
X38694724Y-152887942D01*
X38778116Y-153012747D01*
X38884253Y-153118884D01*
X39009058Y-153202276D01*
X39147733Y-153259717D01*
X39294950Y-153289000D01*
X39445050Y-153289000D01*
X39592267Y-153259717D01*
X39730942Y-153202276D01*
X39855747Y-153118884D01*
X39961884Y-153012747D01*
X39997161Y-152959950D01*
X40894000Y-152959950D01*
X40894000Y-153110050D01*
X40923283Y-153257267D01*
X40980724Y-153395942D01*
X41064116Y-153520747D01*
X41170253Y-153626884D01*
X41295058Y-153710276D01*
X41433733Y-153767717D01*
X41580950Y-153797000D01*
X41731050Y-153797000D01*
X41878267Y-153767717D01*
X42016942Y-153710276D01*
X42141747Y-153626884D01*
X42247884Y-153520747D01*
X42331276Y-153395942D01*
X42388717Y-153257267D01*
X42418000Y-153110050D01*
X42418000Y-152959950D01*
X44704000Y-152959950D01*
X44704000Y-153110050D01*
X44733283Y-153257267D01*
X44790724Y-153395942D01*
X44874116Y-153520747D01*
X44980253Y-153626884D01*
X45105058Y-153710276D01*
X45243733Y-153767717D01*
X45390950Y-153797000D01*
X45541050Y-153797000D01*
X45688267Y-153767717D01*
X45826942Y-153710276D01*
X45951747Y-153626884D01*
X46057884Y-153520747D01*
X46141276Y-153395942D01*
X46198717Y-153257267D01*
X46228000Y-153110050D01*
X46228000Y-152959950D01*
X48387000Y-152959950D01*
X48387000Y-153110050D01*
X48416283Y-153257267D01*
X48473724Y-153395942D01*
X48557116Y-153520747D01*
X48663253Y-153626884D01*
X48788058Y-153710276D01*
X48926733Y-153767717D01*
X49073950Y-153797000D01*
X49224050Y-153797000D01*
X49371267Y-153767717D01*
X49509942Y-153710276D01*
X49634747Y-153626884D01*
X49740884Y-153520747D01*
X49824276Y-153395942D01*
X49881717Y-153257267D01*
X49911000Y-153110050D01*
X49911000Y-152959950D01*
X52070000Y-152959950D01*
X52070000Y-153110050D01*
X52099283Y-153257267D01*
X52156724Y-153395942D01*
X52240116Y-153520747D01*
X52346253Y-153626884D01*
X52471058Y-153710276D01*
X52609733Y-153767717D01*
X52756950Y-153797000D01*
X52907050Y-153797000D01*
X53054267Y-153767717D01*
X53192942Y-153710276D01*
X53317747Y-153626884D01*
X53423884Y-153520747D01*
X53507276Y-153395942D01*
X53564717Y-153257267D01*
X53594000Y-153110050D01*
X53594000Y-152959950D01*
X53564717Y-152812733D01*
X53507276Y-152674058D01*
X53423884Y-152549253D01*
X53317747Y-152443116D01*
X53192942Y-152359724D01*
X53054267Y-152302283D01*
X52907050Y-152273000D01*
X52756950Y-152273000D01*
X52609733Y-152302283D01*
X52471058Y-152359724D01*
X52346253Y-152443116D01*
X52240116Y-152549253D01*
X52156724Y-152674058D01*
X52099283Y-152812733D01*
X52070000Y-152959950D01*
X49911000Y-152959950D01*
X49881717Y-152812733D01*
X49824276Y-152674058D01*
X49740884Y-152549253D01*
X49634747Y-152443116D01*
X49509942Y-152359724D01*
X49371267Y-152302283D01*
X49224050Y-152273000D01*
X49073950Y-152273000D01*
X48926733Y-152302283D01*
X48788058Y-152359724D01*
X48663253Y-152443116D01*
X48557116Y-152549253D01*
X48473724Y-152674058D01*
X48416283Y-152812733D01*
X48387000Y-152959950D01*
X46228000Y-152959950D01*
X46198717Y-152812733D01*
X46141276Y-152674058D01*
X46057884Y-152549253D01*
X45951747Y-152443116D01*
X45826942Y-152359724D01*
X45688267Y-152302283D01*
X45541050Y-152273000D01*
X45390950Y-152273000D01*
X45243733Y-152302283D01*
X45105058Y-152359724D01*
X44980253Y-152443116D01*
X44874116Y-152549253D01*
X44790724Y-152674058D01*
X44733283Y-152812733D01*
X44704000Y-152959950D01*
X42418000Y-152959950D01*
X42388717Y-152812733D01*
X42331276Y-152674058D01*
X42247884Y-152549253D01*
X42141747Y-152443116D01*
X42016942Y-152359724D01*
X41878267Y-152302283D01*
X41731050Y-152273000D01*
X41580950Y-152273000D01*
X41433733Y-152302283D01*
X41295058Y-152359724D01*
X41170253Y-152443116D01*
X41064116Y-152549253D01*
X40980724Y-152674058D01*
X40923283Y-152812733D01*
X40894000Y-152959950D01*
X39997161Y-152959950D01*
X40045276Y-152887942D01*
X40102717Y-152749267D01*
X40132000Y-152602050D01*
X40132000Y-152451950D01*
X40102717Y-152304733D01*
X40045276Y-152166058D01*
X40015428Y-152121386D01*
X62328759Y-152121386D01*
X62328759Y-152318614D01*
X62367236Y-152512051D01*
X62442711Y-152694266D01*
X62552285Y-152858254D01*
X62691746Y-152997715D01*
X62855734Y-153107289D01*
X63037949Y-153182764D01*
X63231386Y-153221241D01*
X63428614Y-153221241D01*
X63622051Y-153182764D01*
X63804266Y-153107289D01*
X63968254Y-152997715D01*
X64107715Y-152858254D01*
X64217289Y-152694266D01*
X64292764Y-152512051D01*
X64331241Y-152318614D01*
X64331241Y-152121386D01*
X64292764Y-151927949D01*
X64217289Y-151745734D01*
X64107715Y-151581746D01*
X63968254Y-151442285D01*
X63804266Y-151332711D01*
X63622051Y-151257236D01*
X63428614Y-151218759D01*
X63231386Y-151218759D01*
X63037949Y-151257236D01*
X62855734Y-151332711D01*
X62691746Y-151442285D01*
X62552285Y-151581746D01*
X62442711Y-151745734D01*
X62367236Y-151927949D01*
X62328759Y-152121386D01*
X40015428Y-152121386D01*
X39961884Y-152041253D01*
X39855747Y-151935116D01*
X39730942Y-151851724D01*
X39592267Y-151794283D01*
X39445050Y-151765000D01*
X39294950Y-151765000D01*
X39147733Y-151794283D01*
X39009058Y-151851724D01*
X38884253Y-151935116D01*
X38778116Y-152041253D01*
X38694724Y-152166058D01*
X38637283Y-152304733D01*
X38608000Y-152451950D01*
X27995319Y-152451950D01*
X27961239Y-152417870D01*
X27857891Y-152348815D01*
X27743056Y-152301249D01*
X27621148Y-152277000D01*
X27537410Y-152277000D01*
X27546300Y-152232308D01*
X27546300Y-152059692D01*
X27512624Y-151890393D01*
X27446567Y-151730916D01*
X27350667Y-151587391D01*
X27290489Y-151527213D01*
X27356185Y-151428891D01*
X27403751Y-151314056D01*
X27428000Y-151192148D01*
X27428000Y-151067852D01*
X27423195Y-151043692D01*
X30873700Y-151043692D01*
X30873700Y-151216308D01*
X30907376Y-151385607D01*
X30973433Y-151545084D01*
X31069333Y-151688609D01*
X31191391Y-151810667D01*
X31334916Y-151906567D01*
X31494393Y-151972624D01*
X31663692Y-152006300D01*
X31836308Y-152006300D01*
X32005607Y-151972624D01*
X32165084Y-151906567D01*
X32308609Y-151810667D01*
X32430667Y-151688609D01*
X32526567Y-151545084D01*
X32592624Y-151385607D01*
X32626300Y-151216308D01*
X32626300Y-151043692D01*
X32592624Y-150874393D01*
X32526567Y-150714916D01*
X32430667Y-150571391D01*
X32308609Y-150449333D01*
X32165084Y-150353433D01*
X32005607Y-150287376D01*
X31836308Y-150253700D01*
X31663692Y-150253700D01*
X31494393Y-150287376D01*
X31334916Y-150353433D01*
X31191391Y-150449333D01*
X31069333Y-150571391D01*
X30973433Y-150714916D01*
X30907376Y-150874393D01*
X30873700Y-151043692D01*
X27423195Y-151043692D01*
X27403751Y-150945944D01*
X27356185Y-150831109D01*
X27290489Y-150732787D01*
X27350667Y-150672609D01*
X27446567Y-150529084D01*
X27512624Y-150369607D01*
X27546300Y-150200308D01*
X27546300Y-150027692D01*
X27523278Y-149911950D01*
X32639000Y-149911950D01*
X32639000Y-150062050D01*
X32668283Y-150209267D01*
X32725724Y-150347942D01*
X32809116Y-150472747D01*
X32915253Y-150578884D01*
X33040058Y-150662276D01*
X33178733Y-150719717D01*
X33325950Y-150749000D01*
X33476050Y-150749000D01*
X33623267Y-150719717D01*
X33761942Y-150662276D01*
X33886747Y-150578884D01*
X33992884Y-150472747D01*
X34076276Y-150347942D01*
X34099054Y-150292950D01*
X35687000Y-150292950D01*
X35687000Y-150443050D01*
X35716283Y-150590267D01*
X35773724Y-150728942D01*
X35857116Y-150853747D01*
X35963253Y-150959884D01*
X36088058Y-151043276D01*
X36226733Y-151100717D01*
X36373950Y-151130000D01*
X36524050Y-151130000D01*
X36671267Y-151100717D01*
X36809942Y-151043276D01*
X36934747Y-150959884D01*
X37040884Y-150853747D01*
X37124276Y-150728942D01*
X37181717Y-150590267D01*
X37211000Y-150443050D01*
X37211000Y-150292950D01*
X37181717Y-150145733D01*
X37124276Y-150007058D01*
X37040884Y-149882253D01*
X36934747Y-149776116D01*
X36809942Y-149692724D01*
X36671267Y-149635283D01*
X36524050Y-149606000D01*
X36373950Y-149606000D01*
X36226733Y-149635283D01*
X36088058Y-149692724D01*
X35963253Y-149776116D01*
X35857116Y-149882253D01*
X35773724Y-150007058D01*
X35716283Y-150145733D01*
X35687000Y-150292950D01*
X34099054Y-150292950D01*
X34133717Y-150209267D01*
X34163000Y-150062050D01*
X34163000Y-149911950D01*
X34133717Y-149764733D01*
X34076276Y-149626058D01*
X33992884Y-149501253D01*
X33886747Y-149395116D01*
X33761942Y-149311724D01*
X33623267Y-149254283D01*
X33476050Y-149225000D01*
X33325950Y-149225000D01*
X33178733Y-149254283D01*
X33040058Y-149311724D01*
X32915253Y-149395116D01*
X32809116Y-149501253D01*
X32725724Y-149626058D01*
X32668283Y-149764733D01*
X32639000Y-149911950D01*
X27523278Y-149911950D01*
X27512624Y-149858393D01*
X27446567Y-149698916D01*
X27350667Y-149555391D01*
X27228609Y-149433333D01*
X27085084Y-149337433D01*
X26925607Y-149271376D01*
X26756308Y-149237700D01*
X26583692Y-149237700D01*
X26414393Y-149271376D01*
X26254916Y-149337433D01*
X26111391Y-149433333D01*
X25989333Y-149555391D01*
X25893433Y-149698916D01*
X25827376Y-149858393D01*
X25806000Y-149965856D01*
X25806000Y-148400852D01*
X26801000Y-148400852D01*
X26801000Y-148525148D01*
X26825249Y-148647056D01*
X26872815Y-148761891D01*
X26941870Y-148865239D01*
X27029761Y-148953130D01*
X27133109Y-149022185D01*
X27247944Y-149069751D01*
X27369852Y-149094000D01*
X27494148Y-149094000D01*
X27616056Y-149069751D01*
X27730891Y-149022185D01*
X27834239Y-148953130D01*
X27922130Y-148865239D01*
X27991185Y-148761891D01*
X28035521Y-148654852D01*
X29341000Y-148654852D01*
X29341000Y-148779148D01*
X29365249Y-148901056D01*
X29412815Y-149015891D01*
X29481870Y-149119239D01*
X29569761Y-149207130D01*
X29673109Y-149276185D01*
X29787944Y-149323751D01*
X29909852Y-149348000D01*
X30034148Y-149348000D01*
X30156056Y-149323751D01*
X30270891Y-149276185D01*
X30374239Y-149207130D01*
X30462130Y-149119239D01*
X30484000Y-149086508D01*
X30484000Y-149160148D01*
X30508249Y-149282056D01*
X30555815Y-149396891D01*
X30624870Y-149500239D01*
X30712761Y-149588130D01*
X30816109Y-149657185D01*
X30930944Y-149704751D01*
X31052852Y-149729000D01*
X31177148Y-149729000D01*
X31299056Y-149704751D01*
X31413891Y-149657185D01*
X31517239Y-149588130D01*
X31605130Y-149500239D01*
X31674185Y-149396891D01*
X31721751Y-149282056D01*
X31746000Y-149160148D01*
X31746000Y-149035852D01*
X31743434Y-149022950D01*
X40767000Y-149022950D01*
X40767000Y-149173050D01*
X40796283Y-149320267D01*
X40853724Y-149458942D01*
X40937116Y-149583747D01*
X41043253Y-149689884D01*
X41168058Y-149773276D01*
X41306733Y-149830717D01*
X41453950Y-149860000D01*
X41604050Y-149860000D01*
X41751267Y-149830717D01*
X41889942Y-149773276D01*
X42014747Y-149689884D01*
X42120884Y-149583747D01*
X42204276Y-149458942D01*
X42261717Y-149320267D01*
X42291000Y-149173050D01*
X42291000Y-149022950D01*
X44704000Y-149022950D01*
X44704000Y-149173050D01*
X44733283Y-149320267D01*
X44790724Y-149458942D01*
X44874116Y-149583747D01*
X44980253Y-149689884D01*
X45105058Y-149773276D01*
X45243733Y-149830717D01*
X45390950Y-149860000D01*
X45541050Y-149860000D01*
X45688267Y-149830717D01*
X45826942Y-149773276D01*
X45951747Y-149689884D01*
X46057884Y-149583747D01*
X46141276Y-149458942D01*
X46198717Y-149320267D01*
X46228000Y-149173050D01*
X46228000Y-149022950D01*
X48387000Y-149022950D01*
X48387000Y-149173050D01*
X48416283Y-149320267D01*
X48473724Y-149458942D01*
X48557116Y-149583747D01*
X48663253Y-149689884D01*
X48788058Y-149773276D01*
X48926733Y-149830717D01*
X49073950Y-149860000D01*
X49224050Y-149860000D01*
X49371267Y-149830717D01*
X49509942Y-149773276D01*
X49634747Y-149689884D01*
X49740884Y-149583747D01*
X49824276Y-149458942D01*
X49881717Y-149320267D01*
X49911000Y-149173050D01*
X49911000Y-149022950D01*
X52070000Y-149022950D01*
X52070000Y-149173050D01*
X52099283Y-149320267D01*
X52156724Y-149458942D01*
X52240116Y-149583747D01*
X52346253Y-149689884D01*
X52471058Y-149773276D01*
X52609733Y-149830717D01*
X52756950Y-149860000D01*
X52907050Y-149860000D01*
X53054267Y-149830717D01*
X53192942Y-149773276D01*
X53317747Y-149689884D01*
X53423884Y-149583747D01*
X53507276Y-149458942D01*
X53564717Y-149320267D01*
X53594000Y-149173050D01*
X53594000Y-149022950D01*
X55753000Y-149022950D01*
X55753000Y-149173050D01*
X55782283Y-149320267D01*
X55839724Y-149458942D01*
X55923116Y-149583747D01*
X56029253Y-149689884D01*
X56154058Y-149773276D01*
X56292733Y-149830717D01*
X56439950Y-149860000D01*
X56590050Y-149860000D01*
X56737267Y-149830717D01*
X56875942Y-149773276D01*
X57000747Y-149689884D01*
X57106884Y-149583747D01*
X57190276Y-149458942D01*
X57247717Y-149320267D01*
X57277000Y-149173050D01*
X57277000Y-149022950D01*
X57247717Y-148875733D01*
X57190276Y-148737058D01*
X57106884Y-148612253D01*
X57000747Y-148506116D01*
X56875942Y-148422724D01*
X56737267Y-148365283D01*
X56590050Y-148336000D01*
X56439950Y-148336000D01*
X56292733Y-148365283D01*
X56154058Y-148422724D01*
X56029253Y-148506116D01*
X55923116Y-148612253D01*
X55839724Y-148737058D01*
X55782283Y-148875733D01*
X55753000Y-149022950D01*
X53594000Y-149022950D01*
X53564717Y-148875733D01*
X53507276Y-148737058D01*
X53423884Y-148612253D01*
X53317747Y-148506116D01*
X53192942Y-148422724D01*
X53054267Y-148365283D01*
X52907050Y-148336000D01*
X52756950Y-148336000D01*
X52609733Y-148365283D01*
X52471058Y-148422724D01*
X52346253Y-148506116D01*
X52240116Y-148612253D01*
X52156724Y-148737058D01*
X52099283Y-148875733D01*
X52070000Y-149022950D01*
X49911000Y-149022950D01*
X49881717Y-148875733D01*
X49824276Y-148737058D01*
X49740884Y-148612253D01*
X49634747Y-148506116D01*
X49509942Y-148422724D01*
X49371267Y-148365283D01*
X49224050Y-148336000D01*
X49073950Y-148336000D01*
X48926733Y-148365283D01*
X48788058Y-148422724D01*
X48663253Y-148506116D01*
X48557116Y-148612253D01*
X48473724Y-148737058D01*
X48416283Y-148875733D01*
X48387000Y-149022950D01*
X46228000Y-149022950D01*
X46198717Y-148875733D01*
X46141276Y-148737058D01*
X46057884Y-148612253D01*
X45951747Y-148506116D01*
X45826942Y-148422724D01*
X45688267Y-148365283D01*
X45541050Y-148336000D01*
X45390950Y-148336000D01*
X45243733Y-148365283D01*
X45105058Y-148422724D01*
X44980253Y-148506116D01*
X44874116Y-148612253D01*
X44790724Y-148737058D01*
X44733283Y-148875733D01*
X44704000Y-149022950D01*
X42291000Y-149022950D01*
X42261717Y-148875733D01*
X42204276Y-148737058D01*
X42120884Y-148612253D01*
X42014747Y-148506116D01*
X41889942Y-148422724D01*
X41751267Y-148365283D01*
X41604050Y-148336000D01*
X41453950Y-148336000D01*
X41306733Y-148365283D01*
X41168058Y-148422724D01*
X41043253Y-148506116D01*
X40937116Y-148612253D01*
X40853724Y-148737058D01*
X40796283Y-148875733D01*
X40767000Y-149022950D01*
X31743434Y-149022950D01*
X31721751Y-148913944D01*
X31674185Y-148799109D01*
X31605130Y-148695761D01*
X31517239Y-148607870D01*
X31413891Y-148538815D01*
X31299056Y-148491249D01*
X31177148Y-148467000D01*
X31052852Y-148467000D01*
X30930944Y-148491249D01*
X30816109Y-148538815D01*
X30712761Y-148607870D01*
X30624870Y-148695761D01*
X30603000Y-148728492D01*
X30603000Y-148654852D01*
X30578751Y-148532944D01*
X30531185Y-148418109D01*
X30462130Y-148314761D01*
X30374239Y-148226870D01*
X30270891Y-148157815D01*
X30156056Y-148110249D01*
X30034148Y-148086000D01*
X29909852Y-148086000D01*
X29787944Y-148110249D01*
X29673109Y-148157815D01*
X29569761Y-148226870D01*
X29481870Y-148314761D01*
X29412815Y-148418109D01*
X29365249Y-148532944D01*
X29341000Y-148654852D01*
X28035521Y-148654852D01*
X28038751Y-148647056D01*
X28063000Y-148525148D01*
X28063000Y-148400852D01*
X28038751Y-148278944D01*
X27991185Y-148164109D01*
X27922130Y-148060761D01*
X27834239Y-147972870D01*
X27730891Y-147903815D01*
X27616056Y-147856249D01*
X27494148Y-147832000D01*
X27369852Y-147832000D01*
X27247944Y-147856249D01*
X27133109Y-147903815D01*
X27029761Y-147972870D01*
X26941870Y-148060761D01*
X26872815Y-148164109D01*
X26825249Y-148278944D01*
X26801000Y-148400852D01*
X25806000Y-148400852D01*
X25806000Y-145593950D01*
X35687000Y-145593950D01*
X35687000Y-145744050D01*
X35716283Y-145891267D01*
X35773724Y-146029942D01*
X35857116Y-146154747D01*
X35963253Y-146260884D01*
X36088058Y-146344276D01*
X36226733Y-146401717D01*
X36373950Y-146431000D01*
X36524050Y-146431000D01*
X36671267Y-146401717D01*
X36809942Y-146344276D01*
X36934747Y-146260884D01*
X37040884Y-146154747D01*
X37124276Y-146029942D01*
X37181717Y-145891267D01*
X37211000Y-145744050D01*
X37211000Y-145593950D01*
X37181717Y-145446733D01*
X37124276Y-145308058D01*
X37040884Y-145183253D01*
X36943581Y-145085950D01*
X40767000Y-145085950D01*
X40767000Y-145236050D01*
X40796283Y-145383267D01*
X40853724Y-145521942D01*
X40937116Y-145646747D01*
X41043253Y-145752884D01*
X41168058Y-145836276D01*
X41306733Y-145893717D01*
X41453950Y-145923000D01*
X41604050Y-145923000D01*
X41751267Y-145893717D01*
X41889942Y-145836276D01*
X42014747Y-145752884D01*
X42120884Y-145646747D01*
X42204276Y-145521942D01*
X42261717Y-145383267D01*
X42291000Y-145236050D01*
X42291000Y-145085950D01*
X42261717Y-144938733D01*
X42204276Y-144800058D01*
X42120884Y-144675253D01*
X42014747Y-144569116D01*
X41889942Y-144485724D01*
X41751267Y-144428283D01*
X41604050Y-144399000D01*
X41453950Y-144399000D01*
X41306733Y-144428283D01*
X41168058Y-144485724D01*
X41043253Y-144569116D01*
X40937116Y-144675253D01*
X40853724Y-144800058D01*
X40796283Y-144938733D01*
X40767000Y-145085950D01*
X36943581Y-145085950D01*
X36934747Y-145077116D01*
X36809942Y-144993724D01*
X36671267Y-144936283D01*
X36524050Y-144907000D01*
X36373950Y-144907000D01*
X36226733Y-144936283D01*
X36088058Y-144993724D01*
X35963253Y-145077116D01*
X35857116Y-145183253D01*
X35773724Y-145308058D01*
X35716283Y-145446733D01*
X35687000Y-145593950D01*
X25806000Y-145593950D01*
X25806000Y-143180950D01*
X26670000Y-143180950D01*
X26670000Y-143331050D01*
X26699283Y-143478267D01*
X26756724Y-143616942D01*
X26840116Y-143741747D01*
X26946253Y-143847884D01*
X27071058Y-143931276D01*
X27209733Y-143988717D01*
X27356950Y-144018000D01*
X27507050Y-144018000D01*
X27654267Y-143988717D01*
X27792942Y-143931276D01*
X27917747Y-143847884D01*
X28023884Y-143741747D01*
X28107276Y-143616942D01*
X28164717Y-143478267D01*
X28173333Y-143434950D01*
X31877000Y-143434950D01*
X31877000Y-143585050D01*
X31906283Y-143732267D01*
X31963724Y-143870942D01*
X32047116Y-143995747D01*
X32153253Y-144101884D01*
X32278058Y-144185276D01*
X32416733Y-144242717D01*
X32563950Y-144272000D01*
X32714050Y-144272000D01*
X32861267Y-144242717D01*
X32999942Y-144185276D01*
X33124747Y-144101884D01*
X33143779Y-144082852D01*
X34929000Y-144082852D01*
X34929000Y-144207148D01*
X34953249Y-144329056D01*
X35000815Y-144443891D01*
X35069870Y-144547239D01*
X35157761Y-144635130D01*
X35261109Y-144704185D01*
X35375944Y-144751751D01*
X35497852Y-144776000D01*
X35622148Y-144776000D01*
X35744056Y-144751751D01*
X35858891Y-144704185D01*
X35962239Y-144635130D01*
X36050130Y-144547239D01*
X36119185Y-144443891D01*
X36166751Y-144329056D01*
X36191000Y-144207148D01*
X36191000Y-144082852D01*
X36166751Y-143960944D01*
X36119185Y-143846109D01*
X36050130Y-143742761D01*
X35962239Y-143654870D01*
X35858891Y-143585815D01*
X35744056Y-143538249D01*
X35622148Y-143514000D01*
X35497852Y-143514000D01*
X35375944Y-143538249D01*
X35261109Y-143585815D01*
X35157761Y-143654870D01*
X35069870Y-143742761D01*
X35000815Y-143846109D01*
X34953249Y-143960944D01*
X34929000Y-144082852D01*
X33143779Y-144082852D01*
X33230884Y-143995747D01*
X33314276Y-143870942D01*
X33371717Y-143732267D01*
X33401000Y-143585050D01*
X33401000Y-143434950D01*
X33371717Y-143287733D01*
X33332831Y-143193852D01*
X37850000Y-143193852D01*
X37850000Y-143318148D01*
X37874249Y-143440056D01*
X37921815Y-143554891D01*
X37990870Y-143658239D01*
X38078761Y-143746130D01*
X38182109Y-143815185D01*
X38296944Y-143862751D01*
X38418852Y-143887000D01*
X38543148Y-143887000D01*
X38665056Y-143862751D01*
X38779891Y-143815185D01*
X38883239Y-143746130D01*
X38940419Y-143688950D01*
X44831000Y-143688950D01*
X44831000Y-143839050D01*
X44860283Y-143986267D01*
X44917724Y-144124942D01*
X45001116Y-144249747D01*
X45107253Y-144355884D01*
X45232058Y-144439276D01*
X45370733Y-144496717D01*
X45517950Y-144526000D01*
X45668050Y-144526000D01*
X45815267Y-144496717D01*
X45953942Y-144439276D01*
X46078747Y-144355884D01*
X46184884Y-144249747D01*
X46268276Y-144124942D01*
X46325717Y-143986267D01*
X46355000Y-143839050D01*
X46355000Y-143688950D01*
X50038000Y-143688950D01*
X50038000Y-143839050D01*
X50067283Y-143986267D01*
X50124724Y-144124942D01*
X50208116Y-144249747D01*
X50314253Y-144355884D01*
X50439058Y-144439276D01*
X50577733Y-144496717D01*
X50724950Y-144526000D01*
X50875050Y-144526000D01*
X51022267Y-144496717D01*
X51160942Y-144439276D01*
X51285747Y-144355884D01*
X51391884Y-144249747D01*
X51475276Y-144124942D01*
X51532717Y-143986267D01*
X51562000Y-143839050D01*
X51562000Y-143688950D01*
X53848000Y-143688950D01*
X53848000Y-143839050D01*
X53877283Y-143986267D01*
X53934724Y-144124942D01*
X54018116Y-144249747D01*
X54124253Y-144355884D01*
X54249058Y-144439276D01*
X54387733Y-144496717D01*
X54534950Y-144526000D01*
X54685050Y-144526000D01*
X54832267Y-144496717D01*
X54970942Y-144439276D01*
X55095747Y-144355884D01*
X55201884Y-144249747D01*
X55285276Y-144124942D01*
X55342717Y-143986267D01*
X55372000Y-143839050D01*
X55372000Y-143688950D01*
X55342717Y-143541733D01*
X55285276Y-143403058D01*
X55201884Y-143278253D01*
X55095747Y-143172116D01*
X54970942Y-143088724D01*
X54832267Y-143031283D01*
X54685050Y-143002000D01*
X54534950Y-143002000D01*
X54387733Y-143031283D01*
X54249058Y-143088724D01*
X54124253Y-143172116D01*
X54018116Y-143278253D01*
X53934724Y-143403058D01*
X53877283Y-143541733D01*
X53848000Y-143688950D01*
X51562000Y-143688950D01*
X51532717Y-143541733D01*
X51475276Y-143403058D01*
X51391884Y-143278253D01*
X51285747Y-143172116D01*
X51160942Y-143088724D01*
X51022267Y-143031283D01*
X50875050Y-143002000D01*
X50724950Y-143002000D01*
X50577733Y-143031283D01*
X50439058Y-143088724D01*
X50314253Y-143172116D01*
X50208116Y-143278253D01*
X50124724Y-143403058D01*
X50067283Y-143541733D01*
X50038000Y-143688950D01*
X46355000Y-143688950D01*
X46325717Y-143541733D01*
X46268276Y-143403058D01*
X46184884Y-143278253D01*
X46078747Y-143172116D01*
X45953942Y-143088724D01*
X45815267Y-143031283D01*
X45668050Y-143002000D01*
X45517950Y-143002000D01*
X45370733Y-143031283D01*
X45232058Y-143088724D01*
X45107253Y-143172116D01*
X45001116Y-143278253D01*
X44917724Y-143403058D01*
X44860283Y-143541733D01*
X44831000Y-143688950D01*
X38940419Y-143688950D01*
X38971130Y-143658239D01*
X39040185Y-143554891D01*
X39087751Y-143440056D01*
X39112000Y-143318148D01*
X39112000Y-143193852D01*
X39087751Y-143071944D01*
X39040185Y-142957109D01*
X38971130Y-142853761D01*
X38883239Y-142765870D01*
X38779891Y-142696815D01*
X38665056Y-142649249D01*
X38543148Y-142625000D01*
X38418852Y-142625000D01*
X38296944Y-142649249D01*
X38182109Y-142696815D01*
X38078761Y-142765870D01*
X37990870Y-142853761D01*
X37921815Y-142957109D01*
X37874249Y-143071944D01*
X37850000Y-143193852D01*
X33332831Y-143193852D01*
X33314276Y-143149058D01*
X33230884Y-143024253D01*
X33124747Y-142918116D01*
X32999942Y-142834724D01*
X32861267Y-142777283D01*
X32714050Y-142748000D01*
X32563950Y-142748000D01*
X32416733Y-142777283D01*
X32278058Y-142834724D01*
X32153253Y-142918116D01*
X32047116Y-143024253D01*
X31963724Y-143149058D01*
X31906283Y-143287733D01*
X31877000Y-143434950D01*
X28173333Y-143434950D01*
X28194000Y-143331050D01*
X28194000Y-143180950D01*
X28164717Y-143033733D01*
X28107276Y-142895058D01*
X28023884Y-142770253D01*
X27917747Y-142664116D01*
X27792942Y-142580724D01*
X27654267Y-142523283D01*
X27507050Y-142494000D01*
X27356950Y-142494000D01*
X27209733Y-142523283D01*
X27071058Y-142580724D01*
X26946253Y-142664116D01*
X26840116Y-142770253D01*
X26756724Y-142895058D01*
X26699283Y-143033733D01*
X26670000Y-143180950D01*
X25806000Y-143180950D01*
X25806000Y-142177852D01*
X55249000Y-142177852D01*
X55249000Y-142302148D01*
X55273249Y-142424056D01*
X55320815Y-142538891D01*
X55389870Y-142642239D01*
X55477761Y-142730130D01*
X55581109Y-142799185D01*
X55695944Y-142846751D01*
X55817852Y-142871000D01*
X55942148Y-142871000D01*
X56064056Y-142846751D01*
X56178891Y-142799185D01*
X56282239Y-142730130D01*
X56370130Y-142642239D01*
X56439185Y-142538891D01*
X56486751Y-142424056D01*
X56511000Y-142302148D01*
X56511000Y-142177852D01*
X56486751Y-142055944D01*
X56439185Y-141941109D01*
X56370130Y-141837761D01*
X56282239Y-141749870D01*
X56178891Y-141680815D01*
X56064056Y-141633249D01*
X55942148Y-141609000D01*
X55817852Y-141609000D01*
X55695944Y-141633249D01*
X55581109Y-141680815D01*
X55477761Y-141749870D01*
X55389870Y-141837761D01*
X55320815Y-141941109D01*
X55273249Y-142055944D01*
X55249000Y-142177852D01*
X25806000Y-142177852D01*
X25806000Y-140399852D01*
X41914000Y-140399852D01*
X41914000Y-140524148D01*
X41938249Y-140646056D01*
X41985815Y-140760891D01*
X42054870Y-140864239D01*
X42142761Y-140952130D01*
X42246109Y-141021185D01*
X42360944Y-141068751D01*
X42482852Y-141093000D01*
X42607148Y-141093000D01*
X42729056Y-141068751D01*
X42843891Y-141021185D01*
X42947239Y-140952130D01*
X42991517Y-140907852D01*
X54106000Y-140907852D01*
X54106000Y-141032148D01*
X54130249Y-141154056D01*
X54177815Y-141268891D01*
X54246870Y-141372239D01*
X54334761Y-141460130D01*
X54438109Y-141529185D01*
X54552944Y-141576751D01*
X54674852Y-141601000D01*
X54799148Y-141601000D01*
X54921056Y-141576751D01*
X55035891Y-141529185D01*
X55139239Y-141460130D01*
X55227130Y-141372239D01*
X55296185Y-141268891D01*
X55343751Y-141154056D01*
X55368000Y-141032148D01*
X55368000Y-140907852D01*
X55343751Y-140785944D01*
X55341642Y-140780852D01*
X58678000Y-140780852D01*
X58678000Y-140905148D01*
X58702249Y-141027056D01*
X58749815Y-141141891D01*
X58818870Y-141245239D01*
X58906761Y-141333130D01*
X58932242Y-141350156D01*
X58876815Y-141433109D01*
X58829249Y-141547944D01*
X58805000Y-141669852D01*
X58805000Y-141794148D01*
X58829249Y-141916056D01*
X58876815Y-142030891D01*
X58945870Y-142134239D01*
X59033761Y-142222130D01*
X59137109Y-142291185D01*
X59251944Y-142338751D01*
X59373852Y-142363000D01*
X59498148Y-142363000D01*
X59620056Y-142338751D01*
X59734891Y-142291185D01*
X59838239Y-142222130D01*
X59926130Y-142134239D01*
X59995185Y-142030891D01*
X60042751Y-141916056D01*
X60067000Y-141794148D01*
X60067000Y-141669852D01*
X60042751Y-141547944D01*
X59995185Y-141433109D01*
X59926130Y-141329761D01*
X59838239Y-141241870D01*
X59812758Y-141224844D01*
X59868185Y-141141891D01*
X59915751Y-141027056D01*
X59940000Y-140905148D01*
X59940000Y-140780852D01*
X59915751Y-140658944D01*
X59868185Y-140544109D01*
X59799130Y-140440761D01*
X59711239Y-140352870D01*
X59607891Y-140283815D01*
X59493056Y-140236249D01*
X59371148Y-140212000D01*
X59246852Y-140212000D01*
X59124944Y-140236249D01*
X59010109Y-140283815D01*
X58906761Y-140352870D01*
X58818870Y-140440761D01*
X58749815Y-140544109D01*
X58702249Y-140658944D01*
X58678000Y-140780852D01*
X55341642Y-140780852D01*
X55296185Y-140671109D01*
X55295013Y-140669356D01*
X55354130Y-140610239D01*
X55423185Y-140506891D01*
X55470751Y-140392056D01*
X55495000Y-140270148D01*
X55495000Y-140145852D01*
X55470751Y-140023944D01*
X55423185Y-139909109D01*
X55368321Y-139827000D01*
X55423185Y-139744891D01*
X55470751Y-139630056D01*
X55494462Y-139510852D01*
X58678000Y-139510852D01*
X58678000Y-139635148D01*
X58702249Y-139757056D01*
X58749815Y-139871891D01*
X58818870Y-139975239D01*
X58906761Y-140063130D01*
X59010109Y-140132185D01*
X59124944Y-140179751D01*
X59246852Y-140204000D01*
X59371148Y-140204000D01*
X59493056Y-140179751D01*
X59607891Y-140132185D01*
X59711239Y-140063130D01*
X59799130Y-139975239D01*
X59868185Y-139871891D01*
X59915751Y-139757056D01*
X59940000Y-139635148D01*
X59940000Y-139510852D01*
X59915751Y-139388944D01*
X59868185Y-139274109D01*
X59799130Y-139170761D01*
X59711239Y-139082870D01*
X59607891Y-139013815D01*
X59493056Y-138966249D01*
X59371148Y-138942000D01*
X59246852Y-138942000D01*
X59124944Y-138966249D01*
X59010109Y-139013815D01*
X58906761Y-139082870D01*
X58818870Y-139170761D01*
X58749815Y-139274109D01*
X58702249Y-139388944D01*
X58678000Y-139510852D01*
X55494462Y-139510852D01*
X55495000Y-139508148D01*
X55495000Y-139383852D01*
X55470751Y-139261944D01*
X55423185Y-139147109D01*
X55354130Y-139043761D01*
X55266239Y-138955870D01*
X55162891Y-138886815D01*
X55048056Y-138839249D01*
X54926148Y-138815000D01*
X54801852Y-138815000D01*
X54679944Y-138839249D01*
X54565109Y-138886815D01*
X54461761Y-138955870D01*
X54373870Y-139043761D01*
X54304815Y-139147109D01*
X54257249Y-139261944D01*
X54233000Y-139383852D01*
X54233000Y-139508148D01*
X54257249Y-139630056D01*
X54304815Y-139744891D01*
X54359679Y-139827000D01*
X54304815Y-139909109D01*
X54257249Y-140023944D01*
X54233000Y-140145852D01*
X54233000Y-140270148D01*
X54257249Y-140392056D01*
X54304815Y-140506891D01*
X54305987Y-140508644D01*
X54246870Y-140567761D01*
X54177815Y-140671109D01*
X54130249Y-140785944D01*
X54106000Y-140907852D01*
X42991517Y-140907852D01*
X43035130Y-140864239D01*
X43104185Y-140760891D01*
X43151751Y-140646056D01*
X43176000Y-140524148D01*
X43176000Y-140399852D01*
X43151751Y-140277944D01*
X43104185Y-140163109D01*
X43092655Y-140145852D01*
X45089000Y-140145852D01*
X45089000Y-140270148D01*
X45113249Y-140392056D01*
X45160815Y-140506891D01*
X45229870Y-140610239D01*
X45317761Y-140698130D01*
X45421109Y-140767185D01*
X45535944Y-140814751D01*
X45657852Y-140839000D01*
X45782148Y-140839000D01*
X45904056Y-140814751D01*
X46018891Y-140767185D01*
X46122239Y-140698130D01*
X46210130Y-140610239D01*
X46279185Y-140506891D01*
X46326751Y-140392056D01*
X46351000Y-140270148D01*
X46351000Y-140145852D01*
X46326751Y-140023944D01*
X46279185Y-139909109D01*
X46259034Y-139878950D01*
X49911000Y-139878950D01*
X49911000Y-140029050D01*
X49940283Y-140176267D01*
X49997724Y-140314942D01*
X50081116Y-140439747D01*
X50187253Y-140545884D01*
X50312058Y-140629276D01*
X50450733Y-140686717D01*
X50597950Y-140716000D01*
X50748050Y-140716000D01*
X50895267Y-140686717D01*
X51033942Y-140629276D01*
X51158747Y-140545884D01*
X51264884Y-140439747D01*
X51348276Y-140314942D01*
X51405717Y-140176267D01*
X51435000Y-140029050D01*
X51435000Y-139878950D01*
X51405717Y-139731733D01*
X51348276Y-139593058D01*
X51264884Y-139468253D01*
X51158747Y-139362116D01*
X51033942Y-139278724D01*
X50895267Y-139221283D01*
X50748050Y-139192000D01*
X50597950Y-139192000D01*
X50450733Y-139221283D01*
X50312058Y-139278724D01*
X50187253Y-139362116D01*
X50081116Y-139468253D01*
X49997724Y-139593058D01*
X49940283Y-139731733D01*
X49911000Y-139878950D01*
X46259034Y-139878950D01*
X46210130Y-139805761D01*
X46122239Y-139717870D01*
X46018891Y-139648815D01*
X45904056Y-139601249D01*
X45782148Y-139577000D01*
X45657852Y-139577000D01*
X45535944Y-139601249D01*
X45421109Y-139648815D01*
X45317761Y-139717870D01*
X45229870Y-139805761D01*
X45160815Y-139909109D01*
X45113249Y-140023944D01*
X45089000Y-140145852D01*
X43092655Y-140145852D01*
X43035130Y-140059761D01*
X42947239Y-139971870D01*
X42843891Y-139902815D01*
X42729056Y-139855249D01*
X42607148Y-139831000D01*
X42482852Y-139831000D01*
X42360944Y-139855249D01*
X42246109Y-139902815D01*
X42142761Y-139971870D01*
X42054870Y-140059761D01*
X41985815Y-140163109D01*
X41938249Y-140277944D01*
X41914000Y-140399852D01*
X25806000Y-140399852D01*
X25806000Y-139315394D01*
X40481875Y-139315394D01*
X40481875Y-139439690D01*
X40506124Y-139561598D01*
X40553690Y-139676433D01*
X40622745Y-139779781D01*
X40710636Y-139867672D01*
X40813984Y-139936727D01*
X40928819Y-139984293D01*
X41050727Y-140008542D01*
X41175023Y-140008542D01*
X41296931Y-139984293D01*
X41411766Y-139936727D01*
X41515114Y-139867672D01*
X41603005Y-139779781D01*
X41672060Y-139676433D01*
X41719626Y-139561598D01*
X41743875Y-139439690D01*
X41743875Y-139418187D01*
X41751267Y-139416717D01*
X41889942Y-139359276D01*
X42014747Y-139275884D01*
X42120884Y-139169747D01*
X42204276Y-139044942D01*
X42261717Y-138906267D01*
X42291000Y-138759050D01*
X42291000Y-138608950D01*
X42261717Y-138461733D01*
X42204276Y-138323058D01*
X42120884Y-138198253D01*
X42014747Y-138092116D01*
X41889942Y-138008724D01*
X41751267Y-137951283D01*
X41604050Y-137922000D01*
X41453950Y-137922000D01*
X41306733Y-137951283D01*
X41168058Y-138008724D01*
X41043253Y-138092116D01*
X40937116Y-138198253D01*
X40853724Y-138323058D01*
X40796283Y-138461733D01*
X40767000Y-138608950D01*
X40767000Y-138759050D01*
X40782925Y-138839110D01*
X40710636Y-138887412D01*
X40622745Y-138975303D01*
X40553690Y-139078651D01*
X40506124Y-139193486D01*
X40481875Y-139315394D01*
X25806000Y-139315394D01*
X25806000Y-138621852D01*
X30103000Y-138621852D01*
X30103000Y-138746148D01*
X30127249Y-138868056D01*
X30174815Y-138982891D01*
X30243870Y-139086239D01*
X30331761Y-139174130D01*
X30435109Y-139243185D01*
X30549944Y-139290751D01*
X30671852Y-139315000D01*
X30796148Y-139315000D01*
X30918056Y-139290751D01*
X31032891Y-139243185D01*
X31136239Y-139174130D01*
X31224130Y-139086239D01*
X31293185Y-138982891D01*
X31340751Y-138868056D01*
X31365000Y-138746148D01*
X31365000Y-138621852D01*
X31881000Y-138621852D01*
X31881000Y-138746148D01*
X31905249Y-138868056D01*
X31952815Y-138982891D01*
X32021870Y-139086239D01*
X32109761Y-139174130D01*
X32213109Y-139243185D01*
X32327944Y-139290751D01*
X32449852Y-139315000D01*
X32574148Y-139315000D01*
X32696056Y-139290751D01*
X32810891Y-139243185D01*
X32914239Y-139174130D01*
X33002130Y-139086239D01*
X33071185Y-138982891D01*
X33118751Y-138868056D01*
X33143000Y-138746148D01*
X33143000Y-138621852D01*
X33118751Y-138499944D01*
X33071185Y-138385109D01*
X33002130Y-138281761D01*
X32914239Y-138193870D01*
X32810891Y-138124815D01*
X32696056Y-138077249D01*
X32574148Y-138053000D01*
X32449852Y-138053000D01*
X32327944Y-138077249D01*
X32213109Y-138124815D01*
X32109761Y-138193870D01*
X32021870Y-138281761D01*
X31952815Y-138385109D01*
X31905249Y-138499944D01*
X31881000Y-138621852D01*
X31365000Y-138621852D01*
X31340751Y-138499944D01*
X31293185Y-138385109D01*
X31224130Y-138281761D01*
X31136239Y-138193870D01*
X31032891Y-138124815D01*
X30918056Y-138077249D01*
X30796148Y-138053000D01*
X30671852Y-138053000D01*
X30549944Y-138077249D01*
X30435109Y-138124815D01*
X30331761Y-138193870D01*
X30243870Y-138281761D01*
X30174815Y-138385109D01*
X30127249Y-138499944D01*
X30103000Y-138621852D01*
X25806000Y-138621852D01*
X25806000Y-136957950D01*
X32258000Y-136957950D01*
X32258000Y-137108050D01*
X32287283Y-137255267D01*
X32344724Y-137393942D01*
X32428116Y-137518747D01*
X32534253Y-137624884D01*
X32659058Y-137708276D01*
X32797733Y-137765717D01*
X32944950Y-137795000D01*
X33095050Y-137795000D01*
X33242267Y-137765717D01*
X33380942Y-137708276D01*
X33505747Y-137624884D01*
X33611884Y-137518747D01*
X33695276Y-137393942D01*
X33752717Y-137255267D01*
X33782000Y-137108050D01*
X33782000Y-136957950D01*
X33752717Y-136810733D01*
X33708487Y-136703950D01*
X44831000Y-136703950D01*
X44831000Y-136854050D01*
X44860283Y-137001267D01*
X44917724Y-137139942D01*
X45001116Y-137264747D01*
X45107253Y-137370884D01*
X45232058Y-137454276D01*
X45370733Y-137511717D01*
X45517950Y-137541000D01*
X45668050Y-137541000D01*
X45815267Y-137511717D01*
X45953942Y-137454276D01*
X46078747Y-137370884D01*
X46184884Y-137264747D01*
X46268276Y-137139942D01*
X46325717Y-137001267D01*
X46333082Y-136964237D01*
X53430540Y-136964237D01*
X53430540Y-137088533D01*
X53454789Y-137210441D01*
X53502355Y-137325276D01*
X53571410Y-137428624D01*
X53659301Y-137516515D01*
X53762649Y-137585570D01*
X53877484Y-137633136D01*
X53999392Y-137657385D01*
X54123688Y-137657385D01*
X54245596Y-137633136D01*
X54360431Y-137585570D01*
X54463779Y-137516515D01*
X54551670Y-137428624D01*
X54601322Y-137354314D01*
X57687000Y-137354314D01*
X57687000Y-137473686D01*
X57710288Y-137590764D01*
X57755970Y-137701049D01*
X57822289Y-137800302D01*
X57906698Y-137884711D01*
X58005951Y-137951030D01*
X58116236Y-137996712D01*
X58233314Y-138020000D01*
X58352686Y-138020000D01*
X58469764Y-137996712D01*
X58580049Y-137951030D01*
X58679302Y-137884711D01*
X58704161Y-137859852D01*
X59186000Y-137859852D01*
X59186000Y-137984148D01*
X59210249Y-138106056D01*
X59257815Y-138220891D01*
X59326870Y-138324239D01*
X59414761Y-138412130D01*
X59518109Y-138481185D01*
X59632944Y-138528751D01*
X59754852Y-138553000D01*
X59879148Y-138553000D01*
X60001056Y-138528751D01*
X60115891Y-138481185D01*
X60219239Y-138412130D01*
X60307130Y-138324239D01*
X60376185Y-138220891D01*
X60423751Y-138106056D01*
X60448000Y-137984148D01*
X60448000Y-137859852D01*
X60423751Y-137737944D01*
X60376185Y-137623109D01*
X60307130Y-137519761D01*
X60219239Y-137431870D01*
X60115891Y-137362815D01*
X60001056Y-137315249D01*
X59879148Y-137291000D01*
X59754852Y-137291000D01*
X59632944Y-137315249D01*
X59518109Y-137362815D01*
X59414761Y-137431870D01*
X59326870Y-137519761D01*
X59257815Y-137623109D01*
X59210249Y-137737944D01*
X59186000Y-137859852D01*
X58704161Y-137859852D01*
X58763711Y-137800302D01*
X58830030Y-137701049D01*
X58875712Y-137590764D01*
X58899000Y-137473686D01*
X58899000Y-137354314D01*
X58875712Y-137237236D01*
X58830030Y-137126951D01*
X58763711Y-137027698D01*
X58679302Y-136943289D01*
X58580049Y-136876970D01*
X58469764Y-136831288D01*
X58352686Y-136808000D01*
X58233314Y-136808000D01*
X58116236Y-136831288D01*
X58005951Y-136876970D01*
X57906698Y-136943289D01*
X57822289Y-137027698D01*
X57755970Y-137126951D01*
X57710288Y-137237236D01*
X57687000Y-137354314D01*
X54601322Y-137354314D01*
X54620725Y-137325276D01*
X54668291Y-137210441D01*
X54692540Y-137088533D01*
X54692540Y-136964237D01*
X54668291Y-136842329D01*
X54620725Y-136727494D01*
X54551670Y-136624146D01*
X54463779Y-136536255D01*
X54440948Y-136521000D01*
X54545148Y-136521000D01*
X54667056Y-136496751D01*
X54781891Y-136449185D01*
X54885239Y-136380130D01*
X54973130Y-136292239D01*
X55042185Y-136188891D01*
X55089751Y-136074056D01*
X55114000Y-135952148D01*
X55114000Y-135827852D01*
X55098510Y-135749977D01*
X55175056Y-135734751D01*
X55289891Y-135687185D01*
X55372000Y-135632321D01*
X55454109Y-135687185D01*
X55568944Y-135734751D01*
X55690852Y-135759000D01*
X55815148Y-135759000D01*
X55937056Y-135734751D01*
X56051891Y-135687185D01*
X56155239Y-135618130D01*
X56243130Y-135530239D01*
X56312185Y-135426891D01*
X56359751Y-135312056D01*
X56384000Y-135190148D01*
X56384000Y-135065852D01*
X56359751Y-134943944D01*
X56312185Y-134829109D01*
X56243130Y-134725761D01*
X56155239Y-134637870D01*
X56051891Y-134568815D01*
X55937056Y-134521249D01*
X55815148Y-134497000D01*
X55690852Y-134497000D01*
X55568944Y-134521249D01*
X55454109Y-134568815D01*
X55372000Y-134623679D01*
X55289891Y-134568815D01*
X55175056Y-134521249D01*
X55053148Y-134497000D01*
X54928852Y-134497000D01*
X54806944Y-134521249D01*
X54692109Y-134568815D01*
X54588761Y-134637870D01*
X54500870Y-134725761D01*
X54431815Y-134829109D01*
X54384249Y-134943944D01*
X54360000Y-135065852D01*
X54360000Y-135190148D01*
X54375490Y-135268023D01*
X54298944Y-135283249D01*
X54184109Y-135330815D01*
X54080761Y-135399870D01*
X53992870Y-135487761D01*
X53923815Y-135591109D01*
X53876249Y-135705944D01*
X53852000Y-135827852D01*
X53852000Y-135952148D01*
X53876249Y-136074056D01*
X53923815Y-136188891D01*
X53992870Y-136292239D01*
X54080761Y-136380130D01*
X54103592Y-136395385D01*
X53999392Y-136395385D01*
X53877484Y-136419634D01*
X53762649Y-136467200D01*
X53659301Y-136536255D01*
X53571410Y-136624146D01*
X53502355Y-136727494D01*
X53454789Y-136842329D01*
X53430540Y-136964237D01*
X46333082Y-136964237D01*
X46355000Y-136854050D01*
X46355000Y-136703950D01*
X46325717Y-136556733D01*
X46268276Y-136418058D01*
X46184884Y-136293253D01*
X46078747Y-136187116D01*
X45953942Y-136103724D01*
X45815267Y-136046283D01*
X45668050Y-136017000D01*
X45517950Y-136017000D01*
X45370733Y-136046283D01*
X45232058Y-136103724D01*
X45107253Y-136187116D01*
X45001116Y-136293253D01*
X44917724Y-136418058D01*
X44860283Y-136556733D01*
X44831000Y-136703950D01*
X33708487Y-136703950D01*
X33695276Y-136672058D01*
X33611884Y-136547253D01*
X33505747Y-136441116D01*
X33380942Y-136357724D01*
X33242267Y-136300283D01*
X33095050Y-136271000D01*
X32944950Y-136271000D01*
X32797733Y-136300283D01*
X32659058Y-136357724D01*
X32534253Y-136441116D01*
X32428116Y-136547253D01*
X32344724Y-136672058D01*
X32287283Y-136810733D01*
X32258000Y-136957950D01*
X25806000Y-136957950D01*
X25806000Y-134620000D01*
X46613000Y-134620000D01*
X46613000Y-134682148D01*
X46637249Y-134804056D01*
X46684815Y-134918891D01*
X46753870Y-135022239D01*
X46841761Y-135110130D01*
X46945109Y-135179185D01*
X46998897Y-135201465D01*
X46949724Y-135275058D01*
X46892283Y-135413733D01*
X46863000Y-135560950D01*
X46863000Y-135711050D01*
X46892283Y-135858267D01*
X46949724Y-135996942D01*
X47033116Y-136121747D01*
X47139253Y-136227884D01*
X47264058Y-136311276D01*
X47402733Y-136368717D01*
X47549950Y-136398000D01*
X47700050Y-136398000D01*
X47847267Y-136368717D01*
X47985942Y-136311276D01*
X48110747Y-136227884D01*
X48216884Y-136121747D01*
X48300276Y-135996942D01*
X48357717Y-135858267D01*
X48387000Y-135711050D01*
X48387000Y-135560950D01*
X48357717Y-135413733D01*
X48300276Y-135275058D01*
X48216884Y-135150253D01*
X48110747Y-135044116D01*
X47985942Y-134960724D01*
X47847267Y-134903283D01*
X47812513Y-134896370D01*
X47850751Y-134804056D01*
X47875000Y-134682148D01*
X47875000Y-134557852D01*
X47850751Y-134435944D01*
X47803185Y-134321109D01*
X47734130Y-134217761D01*
X47646239Y-134129870D01*
X47542891Y-134060815D01*
X47428056Y-134013249D01*
X47306148Y-133989000D01*
X47244000Y-133989000D01*
X47244000Y-133922852D01*
X57789000Y-133922852D01*
X57789000Y-134047148D01*
X57813249Y-134169056D01*
X57860815Y-134283891D01*
X57929870Y-134387239D01*
X58017761Y-134475130D01*
X58121109Y-134544185D01*
X58235944Y-134591751D01*
X58357852Y-134616000D01*
X58431492Y-134616000D01*
X58398761Y-134637870D01*
X58310870Y-134725761D01*
X58241815Y-134829109D01*
X58194249Y-134943944D01*
X58170000Y-135065852D01*
X58170000Y-135190148D01*
X58194249Y-135312056D01*
X58241815Y-135426891D01*
X58310870Y-135530239D01*
X58398761Y-135618130D01*
X58502109Y-135687185D01*
X58616944Y-135734751D01*
X58728986Y-135757037D01*
X58702249Y-135821586D01*
X58678000Y-135943494D01*
X58678000Y-136067790D01*
X58702249Y-136189698D01*
X58749815Y-136304533D01*
X58818870Y-136407881D01*
X58906761Y-136495772D01*
X59010109Y-136564827D01*
X59124944Y-136612393D01*
X59246852Y-136636642D01*
X59371148Y-136636642D01*
X59493056Y-136612393D01*
X59607891Y-136564827D01*
X59711239Y-136495772D01*
X59799130Y-136407881D01*
X59868185Y-136304533D01*
X59915751Y-136189698D01*
X59940000Y-136067790D01*
X59940000Y-135943494D01*
X59915751Y-135821586D01*
X59868185Y-135706751D01*
X59799130Y-135603403D01*
X59711239Y-135515512D01*
X59607891Y-135446457D01*
X59493056Y-135398891D01*
X59381014Y-135376605D01*
X59407751Y-135312056D01*
X59432000Y-135190148D01*
X59432000Y-135065852D01*
X59407751Y-134943944D01*
X59360185Y-134829109D01*
X59291130Y-134725761D01*
X59203239Y-134637870D01*
X59099891Y-134568815D01*
X58985056Y-134521249D01*
X58863148Y-134497000D01*
X58789508Y-134497000D01*
X58822239Y-134475130D01*
X58910130Y-134387239D01*
X58979185Y-134283891D01*
X59026751Y-134169056D01*
X59051000Y-134047148D01*
X59051000Y-133922852D01*
X59026751Y-133800944D01*
X58979185Y-133686109D01*
X58910130Y-133582761D01*
X58822239Y-133494870D01*
X58718891Y-133425815D01*
X58604056Y-133378249D01*
X58482148Y-133354000D01*
X58357852Y-133354000D01*
X58235944Y-133378249D01*
X58121109Y-133425815D01*
X58017761Y-133494870D01*
X57929870Y-133582761D01*
X57860815Y-133686109D01*
X57813249Y-133800944D01*
X57789000Y-133922852D01*
X47244000Y-133922852D01*
X47244000Y-132652852D01*
X57789000Y-132652852D01*
X57789000Y-132777148D01*
X57813249Y-132899056D01*
X57860815Y-133013891D01*
X57929870Y-133117239D01*
X58017761Y-133205130D01*
X58121109Y-133274185D01*
X58235944Y-133321751D01*
X58357852Y-133346000D01*
X58482148Y-133346000D01*
X58604056Y-133321751D01*
X58718891Y-133274185D01*
X58822239Y-133205130D01*
X58910130Y-133117239D01*
X58979185Y-133013891D01*
X58991500Y-132984160D01*
X59003815Y-133013891D01*
X59072870Y-133117239D01*
X59160761Y-133205130D01*
X59264109Y-133274185D01*
X59378944Y-133321751D01*
X59500852Y-133346000D01*
X59625148Y-133346000D01*
X59747056Y-133321751D01*
X59861891Y-133274185D01*
X59965239Y-133205130D01*
X60053130Y-133117239D01*
X60122185Y-133013891D01*
X60169751Y-132899056D01*
X60194000Y-132777148D01*
X60194000Y-132652852D01*
X60169751Y-132530944D01*
X60122185Y-132416109D01*
X60053130Y-132312761D01*
X59965239Y-132224870D01*
X59861891Y-132155815D01*
X59747056Y-132108249D01*
X59625148Y-132084000D01*
X59500852Y-132084000D01*
X59378944Y-132108249D01*
X59264109Y-132155815D01*
X59160761Y-132224870D01*
X59072870Y-132312761D01*
X59003815Y-132416109D01*
X58991500Y-132445840D01*
X58979185Y-132416109D01*
X58910130Y-132312761D01*
X58822239Y-132224870D01*
X58718891Y-132155815D01*
X58604056Y-132108249D01*
X58482148Y-132084000D01*
X58357852Y-132084000D01*
X58235944Y-132108249D01*
X58121109Y-132155815D01*
X58017761Y-132224870D01*
X57929870Y-132312761D01*
X57860815Y-132416109D01*
X57813249Y-132530944D01*
X57789000Y-132652852D01*
X47244000Y-132652852D01*
X47244000Y-131763852D01*
X54487000Y-131763852D01*
X54487000Y-131888148D01*
X54511249Y-132010056D01*
X54558815Y-132124891D01*
X54627870Y-132228239D01*
X54715761Y-132316130D01*
X54819109Y-132385185D01*
X54933944Y-132432751D01*
X55055852Y-132457000D01*
X55180148Y-132457000D01*
X55302056Y-132432751D01*
X55416891Y-132385185D01*
X55520239Y-132316130D01*
X55608130Y-132228239D01*
X55677185Y-132124891D01*
X55724751Y-132010056D01*
X55749000Y-131888148D01*
X55749000Y-131763852D01*
X55724751Y-131641944D01*
X55677185Y-131527109D01*
X55608130Y-131423761D01*
X55520239Y-131335870D01*
X55416891Y-131266815D01*
X55302056Y-131219249D01*
X55180148Y-131195000D01*
X55055852Y-131195000D01*
X54933944Y-131219249D01*
X54819109Y-131266815D01*
X54715761Y-131335870D01*
X54627870Y-131423761D01*
X54558815Y-131527109D01*
X54511249Y-131641944D01*
X54487000Y-131763852D01*
X47244000Y-131763852D01*
X47244000Y-130323152D01*
X54233000Y-130323152D01*
X54233000Y-130447448D01*
X54257249Y-130569356D01*
X54304815Y-130684191D01*
X54373870Y-130787539D01*
X54461761Y-130875430D01*
X54565109Y-130944485D01*
X54679944Y-130992051D01*
X54801852Y-131016300D01*
X54926148Y-131016300D01*
X55048056Y-130992051D01*
X55162891Y-130944485D01*
X55266239Y-130875430D01*
X55354130Y-130787539D01*
X55423185Y-130684191D01*
X55470751Y-130569356D01*
X55495000Y-130447448D01*
X55495000Y-130323152D01*
X55478431Y-130239852D01*
X58678000Y-130239852D01*
X58678000Y-130364148D01*
X58702249Y-130486056D01*
X58749815Y-130600891D01*
X58818870Y-130704239D01*
X58906761Y-130792130D01*
X58974010Y-130837065D01*
X58956249Y-130879944D01*
X58932000Y-131001852D01*
X58932000Y-131126148D01*
X58956249Y-131248056D01*
X59003815Y-131362891D01*
X59072870Y-131466239D01*
X59160761Y-131554130D01*
X59264109Y-131623185D01*
X59378944Y-131670751D01*
X59500852Y-131695000D01*
X59625148Y-131695000D01*
X59747056Y-131670751D01*
X59861891Y-131623185D01*
X59965239Y-131554130D01*
X60053130Y-131466239D01*
X60122185Y-131362891D01*
X60169751Y-131248056D01*
X60194000Y-131126148D01*
X60194000Y-131001852D01*
X60169751Y-130879944D01*
X60122185Y-130765109D01*
X60053130Y-130661761D01*
X59965239Y-130573870D01*
X59897990Y-130528935D01*
X59915751Y-130486056D01*
X59940000Y-130364148D01*
X59940000Y-130239852D01*
X59915751Y-130117944D01*
X59868185Y-130003109D01*
X59799130Y-129899761D01*
X59711239Y-129811870D01*
X59607891Y-129742815D01*
X59493056Y-129695249D01*
X59371148Y-129671000D01*
X59246852Y-129671000D01*
X59124944Y-129695249D01*
X59010109Y-129742815D01*
X58906761Y-129811870D01*
X58818870Y-129899761D01*
X58749815Y-130003109D01*
X58702249Y-130117944D01*
X58678000Y-130239852D01*
X55478431Y-130239852D01*
X55470751Y-130201244D01*
X55423185Y-130086409D01*
X55354130Y-129983061D01*
X55266239Y-129895170D01*
X55162891Y-129826115D01*
X55048056Y-129778549D01*
X54926148Y-129754300D01*
X54801852Y-129754300D01*
X54679944Y-129778549D01*
X54565109Y-129826115D01*
X54461761Y-129895170D01*
X54373870Y-129983061D01*
X54304815Y-130086409D01*
X54257249Y-130201244D01*
X54233000Y-130323152D01*
X47244000Y-130323152D01*
X47244000Y-128575950D01*
X49530000Y-128575950D01*
X49530000Y-128726050D01*
X49559283Y-128873267D01*
X49616724Y-129011942D01*
X49700116Y-129136747D01*
X49806253Y-129242884D01*
X49931058Y-129326276D01*
X50069733Y-129383717D01*
X50216950Y-129413000D01*
X50367050Y-129413000D01*
X50514267Y-129383717D01*
X50652942Y-129326276D01*
X50777747Y-129242884D01*
X50883884Y-129136747D01*
X50967276Y-129011942D01*
X51024717Y-128873267D01*
X51054000Y-128726050D01*
X51054000Y-128702950D01*
X52070000Y-128702950D01*
X52070000Y-128853050D01*
X52099283Y-129000267D01*
X52156724Y-129138942D01*
X52240116Y-129263747D01*
X52346253Y-129369884D01*
X52471058Y-129453276D01*
X52609733Y-129510717D01*
X52756950Y-129540000D01*
X52907050Y-129540000D01*
X53054267Y-129510717D01*
X53192942Y-129453276D01*
X53317747Y-129369884D01*
X53423884Y-129263747D01*
X53507276Y-129138942D01*
X53564717Y-129000267D01*
X53594000Y-128853050D01*
X53594000Y-128829950D01*
X54483000Y-128829950D01*
X54483000Y-128980050D01*
X54512283Y-129127267D01*
X54569724Y-129265942D01*
X54653116Y-129390747D01*
X54759253Y-129496884D01*
X54884058Y-129580276D01*
X55022733Y-129637717D01*
X55169950Y-129667000D01*
X55320050Y-129667000D01*
X55467267Y-129637717D01*
X55605942Y-129580276D01*
X55730747Y-129496884D01*
X55836884Y-129390747D01*
X55920276Y-129265942D01*
X55977717Y-129127267D01*
X56007000Y-128980050D01*
X56007000Y-128829950D01*
X55977717Y-128682733D01*
X55920276Y-128544058D01*
X55836884Y-128419253D01*
X55730747Y-128313116D01*
X55605942Y-128229724D01*
X55467267Y-128172283D01*
X55320050Y-128143000D01*
X55169950Y-128143000D01*
X55022733Y-128172283D01*
X54884058Y-128229724D01*
X54759253Y-128313116D01*
X54653116Y-128419253D01*
X54569724Y-128544058D01*
X54512283Y-128682733D01*
X54483000Y-128829950D01*
X53594000Y-128829950D01*
X53594000Y-128702950D01*
X53564717Y-128555733D01*
X53507276Y-128417058D01*
X53423884Y-128292253D01*
X53317747Y-128186116D01*
X53192942Y-128102724D01*
X53054267Y-128045283D01*
X52907050Y-128016000D01*
X52756950Y-128016000D01*
X52609733Y-128045283D01*
X52471058Y-128102724D01*
X52346253Y-128186116D01*
X52240116Y-128292253D01*
X52156724Y-128417058D01*
X52099283Y-128555733D01*
X52070000Y-128702950D01*
X51054000Y-128702950D01*
X51054000Y-128575950D01*
X51024717Y-128428733D01*
X50967276Y-128290058D01*
X50883884Y-128165253D01*
X50777747Y-128059116D01*
X50652942Y-127975724D01*
X50514267Y-127918283D01*
X50367050Y-127889000D01*
X50216950Y-127889000D01*
X50069733Y-127918283D01*
X49931058Y-127975724D01*
X49806253Y-128059116D01*
X49700116Y-128165253D01*
X49616724Y-128290058D01*
X49559283Y-128428733D01*
X49530000Y-128575950D01*
X47244000Y-128575950D01*
X47244000Y-126416950D01*
X57150000Y-126416950D01*
X57150000Y-126567050D01*
X57179283Y-126714267D01*
X57236724Y-126852942D01*
X57320116Y-126977747D01*
X57426253Y-127083884D01*
X57551058Y-127167276D01*
X57689733Y-127224717D01*
X57836950Y-127254000D01*
X57987050Y-127254000D01*
X58134267Y-127224717D01*
X58272942Y-127167276D01*
X58397747Y-127083884D01*
X58503884Y-126977747D01*
X58587276Y-126852942D01*
X58644717Y-126714267D01*
X58674000Y-126567050D01*
X58674000Y-126543950D01*
X61595000Y-126543950D01*
X61595000Y-126694050D01*
X61624283Y-126841267D01*
X61681724Y-126979942D01*
X61765116Y-127104747D01*
X61871253Y-127210884D01*
X61996058Y-127294276D01*
X62134733Y-127351717D01*
X62281950Y-127381000D01*
X62432050Y-127381000D01*
X62579267Y-127351717D01*
X62717942Y-127294276D01*
X62842747Y-127210884D01*
X62948884Y-127104747D01*
X63032276Y-126979942D01*
X63089717Y-126841267D01*
X63119000Y-126694050D01*
X63119000Y-126543950D01*
X63089717Y-126396733D01*
X63032276Y-126258058D01*
X62948884Y-126133253D01*
X62842747Y-126027116D01*
X62717942Y-125943724D01*
X62579267Y-125886283D01*
X62432050Y-125857000D01*
X62281950Y-125857000D01*
X62134733Y-125886283D01*
X61996058Y-125943724D01*
X61871253Y-126027116D01*
X61765116Y-126133253D01*
X61681724Y-126258058D01*
X61624283Y-126396733D01*
X61595000Y-126543950D01*
X58674000Y-126543950D01*
X58674000Y-126416950D01*
X58644717Y-126269733D01*
X58587276Y-126131058D01*
X58503884Y-126006253D01*
X58397747Y-125900116D01*
X58272942Y-125816724D01*
X58134267Y-125759283D01*
X57987050Y-125730000D01*
X57836950Y-125730000D01*
X57689733Y-125759283D01*
X57551058Y-125816724D01*
X57426253Y-125900116D01*
X57320116Y-126006253D01*
X57236724Y-126131058D01*
X57179283Y-126269733D01*
X57150000Y-126416950D01*
X47244000Y-126416950D01*
X47244000Y-123241950D01*
X52705000Y-123241950D01*
X52705000Y-123392050D01*
X52734283Y-123539267D01*
X52791724Y-123677942D01*
X52875116Y-123802747D01*
X52981253Y-123908884D01*
X53106058Y-123992276D01*
X53244733Y-124049717D01*
X53391950Y-124079000D01*
X53542050Y-124079000D01*
X53689267Y-124049717D01*
X53827942Y-123992276D01*
X53952747Y-123908884D01*
X54058884Y-123802747D01*
X54142276Y-123677942D01*
X54199717Y-123539267D01*
X54229000Y-123392050D01*
X54229000Y-123241950D01*
X54203739Y-123114950D01*
X57150000Y-123114950D01*
X57150000Y-123265050D01*
X57179283Y-123412267D01*
X57236724Y-123550942D01*
X57320116Y-123675747D01*
X57426253Y-123781884D01*
X57551058Y-123865276D01*
X57689733Y-123922717D01*
X57836950Y-123952000D01*
X57987050Y-123952000D01*
X58134267Y-123922717D01*
X58272942Y-123865276D01*
X58397747Y-123781884D01*
X58503884Y-123675747D01*
X58587276Y-123550942D01*
X58644717Y-123412267D01*
X58674000Y-123265050D01*
X58674000Y-123114950D01*
X61595000Y-123114950D01*
X61595000Y-123265050D01*
X61624283Y-123412267D01*
X61681724Y-123550942D01*
X61765116Y-123675747D01*
X61871253Y-123781884D01*
X61996058Y-123865276D01*
X62134733Y-123922717D01*
X62281950Y-123952000D01*
X62432050Y-123952000D01*
X62579267Y-123922717D01*
X62717942Y-123865276D01*
X62842747Y-123781884D01*
X62948884Y-123675747D01*
X63032276Y-123550942D01*
X63089717Y-123412267D01*
X63119000Y-123265050D01*
X63119000Y-123114950D01*
X63089717Y-122967733D01*
X63032276Y-122829058D01*
X62948884Y-122704253D01*
X62842747Y-122598116D01*
X62717942Y-122514724D01*
X62579267Y-122457283D01*
X62432050Y-122428000D01*
X62281950Y-122428000D01*
X62134733Y-122457283D01*
X61996058Y-122514724D01*
X61871253Y-122598116D01*
X61765116Y-122704253D01*
X61681724Y-122829058D01*
X61624283Y-122967733D01*
X61595000Y-123114950D01*
X58674000Y-123114950D01*
X58644717Y-122967733D01*
X58587276Y-122829058D01*
X58503884Y-122704253D01*
X58397747Y-122598116D01*
X58272942Y-122514724D01*
X58134267Y-122457283D01*
X57987050Y-122428000D01*
X57836950Y-122428000D01*
X57689733Y-122457283D01*
X57551058Y-122514724D01*
X57426253Y-122598116D01*
X57320116Y-122704253D01*
X57236724Y-122829058D01*
X57179283Y-122967733D01*
X57150000Y-123114950D01*
X54203739Y-123114950D01*
X54199717Y-123094733D01*
X54142276Y-122956058D01*
X54058884Y-122831253D01*
X53952747Y-122725116D01*
X53827942Y-122641724D01*
X53689267Y-122584283D01*
X53542050Y-122555000D01*
X53391950Y-122555000D01*
X53244733Y-122584283D01*
X53106058Y-122641724D01*
X52981253Y-122725116D01*
X52875116Y-122831253D01*
X52791724Y-122956058D01*
X52734283Y-123094733D01*
X52705000Y-123241950D01*
X47244000Y-123241950D01*
X47244000Y-119685950D01*
X48260000Y-119685950D01*
X48260000Y-119836050D01*
X48289283Y-119983267D01*
X48346724Y-120121942D01*
X48430116Y-120246747D01*
X48536253Y-120352884D01*
X48661058Y-120436276D01*
X48799733Y-120493717D01*
X48946950Y-120523000D01*
X49097050Y-120523000D01*
X49244267Y-120493717D01*
X49382942Y-120436276D01*
X49507747Y-120352884D01*
X49613884Y-120246747D01*
X49697276Y-120121942D01*
X49754717Y-119983267D01*
X49784000Y-119836050D01*
X49784000Y-119685950D01*
X52705000Y-119685950D01*
X52705000Y-119836050D01*
X52734283Y-119983267D01*
X52791724Y-120121942D01*
X52875116Y-120246747D01*
X52981253Y-120352884D01*
X53106058Y-120436276D01*
X53244733Y-120493717D01*
X53391950Y-120523000D01*
X53542050Y-120523000D01*
X53689267Y-120493717D01*
X53827942Y-120436276D01*
X53952747Y-120352884D01*
X54058884Y-120246747D01*
X54142276Y-120121942D01*
X54199717Y-119983267D01*
X54229000Y-119836050D01*
X54229000Y-119685950D01*
X57150000Y-119685950D01*
X57150000Y-119836050D01*
X57179283Y-119983267D01*
X57236724Y-120121942D01*
X57320116Y-120246747D01*
X57426253Y-120352884D01*
X57551058Y-120436276D01*
X57689733Y-120493717D01*
X57836950Y-120523000D01*
X57987050Y-120523000D01*
X58134267Y-120493717D01*
X58272942Y-120436276D01*
X58397747Y-120352884D01*
X58503884Y-120246747D01*
X58587276Y-120121942D01*
X58644717Y-119983267D01*
X58674000Y-119836050D01*
X58674000Y-119685950D01*
X61595000Y-119685950D01*
X61595000Y-119836050D01*
X61624283Y-119983267D01*
X61681724Y-120121942D01*
X61765116Y-120246747D01*
X61871253Y-120352884D01*
X61996058Y-120436276D01*
X62134733Y-120493717D01*
X62281950Y-120523000D01*
X62432050Y-120523000D01*
X62579267Y-120493717D01*
X62717942Y-120436276D01*
X62842747Y-120352884D01*
X62948884Y-120246747D01*
X63032276Y-120121942D01*
X63089717Y-119983267D01*
X63119000Y-119836050D01*
X63119000Y-119685950D01*
X63089717Y-119538733D01*
X63032276Y-119400058D01*
X62948884Y-119275253D01*
X62842747Y-119169116D01*
X62717942Y-119085724D01*
X62579267Y-119028283D01*
X62432050Y-118999000D01*
X62281950Y-118999000D01*
X62134733Y-119028283D01*
X61996058Y-119085724D01*
X61871253Y-119169116D01*
X61765116Y-119275253D01*
X61681724Y-119400058D01*
X61624283Y-119538733D01*
X61595000Y-119685950D01*
X58674000Y-119685950D01*
X58644717Y-119538733D01*
X58587276Y-119400058D01*
X58503884Y-119275253D01*
X58397747Y-119169116D01*
X58272942Y-119085724D01*
X58134267Y-119028283D01*
X57987050Y-118999000D01*
X57836950Y-118999000D01*
X57689733Y-119028283D01*
X57551058Y-119085724D01*
X57426253Y-119169116D01*
X57320116Y-119275253D01*
X57236724Y-119400058D01*
X57179283Y-119538733D01*
X57150000Y-119685950D01*
X54229000Y-119685950D01*
X54199717Y-119538733D01*
X54142276Y-119400058D01*
X54058884Y-119275253D01*
X53952747Y-119169116D01*
X53827942Y-119085724D01*
X53689267Y-119028283D01*
X53542050Y-118999000D01*
X53391950Y-118999000D01*
X53244733Y-119028283D01*
X53106058Y-119085724D01*
X52981253Y-119169116D01*
X52875116Y-119275253D01*
X52791724Y-119400058D01*
X52734283Y-119538733D01*
X52705000Y-119685950D01*
X49784000Y-119685950D01*
X49754717Y-119538733D01*
X49697276Y-119400058D01*
X49613884Y-119275253D01*
X49507747Y-119169116D01*
X49382942Y-119085724D01*
X49244267Y-119028283D01*
X49097050Y-118999000D01*
X48946950Y-118999000D01*
X48799733Y-119028283D01*
X48661058Y-119085724D01*
X48536253Y-119169116D01*
X48430116Y-119275253D01*
X48346724Y-119400058D01*
X48289283Y-119538733D01*
X48260000Y-119685950D01*
X47244000Y-119685950D01*
X47244000Y-117421417D01*
X64643000Y-118508854D01*
X64643000Y-118508854D01*
G37*
X64643000Y-118508854D02*
X64643000Y-118661000D01*
X64624134Y-118661000D01*
X64338008Y-118717914D01*
X64068483Y-118829555D01*
X63825917Y-118991632D01*
X63619632Y-119197917D01*
X63457555Y-119440483D01*
X63345914Y-119710008D01*
X63289000Y-119996134D01*
X63289000Y-120287866D01*
X63345914Y-120573992D01*
X63457555Y-120843517D01*
X63619632Y-121086083D01*
X63825917Y-121292368D01*
X64068483Y-121454445D01*
X64338008Y-121566086D01*
X64624134Y-121623000D01*
X64643000Y-121623000D01*
X64643000Y-121788256D01*
X64613879Y-121797090D01*
X64543347Y-121834790D01*
X64481526Y-121885526D01*
X64430790Y-121947348D01*
X64393090Y-122017880D01*
X64369875Y-122094411D01*
X64364000Y-122154060D01*
X64364000Y-128610279D01*
X64360751Y-128593944D01*
X64313185Y-128479109D01*
X64244130Y-128375761D01*
X64156239Y-128287870D01*
X64052891Y-128218815D01*
X63938056Y-128171249D01*
X63816148Y-128147000D01*
X63691852Y-128147000D01*
X63569944Y-128171249D01*
X63455109Y-128218815D01*
X63351761Y-128287870D01*
X63263870Y-128375761D01*
X63194815Y-128479109D01*
X63147249Y-128593944D01*
X63123000Y-128715852D01*
X63123000Y-128840148D01*
X63147249Y-128962056D01*
X63194815Y-129076891D01*
X63263870Y-129180239D01*
X63351761Y-129268130D01*
X63455109Y-129337185D01*
X63569944Y-129384751D01*
X63691852Y-129409000D01*
X63816148Y-129409000D01*
X63938056Y-129384751D01*
X64052891Y-129337185D01*
X64156239Y-129268130D01*
X64244130Y-129180239D01*
X64313185Y-129076891D01*
X64360751Y-128962056D01*
X64364000Y-128945721D01*
X64364000Y-130769279D01*
X64360751Y-130752944D01*
X64313185Y-130638109D01*
X64244130Y-130534761D01*
X64156239Y-130446870D01*
X64052891Y-130377815D01*
X63938056Y-130330249D01*
X63816148Y-130306000D01*
X63691852Y-130306000D01*
X63569944Y-130330249D01*
X63455109Y-130377815D01*
X63351761Y-130446870D01*
X63263870Y-130534761D01*
X63194815Y-130638109D01*
X63147249Y-130752944D01*
X63123000Y-130874852D01*
X63123000Y-130999148D01*
X63147249Y-131121056D01*
X63194815Y-131235891D01*
X63263870Y-131339239D01*
X63351761Y-131427130D01*
X63455109Y-131496185D01*
X63569944Y-131543751D01*
X63691852Y-131568000D01*
X63816148Y-131568000D01*
X63938056Y-131543751D01*
X64052891Y-131496185D01*
X64156239Y-131427130D01*
X64244130Y-131339239D01*
X64313185Y-131235891D01*
X64360751Y-131121056D01*
X64364000Y-131104721D01*
X64364000Y-132674280D01*
X64360751Y-132657944D01*
X64313185Y-132543109D01*
X64244130Y-132439761D01*
X64156239Y-132351870D01*
X64052891Y-132282815D01*
X63938056Y-132235249D01*
X63816148Y-132211000D01*
X63691852Y-132211000D01*
X63569944Y-132235249D01*
X63455109Y-132282815D01*
X63351761Y-132351870D01*
X63263870Y-132439761D01*
X63194815Y-132543109D01*
X63147249Y-132657944D01*
X63123000Y-132779852D01*
X63123000Y-132904148D01*
X63147249Y-133026056D01*
X63194815Y-133140891D01*
X63263870Y-133244239D01*
X63351761Y-133332130D01*
X63455109Y-133401185D01*
X63569944Y-133448751D01*
X63691852Y-133473000D01*
X63816148Y-133473000D01*
X63938056Y-133448751D01*
X64052891Y-133401185D01*
X64156239Y-133332130D01*
X64244130Y-133244239D01*
X64313185Y-133140891D01*
X64360751Y-133026056D01*
X64364000Y-133009720D01*
X64364000Y-134706280D01*
X64360751Y-134689944D01*
X64313185Y-134575109D01*
X64244130Y-134471761D01*
X64156239Y-134383870D01*
X64052891Y-134314815D01*
X63938056Y-134267249D01*
X63816148Y-134243000D01*
X63691852Y-134243000D01*
X63569944Y-134267249D01*
X63455109Y-134314815D01*
X63351761Y-134383870D01*
X63263870Y-134471761D01*
X63194815Y-134575109D01*
X63147249Y-134689944D01*
X63123000Y-134811852D01*
X63123000Y-134936148D01*
X63147249Y-135058056D01*
X63194815Y-135172891D01*
X63263870Y-135276239D01*
X63351761Y-135364130D01*
X63455109Y-135433185D01*
X63569944Y-135480751D01*
X63691852Y-135505000D01*
X63816148Y-135505000D01*
X63938056Y-135480751D01*
X64052891Y-135433185D01*
X64156239Y-135364130D01*
X64244130Y-135276239D01*
X64313185Y-135172891D01*
X64360751Y-135058056D01*
X64364000Y-135041720D01*
X64364000Y-136738280D01*
X64360751Y-136721944D01*
X64313185Y-136607109D01*
X64244130Y-136503761D01*
X64156239Y-136415870D01*
X64052891Y-136346815D01*
X63938056Y-136299249D01*
X63816148Y-136275000D01*
X63691852Y-136275000D01*
X63569944Y-136299249D01*
X63455109Y-136346815D01*
X63351761Y-136415870D01*
X63263870Y-136503761D01*
X63194815Y-136607109D01*
X63147249Y-136721944D01*
X63123000Y-136843852D01*
X63123000Y-136968148D01*
X63147249Y-137090056D01*
X63194815Y-137204891D01*
X63263870Y-137308239D01*
X63351761Y-137396130D01*
X63455109Y-137465185D01*
X63569944Y-137512751D01*
X63691852Y-137537000D01*
X63816148Y-137537000D01*
X63938056Y-137512751D01*
X64052891Y-137465185D01*
X64156239Y-137396130D01*
X64244130Y-137308239D01*
X64313185Y-137204891D01*
X64360751Y-137090056D01*
X64364000Y-137073720D01*
X64364001Y-138643281D01*
X64360751Y-138626944D01*
X64313185Y-138512109D01*
X64244130Y-138408761D01*
X64156239Y-138320870D01*
X64052891Y-138251815D01*
X63938056Y-138204249D01*
X63816148Y-138180000D01*
X63691852Y-138180000D01*
X63569944Y-138204249D01*
X63455109Y-138251815D01*
X63351761Y-138320870D01*
X63263870Y-138408761D01*
X63194815Y-138512109D01*
X63147249Y-138626944D01*
X63123000Y-138748852D01*
X63123000Y-138873148D01*
X63147249Y-138995056D01*
X63194815Y-139109891D01*
X63263870Y-139213239D01*
X63351761Y-139301130D01*
X63455109Y-139370185D01*
X63569944Y-139417751D01*
X63691852Y-139442000D01*
X63816148Y-139442000D01*
X63938056Y-139417751D01*
X64052891Y-139370185D01*
X64156239Y-139301130D01*
X64244130Y-139213239D01*
X64313185Y-139109891D01*
X64360751Y-138995056D01*
X64364001Y-138978719D01*
X64364001Y-140675281D01*
X64360751Y-140658944D01*
X64313185Y-140544109D01*
X64244130Y-140440761D01*
X64156239Y-140352870D01*
X64052891Y-140283815D01*
X63938056Y-140236249D01*
X63816148Y-140212000D01*
X63691852Y-140212000D01*
X63569944Y-140236249D01*
X63455109Y-140283815D01*
X63351761Y-140352870D01*
X63263870Y-140440761D01*
X63194815Y-140544109D01*
X63147249Y-140658944D01*
X63123000Y-140780852D01*
X63123000Y-140905148D01*
X63147249Y-141027056D01*
X63194815Y-141141891D01*
X63263870Y-141245239D01*
X63351761Y-141333130D01*
X63455109Y-141402185D01*
X63569944Y-141449751D01*
X63691852Y-141474000D01*
X63816148Y-141474000D01*
X63938056Y-141449751D01*
X64052891Y-141402185D01*
X64156239Y-141333130D01*
X64244130Y-141245239D01*
X64313185Y-141141891D01*
X64360751Y-141027056D01*
X64364001Y-141010719D01*
X64364001Y-142707281D01*
X64360751Y-142690944D01*
X64313185Y-142576109D01*
X64244130Y-142472761D01*
X64156239Y-142384870D01*
X64052891Y-142315815D01*
X63938056Y-142268249D01*
X63816148Y-142244000D01*
X63691852Y-142244000D01*
X63569944Y-142268249D01*
X63455109Y-142315815D01*
X63351761Y-142384870D01*
X63263870Y-142472761D01*
X63194815Y-142576109D01*
X63147249Y-142690944D01*
X63123000Y-142812852D01*
X63123000Y-142937148D01*
X63147249Y-143059056D01*
X63194815Y-143173891D01*
X63263870Y-143277239D01*
X63351761Y-143365130D01*
X63455109Y-143434185D01*
X63569944Y-143481751D01*
X63691852Y-143506000D01*
X63816148Y-143506000D01*
X63938056Y-143481751D01*
X64052891Y-143434185D01*
X64156239Y-143365130D01*
X64244130Y-143277239D01*
X64313185Y-143173891D01*
X64360751Y-143059056D01*
X64364001Y-143042719D01*
X64364001Y-144612282D01*
X64360751Y-144595944D01*
X64313185Y-144481109D01*
X64244130Y-144377761D01*
X64156239Y-144289870D01*
X64052891Y-144220815D01*
X63938056Y-144173249D01*
X63816148Y-144149000D01*
X63691852Y-144149000D01*
X63569944Y-144173249D01*
X63455109Y-144220815D01*
X63351761Y-144289870D01*
X63263870Y-144377761D01*
X63194815Y-144481109D01*
X63147249Y-144595944D01*
X63123000Y-144717852D01*
X63123000Y-144842148D01*
X63147249Y-144964056D01*
X63194815Y-145078891D01*
X63263870Y-145182239D01*
X63351761Y-145270130D01*
X63455109Y-145339185D01*
X63569944Y-145386751D01*
X63691852Y-145411000D01*
X63816148Y-145411000D01*
X63938056Y-145386751D01*
X64052891Y-145339185D01*
X64156239Y-145270130D01*
X64244130Y-145182239D01*
X64313185Y-145078891D01*
X64360751Y-144964056D01*
X64364001Y-144947718D01*
X64364001Y-152380136D01*
X64345636Y-152567441D01*
X64297008Y-152728503D01*
X64218023Y-152877051D01*
X64111689Y-153007430D01*
X63982054Y-153114674D01*
X63834058Y-153194695D01*
X63673339Y-153244446D01*
X63488698Y-153263852D01*
X56885207Y-153704085D01*
X57000747Y-153626884D01*
X57106884Y-153520747D01*
X57190276Y-153395942D01*
X57247717Y-153257267D01*
X57277000Y-153110050D01*
X57277000Y-152959950D01*
X57247717Y-152812733D01*
X57190276Y-152674058D01*
X57106884Y-152549253D01*
X57000747Y-152443116D01*
X56875942Y-152359724D01*
X56737267Y-152302283D01*
X56590050Y-152273000D01*
X56439950Y-152273000D01*
X56292733Y-152302283D01*
X56154058Y-152359724D01*
X56029253Y-152443116D01*
X55923116Y-152549253D01*
X55839724Y-152674058D01*
X55782283Y-152812733D01*
X55753000Y-152959950D01*
X55753000Y-153110050D01*
X55782283Y-153257267D01*
X55839724Y-153395942D01*
X55923116Y-153520747D01*
X56029253Y-153626884D01*
X56154058Y-153710276D01*
X56242547Y-153746929D01*
X44436487Y-154534000D01*
X36855280Y-154534000D01*
X27930836Y-153418445D01*
X27961239Y-153398130D01*
X28049130Y-153310239D01*
X28104847Y-153226852D01*
X32008000Y-153226852D01*
X32008000Y-153351148D01*
X32032249Y-153473056D01*
X32079815Y-153587891D01*
X32148870Y-153691239D01*
X32236761Y-153779130D01*
X32340109Y-153848185D01*
X32454944Y-153895751D01*
X32576852Y-153920000D01*
X32701148Y-153920000D01*
X32823056Y-153895751D01*
X32937891Y-153848185D01*
X33041239Y-153779130D01*
X33129130Y-153691239D01*
X33198185Y-153587891D01*
X33245751Y-153473056D01*
X33270000Y-153351148D01*
X33270000Y-153226852D01*
X33245751Y-153104944D01*
X33198185Y-152990109D01*
X33129130Y-152886761D01*
X33041239Y-152798870D01*
X32937891Y-152729815D01*
X32823056Y-152682249D01*
X32701148Y-152658000D01*
X32576852Y-152658000D01*
X32454944Y-152682249D01*
X32340109Y-152729815D01*
X32236761Y-152798870D01*
X32148870Y-152886761D01*
X32079815Y-152990109D01*
X32032249Y-153104944D01*
X32008000Y-153226852D01*
X28104847Y-153226852D01*
X28118185Y-153206891D01*
X28165751Y-153092056D01*
X28190000Y-152970148D01*
X28190000Y-152845852D01*
X28165751Y-152723944D01*
X28118185Y-152609109D01*
X28049130Y-152505761D01*
X27995319Y-152451950D01*
X38608000Y-152451950D01*
X38608000Y-152602050D01*
X38637283Y-152749267D01*
X38694724Y-152887942D01*
X38778116Y-153012747D01*
X38884253Y-153118884D01*
X39009058Y-153202276D01*
X39147733Y-153259717D01*
X39294950Y-153289000D01*
X39445050Y-153289000D01*
X39592267Y-153259717D01*
X39730942Y-153202276D01*
X39855747Y-153118884D01*
X39961884Y-153012747D01*
X39997161Y-152959950D01*
X40894000Y-152959950D01*
X40894000Y-153110050D01*
X40923283Y-153257267D01*
X40980724Y-153395942D01*
X41064116Y-153520747D01*
X41170253Y-153626884D01*
X41295058Y-153710276D01*
X41433733Y-153767717D01*
X41580950Y-153797000D01*
X41731050Y-153797000D01*
X41878267Y-153767717D01*
X42016942Y-153710276D01*
X42141747Y-153626884D01*
X42247884Y-153520747D01*
X42331276Y-153395942D01*
X42388717Y-153257267D01*
X42418000Y-153110050D01*
X42418000Y-152959950D01*
X44704000Y-152959950D01*
X44704000Y-153110050D01*
X44733283Y-153257267D01*
X44790724Y-153395942D01*
X44874116Y-153520747D01*
X44980253Y-153626884D01*
X45105058Y-153710276D01*
X45243733Y-153767717D01*
X45390950Y-153797000D01*
X45541050Y-153797000D01*
X45688267Y-153767717D01*
X45826942Y-153710276D01*
X45951747Y-153626884D01*
X46057884Y-153520747D01*
X46141276Y-153395942D01*
X46198717Y-153257267D01*
X46228000Y-153110050D01*
X46228000Y-152959950D01*
X48387000Y-152959950D01*
X48387000Y-153110050D01*
X48416283Y-153257267D01*
X48473724Y-153395942D01*
X48557116Y-153520747D01*
X48663253Y-153626884D01*
X48788058Y-153710276D01*
X48926733Y-153767717D01*
X49073950Y-153797000D01*
X49224050Y-153797000D01*
X49371267Y-153767717D01*
X49509942Y-153710276D01*
X49634747Y-153626884D01*
X49740884Y-153520747D01*
X49824276Y-153395942D01*
X49881717Y-153257267D01*
X49911000Y-153110050D01*
X49911000Y-152959950D01*
X52070000Y-152959950D01*
X52070000Y-153110050D01*
X52099283Y-153257267D01*
X52156724Y-153395942D01*
X52240116Y-153520747D01*
X52346253Y-153626884D01*
X52471058Y-153710276D01*
X52609733Y-153767717D01*
X52756950Y-153797000D01*
X52907050Y-153797000D01*
X53054267Y-153767717D01*
X53192942Y-153710276D01*
X53317747Y-153626884D01*
X53423884Y-153520747D01*
X53507276Y-153395942D01*
X53564717Y-153257267D01*
X53594000Y-153110050D01*
X53594000Y-152959950D01*
X53564717Y-152812733D01*
X53507276Y-152674058D01*
X53423884Y-152549253D01*
X53317747Y-152443116D01*
X53192942Y-152359724D01*
X53054267Y-152302283D01*
X52907050Y-152273000D01*
X52756950Y-152273000D01*
X52609733Y-152302283D01*
X52471058Y-152359724D01*
X52346253Y-152443116D01*
X52240116Y-152549253D01*
X52156724Y-152674058D01*
X52099283Y-152812733D01*
X52070000Y-152959950D01*
X49911000Y-152959950D01*
X49881717Y-152812733D01*
X49824276Y-152674058D01*
X49740884Y-152549253D01*
X49634747Y-152443116D01*
X49509942Y-152359724D01*
X49371267Y-152302283D01*
X49224050Y-152273000D01*
X49073950Y-152273000D01*
X48926733Y-152302283D01*
X48788058Y-152359724D01*
X48663253Y-152443116D01*
X48557116Y-152549253D01*
X48473724Y-152674058D01*
X48416283Y-152812733D01*
X48387000Y-152959950D01*
X46228000Y-152959950D01*
X46198717Y-152812733D01*
X46141276Y-152674058D01*
X46057884Y-152549253D01*
X45951747Y-152443116D01*
X45826942Y-152359724D01*
X45688267Y-152302283D01*
X45541050Y-152273000D01*
X45390950Y-152273000D01*
X45243733Y-152302283D01*
X45105058Y-152359724D01*
X44980253Y-152443116D01*
X44874116Y-152549253D01*
X44790724Y-152674058D01*
X44733283Y-152812733D01*
X44704000Y-152959950D01*
X42418000Y-152959950D01*
X42388717Y-152812733D01*
X42331276Y-152674058D01*
X42247884Y-152549253D01*
X42141747Y-152443116D01*
X42016942Y-152359724D01*
X41878267Y-152302283D01*
X41731050Y-152273000D01*
X41580950Y-152273000D01*
X41433733Y-152302283D01*
X41295058Y-152359724D01*
X41170253Y-152443116D01*
X41064116Y-152549253D01*
X40980724Y-152674058D01*
X40923283Y-152812733D01*
X40894000Y-152959950D01*
X39997161Y-152959950D01*
X40045276Y-152887942D01*
X40102717Y-152749267D01*
X40132000Y-152602050D01*
X40132000Y-152451950D01*
X40102717Y-152304733D01*
X40045276Y-152166058D01*
X40015428Y-152121386D01*
X62328759Y-152121386D01*
X62328759Y-152318614D01*
X62367236Y-152512051D01*
X62442711Y-152694266D01*
X62552285Y-152858254D01*
X62691746Y-152997715D01*
X62855734Y-153107289D01*
X63037949Y-153182764D01*
X63231386Y-153221241D01*
X63428614Y-153221241D01*
X63622051Y-153182764D01*
X63804266Y-153107289D01*
X63968254Y-152997715D01*
X64107715Y-152858254D01*
X64217289Y-152694266D01*
X64292764Y-152512051D01*
X64331241Y-152318614D01*
X64331241Y-152121386D01*
X64292764Y-151927949D01*
X64217289Y-151745734D01*
X64107715Y-151581746D01*
X63968254Y-151442285D01*
X63804266Y-151332711D01*
X63622051Y-151257236D01*
X63428614Y-151218759D01*
X63231386Y-151218759D01*
X63037949Y-151257236D01*
X62855734Y-151332711D01*
X62691746Y-151442285D01*
X62552285Y-151581746D01*
X62442711Y-151745734D01*
X62367236Y-151927949D01*
X62328759Y-152121386D01*
X40015428Y-152121386D01*
X39961884Y-152041253D01*
X39855747Y-151935116D01*
X39730942Y-151851724D01*
X39592267Y-151794283D01*
X39445050Y-151765000D01*
X39294950Y-151765000D01*
X39147733Y-151794283D01*
X39009058Y-151851724D01*
X38884253Y-151935116D01*
X38778116Y-152041253D01*
X38694724Y-152166058D01*
X38637283Y-152304733D01*
X38608000Y-152451950D01*
X27995319Y-152451950D01*
X27961239Y-152417870D01*
X27857891Y-152348815D01*
X27743056Y-152301249D01*
X27621148Y-152277000D01*
X27537410Y-152277000D01*
X27546300Y-152232308D01*
X27546300Y-152059692D01*
X27512624Y-151890393D01*
X27446567Y-151730916D01*
X27350667Y-151587391D01*
X27290489Y-151527213D01*
X27356185Y-151428891D01*
X27403751Y-151314056D01*
X27428000Y-151192148D01*
X27428000Y-151067852D01*
X27423195Y-151043692D01*
X30873700Y-151043692D01*
X30873700Y-151216308D01*
X30907376Y-151385607D01*
X30973433Y-151545084D01*
X31069333Y-151688609D01*
X31191391Y-151810667D01*
X31334916Y-151906567D01*
X31494393Y-151972624D01*
X31663692Y-152006300D01*
X31836308Y-152006300D01*
X32005607Y-151972624D01*
X32165084Y-151906567D01*
X32308609Y-151810667D01*
X32430667Y-151688609D01*
X32526567Y-151545084D01*
X32592624Y-151385607D01*
X32626300Y-151216308D01*
X32626300Y-151043692D01*
X32592624Y-150874393D01*
X32526567Y-150714916D01*
X32430667Y-150571391D01*
X32308609Y-150449333D01*
X32165084Y-150353433D01*
X32005607Y-150287376D01*
X31836308Y-150253700D01*
X31663692Y-150253700D01*
X31494393Y-150287376D01*
X31334916Y-150353433D01*
X31191391Y-150449333D01*
X31069333Y-150571391D01*
X30973433Y-150714916D01*
X30907376Y-150874393D01*
X30873700Y-151043692D01*
X27423195Y-151043692D01*
X27403751Y-150945944D01*
X27356185Y-150831109D01*
X27290489Y-150732787D01*
X27350667Y-150672609D01*
X27446567Y-150529084D01*
X27512624Y-150369607D01*
X27546300Y-150200308D01*
X27546300Y-150027692D01*
X27523278Y-149911950D01*
X32639000Y-149911950D01*
X32639000Y-150062050D01*
X32668283Y-150209267D01*
X32725724Y-150347942D01*
X32809116Y-150472747D01*
X32915253Y-150578884D01*
X33040058Y-150662276D01*
X33178733Y-150719717D01*
X33325950Y-150749000D01*
X33476050Y-150749000D01*
X33623267Y-150719717D01*
X33761942Y-150662276D01*
X33886747Y-150578884D01*
X33992884Y-150472747D01*
X34076276Y-150347942D01*
X34099054Y-150292950D01*
X35687000Y-150292950D01*
X35687000Y-150443050D01*
X35716283Y-150590267D01*
X35773724Y-150728942D01*
X35857116Y-150853747D01*
X35963253Y-150959884D01*
X36088058Y-151043276D01*
X36226733Y-151100717D01*
X36373950Y-151130000D01*
X36524050Y-151130000D01*
X36671267Y-151100717D01*
X36809942Y-151043276D01*
X36934747Y-150959884D01*
X37040884Y-150853747D01*
X37124276Y-150728942D01*
X37181717Y-150590267D01*
X37211000Y-150443050D01*
X37211000Y-150292950D01*
X37181717Y-150145733D01*
X37124276Y-150007058D01*
X37040884Y-149882253D01*
X36934747Y-149776116D01*
X36809942Y-149692724D01*
X36671267Y-149635283D01*
X36524050Y-149606000D01*
X36373950Y-149606000D01*
X36226733Y-149635283D01*
X36088058Y-149692724D01*
X35963253Y-149776116D01*
X35857116Y-149882253D01*
X35773724Y-150007058D01*
X35716283Y-150145733D01*
X35687000Y-150292950D01*
X34099054Y-150292950D01*
X34133717Y-150209267D01*
X34163000Y-150062050D01*
X34163000Y-149911950D01*
X34133717Y-149764733D01*
X34076276Y-149626058D01*
X33992884Y-149501253D01*
X33886747Y-149395116D01*
X33761942Y-149311724D01*
X33623267Y-149254283D01*
X33476050Y-149225000D01*
X33325950Y-149225000D01*
X33178733Y-149254283D01*
X33040058Y-149311724D01*
X32915253Y-149395116D01*
X32809116Y-149501253D01*
X32725724Y-149626058D01*
X32668283Y-149764733D01*
X32639000Y-149911950D01*
X27523278Y-149911950D01*
X27512624Y-149858393D01*
X27446567Y-149698916D01*
X27350667Y-149555391D01*
X27228609Y-149433333D01*
X27085084Y-149337433D01*
X26925607Y-149271376D01*
X26756308Y-149237700D01*
X26583692Y-149237700D01*
X26414393Y-149271376D01*
X26254916Y-149337433D01*
X26111391Y-149433333D01*
X25989333Y-149555391D01*
X25893433Y-149698916D01*
X25827376Y-149858393D01*
X25806000Y-149965856D01*
X25806000Y-148400852D01*
X26801000Y-148400852D01*
X26801000Y-148525148D01*
X26825249Y-148647056D01*
X26872815Y-148761891D01*
X26941870Y-148865239D01*
X27029761Y-148953130D01*
X27133109Y-149022185D01*
X27247944Y-149069751D01*
X27369852Y-149094000D01*
X27494148Y-149094000D01*
X27616056Y-149069751D01*
X27730891Y-149022185D01*
X27834239Y-148953130D01*
X27922130Y-148865239D01*
X27991185Y-148761891D01*
X28035521Y-148654852D01*
X29341000Y-148654852D01*
X29341000Y-148779148D01*
X29365249Y-148901056D01*
X29412815Y-149015891D01*
X29481870Y-149119239D01*
X29569761Y-149207130D01*
X29673109Y-149276185D01*
X29787944Y-149323751D01*
X29909852Y-149348000D01*
X30034148Y-149348000D01*
X30156056Y-149323751D01*
X30270891Y-149276185D01*
X30374239Y-149207130D01*
X30462130Y-149119239D01*
X30484000Y-149086508D01*
X30484000Y-149160148D01*
X30508249Y-149282056D01*
X30555815Y-149396891D01*
X30624870Y-149500239D01*
X30712761Y-149588130D01*
X30816109Y-149657185D01*
X30930944Y-149704751D01*
X31052852Y-149729000D01*
X31177148Y-149729000D01*
X31299056Y-149704751D01*
X31413891Y-149657185D01*
X31517239Y-149588130D01*
X31605130Y-149500239D01*
X31674185Y-149396891D01*
X31721751Y-149282056D01*
X31746000Y-149160148D01*
X31746000Y-149035852D01*
X31743434Y-149022950D01*
X40767000Y-149022950D01*
X40767000Y-149173050D01*
X40796283Y-149320267D01*
X40853724Y-149458942D01*
X40937116Y-149583747D01*
X41043253Y-149689884D01*
X41168058Y-149773276D01*
X41306733Y-149830717D01*
X41453950Y-149860000D01*
X41604050Y-149860000D01*
X41751267Y-149830717D01*
X41889942Y-149773276D01*
X42014747Y-149689884D01*
X42120884Y-149583747D01*
X42204276Y-149458942D01*
X42261717Y-149320267D01*
X42291000Y-149173050D01*
X42291000Y-149022950D01*
X44704000Y-149022950D01*
X44704000Y-149173050D01*
X44733283Y-149320267D01*
X44790724Y-149458942D01*
X44874116Y-149583747D01*
X44980253Y-149689884D01*
X45105058Y-149773276D01*
X45243733Y-149830717D01*
X45390950Y-149860000D01*
X45541050Y-149860000D01*
X45688267Y-149830717D01*
X45826942Y-149773276D01*
X45951747Y-149689884D01*
X46057884Y-149583747D01*
X46141276Y-149458942D01*
X46198717Y-149320267D01*
X46228000Y-149173050D01*
X46228000Y-149022950D01*
X48387000Y-149022950D01*
X48387000Y-149173050D01*
X48416283Y-149320267D01*
X48473724Y-149458942D01*
X48557116Y-149583747D01*
X48663253Y-149689884D01*
X48788058Y-149773276D01*
X48926733Y-149830717D01*
X49073950Y-149860000D01*
X49224050Y-149860000D01*
X49371267Y-149830717D01*
X49509942Y-149773276D01*
X49634747Y-149689884D01*
X49740884Y-149583747D01*
X49824276Y-149458942D01*
X49881717Y-149320267D01*
X49911000Y-149173050D01*
X49911000Y-149022950D01*
X52070000Y-149022950D01*
X52070000Y-149173050D01*
X52099283Y-149320267D01*
X52156724Y-149458942D01*
X52240116Y-149583747D01*
X52346253Y-149689884D01*
X52471058Y-149773276D01*
X52609733Y-149830717D01*
X52756950Y-149860000D01*
X52907050Y-149860000D01*
X53054267Y-149830717D01*
X53192942Y-149773276D01*
X53317747Y-149689884D01*
X53423884Y-149583747D01*
X53507276Y-149458942D01*
X53564717Y-149320267D01*
X53594000Y-149173050D01*
X53594000Y-149022950D01*
X55753000Y-149022950D01*
X55753000Y-149173050D01*
X55782283Y-149320267D01*
X55839724Y-149458942D01*
X55923116Y-149583747D01*
X56029253Y-149689884D01*
X56154058Y-149773276D01*
X56292733Y-149830717D01*
X56439950Y-149860000D01*
X56590050Y-149860000D01*
X56737267Y-149830717D01*
X56875942Y-149773276D01*
X57000747Y-149689884D01*
X57106884Y-149583747D01*
X57190276Y-149458942D01*
X57247717Y-149320267D01*
X57277000Y-149173050D01*
X57277000Y-149022950D01*
X57247717Y-148875733D01*
X57190276Y-148737058D01*
X57106884Y-148612253D01*
X57000747Y-148506116D01*
X56875942Y-148422724D01*
X56737267Y-148365283D01*
X56590050Y-148336000D01*
X56439950Y-148336000D01*
X56292733Y-148365283D01*
X56154058Y-148422724D01*
X56029253Y-148506116D01*
X55923116Y-148612253D01*
X55839724Y-148737058D01*
X55782283Y-148875733D01*
X55753000Y-149022950D01*
X53594000Y-149022950D01*
X53564717Y-148875733D01*
X53507276Y-148737058D01*
X53423884Y-148612253D01*
X53317747Y-148506116D01*
X53192942Y-148422724D01*
X53054267Y-148365283D01*
X52907050Y-148336000D01*
X52756950Y-148336000D01*
X52609733Y-148365283D01*
X52471058Y-148422724D01*
X52346253Y-148506116D01*
X52240116Y-148612253D01*
X52156724Y-148737058D01*
X52099283Y-148875733D01*
X52070000Y-149022950D01*
X49911000Y-149022950D01*
X49881717Y-148875733D01*
X49824276Y-148737058D01*
X49740884Y-148612253D01*
X49634747Y-148506116D01*
X49509942Y-148422724D01*
X49371267Y-148365283D01*
X49224050Y-148336000D01*
X49073950Y-148336000D01*
X48926733Y-148365283D01*
X48788058Y-148422724D01*
X48663253Y-148506116D01*
X48557116Y-148612253D01*
X48473724Y-148737058D01*
X48416283Y-148875733D01*
X48387000Y-149022950D01*
X46228000Y-149022950D01*
X46198717Y-148875733D01*
X46141276Y-148737058D01*
X46057884Y-148612253D01*
X45951747Y-148506116D01*
X45826942Y-148422724D01*
X45688267Y-148365283D01*
X45541050Y-148336000D01*
X45390950Y-148336000D01*
X45243733Y-148365283D01*
X45105058Y-148422724D01*
X44980253Y-148506116D01*
X44874116Y-148612253D01*
X44790724Y-148737058D01*
X44733283Y-148875733D01*
X44704000Y-149022950D01*
X42291000Y-149022950D01*
X42261717Y-148875733D01*
X42204276Y-148737058D01*
X42120884Y-148612253D01*
X42014747Y-148506116D01*
X41889942Y-148422724D01*
X41751267Y-148365283D01*
X41604050Y-148336000D01*
X41453950Y-148336000D01*
X41306733Y-148365283D01*
X41168058Y-148422724D01*
X41043253Y-148506116D01*
X40937116Y-148612253D01*
X40853724Y-148737058D01*
X40796283Y-148875733D01*
X40767000Y-149022950D01*
X31743434Y-149022950D01*
X31721751Y-148913944D01*
X31674185Y-148799109D01*
X31605130Y-148695761D01*
X31517239Y-148607870D01*
X31413891Y-148538815D01*
X31299056Y-148491249D01*
X31177148Y-148467000D01*
X31052852Y-148467000D01*
X30930944Y-148491249D01*
X30816109Y-148538815D01*
X30712761Y-148607870D01*
X30624870Y-148695761D01*
X30603000Y-148728492D01*
X30603000Y-148654852D01*
X30578751Y-148532944D01*
X30531185Y-148418109D01*
X30462130Y-148314761D01*
X30374239Y-148226870D01*
X30270891Y-148157815D01*
X30156056Y-148110249D01*
X30034148Y-148086000D01*
X29909852Y-148086000D01*
X29787944Y-148110249D01*
X29673109Y-148157815D01*
X29569761Y-148226870D01*
X29481870Y-148314761D01*
X29412815Y-148418109D01*
X29365249Y-148532944D01*
X29341000Y-148654852D01*
X28035521Y-148654852D01*
X28038751Y-148647056D01*
X28063000Y-148525148D01*
X28063000Y-148400852D01*
X28038751Y-148278944D01*
X27991185Y-148164109D01*
X27922130Y-148060761D01*
X27834239Y-147972870D01*
X27730891Y-147903815D01*
X27616056Y-147856249D01*
X27494148Y-147832000D01*
X27369852Y-147832000D01*
X27247944Y-147856249D01*
X27133109Y-147903815D01*
X27029761Y-147972870D01*
X26941870Y-148060761D01*
X26872815Y-148164109D01*
X26825249Y-148278944D01*
X26801000Y-148400852D01*
X25806000Y-148400852D01*
X25806000Y-145593950D01*
X35687000Y-145593950D01*
X35687000Y-145744050D01*
X35716283Y-145891267D01*
X35773724Y-146029942D01*
X35857116Y-146154747D01*
X35963253Y-146260884D01*
X36088058Y-146344276D01*
X36226733Y-146401717D01*
X36373950Y-146431000D01*
X36524050Y-146431000D01*
X36671267Y-146401717D01*
X36809942Y-146344276D01*
X36934747Y-146260884D01*
X37040884Y-146154747D01*
X37124276Y-146029942D01*
X37181717Y-145891267D01*
X37211000Y-145744050D01*
X37211000Y-145593950D01*
X37181717Y-145446733D01*
X37124276Y-145308058D01*
X37040884Y-145183253D01*
X36943581Y-145085950D01*
X40767000Y-145085950D01*
X40767000Y-145236050D01*
X40796283Y-145383267D01*
X40853724Y-145521942D01*
X40937116Y-145646747D01*
X41043253Y-145752884D01*
X41168058Y-145836276D01*
X41306733Y-145893717D01*
X41453950Y-145923000D01*
X41604050Y-145923000D01*
X41751267Y-145893717D01*
X41889942Y-145836276D01*
X42014747Y-145752884D01*
X42120884Y-145646747D01*
X42204276Y-145521942D01*
X42261717Y-145383267D01*
X42291000Y-145236050D01*
X42291000Y-145085950D01*
X42261717Y-144938733D01*
X42204276Y-144800058D01*
X42120884Y-144675253D01*
X42014747Y-144569116D01*
X41889942Y-144485724D01*
X41751267Y-144428283D01*
X41604050Y-144399000D01*
X41453950Y-144399000D01*
X41306733Y-144428283D01*
X41168058Y-144485724D01*
X41043253Y-144569116D01*
X40937116Y-144675253D01*
X40853724Y-144800058D01*
X40796283Y-144938733D01*
X40767000Y-145085950D01*
X36943581Y-145085950D01*
X36934747Y-145077116D01*
X36809942Y-144993724D01*
X36671267Y-144936283D01*
X36524050Y-144907000D01*
X36373950Y-144907000D01*
X36226733Y-144936283D01*
X36088058Y-144993724D01*
X35963253Y-145077116D01*
X35857116Y-145183253D01*
X35773724Y-145308058D01*
X35716283Y-145446733D01*
X35687000Y-145593950D01*
X25806000Y-145593950D01*
X25806000Y-143180950D01*
X26670000Y-143180950D01*
X26670000Y-143331050D01*
X26699283Y-143478267D01*
X26756724Y-143616942D01*
X26840116Y-143741747D01*
X26946253Y-143847884D01*
X27071058Y-143931276D01*
X27209733Y-143988717D01*
X27356950Y-144018000D01*
X27507050Y-144018000D01*
X27654267Y-143988717D01*
X27792942Y-143931276D01*
X27917747Y-143847884D01*
X28023884Y-143741747D01*
X28107276Y-143616942D01*
X28164717Y-143478267D01*
X28173333Y-143434950D01*
X31877000Y-143434950D01*
X31877000Y-143585050D01*
X31906283Y-143732267D01*
X31963724Y-143870942D01*
X32047116Y-143995747D01*
X32153253Y-144101884D01*
X32278058Y-144185276D01*
X32416733Y-144242717D01*
X32563950Y-144272000D01*
X32714050Y-144272000D01*
X32861267Y-144242717D01*
X32999942Y-144185276D01*
X33124747Y-144101884D01*
X33143779Y-144082852D01*
X34929000Y-144082852D01*
X34929000Y-144207148D01*
X34953249Y-144329056D01*
X35000815Y-144443891D01*
X35069870Y-144547239D01*
X35157761Y-144635130D01*
X35261109Y-144704185D01*
X35375944Y-144751751D01*
X35497852Y-144776000D01*
X35622148Y-144776000D01*
X35744056Y-144751751D01*
X35858891Y-144704185D01*
X35962239Y-144635130D01*
X36050130Y-144547239D01*
X36119185Y-144443891D01*
X36166751Y-144329056D01*
X36191000Y-144207148D01*
X36191000Y-144082852D01*
X36166751Y-143960944D01*
X36119185Y-143846109D01*
X36050130Y-143742761D01*
X35962239Y-143654870D01*
X35858891Y-143585815D01*
X35744056Y-143538249D01*
X35622148Y-143514000D01*
X35497852Y-143514000D01*
X35375944Y-143538249D01*
X35261109Y-143585815D01*
X35157761Y-143654870D01*
X35069870Y-143742761D01*
X35000815Y-143846109D01*
X34953249Y-143960944D01*
X34929000Y-144082852D01*
X33143779Y-144082852D01*
X33230884Y-143995747D01*
X33314276Y-143870942D01*
X33371717Y-143732267D01*
X33401000Y-143585050D01*
X33401000Y-143434950D01*
X33371717Y-143287733D01*
X33332831Y-143193852D01*
X37850000Y-143193852D01*
X37850000Y-143318148D01*
X37874249Y-143440056D01*
X37921815Y-143554891D01*
X37990870Y-143658239D01*
X38078761Y-143746130D01*
X38182109Y-143815185D01*
X38296944Y-143862751D01*
X38418852Y-143887000D01*
X38543148Y-143887000D01*
X38665056Y-143862751D01*
X38779891Y-143815185D01*
X38883239Y-143746130D01*
X38940419Y-143688950D01*
X44831000Y-143688950D01*
X44831000Y-143839050D01*
X44860283Y-143986267D01*
X44917724Y-144124942D01*
X45001116Y-144249747D01*
X45107253Y-144355884D01*
X45232058Y-144439276D01*
X45370733Y-144496717D01*
X45517950Y-144526000D01*
X45668050Y-144526000D01*
X45815267Y-144496717D01*
X45953942Y-144439276D01*
X46078747Y-144355884D01*
X46184884Y-144249747D01*
X46268276Y-144124942D01*
X46325717Y-143986267D01*
X46355000Y-143839050D01*
X46355000Y-143688950D01*
X50038000Y-143688950D01*
X50038000Y-143839050D01*
X50067283Y-143986267D01*
X50124724Y-144124942D01*
X50208116Y-144249747D01*
X50314253Y-144355884D01*
X50439058Y-144439276D01*
X50577733Y-144496717D01*
X50724950Y-144526000D01*
X50875050Y-144526000D01*
X51022267Y-144496717D01*
X51160942Y-144439276D01*
X51285747Y-144355884D01*
X51391884Y-144249747D01*
X51475276Y-144124942D01*
X51532717Y-143986267D01*
X51562000Y-143839050D01*
X51562000Y-143688950D01*
X53848000Y-143688950D01*
X53848000Y-143839050D01*
X53877283Y-143986267D01*
X53934724Y-144124942D01*
X54018116Y-144249747D01*
X54124253Y-144355884D01*
X54249058Y-144439276D01*
X54387733Y-144496717D01*
X54534950Y-144526000D01*
X54685050Y-144526000D01*
X54832267Y-144496717D01*
X54970942Y-144439276D01*
X55095747Y-144355884D01*
X55201884Y-144249747D01*
X55285276Y-144124942D01*
X55342717Y-143986267D01*
X55372000Y-143839050D01*
X55372000Y-143688950D01*
X55342717Y-143541733D01*
X55285276Y-143403058D01*
X55201884Y-143278253D01*
X55095747Y-143172116D01*
X54970942Y-143088724D01*
X54832267Y-143031283D01*
X54685050Y-143002000D01*
X54534950Y-143002000D01*
X54387733Y-143031283D01*
X54249058Y-143088724D01*
X54124253Y-143172116D01*
X54018116Y-143278253D01*
X53934724Y-143403058D01*
X53877283Y-143541733D01*
X53848000Y-143688950D01*
X51562000Y-143688950D01*
X51532717Y-143541733D01*
X51475276Y-143403058D01*
X51391884Y-143278253D01*
X51285747Y-143172116D01*
X51160942Y-143088724D01*
X51022267Y-143031283D01*
X50875050Y-143002000D01*
X50724950Y-143002000D01*
X50577733Y-143031283D01*
X50439058Y-143088724D01*
X50314253Y-143172116D01*
X50208116Y-143278253D01*
X50124724Y-143403058D01*
X50067283Y-143541733D01*
X50038000Y-143688950D01*
X46355000Y-143688950D01*
X46325717Y-143541733D01*
X46268276Y-143403058D01*
X46184884Y-143278253D01*
X46078747Y-143172116D01*
X45953942Y-143088724D01*
X45815267Y-143031283D01*
X45668050Y-143002000D01*
X45517950Y-143002000D01*
X45370733Y-143031283D01*
X45232058Y-143088724D01*
X45107253Y-143172116D01*
X45001116Y-143278253D01*
X44917724Y-143403058D01*
X44860283Y-143541733D01*
X44831000Y-143688950D01*
X38940419Y-143688950D01*
X38971130Y-143658239D01*
X39040185Y-143554891D01*
X39087751Y-143440056D01*
X39112000Y-143318148D01*
X39112000Y-143193852D01*
X39087751Y-143071944D01*
X39040185Y-142957109D01*
X38971130Y-142853761D01*
X38883239Y-142765870D01*
X38779891Y-142696815D01*
X38665056Y-142649249D01*
X38543148Y-142625000D01*
X38418852Y-142625000D01*
X38296944Y-142649249D01*
X38182109Y-142696815D01*
X38078761Y-142765870D01*
X37990870Y-142853761D01*
X37921815Y-142957109D01*
X37874249Y-143071944D01*
X37850000Y-143193852D01*
X33332831Y-143193852D01*
X33314276Y-143149058D01*
X33230884Y-143024253D01*
X33124747Y-142918116D01*
X32999942Y-142834724D01*
X32861267Y-142777283D01*
X32714050Y-142748000D01*
X32563950Y-142748000D01*
X32416733Y-142777283D01*
X32278058Y-142834724D01*
X32153253Y-142918116D01*
X32047116Y-143024253D01*
X31963724Y-143149058D01*
X31906283Y-143287733D01*
X31877000Y-143434950D01*
X28173333Y-143434950D01*
X28194000Y-143331050D01*
X28194000Y-143180950D01*
X28164717Y-143033733D01*
X28107276Y-142895058D01*
X28023884Y-142770253D01*
X27917747Y-142664116D01*
X27792942Y-142580724D01*
X27654267Y-142523283D01*
X27507050Y-142494000D01*
X27356950Y-142494000D01*
X27209733Y-142523283D01*
X27071058Y-142580724D01*
X26946253Y-142664116D01*
X26840116Y-142770253D01*
X26756724Y-142895058D01*
X26699283Y-143033733D01*
X26670000Y-143180950D01*
X25806000Y-143180950D01*
X25806000Y-142177852D01*
X55249000Y-142177852D01*
X55249000Y-142302148D01*
X55273249Y-142424056D01*
X55320815Y-142538891D01*
X55389870Y-142642239D01*
X55477761Y-142730130D01*
X55581109Y-142799185D01*
X55695944Y-142846751D01*
X55817852Y-142871000D01*
X55942148Y-142871000D01*
X56064056Y-142846751D01*
X56178891Y-142799185D01*
X56282239Y-142730130D01*
X56370130Y-142642239D01*
X56439185Y-142538891D01*
X56486751Y-142424056D01*
X56511000Y-142302148D01*
X56511000Y-142177852D01*
X56486751Y-142055944D01*
X56439185Y-141941109D01*
X56370130Y-141837761D01*
X56282239Y-141749870D01*
X56178891Y-141680815D01*
X56064056Y-141633249D01*
X55942148Y-141609000D01*
X55817852Y-141609000D01*
X55695944Y-141633249D01*
X55581109Y-141680815D01*
X55477761Y-141749870D01*
X55389870Y-141837761D01*
X55320815Y-141941109D01*
X55273249Y-142055944D01*
X55249000Y-142177852D01*
X25806000Y-142177852D01*
X25806000Y-140399852D01*
X41914000Y-140399852D01*
X41914000Y-140524148D01*
X41938249Y-140646056D01*
X41985815Y-140760891D01*
X42054870Y-140864239D01*
X42142761Y-140952130D01*
X42246109Y-141021185D01*
X42360944Y-141068751D01*
X42482852Y-141093000D01*
X42607148Y-141093000D01*
X42729056Y-141068751D01*
X42843891Y-141021185D01*
X42947239Y-140952130D01*
X42991517Y-140907852D01*
X54106000Y-140907852D01*
X54106000Y-141032148D01*
X54130249Y-141154056D01*
X54177815Y-141268891D01*
X54246870Y-141372239D01*
X54334761Y-141460130D01*
X54438109Y-141529185D01*
X54552944Y-141576751D01*
X54674852Y-141601000D01*
X54799148Y-141601000D01*
X54921056Y-141576751D01*
X55035891Y-141529185D01*
X55139239Y-141460130D01*
X55227130Y-141372239D01*
X55296185Y-141268891D01*
X55343751Y-141154056D01*
X55368000Y-141032148D01*
X55368000Y-140907852D01*
X55343751Y-140785944D01*
X55341642Y-140780852D01*
X58678000Y-140780852D01*
X58678000Y-140905148D01*
X58702249Y-141027056D01*
X58749815Y-141141891D01*
X58818870Y-141245239D01*
X58906761Y-141333130D01*
X58932242Y-141350156D01*
X58876815Y-141433109D01*
X58829249Y-141547944D01*
X58805000Y-141669852D01*
X58805000Y-141794148D01*
X58829249Y-141916056D01*
X58876815Y-142030891D01*
X58945870Y-142134239D01*
X59033761Y-142222130D01*
X59137109Y-142291185D01*
X59251944Y-142338751D01*
X59373852Y-142363000D01*
X59498148Y-142363000D01*
X59620056Y-142338751D01*
X59734891Y-142291185D01*
X59838239Y-142222130D01*
X59926130Y-142134239D01*
X59995185Y-142030891D01*
X60042751Y-141916056D01*
X60067000Y-141794148D01*
X60067000Y-141669852D01*
X60042751Y-141547944D01*
X59995185Y-141433109D01*
X59926130Y-141329761D01*
X59838239Y-141241870D01*
X59812758Y-141224844D01*
X59868185Y-141141891D01*
X59915751Y-141027056D01*
X59940000Y-140905148D01*
X59940000Y-140780852D01*
X59915751Y-140658944D01*
X59868185Y-140544109D01*
X59799130Y-140440761D01*
X59711239Y-140352870D01*
X59607891Y-140283815D01*
X59493056Y-140236249D01*
X59371148Y-140212000D01*
X59246852Y-140212000D01*
X59124944Y-140236249D01*
X59010109Y-140283815D01*
X58906761Y-140352870D01*
X58818870Y-140440761D01*
X58749815Y-140544109D01*
X58702249Y-140658944D01*
X58678000Y-140780852D01*
X55341642Y-140780852D01*
X55296185Y-140671109D01*
X55295013Y-140669356D01*
X55354130Y-140610239D01*
X55423185Y-140506891D01*
X55470751Y-140392056D01*
X55495000Y-140270148D01*
X55495000Y-140145852D01*
X55470751Y-140023944D01*
X55423185Y-139909109D01*
X55368321Y-139827000D01*
X55423185Y-139744891D01*
X55470751Y-139630056D01*
X55494462Y-139510852D01*
X58678000Y-139510852D01*
X58678000Y-139635148D01*
X58702249Y-139757056D01*
X58749815Y-139871891D01*
X58818870Y-139975239D01*
X58906761Y-140063130D01*
X59010109Y-140132185D01*
X59124944Y-140179751D01*
X59246852Y-140204000D01*
X59371148Y-140204000D01*
X59493056Y-140179751D01*
X59607891Y-140132185D01*
X59711239Y-140063130D01*
X59799130Y-139975239D01*
X59868185Y-139871891D01*
X59915751Y-139757056D01*
X59940000Y-139635148D01*
X59940000Y-139510852D01*
X59915751Y-139388944D01*
X59868185Y-139274109D01*
X59799130Y-139170761D01*
X59711239Y-139082870D01*
X59607891Y-139013815D01*
X59493056Y-138966249D01*
X59371148Y-138942000D01*
X59246852Y-138942000D01*
X59124944Y-138966249D01*
X59010109Y-139013815D01*
X58906761Y-139082870D01*
X58818870Y-139170761D01*
X58749815Y-139274109D01*
X58702249Y-139388944D01*
X58678000Y-139510852D01*
X55494462Y-139510852D01*
X55495000Y-139508148D01*
X55495000Y-139383852D01*
X55470751Y-139261944D01*
X55423185Y-139147109D01*
X55354130Y-139043761D01*
X55266239Y-138955870D01*
X55162891Y-138886815D01*
X55048056Y-138839249D01*
X54926148Y-138815000D01*
X54801852Y-138815000D01*
X54679944Y-138839249D01*
X54565109Y-138886815D01*
X54461761Y-138955870D01*
X54373870Y-139043761D01*
X54304815Y-139147109D01*
X54257249Y-139261944D01*
X54233000Y-139383852D01*
X54233000Y-139508148D01*
X54257249Y-139630056D01*
X54304815Y-139744891D01*
X54359679Y-139827000D01*
X54304815Y-139909109D01*
X54257249Y-140023944D01*
X54233000Y-140145852D01*
X54233000Y-140270148D01*
X54257249Y-140392056D01*
X54304815Y-140506891D01*
X54305987Y-140508644D01*
X54246870Y-140567761D01*
X54177815Y-140671109D01*
X54130249Y-140785944D01*
X54106000Y-140907852D01*
X42991517Y-140907852D01*
X43035130Y-140864239D01*
X43104185Y-140760891D01*
X43151751Y-140646056D01*
X43176000Y-140524148D01*
X43176000Y-140399852D01*
X43151751Y-140277944D01*
X43104185Y-140163109D01*
X43092655Y-140145852D01*
X45089000Y-140145852D01*
X45089000Y-140270148D01*
X45113249Y-140392056D01*
X45160815Y-140506891D01*
X45229870Y-140610239D01*
X45317761Y-140698130D01*
X45421109Y-140767185D01*
X45535944Y-140814751D01*
X45657852Y-140839000D01*
X45782148Y-140839000D01*
X45904056Y-140814751D01*
X46018891Y-140767185D01*
X46122239Y-140698130D01*
X46210130Y-140610239D01*
X46279185Y-140506891D01*
X46326751Y-140392056D01*
X46351000Y-140270148D01*
X46351000Y-140145852D01*
X46326751Y-140023944D01*
X46279185Y-139909109D01*
X46259034Y-139878950D01*
X49911000Y-139878950D01*
X49911000Y-140029050D01*
X49940283Y-140176267D01*
X49997724Y-140314942D01*
X50081116Y-140439747D01*
X50187253Y-140545884D01*
X50312058Y-140629276D01*
X50450733Y-140686717D01*
X50597950Y-140716000D01*
X50748050Y-140716000D01*
X50895267Y-140686717D01*
X51033942Y-140629276D01*
X51158747Y-140545884D01*
X51264884Y-140439747D01*
X51348276Y-140314942D01*
X51405717Y-140176267D01*
X51435000Y-140029050D01*
X51435000Y-139878950D01*
X51405717Y-139731733D01*
X51348276Y-139593058D01*
X51264884Y-139468253D01*
X51158747Y-139362116D01*
X51033942Y-139278724D01*
X50895267Y-139221283D01*
X50748050Y-139192000D01*
X50597950Y-139192000D01*
X50450733Y-139221283D01*
X50312058Y-139278724D01*
X50187253Y-139362116D01*
X50081116Y-139468253D01*
X49997724Y-139593058D01*
X49940283Y-139731733D01*
X49911000Y-139878950D01*
X46259034Y-139878950D01*
X46210130Y-139805761D01*
X46122239Y-139717870D01*
X46018891Y-139648815D01*
X45904056Y-139601249D01*
X45782148Y-139577000D01*
X45657852Y-139577000D01*
X45535944Y-139601249D01*
X45421109Y-139648815D01*
X45317761Y-139717870D01*
X45229870Y-139805761D01*
X45160815Y-139909109D01*
X45113249Y-140023944D01*
X45089000Y-140145852D01*
X43092655Y-140145852D01*
X43035130Y-140059761D01*
X42947239Y-139971870D01*
X42843891Y-139902815D01*
X42729056Y-139855249D01*
X42607148Y-139831000D01*
X42482852Y-139831000D01*
X42360944Y-139855249D01*
X42246109Y-139902815D01*
X42142761Y-139971870D01*
X42054870Y-140059761D01*
X41985815Y-140163109D01*
X41938249Y-140277944D01*
X41914000Y-140399852D01*
X25806000Y-140399852D01*
X25806000Y-139315394D01*
X40481875Y-139315394D01*
X40481875Y-139439690D01*
X40506124Y-139561598D01*
X40553690Y-139676433D01*
X40622745Y-139779781D01*
X40710636Y-139867672D01*
X40813984Y-139936727D01*
X40928819Y-139984293D01*
X41050727Y-140008542D01*
X41175023Y-140008542D01*
X41296931Y-139984293D01*
X41411766Y-139936727D01*
X41515114Y-139867672D01*
X41603005Y-139779781D01*
X41672060Y-139676433D01*
X41719626Y-139561598D01*
X41743875Y-139439690D01*
X41743875Y-139418187D01*
X41751267Y-139416717D01*
X41889942Y-139359276D01*
X42014747Y-139275884D01*
X42120884Y-139169747D01*
X42204276Y-139044942D01*
X42261717Y-138906267D01*
X42291000Y-138759050D01*
X42291000Y-138608950D01*
X42261717Y-138461733D01*
X42204276Y-138323058D01*
X42120884Y-138198253D01*
X42014747Y-138092116D01*
X41889942Y-138008724D01*
X41751267Y-137951283D01*
X41604050Y-137922000D01*
X41453950Y-137922000D01*
X41306733Y-137951283D01*
X41168058Y-138008724D01*
X41043253Y-138092116D01*
X40937116Y-138198253D01*
X40853724Y-138323058D01*
X40796283Y-138461733D01*
X40767000Y-138608950D01*
X40767000Y-138759050D01*
X40782925Y-138839110D01*
X40710636Y-138887412D01*
X40622745Y-138975303D01*
X40553690Y-139078651D01*
X40506124Y-139193486D01*
X40481875Y-139315394D01*
X25806000Y-139315394D01*
X25806000Y-138621852D01*
X30103000Y-138621852D01*
X30103000Y-138746148D01*
X30127249Y-138868056D01*
X30174815Y-138982891D01*
X30243870Y-139086239D01*
X30331761Y-139174130D01*
X30435109Y-139243185D01*
X30549944Y-139290751D01*
X30671852Y-139315000D01*
X30796148Y-139315000D01*
X30918056Y-139290751D01*
X31032891Y-139243185D01*
X31136239Y-139174130D01*
X31224130Y-139086239D01*
X31293185Y-138982891D01*
X31340751Y-138868056D01*
X31365000Y-138746148D01*
X31365000Y-138621852D01*
X31881000Y-138621852D01*
X31881000Y-138746148D01*
X31905249Y-138868056D01*
X31952815Y-138982891D01*
X32021870Y-139086239D01*
X32109761Y-139174130D01*
X32213109Y-139243185D01*
X32327944Y-139290751D01*
X32449852Y-139315000D01*
X32574148Y-139315000D01*
X32696056Y-139290751D01*
X32810891Y-139243185D01*
X32914239Y-139174130D01*
X33002130Y-139086239D01*
X33071185Y-138982891D01*
X33118751Y-138868056D01*
X33143000Y-138746148D01*
X33143000Y-138621852D01*
X33118751Y-138499944D01*
X33071185Y-138385109D01*
X33002130Y-138281761D01*
X32914239Y-138193870D01*
X32810891Y-138124815D01*
X32696056Y-138077249D01*
X32574148Y-138053000D01*
X32449852Y-138053000D01*
X32327944Y-138077249D01*
X32213109Y-138124815D01*
X32109761Y-138193870D01*
X32021870Y-138281761D01*
X31952815Y-138385109D01*
X31905249Y-138499944D01*
X31881000Y-138621852D01*
X31365000Y-138621852D01*
X31340751Y-138499944D01*
X31293185Y-138385109D01*
X31224130Y-138281761D01*
X31136239Y-138193870D01*
X31032891Y-138124815D01*
X30918056Y-138077249D01*
X30796148Y-138053000D01*
X30671852Y-138053000D01*
X30549944Y-138077249D01*
X30435109Y-138124815D01*
X30331761Y-138193870D01*
X30243870Y-138281761D01*
X30174815Y-138385109D01*
X30127249Y-138499944D01*
X30103000Y-138621852D01*
X25806000Y-138621852D01*
X25806000Y-136957950D01*
X32258000Y-136957950D01*
X32258000Y-137108050D01*
X32287283Y-137255267D01*
X32344724Y-137393942D01*
X32428116Y-137518747D01*
X32534253Y-137624884D01*
X32659058Y-137708276D01*
X32797733Y-137765717D01*
X32944950Y-137795000D01*
X33095050Y-137795000D01*
X33242267Y-137765717D01*
X33380942Y-137708276D01*
X33505747Y-137624884D01*
X33611884Y-137518747D01*
X33695276Y-137393942D01*
X33752717Y-137255267D01*
X33782000Y-137108050D01*
X33782000Y-136957950D01*
X33752717Y-136810733D01*
X33708487Y-136703950D01*
X44831000Y-136703950D01*
X44831000Y-136854050D01*
X44860283Y-137001267D01*
X44917724Y-137139942D01*
X45001116Y-137264747D01*
X45107253Y-137370884D01*
X45232058Y-137454276D01*
X45370733Y-137511717D01*
X45517950Y-137541000D01*
X45668050Y-137541000D01*
X45815267Y-137511717D01*
X45953942Y-137454276D01*
X46078747Y-137370884D01*
X46184884Y-137264747D01*
X46268276Y-137139942D01*
X46325717Y-137001267D01*
X46333082Y-136964237D01*
X53430540Y-136964237D01*
X53430540Y-137088533D01*
X53454789Y-137210441D01*
X53502355Y-137325276D01*
X53571410Y-137428624D01*
X53659301Y-137516515D01*
X53762649Y-137585570D01*
X53877484Y-137633136D01*
X53999392Y-137657385D01*
X54123688Y-137657385D01*
X54245596Y-137633136D01*
X54360431Y-137585570D01*
X54463779Y-137516515D01*
X54551670Y-137428624D01*
X54601322Y-137354314D01*
X57687000Y-137354314D01*
X57687000Y-137473686D01*
X57710288Y-137590764D01*
X57755970Y-137701049D01*
X57822289Y-137800302D01*
X57906698Y-137884711D01*
X58005951Y-137951030D01*
X58116236Y-137996712D01*
X58233314Y-138020000D01*
X58352686Y-138020000D01*
X58469764Y-137996712D01*
X58580049Y-137951030D01*
X58679302Y-137884711D01*
X58704161Y-137859852D01*
X59186000Y-137859852D01*
X59186000Y-137984148D01*
X59210249Y-138106056D01*
X59257815Y-138220891D01*
X59326870Y-138324239D01*
X59414761Y-138412130D01*
X59518109Y-138481185D01*
X59632944Y-138528751D01*
X59754852Y-138553000D01*
X59879148Y-138553000D01*
X60001056Y-138528751D01*
X60115891Y-138481185D01*
X60219239Y-138412130D01*
X60307130Y-138324239D01*
X60376185Y-138220891D01*
X60423751Y-138106056D01*
X60448000Y-137984148D01*
X60448000Y-137859852D01*
X60423751Y-137737944D01*
X60376185Y-137623109D01*
X60307130Y-137519761D01*
X60219239Y-137431870D01*
X60115891Y-137362815D01*
X60001056Y-137315249D01*
X59879148Y-137291000D01*
X59754852Y-137291000D01*
X59632944Y-137315249D01*
X59518109Y-137362815D01*
X59414761Y-137431870D01*
X59326870Y-137519761D01*
X59257815Y-137623109D01*
X59210249Y-137737944D01*
X59186000Y-137859852D01*
X58704161Y-137859852D01*
X58763711Y-137800302D01*
X58830030Y-137701049D01*
X58875712Y-137590764D01*
X58899000Y-137473686D01*
X58899000Y-137354314D01*
X58875712Y-137237236D01*
X58830030Y-137126951D01*
X58763711Y-137027698D01*
X58679302Y-136943289D01*
X58580049Y-136876970D01*
X58469764Y-136831288D01*
X58352686Y-136808000D01*
X58233314Y-136808000D01*
X58116236Y-136831288D01*
X58005951Y-136876970D01*
X57906698Y-136943289D01*
X57822289Y-137027698D01*
X57755970Y-137126951D01*
X57710288Y-137237236D01*
X57687000Y-137354314D01*
X54601322Y-137354314D01*
X54620725Y-137325276D01*
X54668291Y-137210441D01*
X54692540Y-137088533D01*
X54692540Y-136964237D01*
X54668291Y-136842329D01*
X54620725Y-136727494D01*
X54551670Y-136624146D01*
X54463779Y-136536255D01*
X54440948Y-136521000D01*
X54545148Y-136521000D01*
X54667056Y-136496751D01*
X54781891Y-136449185D01*
X54885239Y-136380130D01*
X54973130Y-136292239D01*
X55042185Y-136188891D01*
X55089751Y-136074056D01*
X55114000Y-135952148D01*
X55114000Y-135827852D01*
X55098510Y-135749977D01*
X55175056Y-135734751D01*
X55289891Y-135687185D01*
X55372000Y-135632321D01*
X55454109Y-135687185D01*
X55568944Y-135734751D01*
X55690852Y-135759000D01*
X55815148Y-135759000D01*
X55937056Y-135734751D01*
X56051891Y-135687185D01*
X56155239Y-135618130D01*
X56243130Y-135530239D01*
X56312185Y-135426891D01*
X56359751Y-135312056D01*
X56384000Y-135190148D01*
X56384000Y-135065852D01*
X56359751Y-134943944D01*
X56312185Y-134829109D01*
X56243130Y-134725761D01*
X56155239Y-134637870D01*
X56051891Y-134568815D01*
X55937056Y-134521249D01*
X55815148Y-134497000D01*
X55690852Y-134497000D01*
X55568944Y-134521249D01*
X55454109Y-134568815D01*
X55372000Y-134623679D01*
X55289891Y-134568815D01*
X55175056Y-134521249D01*
X55053148Y-134497000D01*
X54928852Y-134497000D01*
X54806944Y-134521249D01*
X54692109Y-134568815D01*
X54588761Y-134637870D01*
X54500870Y-134725761D01*
X54431815Y-134829109D01*
X54384249Y-134943944D01*
X54360000Y-135065852D01*
X54360000Y-135190148D01*
X54375490Y-135268023D01*
X54298944Y-135283249D01*
X54184109Y-135330815D01*
X54080761Y-135399870D01*
X53992870Y-135487761D01*
X53923815Y-135591109D01*
X53876249Y-135705944D01*
X53852000Y-135827852D01*
X53852000Y-135952148D01*
X53876249Y-136074056D01*
X53923815Y-136188891D01*
X53992870Y-136292239D01*
X54080761Y-136380130D01*
X54103592Y-136395385D01*
X53999392Y-136395385D01*
X53877484Y-136419634D01*
X53762649Y-136467200D01*
X53659301Y-136536255D01*
X53571410Y-136624146D01*
X53502355Y-136727494D01*
X53454789Y-136842329D01*
X53430540Y-136964237D01*
X46333082Y-136964237D01*
X46355000Y-136854050D01*
X46355000Y-136703950D01*
X46325717Y-136556733D01*
X46268276Y-136418058D01*
X46184884Y-136293253D01*
X46078747Y-136187116D01*
X45953942Y-136103724D01*
X45815267Y-136046283D01*
X45668050Y-136017000D01*
X45517950Y-136017000D01*
X45370733Y-136046283D01*
X45232058Y-136103724D01*
X45107253Y-136187116D01*
X45001116Y-136293253D01*
X44917724Y-136418058D01*
X44860283Y-136556733D01*
X44831000Y-136703950D01*
X33708487Y-136703950D01*
X33695276Y-136672058D01*
X33611884Y-136547253D01*
X33505747Y-136441116D01*
X33380942Y-136357724D01*
X33242267Y-136300283D01*
X33095050Y-136271000D01*
X32944950Y-136271000D01*
X32797733Y-136300283D01*
X32659058Y-136357724D01*
X32534253Y-136441116D01*
X32428116Y-136547253D01*
X32344724Y-136672058D01*
X32287283Y-136810733D01*
X32258000Y-136957950D01*
X25806000Y-136957950D01*
X25806000Y-134620000D01*
X46613000Y-134620000D01*
X46613000Y-134682148D01*
X46637249Y-134804056D01*
X46684815Y-134918891D01*
X46753870Y-135022239D01*
X46841761Y-135110130D01*
X46945109Y-135179185D01*
X46998897Y-135201465D01*
X46949724Y-135275058D01*
X46892283Y-135413733D01*
X46863000Y-135560950D01*
X46863000Y-135711050D01*
X46892283Y-135858267D01*
X46949724Y-135996942D01*
X47033116Y-136121747D01*
X47139253Y-136227884D01*
X47264058Y-136311276D01*
X47402733Y-136368717D01*
X47549950Y-136398000D01*
X47700050Y-136398000D01*
X47847267Y-136368717D01*
X47985942Y-136311276D01*
X48110747Y-136227884D01*
X48216884Y-136121747D01*
X48300276Y-135996942D01*
X48357717Y-135858267D01*
X48387000Y-135711050D01*
X48387000Y-135560950D01*
X48357717Y-135413733D01*
X48300276Y-135275058D01*
X48216884Y-135150253D01*
X48110747Y-135044116D01*
X47985942Y-134960724D01*
X47847267Y-134903283D01*
X47812513Y-134896370D01*
X47850751Y-134804056D01*
X47875000Y-134682148D01*
X47875000Y-134557852D01*
X47850751Y-134435944D01*
X47803185Y-134321109D01*
X47734130Y-134217761D01*
X47646239Y-134129870D01*
X47542891Y-134060815D01*
X47428056Y-134013249D01*
X47306148Y-133989000D01*
X47244000Y-133989000D01*
X47244000Y-133922852D01*
X57789000Y-133922852D01*
X57789000Y-134047148D01*
X57813249Y-134169056D01*
X57860815Y-134283891D01*
X57929870Y-134387239D01*
X58017761Y-134475130D01*
X58121109Y-134544185D01*
X58235944Y-134591751D01*
X58357852Y-134616000D01*
X58431492Y-134616000D01*
X58398761Y-134637870D01*
X58310870Y-134725761D01*
X58241815Y-134829109D01*
X58194249Y-134943944D01*
X58170000Y-135065852D01*
X58170000Y-135190148D01*
X58194249Y-135312056D01*
X58241815Y-135426891D01*
X58310870Y-135530239D01*
X58398761Y-135618130D01*
X58502109Y-135687185D01*
X58616944Y-135734751D01*
X58728986Y-135757037D01*
X58702249Y-135821586D01*
X58678000Y-135943494D01*
X58678000Y-136067790D01*
X58702249Y-136189698D01*
X58749815Y-136304533D01*
X58818870Y-136407881D01*
X58906761Y-136495772D01*
X59010109Y-136564827D01*
X59124944Y-136612393D01*
X59246852Y-136636642D01*
X59371148Y-136636642D01*
X59493056Y-136612393D01*
X59607891Y-136564827D01*
X59711239Y-136495772D01*
X59799130Y-136407881D01*
X59868185Y-136304533D01*
X59915751Y-136189698D01*
X59940000Y-136067790D01*
X59940000Y-135943494D01*
X59915751Y-135821586D01*
X59868185Y-135706751D01*
X59799130Y-135603403D01*
X59711239Y-135515512D01*
X59607891Y-135446457D01*
X59493056Y-135398891D01*
X59381014Y-135376605D01*
X59407751Y-135312056D01*
X59432000Y-135190148D01*
X59432000Y-135065852D01*
X59407751Y-134943944D01*
X59360185Y-134829109D01*
X59291130Y-134725761D01*
X59203239Y-134637870D01*
X59099891Y-134568815D01*
X58985056Y-134521249D01*
X58863148Y-134497000D01*
X58789508Y-134497000D01*
X58822239Y-134475130D01*
X58910130Y-134387239D01*
X58979185Y-134283891D01*
X59026751Y-134169056D01*
X59051000Y-134047148D01*
X59051000Y-133922852D01*
X59026751Y-133800944D01*
X58979185Y-133686109D01*
X58910130Y-133582761D01*
X58822239Y-133494870D01*
X58718891Y-133425815D01*
X58604056Y-133378249D01*
X58482148Y-133354000D01*
X58357852Y-133354000D01*
X58235944Y-133378249D01*
X58121109Y-133425815D01*
X58017761Y-133494870D01*
X57929870Y-133582761D01*
X57860815Y-133686109D01*
X57813249Y-133800944D01*
X57789000Y-133922852D01*
X47244000Y-133922852D01*
X47244000Y-132652852D01*
X57789000Y-132652852D01*
X57789000Y-132777148D01*
X57813249Y-132899056D01*
X57860815Y-133013891D01*
X57929870Y-133117239D01*
X58017761Y-133205130D01*
X58121109Y-133274185D01*
X58235944Y-133321751D01*
X58357852Y-133346000D01*
X58482148Y-133346000D01*
X58604056Y-133321751D01*
X58718891Y-133274185D01*
X58822239Y-133205130D01*
X58910130Y-133117239D01*
X58979185Y-133013891D01*
X58991500Y-132984160D01*
X59003815Y-133013891D01*
X59072870Y-133117239D01*
X59160761Y-133205130D01*
X59264109Y-133274185D01*
X59378944Y-133321751D01*
X59500852Y-133346000D01*
X59625148Y-133346000D01*
X59747056Y-133321751D01*
X59861891Y-133274185D01*
X59965239Y-133205130D01*
X60053130Y-133117239D01*
X60122185Y-133013891D01*
X60169751Y-132899056D01*
X60194000Y-132777148D01*
X60194000Y-132652852D01*
X60169751Y-132530944D01*
X60122185Y-132416109D01*
X60053130Y-132312761D01*
X59965239Y-132224870D01*
X59861891Y-132155815D01*
X59747056Y-132108249D01*
X59625148Y-132084000D01*
X59500852Y-132084000D01*
X59378944Y-132108249D01*
X59264109Y-132155815D01*
X59160761Y-132224870D01*
X59072870Y-132312761D01*
X59003815Y-132416109D01*
X58991500Y-132445840D01*
X58979185Y-132416109D01*
X58910130Y-132312761D01*
X58822239Y-132224870D01*
X58718891Y-132155815D01*
X58604056Y-132108249D01*
X58482148Y-132084000D01*
X58357852Y-132084000D01*
X58235944Y-132108249D01*
X58121109Y-132155815D01*
X58017761Y-132224870D01*
X57929870Y-132312761D01*
X57860815Y-132416109D01*
X57813249Y-132530944D01*
X57789000Y-132652852D01*
X47244000Y-132652852D01*
X47244000Y-131763852D01*
X54487000Y-131763852D01*
X54487000Y-131888148D01*
X54511249Y-132010056D01*
X54558815Y-132124891D01*
X54627870Y-132228239D01*
X54715761Y-132316130D01*
X54819109Y-132385185D01*
X54933944Y-132432751D01*
X55055852Y-132457000D01*
X55180148Y-132457000D01*
X55302056Y-132432751D01*
X55416891Y-132385185D01*
X55520239Y-132316130D01*
X55608130Y-132228239D01*
X55677185Y-132124891D01*
X55724751Y-132010056D01*
X55749000Y-131888148D01*
X55749000Y-131763852D01*
X55724751Y-131641944D01*
X55677185Y-131527109D01*
X55608130Y-131423761D01*
X55520239Y-131335870D01*
X55416891Y-131266815D01*
X55302056Y-131219249D01*
X55180148Y-131195000D01*
X55055852Y-131195000D01*
X54933944Y-131219249D01*
X54819109Y-131266815D01*
X54715761Y-131335870D01*
X54627870Y-131423761D01*
X54558815Y-131527109D01*
X54511249Y-131641944D01*
X54487000Y-131763852D01*
X47244000Y-131763852D01*
X47244000Y-130323152D01*
X54233000Y-130323152D01*
X54233000Y-130447448D01*
X54257249Y-130569356D01*
X54304815Y-130684191D01*
X54373870Y-130787539D01*
X54461761Y-130875430D01*
X54565109Y-130944485D01*
X54679944Y-130992051D01*
X54801852Y-131016300D01*
X54926148Y-131016300D01*
X55048056Y-130992051D01*
X55162891Y-130944485D01*
X55266239Y-130875430D01*
X55354130Y-130787539D01*
X55423185Y-130684191D01*
X55470751Y-130569356D01*
X55495000Y-130447448D01*
X55495000Y-130323152D01*
X55478431Y-130239852D01*
X58678000Y-130239852D01*
X58678000Y-130364148D01*
X58702249Y-130486056D01*
X58749815Y-130600891D01*
X58818870Y-130704239D01*
X58906761Y-130792130D01*
X58974010Y-130837065D01*
X58956249Y-130879944D01*
X58932000Y-131001852D01*
X58932000Y-131126148D01*
X58956249Y-131248056D01*
X59003815Y-131362891D01*
X59072870Y-131466239D01*
X59160761Y-131554130D01*
X59264109Y-131623185D01*
X59378944Y-131670751D01*
X59500852Y-131695000D01*
X59625148Y-131695000D01*
X59747056Y-131670751D01*
X59861891Y-131623185D01*
X59965239Y-131554130D01*
X60053130Y-131466239D01*
X60122185Y-131362891D01*
X60169751Y-131248056D01*
X60194000Y-131126148D01*
X60194000Y-131001852D01*
X60169751Y-130879944D01*
X60122185Y-130765109D01*
X60053130Y-130661761D01*
X59965239Y-130573870D01*
X59897990Y-130528935D01*
X59915751Y-130486056D01*
X59940000Y-130364148D01*
X59940000Y-130239852D01*
X59915751Y-130117944D01*
X59868185Y-130003109D01*
X59799130Y-129899761D01*
X59711239Y-129811870D01*
X59607891Y-129742815D01*
X59493056Y-129695249D01*
X59371148Y-129671000D01*
X59246852Y-129671000D01*
X59124944Y-129695249D01*
X59010109Y-129742815D01*
X58906761Y-129811870D01*
X58818870Y-129899761D01*
X58749815Y-130003109D01*
X58702249Y-130117944D01*
X58678000Y-130239852D01*
X55478431Y-130239852D01*
X55470751Y-130201244D01*
X55423185Y-130086409D01*
X55354130Y-129983061D01*
X55266239Y-129895170D01*
X55162891Y-129826115D01*
X55048056Y-129778549D01*
X54926148Y-129754300D01*
X54801852Y-129754300D01*
X54679944Y-129778549D01*
X54565109Y-129826115D01*
X54461761Y-129895170D01*
X54373870Y-129983061D01*
X54304815Y-130086409D01*
X54257249Y-130201244D01*
X54233000Y-130323152D01*
X47244000Y-130323152D01*
X47244000Y-128575950D01*
X49530000Y-128575950D01*
X49530000Y-128726050D01*
X49559283Y-128873267D01*
X49616724Y-129011942D01*
X49700116Y-129136747D01*
X49806253Y-129242884D01*
X49931058Y-129326276D01*
X50069733Y-129383717D01*
X50216950Y-129413000D01*
X50367050Y-129413000D01*
X50514267Y-129383717D01*
X50652942Y-129326276D01*
X50777747Y-129242884D01*
X50883884Y-129136747D01*
X50967276Y-129011942D01*
X51024717Y-128873267D01*
X51054000Y-128726050D01*
X51054000Y-128702950D01*
X52070000Y-128702950D01*
X52070000Y-128853050D01*
X52099283Y-129000267D01*
X52156724Y-129138942D01*
X52240116Y-129263747D01*
X52346253Y-129369884D01*
X52471058Y-129453276D01*
X52609733Y-129510717D01*
X52756950Y-129540000D01*
X52907050Y-129540000D01*
X53054267Y-129510717D01*
X53192942Y-129453276D01*
X53317747Y-129369884D01*
X53423884Y-129263747D01*
X53507276Y-129138942D01*
X53564717Y-129000267D01*
X53594000Y-128853050D01*
X53594000Y-128829950D01*
X54483000Y-128829950D01*
X54483000Y-128980050D01*
X54512283Y-129127267D01*
X54569724Y-129265942D01*
X54653116Y-129390747D01*
X54759253Y-129496884D01*
X54884058Y-129580276D01*
X55022733Y-129637717D01*
X55169950Y-129667000D01*
X55320050Y-129667000D01*
X55467267Y-129637717D01*
X55605942Y-129580276D01*
X55730747Y-129496884D01*
X55836884Y-129390747D01*
X55920276Y-129265942D01*
X55977717Y-129127267D01*
X56007000Y-128980050D01*
X56007000Y-128829950D01*
X55977717Y-128682733D01*
X55920276Y-128544058D01*
X55836884Y-128419253D01*
X55730747Y-128313116D01*
X55605942Y-128229724D01*
X55467267Y-128172283D01*
X55320050Y-128143000D01*
X55169950Y-128143000D01*
X55022733Y-128172283D01*
X54884058Y-128229724D01*
X54759253Y-128313116D01*
X54653116Y-128419253D01*
X54569724Y-128544058D01*
X54512283Y-128682733D01*
X54483000Y-128829950D01*
X53594000Y-128829950D01*
X53594000Y-128702950D01*
X53564717Y-128555733D01*
X53507276Y-128417058D01*
X53423884Y-128292253D01*
X53317747Y-128186116D01*
X53192942Y-128102724D01*
X53054267Y-128045283D01*
X52907050Y-128016000D01*
X52756950Y-128016000D01*
X52609733Y-128045283D01*
X52471058Y-128102724D01*
X52346253Y-128186116D01*
X52240116Y-128292253D01*
X52156724Y-128417058D01*
X52099283Y-128555733D01*
X52070000Y-128702950D01*
X51054000Y-128702950D01*
X51054000Y-128575950D01*
X51024717Y-128428733D01*
X50967276Y-128290058D01*
X50883884Y-128165253D01*
X50777747Y-128059116D01*
X50652942Y-127975724D01*
X50514267Y-127918283D01*
X50367050Y-127889000D01*
X50216950Y-127889000D01*
X50069733Y-127918283D01*
X49931058Y-127975724D01*
X49806253Y-128059116D01*
X49700116Y-128165253D01*
X49616724Y-128290058D01*
X49559283Y-128428733D01*
X49530000Y-128575950D01*
X47244000Y-128575950D01*
X47244000Y-126416950D01*
X57150000Y-126416950D01*
X57150000Y-126567050D01*
X57179283Y-126714267D01*
X57236724Y-126852942D01*
X57320116Y-126977747D01*
X57426253Y-127083884D01*
X57551058Y-127167276D01*
X57689733Y-127224717D01*
X57836950Y-127254000D01*
X57987050Y-127254000D01*
X58134267Y-127224717D01*
X58272942Y-127167276D01*
X58397747Y-127083884D01*
X58503884Y-126977747D01*
X58587276Y-126852942D01*
X58644717Y-126714267D01*
X58674000Y-126567050D01*
X58674000Y-126543950D01*
X61595000Y-126543950D01*
X61595000Y-126694050D01*
X61624283Y-126841267D01*
X61681724Y-126979942D01*
X61765116Y-127104747D01*
X61871253Y-127210884D01*
X61996058Y-127294276D01*
X62134733Y-127351717D01*
X62281950Y-127381000D01*
X62432050Y-127381000D01*
X62579267Y-127351717D01*
X62717942Y-127294276D01*
X62842747Y-127210884D01*
X62948884Y-127104747D01*
X63032276Y-126979942D01*
X63089717Y-126841267D01*
X63119000Y-126694050D01*
X63119000Y-126543950D01*
X63089717Y-126396733D01*
X63032276Y-126258058D01*
X62948884Y-126133253D01*
X62842747Y-126027116D01*
X62717942Y-125943724D01*
X62579267Y-125886283D01*
X62432050Y-125857000D01*
X62281950Y-125857000D01*
X62134733Y-125886283D01*
X61996058Y-125943724D01*
X61871253Y-126027116D01*
X61765116Y-126133253D01*
X61681724Y-126258058D01*
X61624283Y-126396733D01*
X61595000Y-126543950D01*
X58674000Y-126543950D01*
X58674000Y-126416950D01*
X58644717Y-126269733D01*
X58587276Y-126131058D01*
X58503884Y-126006253D01*
X58397747Y-125900116D01*
X58272942Y-125816724D01*
X58134267Y-125759283D01*
X57987050Y-125730000D01*
X57836950Y-125730000D01*
X57689733Y-125759283D01*
X57551058Y-125816724D01*
X57426253Y-125900116D01*
X57320116Y-126006253D01*
X57236724Y-126131058D01*
X57179283Y-126269733D01*
X57150000Y-126416950D01*
X47244000Y-126416950D01*
X47244000Y-123241950D01*
X52705000Y-123241950D01*
X52705000Y-123392050D01*
X52734283Y-123539267D01*
X52791724Y-123677942D01*
X52875116Y-123802747D01*
X52981253Y-123908884D01*
X53106058Y-123992276D01*
X53244733Y-124049717D01*
X53391950Y-124079000D01*
X53542050Y-124079000D01*
X53689267Y-124049717D01*
X53827942Y-123992276D01*
X53952747Y-123908884D01*
X54058884Y-123802747D01*
X54142276Y-123677942D01*
X54199717Y-123539267D01*
X54229000Y-123392050D01*
X54229000Y-123241950D01*
X54203739Y-123114950D01*
X57150000Y-123114950D01*
X57150000Y-123265050D01*
X57179283Y-123412267D01*
X57236724Y-123550942D01*
X57320116Y-123675747D01*
X57426253Y-123781884D01*
X57551058Y-123865276D01*
X57689733Y-123922717D01*
X57836950Y-123952000D01*
X57987050Y-123952000D01*
X58134267Y-123922717D01*
X58272942Y-123865276D01*
X58397747Y-123781884D01*
X58503884Y-123675747D01*
X58587276Y-123550942D01*
X58644717Y-123412267D01*
X58674000Y-123265050D01*
X58674000Y-123114950D01*
X61595000Y-123114950D01*
X61595000Y-123265050D01*
X61624283Y-123412267D01*
X61681724Y-123550942D01*
X61765116Y-123675747D01*
X61871253Y-123781884D01*
X61996058Y-123865276D01*
X62134733Y-123922717D01*
X62281950Y-123952000D01*
X62432050Y-123952000D01*
X62579267Y-123922717D01*
X62717942Y-123865276D01*
X62842747Y-123781884D01*
X62948884Y-123675747D01*
X63032276Y-123550942D01*
X63089717Y-123412267D01*
X63119000Y-123265050D01*
X63119000Y-123114950D01*
X63089717Y-122967733D01*
X63032276Y-122829058D01*
X62948884Y-122704253D01*
X62842747Y-122598116D01*
X62717942Y-122514724D01*
X62579267Y-122457283D01*
X62432050Y-122428000D01*
X62281950Y-122428000D01*
X62134733Y-122457283D01*
X61996058Y-122514724D01*
X61871253Y-122598116D01*
X61765116Y-122704253D01*
X61681724Y-122829058D01*
X61624283Y-122967733D01*
X61595000Y-123114950D01*
X58674000Y-123114950D01*
X58644717Y-122967733D01*
X58587276Y-122829058D01*
X58503884Y-122704253D01*
X58397747Y-122598116D01*
X58272942Y-122514724D01*
X58134267Y-122457283D01*
X57987050Y-122428000D01*
X57836950Y-122428000D01*
X57689733Y-122457283D01*
X57551058Y-122514724D01*
X57426253Y-122598116D01*
X57320116Y-122704253D01*
X57236724Y-122829058D01*
X57179283Y-122967733D01*
X57150000Y-123114950D01*
X54203739Y-123114950D01*
X54199717Y-123094733D01*
X54142276Y-122956058D01*
X54058884Y-122831253D01*
X53952747Y-122725116D01*
X53827942Y-122641724D01*
X53689267Y-122584283D01*
X53542050Y-122555000D01*
X53391950Y-122555000D01*
X53244733Y-122584283D01*
X53106058Y-122641724D01*
X52981253Y-122725116D01*
X52875116Y-122831253D01*
X52791724Y-122956058D01*
X52734283Y-123094733D01*
X52705000Y-123241950D01*
X47244000Y-123241950D01*
X47244000Y-119685950D01*
X48260000Y-119685950D01*
X48260000Y-119836050D01*
X48289283Y-119983267D01*
X48346724Y-120121942D01*
X48430116Y-120246747D01*
X48536253Y-120352884D01*
X48661058Y-120436276D01*
X48799733Y-120493717D01*
X48946950Y-120523000D01*
X49097050Y-120523000D01*
X49244267Y-120493717D01*
X49382942Y-120436276D01*
X49507747Y-120352884D01*
X49613884Y-120246747D01*
X49697276Y-120121942D01*
X49754717Y-119983267D01*
X49784000Y-119836050D01*
X49784000Y-119685950D01*
X52705000Y-119685950D01*
X52705000Y-119836050D01*
X52734283Y-119983267D01*
X52791724Y-120121942D01*
X52875116Y-120246747D01*
X52981253Y-120352884D01*
X53106058Y-120436276D01*
X53244733Y-120493717D01*
X53391950Y-120523000D01*
X53542050Y-120523000D01*
X53689267Y-120493717D01*
X53827942Y-120436276D01*
X53952747Y-120352884D01*
X54058884Y-120246747D01*
X54142276Y-120121942D01*
X54199717Y-119983267D01*
X54229000Y-119836050D01*
X54229000Y-119685950D01*
X57150000Y-119685950D01*
X57150000Y-119836050D01*
X57179283Y-119983267D01*
X57236724Y-120121942D01*
X57320116Y-120246747D01*
X57426253Y-120352884D01*
X57551058Y-120436276D01*
X57689733Y-120493717D01*
X57836950Y-120523000D01*
X57987050Y-120523000D01*
X58134267Y-120493717D01*
X58272942Y-120436276D01*
X58397747Y-120352884D01*
X58503884Y-120246747D01*
X58587276Y-120121942D01*
X58644717Y-119983267D01*
X58674000Y-119836050D01*
X58674000Y-119685950D01*
X61595000Y-119685950D01*
X61595000Y-119836050D01*
X61624283Y-119983267D01*
X61681724Y-120121942D01*
X61765116Y-120246747D01*
X61871253Y-120352884D01*
X61996058Y-120436276D01*
X62134733Y-120493717D01*
X62281950Y-120523000D01*
X62432050Y-120523000D01*
X62579267Y-120493717D01*
X62717942Y-120436276D01*
X62842747Y-120352884D01*
X62948884Y-120246747D01*
X63032276Y-120121942D01*
X63089717Y-119983267D01*
X63119000Y-119836050D01*
X63119000Y-119685950D01*
X63089717Y-119538733D01*
X63032276Y-119400058D01*
X62948884Y-119275253D01*
X62842747Y-119169116D01*
X62717942Y-119085724D01*
X62579267Y-119028283D01*
X62432050Y-118999000D01*
X62281950Y-118999000D01*
X62134733Y-119028283D01*
X61996058Y-119085724D01*
X61871253Y-119169116D01*
X61765116Y-119275253D01*
X61681724Y-119400058D01*
X61624283Y-119538733D01*
X61595000Y-119685950D01*
X58674000Y-119685950D01*
X58644717Y-119538733D01*
X58587276Y-119400058D01*
X58503884Y-119275253D01*
X58397747Y-119169116D01*
X58272942Y-119085724D01*
X58134267Y-119028283D01*
X57987050Y-118999000D01*
X57836950Y-118999000D01*
X57689733Y-119028283D01*
X57551058Y-119085724D01*
X57426253Y-119169116D01*
X57320116Y-119275253D01*
X57236724Y-119400058D01*
X57179283Y-119538733D01*
X57150000Y-119685950D01*
X54229000Y-119685950D01*
X54199717Y-119538733D01*
X54142276Y-119400058D01*
X54058884Y-119275253D01*
X53952747Y-119169116D01*
X53827942Y-119085724D01*
X53689267Y-119028283D01*
X53542050Y-118999000D01*
X53391950Y-118999000D01*
X53244733Y-119028283D01*
X53106058Y-119085724D01*
X52981253Y-119169116D01*
X52875116Y-119275253D01*
X52791724Y-119400058D01*
X52734283Y-119538733D01*
X52705000Y-119685950D01*
X49784000Y-119685950D01*
X49754717Y-119538733D01*
X49697276Y-119400058D01*
X49613884Y-119275253D01*
X49507747Y-119169116D01*
X49382942Y-119085724D01*
X49244267Y-119028283D01*
X49097050Y-118999000D01*
X48946950Y-118999000D01*
X48799733Y-119028283D01*
X48661058Y-119085724D01*
X48536253Y-119169116D01*
X48430116Y-119275253D01*
X48346724Y-119400058D01*
X48289283Y-119538733D01*
X48260000Y-119685950D01*
X47244000Y-119685950D01*
X47244000Y-117421417D01*
X64643000Y-118508854D01*
G36*
X28601744Y-130163632D02*
G01*
X28435338Y-130274821D01*
X28293821Y-130416338D01*
X28182632Y-130582744D01*
X28106044Y-130767644D01*
X28067000Y-130963933D01*
X28067000Y-131164067D01*
X28106044Y-131360356D01*
X28182632Y-131545256D01*
X28293821Y-131711662D01*
X28435338Y-131853179D01*
X28601744Y-131964368D01*
X28786644Y-132040956D01*
X28982933Y-132080000D01*
X29183067Y-132080000D01*
X29379356Y-132040956D01*
X29564256Y-131964368D01*
X29730662Y-131853179D01*
X29872179Y-131711662D01*
X29983368Y-131545256D01*
X30059956Y-131360356D01*
X30099000Y-131164067D01*
X30099000Y-130963933D01*
X30059956Y-130767644D01*
X29983368Y-130582744D01*
X29872179Y-130416338D01*
X29730662Y-130274821D01*
X29564256Y-130163632D01*
X29379356Y-130087044D01*
X29183067Y-130048000D01*
X43688000Y-130048000D01*
X43712776Y-130045560D01*
X43736601Y-130038333D01*
X43758557Y-130026597D01*
X43777803Y-130010803D01*
X43793597Y-129991557D01*
X43805333Y-129969601D01*
X43812560Y-129945776D01*
X43815000Y-129921000D01*
X43815000Y-128550933D01*
X44196000Y-128550933D01*
X44196000Y-128751067D01*
X44235044Y-128947356D01*
X44311632Y-129132256D01*
X44422821Y-129298662D01*
X44564338Y-129440179D01*
X44730744Y-129551368D01*
X44915644Y-129627956D01*
X45111933Y-129667000D01*
X45312067Y-129667000D01*
X45508356Y-129627956D01*
X45693256Y-129551368D01*
X45859662Y-129440179D01*
X46001179Y-129298662D01*
X46112368Y-129132256D01*
X46188956Y-128947356D01*
X46228000Y-128751067D01*
X46228000Y-128550933D01*
X46188956Y-128354644D01*
X46112368Y-128169744D01*
X46001179Y-128003338D01*
X45859662Y-127861821D01*
X45693256Y-127750632D01*
X45508356Y-127674044D01*
X45312067Y-127635000D01*
X45111933Y-127635000D01*
X44915644Y-127674044D01*
X44730744Y-127750632D01*
X44564338Y-127861821D01*
X44422821Y-128003338D01*
X44311632Y-128169744D01*
X44235044Y-128354644D01*
X44196000Y-128550933D01*
X43815000Y-128550933D01*
X43815000Y-120435841D01*
X43929338Y-120550179D01*
X44095744Y-120661368D01*
X44280644Y-120737956D01*
X44476933Y-120777000D01*
X44677067Y-120777000D01*
X44873356Y-120737956D01*
X45058256Y-120661368D01*
X45224662Y-120550179D01*
X45366179Y-120408662D01*
X45477368Y-120242256D01*
X45553956Y-120057356D01*
X45593000Y-119861067D01*
X45593000Y-119660933D01*
X45553956Y-119464644D01*
X45477368Y-119279744D01*
X45366179Y-119113338D01*
X45224662Y-118971821D01*
X45058256Y-118860632D01*
X44873356Y-118784044D01*
X44677067Y-118745000D01*
X44476933Y-118745000D01*
X44280644Y-118784044D01*
X44095744Y-118860632D01*
X43929338Y-118971821D01*
X43815000Y-119086159D01*
X43815000Y-117500000D01*
X44429403Y-117500000D01*
X46355000Y-117620350D01*
X46355000Y-133731000D01*
X46095643Y-133731000D01*
X46101000Y-133704067D01*
X46101000Y-133503933D01*
X46061956Y-133307644D01*
X45985368Y-133122744D01*
X45874179Y-132956338D01*
X45732662Y-132814821D01*
X45566256Y-132703632D01*
X45381356Y-132627044D01*
X45185067Y-132588000D01*
X44984933Y-132588000D01*
X44788644Y-132627044D01*
X44603744Y-132703632D01*
X44437338Y-132814821D01*
X44295821Y-132956338D01*
X44184632Y-133122744D01*
X44108044Y-133307644D01*
X44069000Y-133503933D01*
X44069000Y-133704067D01*
X44074357Y-133731000D01*
X34088895Y-133731000D01*
X34123956Y-133646356D01*
X34163000Y-133450067D01*
X34163000Y-133249933D01*
X34123956Y-133053644D01*
X34047368Y-132868744D01*
X33936179Y-132702338D01*
X33794662Y-132560821D01*
X33628256Y-132449632D01*
X33443356Y-132373044D01*
X33247067Y-132334000D01*
X33046933Y-132334000D01*
X32850644Y-132373044D01*
X32665744Y-132449632D01*
X32499338Y-132560821D01*
X32357821Y-132702338D01*
X32246632Y-132868744D01*
X32170044Y-133053644D01*
X32131000Y-133249933D01*
X32131000Y-133450067D01*
X32170044Y-133646356D01*
X32205105Y-133731000D01*
X26060000Y-133731000D01*
X26060000Y-130048000D01*
X28982933Y-130048000D01*
X28786644Y-130087044D01*
X28601744Y-130163632D01*
X28601744Y-130163632D01*
G37*
X28601744Y-130163632D02*
X28435338Y-130274821D01*
X28293821Y-130416338D01*
X28182632Y-130582744D01*
X28106044Y-130767644D01*
X28067000Y-130963933D01*
X28067000Y-131164067D01*
X28106044Y-131360356D01*
X28182632Y-131545256D01*
X28293821Y-131711662D01*
X28435338Y-131853179D01*
X28601744Y-131964368D01*
X28786644Y-132040956D01*
X28982933Y-132080000D01*
X29183067Y-132080000D01*
X29379356Y-132040956D01*
X29564256Y-131964368D01*
X29730662Y-131853179D01*
X29872179Y-131711662D01*
X29983368Y-131545256D01*
X30059956Y-131360356D01*
X30099000Y-131164067D01*
X30099000Y-130963933D01*
X30059956Y-130767644D01*
X29983368Y-130582744D01*
X29872179Y-130416338D01*
X29730662Y-130274821D01*
X29564256Y-130163632D01*
X29379356Y-130087044D01*
X29183067Y-130048000D01*
X43688000Y-130048000D01*
X43712776Y-130045560D01*
X43736601Y-130038333D01*
X43758557Y-130026597D01*
X43777803Y-130010803D01*
X43793597Y-129991557D01*
X43805333Y-129969601D01*
X43812560Y-129945776D01*
X43815000Y-129921000D01*
X43815000Y-128550933D01*
X44196000Y-128550933D01*
X44196000Y-128751067D01*
X44235044Y-128947356D01*
X44311632Y-129132256D01*
X44422821Y-129298662D01*
X44564338Y-129440179D01*
X44730744Y-129551368D01*
X44915644Y-129627956D01*
X45111933Y-129667000D01*
X45312067Y-129667000D01*
X45508356Y-129627956D01*
X45693256Y-129551368D01*
X45859662Y-129440179D01*
X46001179Y-129298662D01*
X46112368Y-129132256D01*
X46188956Y-128947356D01*
X46228000Y-128751067D01*
X46228000Y-128550933D01*
X46188956Y-128354644D01*
X46112368Y-128169744D01*
X46001179Y-128003338D01*
X45859662Y-127861821D01*
X45693256Y-127750632D01*
X45508356Y-127674044D01*
X45312067Y-127635000D01*
X45111933Y-127635000D01*
X44915644Y-127674044D01*
X44730744Y-127750632D01*
X44564338Y-127861821D01*
X44422821Y-128003338D01*
X44311632Y-128169744D01*
X44235044Y-128354644D01*
X44196000Y-128550933D01*
X43815000Y-128550933D01*
X43815000Y-120435841D01*
X43929338Y-120550179D01*
X44095744Y-120661368D01*
X44280644Y-120737956D01*
X44476933Y-120777000D01*
X44677067Y-120777000D01*
X44873356Y-120737956D01*
X45058256Y-120661368D01*
X45224662Y-120550179D01*
X45366179Y-120408662D01*
X45477368Y-120242256D01*
X45553956Y-120057356D01*
X45593000Y-119861067D01*
X45593000Y-119660933D01*
X45553956Y-119464644D01*
X45477368Y-119279744D01*
X45366179Y-119113338D01*
X45224662Y-118971821D01*
X45058256Y-118860632D01*
X44873356Y-118784044D01*
X44677067Y-118745000D01*
X44476933Y-118745000D01*
X44280644Y-118784044D01*
X44095744Y-118860632D01*
X43929338Y-118971821D01*
X43815000Y-119086159D01*
X43815000Y-117500000D01*
X44429403Y-117500000D01*
X46355000Y-117620350D01*
X46355000Y-133731000D01*
X46095643Y-133731000D01*
X46101000Y-133704067D01*
X46101000Y-133503933D01*
X46061956Y-133307644D01*
X45985368Y-133122744D01*
X45874179Y-132956338D01*
X45732662Y-132814821D01*
X45566256Y-132703632D01*
X45381356Y-132627044D01*
X45185067Y-132588000D01*
X44984933Y-132588000D01*
X44788644Y-132627044D01*
X44603744Y-132703632D01*
X44437338Y-132814821D01*
X44295821Y-132956338D01*
X44184632Y-133122744D01*
X44108044Y-133307644D01*
X44069000Y-133503933D01*
X44069000Y-133704067D01*
X44074357Y-133731000D01*
X34088895Y-133731000D01*
X34123956Y-133646356D01*
X34163000Y-133450067D01*
X34163000Y-133249933D01*
X34123956Y-133053644D01*
X34047368Y-132868744D01*
X33936179Y-132702338D01*
X33794662Y-132560821D01*
X33628256Y-132449632D01*
X33443356Y-132373044D01*
X33247067Y-132334000D01*
X33046933Y-132334000D01*
X32850644Y-132373044D01*
X32665744Y-132449632D01*
X32499338Y-132560821D01*
X32357821Y-132702338D01*
X32246632Y-132868744D01*
X32170044Y-133053644D01*
X32131000Y-133249933D01*
X32131000Y-133450067D01*
X32170044Y-133646356D01*
X32205105Y-133731000D01*
X26060000Y-133731000D01*
X26060000Y-130048000D01*
X28982933Y-130048000D01*
X28786644Y-130087044D01*
X28601744Y-130163632D01*
M02*
