G04 #@! TF.GenerationSoftware,KiCad,Pcbnew,(5.1.4)*
G04 #@! TF.CreationDate,2019-12-13T22:41:35+01:00*
G04 #@! TF.ProjectId,hardware,68617264-7761-4726-952e-6b696361645f,rev?*
G04 #@! TF.SameCoordinates,Original*
G04 #@! TF.FileFunction,Copper,L2,Inr*
G04 #@! TF.FilePolarity,Positive*
%FSLAX46Y46*%
G04 Gerber Fmt 4.6, Leading zero omitted, Abs format (unit mm)*
G04 Created by KiCad (PCBNEW (5.1.4)) date 2019-12-13 22:41:35*
%MOMM*%
%LPD*%
G04 APERTURE LIST*
%ADD10R,1.700000X1.700000*%
%ADD11O,1.700000X1.700000*%
%ADD12C,2.200000*%
%ADD13C,0.450000*%
%ADD14C,0.762000*%
%ADD15C,0.500000*%
%ADD16C,0.254000*%
G04 APERTURE END LIST*
D10*
X31115000Y-119380000D03*
D11*
X33655000Y-119380000D03*
D12*
X64770000Y-120142000D03*
D13*
X58293000Y-137414000D03*
D14*
X45593000Y-143764000D03*
X50800000Y-143764000D03*
X54610000Y-143764000D03*
X50673000Y-139954000D03*
D15*
X45720000Y-140208000D03*
X54737000Y-140970000D03*
X54864000Y-139446000D03*
D14*
X62357000Y-123190000D03*
X57912000Y-123190000D03*
X57912000Y-126492000D03*
X62357000Y-126619000D03*
X53467000Y-123317000D03*
X50292000Y-128651000D03*
X55245000Y-128905000D03*
X52832000Y-128778000D03*
X45212000Y-128651000D03*
X41656000Y-128651000D03*
X40259000Y-126365000D03*
X36576000Y-124968000D03*
X27813000Y-121666000D03*
X28310000Y-119253000D03*
X29210000Y-125476000D03*
X29083000Y-131064000D03*
X33147000Y-133350000D03*
X33020000Y-137033000D03*
D15*
X42545000Y-140462000D03*
D14*
X41529000Y-145161000D03*
X32639000Y-143510000D03*
X36449000Y-145669000D03*
X27432000Y-143256000D03*
D15*
X27432000Y-148463000D03*
D14*
X33401000Y-149987000D03*
X47625000Y-135636000D03*
X45593000Y-136779000D03*
X45085000Y-133604000D03*
X34925000Y-126111000D03*
X27813000Y-124079000D03*
X62357000Y-119761000D03*
X57912000Y-119761000D03*
X53467000Y-119761000D03*
X49022000Y-119761000D03*
X44577000Y-119761000D03*
X41529000Y-119761000D03*
X56515000Y-149098000D03*
X56515000Y-153035000D03*
X45466000Y-149098000D03*
X45466000Y-153035000D03*
X49149000Y-149098000D03*
X49149000Y-153035000D03*
X52832000Y-153035000D03*
X52832000Y-149098000D03*
X41529000Y-149098000D03*
X41656000Y-153035000D03*
X39370000Y-152527000D03*
D15*
X58420000Y-132715000D03*
X59563000Y-132715000D03*
X63754000Y-128778000D03*
X63754000Y-130937000D03*
X63754000Y-132842000D03*
X63754000Y-134874000D03*
X63754000Y-136906000D03*
X63754000Y-138811000D03*
X63754000Y-140843000D03*
X63754000Y-142875000D03*
X63754000Y-144780000D03*
X58420000Y-133985000D03*
X27559000Y-152908000D03*
D14*
X36449000Y-150368000D03*
X36576000Y-133604000D03*
X46101000Y-124460000D03*
X41529000Y-138684000D03*
X48260000Y-128524000D03*
X31369000Y-152527000D03*
X31149168Y-146211168D03*
X31115000Y-142113000D03*
X43942000Y-135636000D03*
X36068000Y-139954000D03*
X60960000Y-146431000D03*
X55499000Y-138557000D03*
X36721083Y-149312454D03*
D15*
X33401000Y-135255000D03*
D14*
X27559000Y-126238000D03*
X28702000Y-122428000D03*
X35179000Y-123190000D03*
X34925000Y-127889000D03*
X36068000Y-118110000D03*
X35814000Y-120142000D03*
X41402000Y-123773802D03*
D15*
X54864000Y-140208000D03*
X59309000Y-136005642D03*
X58801000Y-135128000D03*
X59309000Y-140843000D03*
X55880000Y-142240000D03*
X59309000Y-130302000D03*
X59817000Y-137922000D03*
X59309000Y-139573000D03*
X59563000Y-131064000D03*
X59436000Y-141732000D03*
X54864000Y-130385300D03*
X55118000Y-131826000D03*
X47244000Y-134620000D03*
X54991000Y-135128000D03*
X55753000Y-135128000D03*
X54483000Y-135890000D03*
X54061540Y-137026385D03*
X38481000Y-143256000D03*
X31115000Y-149098000D03*
X32639000Y-153289000D03*
X29972000Y-148717000D03*
X26797000Y-151130000D03*
X32512000Y-138684000D03*
X30734000Y-138684000D03*
X41112875Y-139377542D03*
X35560000Y-144145000D03*
D16*
G36*
X63790152Y-118710046D02*
G01*
X63664002Y-118794337D01*
X63422337Y-119036002D01*
X63232463Y-119320169D01*
X63101675Y-119635919D01*
X63035000Y-119971117D01*
X63035000Y-120312883D01*
X63101675Y-120648081D01*
X63232463Y-120963831D01*
X63422337Y-121247998D01*
X63664002Y-121489663D01*
X63948169Y-121679537D01*
X64227155Y-121795097D01*
X64218575Y-121805551D01*
X64157290Y-121920208D01*
X64119550Y-122044618D01*
X64110000Y-122141582D01*
X64110001Y-151232985D01*
X63924000Y-151108703D01*
X63695784Y-151014173D01*
X63453510Y-150965982D01*
X63206490Y-150965982D01*
X62964216Y-151014173D01*
X62736000Y-151108703D01*
X62530610Y-151245940D01*
X62355940Y-151420610D01*
X62218703Y-151626000D01*
X62124173Y-151854216D01*
X62075982Y-152096490D01*
X62075982Y-152343510D01*
X62124173Y-152585784D01*
X62218703Y-152814000D01*
X62355940Y-153019390D01*
X62417268Y-153080718D01*
X44428036Y-154280000D01*
X36871095Y-154280000D01*
X33336438Y-153838168D01*
X33423277Y-153708205D01*
X33489990Y-153547145D01*
X33524000Y-153376165D01*
X33524000Y-153201835D01*
X33489990Y-153030855D01*
X33423277Y-152869795D01*
X33326424Y-152724845D01*
X33203155Y-152601576D01*
X33058205Y-152504723D01*
X32897145Y-152438010D01*
X32726165Y-152404000D01*
X32551835Y-152404000D01*
X32385000Y-152437186D01*
X32385000Y-152426933D01*
X32345956Y-152230644D01*
X32300716Y-152121424D01*
X32470524Y-152007961D01*
X32627961Y-151850524D01*
X32751659Y-151665398D01*
X32836863Y-151459696D01*
X32880300Y-151241325D01*
X32880300Y-151018675D01*
X32836863Y-150800304D01*
X32751659Y-150594602D01*
X32627961Y-150409476D01*
X32470524Y-150252039D01*
X32285398Y-150128341D01*
X32079696Y-150043137D01*
X31861325Y-149999700D01*
X31638675Y-149999700D01*
X31420304Y-150043137D01*
X31214602Y-150128341D01*
X31029476Y-150252039D01*
X30872039Y-150409476D01*
X30748341Y-150594602D01*
X30663137Y-150800304D01*
X30619700Y-151018675D01*
X30619700Y-151241325D01*
X30663137Y-151459696D01*
X30748341Y-151665398D01*
X30773461Y-151702993D01*
X30721338Y-151737821D01*
X30579821Y-151879338D01*
X30468632Y-152045744D01*
X30392044Y-152230644D01*
X30353000Y-152426933D01*
X30353000Y-152627067D01*
X30392044Y-152823356D01*
X30468632Y-153008256D01*
X30579821Y-153174662D01*
X30721338Y-153316179D01*
X30887744Y-153427368D01*
X31072644Y-153503956D01*
X31268933Y-153543000D01*
X31469067Y-153543000D01*
X31665356Y-153503956D01*
X31770737Y-153460306D01*
X31788010Y-153547145D01*
X31830588Y-153649937D01*
X27301051Y-153083746D01*
X27390524Y-153023961D01*
X27547961Y-152866524D01*
X27671659Y-152681398D01*
X27756863Y-152475696D01*
X27800300Y-152257325D01*
X27800300Y-152034675D01*
X27756863Y-151816304D01*
X27671659Y-151610602D01*
X27600165Y-151503605D01*
X27647990Y-151388145D01*
X27682000Y-151217165D01*
X27682000Y-151042835D01*
X27647990Y-150871855D01*
X27600165Y-150756395D01*
X27671659Y-150649398D01*
X27756863Y-150443696D01*
X27800300Y-150225325D01*
X27800300Y-150002675D01*
X27756863Y-149784304D01*
X27671659Y-149578602D01*
X27547961Y-149393476D01*
X27390524Y-149236039D01*
X27205398Y-149112341D01*
X26999696Y-149027137D01*
X26781325Y-148983700D01*
X26558675Y-148983700D01*
X26340304Y-149027137D01*
X26134602Y-149112341D01*
X26060000Y-149162189D01*
X26060000Y-148629835D01*
X29087000Y-148629835D01*
X29087000Y-148804165D01*
X29121010Y-148975145D01*
X29187723Y-149136205D01*
X29284576Y-149281155D01*
X29407845Y-149404424D01*
X29552795Y-149501277D01*
X29713855Y-149567990D01*
X29884835Y-149602000D01*
X30059165Y-149602000D01*
X30230145Y-149567990D01*
X30335498Y-149524351D01*
X30427576Y-149662155D01*
X30550845Y-149785424D01*
X30695795Y-149882277D01*
X30856855Y-149948990D01*
X31027835Y-149983000D01*
X31202165Y-149983000D01*
X31373145Y-149948990D01*
X31534205Y-149882277D01*
X31679155Y-149785424D01*
X31802424Y-149662155D01*
X31899277Y-149517205D01*
X31965990Y-149356145D01*
X31994585Y-149212387D01*
X35705083Y-149212387D01*
X35705083Y-149412521D01*
X35744127Y-149608810D01*
X35820715Y-149793710D01*
X35931904Y-149960116D01*
X36073421Y-150101633D01*
X36239827Y-150212822D01*
X36424727Y-150289410D01*
X36621016Y-150328454D01*
X36821150Y-150328454D01*
X37017439Y-150289410D01*
X37202339Y-150212822D01*
X37368745Y-150101633D01*
X37510262Y-149960116D01*
X37621451Y-149793710D01*
X37698039Y-149608810D01*
X37737083Y-149412521D01*
X37737083Y-149212387D01*
X37698039Y-149016098D01*
X37621451Y-148831198D01*
X37510262Y-148664792D01*
X37368745Y-148523275D01*
X37202339Y-148412086D01*
X37017439Y-148335498D01*
X36821150Y-148296454D01*
X36621016Y-148296454D01*
X36424727Y-148335498D01*
X36239827Y-148412086D01*
X36073421Y-148523275D01*
X35931904Y-148664792D01*
X35820715Y-148831198D01*
X35744127Y-149016098D01*
X35705083Y-149212387D01*
X31994585Y-149212387D01*
X32000000Y-149185165D01*
X32000000Y-149010835D01*
X31965990Y-148839855D01*
X31899277Y-148678795D01*
X31802424Y-148533845D01*
X31679155Y-148410576D01*
X31534205Y-148313723D01*
X31373145Y-148247010D01*
X31202165Y-148213000D01*
X31027835Y-148213000D01*
X30856855Y-148247010D01*
X30751502Y-148290649D01*
X30659424Y-148152845D01*
X30536155Y-148029576D01*
X30391205Y-147932723D01*
X30230145Y-147866010D01*
X30059165Y-147832000D01*
X29884835Y-147832000D01*
X29713855Y-147866010D01*
X29552795Y-147932723D01*
X29407845Y-148029576D01*
X29284576Y-148152845D01*
X29187723Y-148297795D01*
X29121010Y-148458855D01*
X29087000Y-148629835D01*
X26060000Y-148629835D01*
X26060000Y-146111101D01*
X30133168Y-146111101D01*
X30133168Y-146311235D01*
X30172212Y-146507524D01*
X30248800Y-146692424D01*
X30359989Y-146858830D01*
X30501506Y-147000347D01*
X30667912Y-147111536D01*
X30852812Y-147188124D01*
X31049101Y-147227168D01*
X31249235Y-147227168D01*
X31445524Y-147188124D01*
X31630424Y-147111536D01*
X31796830Y-147000347D01*
X31938347Y-146858830D01*
X32049536Y-146692424D01*
X32126124Y-146507524D01*
X32161249Y-146330933D01*
X59944000Y-146330933D01*
X59944000Y-146531067D01*
X59983044Y-146727356D01*
X60059632Y-146912256D01*
X60170821Y-147078662D01*
X60312338Y-147220179D01*
X60478744Y-147331368D01*
X60663644Y-147407956D01*
X60859933Y-147447000D01*
X61060067Y-147447000D01*
X61256356Y-147407956D01*
X61441256Y-147331368D01*
X61607662Y-147220179D01*
X61749179Y-147078662D01*
X61860368Y-146912256D01*
X61936956Y-146727356D01*
X61976000Y-146531067D01*
X61976000Y-146330933D01*
X61936956Y-146134644D01*
X61860368Y-145949744D01*
X61749179Y-145783338D01*
X61607662Y-145641821D01*
X61441256Y-145530632D01*
X61256356Y-145454044D01*
X61060067Y-145415000D01*
X60859933Y-145415000D01*
X60663644Y-145454044D01*
X60478744Y-145530632D01*
X60312338Y-145641821D01*
X60170821Y-145783338D01*
X60059632Y-145949744D01*
X59983044Y-146134644D01*
X59944000Y-146330933D01*
X32161249Y-146330933D01*
X32165168Y-146311235D01*
X32165168Y-146111101D01*
X32126124Y-145914812D01*
X32049536Y-145729912D01*
X31938347Y-145563506D01*
X31796830Y-145421989D01*
X31630424Y-145310800D01*
X31445524Y-145234212D01*
X31249235Y-145195168D01*
X31049101Y-145195168D01*
X30852812Y-145234212D01*
X30667912Y-145310800D01*
X30501506Y-145421989D01*
X30359989Y-145563506D01*
X30248800Y-145729912D01*
X30172212Y-145914812D01*
X30133168Y-146111101D01*
X26060000Y-146111101D01*
X26060000Y-144057835D01*
X34675000Y-144057835D01*
X34675000Y-144232165D01*
X34709010Y-144403145D01*
X34775723Y-144564205D01*
X34872576Y-144709155D01*
X34995845Y-144832424D01*
X35140795Y-144929277D01*
X35301855Y-144995990D01*
X35472835Y-145030000D01*
X35647165Y-145030000D01*
X35818145Y-144995990D01*
X35979205Y-144929277D01*
X36124155Y-144832424D01*
X36247424Y-144709155D01*
X36344277Y-144564205D01*
X36410990Y-144403145D01*
X36445000Y-144232165D01*
X36445000Y-144057835D01*
X36410990Y-143886855D01*
X36344277Y-143725795D01*
X36247424Y-143580845D01*
X36124155Y-143457576D01*
X35979205Y-143360723D01*
X35818145Y-143294010D01*
X35647165Y-143260000D01*
X35472835Y-143260000D01*
X35301855Y-143294010D01*
X35140795Y-143360723D01*
X34995845Y-143457576D01*
X34872576Y-143580845D01*
X34775723Y-143725795D01*
X34709010Y-143886855D01*
X34675000Y-144057835D01*
X26060000Y-144057835D01*
X26060000Y-143168835D01*
X37596000Y-143168835D01*
X37596000Y-143343165D01*
X37630010Y-143514145D01*
X37696723Y-143675205D01*
X37793576Y-143820155D01*
X37916845Y-143943424D01*
X38061795Y-144040277D01*
X38222855Y-144106990D01*
X38393835Y-144141000D01*
X38568165Y-144141000D01*
X38739145Y-144106990D01*
X38900205Y-144040277D01*
X39045155Y-143943424D01*
X39168424Y-143820155D01*
X39265277Y-143675205D01*
X39331990Y-143514145D01*
X39366000Y-143343165D01*
X39366000Y-143168835D01*
X39331990Y-142997855D01*
X39265277Y-142836795D01*
X39168424Y-142691845D01*
X39045155Y-142568576D01*
X38900205Y-142471723D01*
X38739145Y-142405010D01*
X38568165Y-142371000D01*
X38393835Y-142371000D01*
X38222855Y-142405010D01*
X38061795Y-142471723D01*
X37916845Y-142568576D01*
X37793576Y-142691845D01*
X37696723Y-142836795D01*
X37630010Y-142997855D01*
X37596000Y-143168835D01*
X26060000Y-143168835D01*
X26060000Y-142012933D01*
X30099000Y-142012933D01*
X30099000Y-142213067D01*
X30138044Y-142409356D01*
X30214632Y-142594256D01*
X30325821Y-142760662D01*
X30467338Y-142902179D01*
X30633744Y-143013368D01*
X30818644Y-143089956D01*
X31014933Y-143129000D01*
X31215067Y-143129000D01*
X31411356Y-143089956D01*
X31596256Y-143013368D01*
X31762662Y-142902179D01*
X31904179Y-142760662D01*
X32015368Y-142594256D01*
X32091956Y-142409356D01*
X32131000Y-142213067D01*
X32131000Y-142152835D01*
X54995000Y-142152835D01*
X54995000Y-142327165D01*
X55029010Y-142498145D01*
X55095723Y-142659205D01*
X55192576Y-142804155D01*
X55315845Y-142927424D01*
X55460795Y-143024277D01*
X55621855Y-143090990D01*
X55792835Y-143125000D01*
X55967165Y-143125000D01*
X56138145Y-143090990D01*
X56299205Y-143024277D01*
X56444155Y-142927424D01*
X56567424Y-142804155D01*
X56664277Y-142659205D01*
X56730990Y-142498145D01*
X56765000Y-142327165D01*
X56765000Y-142152835D01*
X56730990Y-141981855D01*
X56664277Y-141820795D01*
X56567424Y-141675845D01*
X56444155Y-141552576D01*
X56299205Y-141455723D01*
X56138145Y-141389010D01*
X55967165Y-141355000D01*
X55792835Y-141355000D01*
X55621855Y-141389010D01*
X55460795Y-141455723D01*
X55315845Y-141552576D01*
X55192576Y-141675845D01*
X55095723Y-141820795D01*
X55029010Y-141981855D01*
X54995000Y-142152835D01*
X32131000Y-142152835D01*
X32131000Y-142012933D01*
X32091956Y-141816644D01*
X32015368Y-141631744D01*
X31904179Y-141465338D01*
X31762662Y-141323821D01*
X31596256Y-141212632D01*
X31411356Y-141136044D01*
X31215067Y-141097000D01*
X31014933Y-141097000D01*
X30818644Y-141136044D01*
X30633744Y-141212632D01*
X30467338Y-141323821D01*
X30325821Y-141465338D01*
X30214632Y-141631744D01*
X30138044Y-141816644D01*
X30099000Y-142012933D01*
X26060000Y-142012933D01*
X26060000Y-139853933D01*
X35052000Y-139853933D01*
X35052000Y-140054067D01*
X35091044Y-140250356D01*
X35167632Y-140435256D01*
X35278821Y-140601662D01*
X35420338Y-140743179D01*
X35586744Y-140854368D01*
X35771644Y-140930956D01*
X35967933Y-140970000D01*
X36168067Y-140970000D01*
X36364356Y-140930956D01*
X36549256Y-140854368D01*
X36715662Y-140743179D01*
X36857179Y-140601662D01*
X36968368Y-140435256D01*
X37044956Y-140250356D01*
X37084000Y-140054067D01*
X37084000Y-139853933D01*
X37044956Y-139657644D01*
X36968368Y-139472744D01*
X36857179Y-139306338D01*
X36841218Y-139290377D01*
X40227875Y-139290377D01*
X40227875Y-139464707D01*
X40261885Y-139635687D01*
X40328598Y-139796747D01*
X40425451Y-139941697D01*
X40548720Y-140064966D01*
X40693670Y-140161819D01*
X40854730Y-140228532D01*
X41025710Y-140262542D01*
X41200040Y-140262542D01*
X41371020Y-140228532D01*
X41532080Y-140161819D01*
X41593416Y-140120835D01*
X53979000Y-140120835D01*
X53979000Y-140295165D01*
X54013010Y-140466145D01*
X54079723Y-140627205D01*
X54176576Y-140772155D01*
X54299845Y-140895424D01*
X54444795Y-140992277D01*
X54605855Y-141058990D01*
X54776835Y-141093000D01*
X54951165Y-141093000D01*
X55122145Y-141058990D01*
X55283205Y-140992277D01*
X55428155Y-140895424D01*
X55551424Y-140772155D01*
X55648277Y-140627205D01*
X55714990Y-140466145D01*
X55749000Y-140295165D01*
X55749000Y-140120835D01*
X55714990Y-139949855D01*
X55648277Y-139788795D01*
X55551424Y-139643845D01*
X55480579Y-139573000D01*
X55599067Y-139573000D01*
X55795356Y-139533956D01*
X55911530Y-139485835D01*
X58424000Y-139485835D01*
X58424000Y-139660165D01*
X58458010Y-139831145D01*
X58524723Y-139992205D01*
X58621576Y-140137155D01*
X58692421Y-140208000D01*
X58621576Y-140278845D01*
X58524723Y-140423795D01*
X58458010Y-140584855D01*
X58424000Y-140755835D01*
X58424000Y-140930165D01*
X58458010Y-141101145D01*
X58524723Y-141262205D01*
X58616058Y-141398897D01*
X58585010Y-141473855D01*
X58551000Y-141644835D01*
X58551000Y-141819165D01*
X58585010Y-141990145D01*
X58651723Y-142151205D01*
X58748576Y-142296155D01*
X58871845Y-142419424D01*
X59016795Y-142516277D01*
X59177855Y-142582990D01*
X59348835Y-142617000D01*
X59523165Y-142617000D01*
X59694145Y-142582990D01*
X59855205Y-142516277D01*
X60000155Y-142419424D01*
X60123424Y-142296155D01*
X60220277Y-142151205D01*
X60286990Y-141990145D01*
X60321000Y-141819165D01*
X60321000Y-141644835D01*
X60286990Y-141473855D01*
X60220277Y-141312795D01*
X60128942Y-141176103D01*
X60159990Y-141101145D01*
X60194000Y-140930165D01*
X60194000Y-140755835D01*
X60159990Y-140584855D01*
X60093277Y-140423795D01*
X59996424Y-140278845D01*
X59925579Y-140208000D01*
X59996424Y-140137155D01*
X60093277Y-139992205D01*
X60159990Y-139831145D01*
X60194000Y-139660165D01*
X60194000Y-139485835D01*
X60159990Y-139314855D01*
X60093277Y-139153795D01*
X59996424Y-139008845D01*
X59873155Y-138885576D01*
X59755558Y-138807000D01*
X59904165Y-138807000D01*
X60075145Y-138772990D01*
X60236205Y-138706277D01*
X60381155Y-138609424D01*
X60504424Y-138486155D01*
X60601277Y-138341205D01*
X60667990Y-138180145D01*
X60702000Y-138009165D01*
X60702000Y-137834835D01*
X60667990Y-137663855D01*
X60601277Y-137502795D01*
X60504424Y-137357845D01*
X60381155Y-137234576D01*
X60236205Y-137137723D01*
X60075145Y-137071010D01*
X59904165Y-137037000D01*
X59729835Y-137037000D01*
X59558855Y-137071010D01*
X59397795Y-137137723D01*
X59252845Y-137234576D01*
X59129576Y-137357845D01*
X59032723Y-137502795D01*
X58966010Y-137663855D01*
X58932000Y-137834835D01*
X58932000Y-138009165D01*
X58966010Y-138180145D01*
X59032723Y-138341205D01*
X59129576Y-138486155D01*
X59252845Y-138609424D01*
X59370442Y-138688000D01*
X59221835Y-138688000D01*
X59050855Y-138722010D01*
X58889795Y-138788723D01*
X58744845Y-138885576D01*
X58621576Y-139008845D01*
X58524723Y-139153795D01*
X58458010Y-139314855D01*
X58424000Y-139485835D01*
X55911530Y-139485835D01*
X55980256Y-139457368D01*
X56146662Y-139346179D01*
X56288179Y-139204662D01*
X56399368Y-139038256D01*
X56475956Y-138853356D01*
X56515000Y-138657067D01*
X56515000Y-138456933D01*
X56475956Y-138260644D01*
X56399368Y-138075744D01*
X56288179Y-137909338D01*
X56146662Y-137767821D01*
X55980256Y-137656632D01*
X55795356Y-137580044D01*
X55599067Y-137541000D01*
X55398933Y-137541000D01*
X55202644Y-137580044D01*
X55017744Y-137656632D01*
X54851338Y-137767821D01*
X54709821Y-137909338D01*
X54598632Y-138075744D01*
X54522044Y-138260644D01*
X54483000Y-138456933D01*
X54483000Y-138657067D01*
X54522044Y-138853356D01*
X54598632Y-139038256D01*
X54709821Y-139204662D01*
X54828159Y-139323000D01*
X54776835Y-139323000D01*
X54605855Y-139357010D01*
X54444795Y-139423723D01*
X54299845Y-139520576D01*
X54176576Y-139643845D01*
X54079723Y-139788795D01*
X54013010Y-139949855D01*
X53979000Y-140120835D01*
X41593416Y-140120835D01*
X41677030Y-140064966D01*
X41800299Y-139941697D01*
X41897152Y-139796747D01*
X41963865Y-139635687D01*
X41970824Y-139600701D01*
X42010256Y-139584368D01*
X42176662Y-139473179D01*
X42318179Y-139331662D01*
X42429368Y-139165256D01*
X42505956Y-138980356D01*
X42545000Y-138784067D01*
X42545000Y-138583933D01*
X42505956Y-138387644D01*
X42429368Y-138202744D01*
X42318179Y-138036338D01*
X42176662Y-137894821D01*
X42010256Y-137783632D01*
X41825356Y-137707044D01*
X41629067Y-137668000D01*
X41428933Y-137668000D01*
X41232644Y-137707044D01*
X41047744Y-137783632D01*
X40881338Y-137894821D01*
X40739821Y-138036338D01*
X40628632Y-138202744D01*
X40552044Y-138387644D01*
X40513000Y-138583933D01*
X40513000Y-138725838D01*
X40425451Y-138813387D01*
X40328598Y-138958337D01*
X40261885Y-139119397D01*
X40227875Y-139290377D01*
X36841218Y-139290377D01*
X36715662Y-139164821D01*
X36549256Y-139053632D01*
X36364356Y-138977044D01*
X36168067Y-138938000D01*
X35967933Y-138938000D01*
X35771644Y-138977044D01*
X35586744Y-139053632D01*
X35420338Y-139164821D01*
X35278821Y-139306338D01*
X35167632Y-139472744D01*
X35091044Y-139657644D01*
X35052000Y-139853933D01*
X26060000Y-139853933D01*
X26060000Y-138596835D01*
X29849000Y-138596835D01*
X29849000Y-138771165D01*
X29883010Y-138942145D01*
X29949723Y-139103205D01*
X30046576Y-139248155D01*
X30169845Y-139371424D01*
X30314795Y-139468277D01*
X30475855Y-139534990D01*
X30646835Y-139569000D01*
X30821165Y-139569000D01*
X30992145Y-139534990D01*
X31153205Y-139468277D01*
X31298155Y-139371424D01*
X31421424Y-139248155D01*
X31518277Y-139103205D01*
X31584990Y-138942145D01*
X31619000Y-138771165D01*
X31619000Y-138596835D01*
X31627000Y-138596835D01*
X31627000Y-138771165D01*
X31661010Y-138942145D01*
X31727723Y-139103205D01*
X31824576Y-139248155D01*
X31947845Y-139371424D01*
X32092795Y-139468277D01*
X32253855Y-139534990D01*
X32424835Y-139569000D01*
X32599165Y-139569000D01*
X32770145Y-139534990D01*
X32931205Y-139468277D01*
X33076155Y-139371424D01*
X33199424Y-139248155D01*
X33296277Y-139103205D01*
X33362990Y-138942145D01*
X33397000Y-138771165D01*
X33397000Y-138596835D01*
X33362990Y-138425855D01*
X33296277Y-138264795D01*
X33199424Y-138119845D01*
X33076155Y-137996576D01*
X32931205Y-137899723D01*
X32770145Y-137833010D01*
X32599165Y-137799000D01*
X32424835Y-137799000D01*
X32253855Y-137833010D01*
X32092795Y-137899723D01*
X31947845Y-137996576D01*
X31824576Y-138119845D01*
X31727723Y-138264795D01*
X31661010Y-138425855D01*
X31627000Y-138596835D01*
X31619000Y-138596835D01*
X31584990Y-138425855D01*
X31518277Y-138264795D01*
X31421424Y-138119845D01*
X31298155Y-137996576D01*
X31153205Y-137899723D01*
X30992145Y-137833010D01*
X30821165Y-137799000D01*
X30646835Y-137799000D01*
X30475855Y-137833010D01*
X30314795Y-137899723D01*
X30169845Y-137996576D01*
X30046576Y-138119845D01*
X29949723Y-138264795D01*
X29883010Y-138425855D01*
X29849000Y-138596835D01*
X26060000Y-138596835D01*
X26060000Y-136939220D01*
X53176540Y-136939220D01*
X53176540Y-137113550D01*
X53210550Y-137284530D01*
X53277263Y-137445590D01*
X53374116Y-137590540D01*
X53497385Y-137713809D01*
X53642335Y-137810662D01*
X53803395Y-137877375D01*
X53974375Y-137911385D01*
X54148705Y-137911385D01*
X54319685Y-137877375D01*
X54480745Y-137810662D01*
X54625695Y-137713809D01*
X54748964Y-137590540D01*
X54845817Y-137445590D01*
X54912530Y-137284530D01*
X54946540Y-137113550D01*
X54946540Y-136939220D01*
X54912530Y-136768240D01*
X54877797Y-136684387D01*
X54902205Y-136674277D01*
X55047155Y-136577424D01*
X55170424Y-136454155D01*
X55267277Y-136309205D01*
X55333990Y-136148145D01*
X55368000Y-135977165D01*
X55368000Y-135929759D01*
X55372000Y-135928102D01*
X55494855Y-135978990D01*
X55665835Y-136013000D01*
X55840165Y-136013000D01*
X56011145Y-135978990D01*
X56172205Y-135912277D01*
X56317155Y-135815424D01*
X56440424Y-135692155D01*
X56537277Y-135547205D01*
X56603990Y-135386145D01*
X56638000Y-135215165D01*
X56638000Y-135040835D01*
X57916000Y-135040835D01*
X57916000Y-135215165D01*
X57950010Y-135386145D01*
X58016723Y-135547205D01*
X58113576Y-135692155D01*
X58236845Y-135815424D01*
X58381795Y-135912277D01*
X58424000Y-135929759D01*
X58424000Y-136092807D01*
X58458010Y-136263787D01*
X58524723Y-136424847D01*
X58621576Y-136569797D01*
X58744845Y-136693066D01*
X58889795Y-136789919D01*
X59050855Y-136856632D01*
X59221835Y-136890642D01*
X59396165Y-136890642D01*
X59567145Y-136856632D01*
X59728205Y-136789919D01*
X59873155Y-136693066D01*
X59996424Y-136569797D01*
X60093277Y-136424847D01*
X60159990Y-136263787D01*
X60194000Y-136092807D01*
X60194000Y-135918477D01*
X60159990Y-135747497D01*
X60093277Y-135586437D01*
X59996424Y-135441487D01*
X59873155Y-135318218D01*
X59728205Y-135221365D01*
X59686000Y-135203883D01*
X59686000Y-135040835D01*
X59651990Y-134869855D01*
X59585277Y-134708795D01*
X59488424Y-134563845D01*
X59365155Y-134440576D01*
X59220205Y-134343723D01*
X59059145Y-134277010D01*
X58888165Y-134243000D01*
X58713835Y-134243000D01*
X58542855Y-134277010D01*
X58381795Y-134343723D01*
X58236845Y-134440576D01*
X58113576Y-134563845D01*
X58016723Y-134708795D01*
X57950010Y-134869855D01*
X57916000Y-135040835D01*
X56638000Y-135040835D01*
X56603990Y-134869855D01*
X56537277Y-134708795D01*
X56440424Y-134563845D01*
X56317155Y-134440576D01*
X56172205Y-134343723D01*
X56011145Y-134277010D01*
X55840165Y-134243000D01*
X55665835Y-134243000D01*
X55494855Y-134277010D01*
X55372000Y-134327898D01*
X55249145Y-134277010D01*
X55078165Y-134243000D01*
X54903835Y-134243000D01*
X54732855Y-134277010D01*
X54571795Y-134343723D01*
X54426845Y-134440576D01*
X54303576Y-134563845D01*
X54206723Y-134708795D01*
X54140010Y-134869855D01*
X54106000Y-135040835D01*
X54106000Y-135088241D01*
X54063795Y-135105723D01*
X53918845Y-135202576D01*
X53795576Y-135325845D01*
X53698723Y-135470795D01*
X53632010Y-135631855D01*
X53598000Y-135802835D01*
X53598000Y-135977165D01*
X53632010Y-136148145D01*
X53666743Y-136231998D01*
X53642335Y-136242108D01*
X53497385Y-136338961D01*
X53374116Y-136462230D01*
X53277263Y-136607180D01*
X53210550Y-136768240D01*
X53176540Y-136939220D01*
X26060000Y-136939220D01*
X26060000Y-135167835D01*
X32516000Y-135167835D01*
X32516000Y-135342165D01*
X32550010Y-135513145D01*
X32616723Y-135674205D01*
X32713576Y-135819155D01*
X32836845Y-135942424D01*
X32981795Y-136039277D01*
X33142855Y-136105990D01*
X33313835Y-136140000D01*
X33488165Y-136140000D01*
X33659145Y-136105990D01*
X33820205Y-136039277D01*
X33965155Y-135942424D01*
X34088424Y-135819155D01*
X34185277Y-135674205D01*
X34242550Y-135535933D01*
X42926000Y-135535933D01*
X42926000Y-135736067D01*
X42965044Y-135932356D01*
X43041632Y-136117256D01*
X43152821Y-136283662D01*
X43294338Y-136425179D01*
X43460744Y-136536368D01*
X43645644Y-136612956D01*
X43841933Y-136652000D01*
X44042067Y-136652000D01*
X44238356Y-136612956D01*
X44423256Y-136536368D01*
X44589662Y-136425179D01*
X44731179Y-136283662D01*
X44842368Y-136117256D01*
X44918956Y-135932356D01*
X44958000Y-135736067D01*
X44958000Y-135535933D01*
X44918956Y-135339644D01*
X44842368Y-135154744D01*
X44731179Y-134988338D01*
X44589662Y-134846821D01*
X44423256Y-134735632D01*
X44238356Y-134659044D01*
X44042067Y-134620000D01*
X43841933Y-134620000D01*
X43645644Y-134659044D01*
X43460744Y-134735632D01*
X43294338Y-134846821D01*
X43152821Y-134988338D01*
X43041632Y-135154744D01*
X42965044Y-135339644D01*
X42926000Y-135535933D01*
X34242550Y-135535933D01*
X34251990Y-135513145D01*
X34286000Y-135342165D01*
X34286000Y-135167835D01*
X34251990Y-134996855D01*
X34185277Y-134835795D01*
X34088424Y-134690845D01*
X33965155Y-134567576D01*
X33820205Y-134470723D01*
X33659145Y-134404010D01*
X33488165Y-134370000D01*
X33313835Y-134370000D01*
X33142855Y-134404010D01*
X32981795Y-134470723D01*
X32836845Y-134567576D01*
X32713576Y-134690845D01*
X32616723Y-134835795D01*
X32550010Y-134996855D01*
X32516000Y-135167835D01*
X26060000Y-135167835D01*
X26060000Y-133503933D01*
X35560000Y-133503933D01*
X35560000Y-133704067D01*
X35599044Y-133900356D01*
X35675632Y-134085256D01*
X35786821Y-134251662D01*
X35928338Y-134393179D01*
X36094744Y-134504368D01*
X36279644Y-134580956D01*
X36475933Y-134620000D01*
X36676067Y-134620000D01*
X36872356Y-134580956D01*
X36988530Y-134532835D01*
X46359000Y-134532835D01*
X46359000Y-134707165D01*
X46393010Y-134878145D01*
X46459723Y-135039205D01*
X46556576Y-135184155D01*
X46679845Y-135307424D01*
X46824795Y-135404277D01*
X46985855Y-135470990D01*
X47156835Y-135505000D01*
X47331165Y-135505000D01*
X47502145Y-135470990D01*
X47663205Y-135404277D01*
X47808155Y-135307424D01*
X47931424Y-135184155D01*
X48028277Y-135039205D01*
X48094990Y-134878145D01*
X48129000Y-134707165D01*
X48129000Y-134532835D01*
X48094990Y-134361855D01*
X48028277Y-134200795D01*
X47931424Y-134055845D01*
X47808155Y-133932576D01*
X47663205Y-133835723D01*
X47502145Y-133769010D01*
X47331165Y-133735000D01*
X47156835Y-133735000D01*
X46985855Y-133769010D01*
X46824795Y-133835723D01*
X46679845Y-133932576D01*
X46556576Y-134055845D01*
X46459723Y-134200795D01*
X46393010Y-134361855D01*
X46359000Y-134532835D01*
X36988530Y-134532835D01*
X37057256Y-134504368D01*
X37223662Y-134393179D01*
X37365179Y-134251662D01*
X37476368Y-134085256D01*
X37552956Y-133900356D01*
X37592000Y-133704067D01*
X37592000Y-133503933D01*
X37552956Y-133307644D01*
X37476368Y-133122744D01*
X37365179Y-132956338D01*
X37223662Y-132814821D01*
X37057256Y-132703632D01*
X36872356Y-132627044D01*
X36676067Y-132588000D01*
X36475933Y-132588000D01*
X36279644Y-132627044D01*
X36094744Y-132703632D01*
X35928338Y-132814821D01*
X35786821Y-132956338D01*
X35675632Y-133122744D01*
X35599044Y-133307644D01*
X35560000Y-133503933D01*
X26060000Y-133503933D01*
X26060000Y-130298135D01*
X53979000Y-130298135D01*
X53979000Y-130472465D01*
X54013010Y-130643445D01*
X54079723Y-130804505D01*
X54176576Y-130949455D01*
X54299845Y-131072724D01*
X54444795Y-131169577D01*
X54499984Y-131192437D01*
X54430576Y-131261845D01*
X54333723Y-131406795D01*
X54267010Y-131567855D01*
X54233000Y-131738835D01*
X54233000Y-131913165D01*
X54267010Y-132084145D01*
X54333723Y-132245205D01*
X54430576Y-132390155D01*
X54553845Y-132513424D01*
X54698795Y-132610277D01*
X54859855Y-132676990D01*
X55030835Y-132711000D01*
X55205165Y-132711000D01*
X55376145Y-132676990D01*
X55537205Y-132610277D01*
X55682155Y-132513424D01*
X55805424Y-132390155D01*
X55902277Y-132245205D01*
X55968990Y-132084145D01*
X56003000Y-131913165D01*
X56003000Y-131738835D01*
X55968990Y-131567855D01*
X55902277Y-131406795D01*
X55805424Y-131261845D01*
X55682155Y-131138576D01*
X55537205Y-131041723D01*
X55482016Y-131018863D01*
X55551424Y-130949455D01*
X55648277Y-130804505D01*
X55714990Y-130643445D01*
X55749000Y-130472465D01*
X55749000Y-130298135D01*
X55732431Y-130214835D01*
X58424000Y-130214835D01*
X58424000Y-130389165D01*
X58458010Y-130560145D01*
X58524723Y-130721205D01*
X58621576Y-130866155D01*
X58687002Y-130931581D01*
X58678000Y-130976835D01*
X58678000Y-131151165D01*
X58712010Y-131322145D01*
X58778723Y-131483205D01*
X58875576Y-131628155D01*
X58998845Y-131751424D01*
X59143795Y-131848277D01*
X59304855Y-131914990D01*
X59475835Y-131949000D01*
X59650165Y-131949000D01*
X59821145Y-131914990D01*
X59982205Y-131848277D01*
X60127155Y-131751424D01*
X60250424Y-131628155D01*
X60347277Y-131483205D01*
X60413990Y-131322145D01*
X60448000Y-131151165D01*
X60448000Y-130976835D01*
X60413990Y-130805855D01*
X60347277Y-130644795D01*
X60250424Y-130499845D01*
X60184998Y-130434419D01*
X60194000Y-130389165D01*
X60194000Y-130214835D01*
X60159990Y-130043855D01*
X60093277Y-129882795D01*
X59996424Y-129737845D01*
X59873155Y-129614576D01*
X59728205Y-129517723D01*
X59567145Y-129451010D01*
X59396165Y-129417000D01*
X59221835Y-129417000D01*
X59050855Y-129451010D01*
X58889795Y-129517723D01*
X58744845Y-129614576D01*
X58621576Y-129737845D01*
X58524723Y-129882795D01*
X58458010Y-130043855D01*
X58424000Y-130214835D01*
X55732431Y-130214835D01*
X55714990Y-130127155D01*
X55648277Y-129966095D01*
X55551424Y-129821145D01*
X55428155Y-129697876D01*
X55283205Y-129601023D01*
X55122145Y-129534310D01*
X54951165Y-129500300D01*
X54776835Y-129500300D01*
X54605855Y-129534310D01*
X54444795Y-129601023D01*
X54299845Y-129697876D01*
X54176576Y-129821145D01*
X54079723Y-129966095D01*
X54013010Y-130127155D01*
X53979000Y-130298135D01*
X26060000Y-130298135D01*
X26060000Y-127788933D01*
X33909000Y-127788933D01*
X33909000Y-127989067D01*
X33948044Y-128185356D01*
X34024632Y-128370256D01*
X34135821Y-128536662D01*
X34277338Y-128678179D01*
X34443744Y-128789368D01*
X34628644Y-128865956D01*
X34824933Y-128905000D01*
X35025067Y-128905000D01*
X35221356Y-128865956D01*
X35406256Y-128789368D01*
X35572662Y-128678179D01*
X35714179Y-128536662D01*
X35789502Y-128423933D01*
X47244000Y-128423933D01*
X47244000Y-128624067D01*
X47283044Y-128820356D01*
X47359632Y-129005256D01*
X47470821Y-129171662D01*
X47612338Y-129313179D01*
X47778744Y-129424368D01*
X47963644Y-129500956D01*
X48159933Y-129540000D01*
X48360067Y-129540000D01*
X48556356Y-129500956D01*
X48741256Y-129424368D01*
X48907662Y-129313179D01*
X49049179Y-129171662D01*
X49160368Y-129005256D01*
X49236956Y-128820356D01*
X49276000Y-128624067D01*
X49276000Y-128423933D01*
X49236956Y-128227644D01*
X49160368Y-128042744D01*
X49049179Y-127876338D01*
X48907662Y-127734821D01*
X48741256Y-127623632D01*
X48556356Y-127547044D01*
X48360067Y-127508000D01*
X48159933Y-127508000D01*
X47963644Y-127547044D01*
X47778744Y-127623632D01*
X47612338Y-127734821D01*
X47470821Y-127876338D01*
X47359632Y-128042744D01*
X47283044Y-128227644D01*
X47244000Y-128423933D01*
X35789502Y-128423933D01*
X35825368Y-128370256D01*
X35901956Y-128185356D01*
X35941000Y-127989067D01*
X35941000Y-127788933D01*
X35901956Y-127592644D01*
X35825368Y-127407744D01*
X35714179Y-127241338D01*
X35572662Y-127099821D01*
X35406256Y-126988632D01*
X35221356Y-126912044D01*
X35025067Y-126873000D01*
X34824933Y-126873000D01*
X34628644Y-126912044D01*
X34443744Y-126988632D01*
X34277338Y-127099821D01*
X34135821Y-127241338D01*
X34024632Y-127407744D01*
X33948044Y-127592644D01*
X33909000Y-127788933D01*
X26060000Y-127788933D01*
X26060000Y-126137933D01*
X26543000Y-126137933D01*
X26543000Y-126338067D01*
X26582044Y-126534356D01*
X26658632Y-126719256D01*
X26769821Y-126885662D01*
X26911338Y-127027179D01*
X27077744Y-127138368D01*
X27262644Y-127214956D01*
X27458933Y-127254000D01*
X27659067Y-127254000D01*
X27855356Y-127214956D01*
X28040256Y-127138368D01*
X28206662Y-127027179D01*
X28348179Y-126885662D01*
X28459368Y-126719256D01*
X28535956Y-126534356D01*
X28575000Y-126338067D01*
X28575000Y-126137933D01*
X28535956Y-125941644D01*
X28459368Y-125756744D01*
X28348179Y-125590338D01*
X28206662Y-125448821D01*
X28040256Y-125337632D01*
X27855356Y-125261044D01*
X27659067Y-125222000D01*
X27458933Y-125222000D01*
X27262644Y-125261044D01*
X27077744Y-125337632D01*
X26911338Y-125448821D01*
X26769821Y-125590338D01*
X26658632Y-125756744D01*
X26582044Y-125941644D01*
X26543000Y-126137933D01*
X26060000Y-126137933D01*
X26060000Y-122327933D01*
X27686000Y-122327933D01*
X27686000Y-122528067D01*
X27725044Y-122724356D01*
X27801632Y-122909256D01*
X27912821Y-123075662D01*
X28054338Y-123217179D01*
X28220744Y-123328368D01*
X28405644Y-123404956D01*
X28601933Y-123444000D01*
X28802067Y-123444000D01*
X28998356Y-123404956D01*
X29183256Y-123328368D01*
X29349662Y-123217179D01*
X29476908Y-123089933D01*
X34163000Y-123089933D01*
X34163000Y-123290067D01*
X34202044Y-123486356D01*
X34278632Y-123671256D01*
X34389821Y-123837662D01*
X34531338Y-123979179D01*
X34697744Y-124090368D01*
X34882644Y-124166956D01*
X35078933Y-124206000D01*
X35279067Y-124206000D01*
X35475356Y-124166956D01*
X35660256Y-124090368D01*
X35826662Y-123979179D01*
X35968179Y-123837662D01*
X36077711Y-123673735D01*
X40386000Y-123673735D01*
X40386000Y-123873869D01*
X40425044Y-124070158D01*
X40501632Y-124255058D01*
X40612821Y-124421464D01*
X40754338Y-124562981D01*
X40920744Y-124674170D01*
X41105644Y-124750758D01*
X41301933Y-124789802D01*
X41502067Y-124789802D01*
X41698356Y-124750758D01*
X41883256Y-124674170D01*
X42049662Y-124562981D01*
X42191179Y-124421464D01*
X42232292Y-124359933D01*
X45085000Y-124359933D01*
X45085000Y-124560067D01*
X45124044Y-124756356D01*
X45200632Y-124941256D01*
X45311821Y-125107662D01*
X45453338Y-125249179D01*
X45619744Y-125360368D01*
X45804644Y-125436956D01*
X46000933Y-125476000D01*
X46201067Y-125476000D01*
X46397356Y-125436956D01*
X46582256Y-125360368D01*
X46748662Y-125249179D01*
X46890179Y-125107662D01*
X47001368Y-124941256D01*
X47077956Y-124756356D01*
X47117000Y-124560067D01*
X47117000Y-124359933D01*
X47077956Y-124163644D01*
X47001368Y-123978744D01*
X46890179Y-123812338D01*
X46748662Y-123670821D01*
X46582256Y-123559632D01*
X46397356Y-123483044D01*
X46201067Y-123444000D01*
X46000933Y-123444000D01*
X45804644Y-123483044D01*
X45619744Y-123559632D01*
X45453338Y-123670821D01*
X45311821Y-123812338D01*
X45200632Y-123978744D01*
X45124044Y-124163644D01*
X45085000Y-124359933D01*
X42232292Y-124359933D01*
X42302368Y-124255058D01*
X42378956Y-124070158D01*
X42418000Y-123873869D01*
X42418000Y-123673735D01*
X42378956Y-123477446D01*
X42302368Y-123292546D01*
X42191179Y-123126140D01*
X42049662Y-122984623D01*
X41883256Y-122873434D01*
X41698356Y-122796846D01*
X41502067Y-122757802D01*
X41301933Y-122757802D01*
X41105644Y-122796846D01*
X40920744Y-122873434D01*
X40754338Y-122984623D01*
X40612821Y-123126140D01*
X40501632Y-123292546D01*
X40425044Y-123477446D01*
X40386000Y-123673735D01*
X36077711Y-123673735D01*
X36079368Y-123671256D01*
X36155956Y-123486356D01*
X36195000Y-123290067D01*
X36195000Y-123089933D01*
X36155956Y-122893644D01*
X36079368Y-122708744D01*
X35968179Y-122542338D01*
X35826662Y-122400821D01*
X35660256Y-122289632D01*
X35475356Y-122213044D01*
X35279067Y-122174000D01*
X35078933Y-122174000D01*
X34882644Y-122213044D01*
X34697744Y-122289632D01*
X34531338Y-122400821D01*
X34389821Y-122542338D01*
X34278632Y-122708744D01*
X34202044Y-122893644D01*
X34163000Y-123089933D01*
X29476908Y-123089933D01*
X29491179Y-123075662D01*
X29602368Y-122909256D01*
X29678956Y-122724356D01*
X29718000Y-122528067D01*
X29718000Y-122327933D01*
X29678956Y-122131644D01*
X29602368Y-121946744D01*
X29491179Y-121780338D01*
X29349662Y-121638821D01*
X29183256Y-121527632D01*
X28998356Y-121451044D01*
X28802067Y-121412000D01*
X28601933Y-121412000D01*
X28405644Y-121451044D01*
X28220744Y-121527632D01*
X28054338Y-121638821D01*
X27912821Y-121780338D01*
X27801632Y-121946744D01*
X27725044Y-122131644D01*
X27686000Y-122327933D01*
X26060000Y-122327933D01*
X26060000Y-120320470D01*
X26166000Y-120391297D01*
X26394216Y-120485827D01*
X26636490Y-120534018D01*
X26883510Y-120534018D01*
X27125784Y-120485827D01*
X27354000Y-120391297D01*
X27559390Y-120254060D01*
X27583450Y-120230000D01*
X29626928Y-120230000D01*
X29639188Y-120354482D01*
X29675498Y-120474180D01*
X29734463Y-120584494D01*
X29813815Y-120681185D01*
X29910506Y-120760537D01*
X30020820Y-120819502D01*
X30140518Y-120855812D01*
X30265000Y-120868072D01*
X30829250Y-120865000D01*
X30988000Y-120706250D01*
X30988000Y-119507000D01*
X29788750Y-119507000D01*
X29630000Y-119665750D01*
X29626928Y-120230000D01*
X27583450Y-120230000D01*
X27734060Y-120079390D01*
X27871297Y-119874000D01*
X27965827Y-119645784D01*
X28014018Y-119403510D01*
X28014018Y-119156490D01*
X27965827Y-118914216D01*
X27871297Y-118686000D01*
X27833664Y-118629678D01*
X29639671Y-118403927D01*
X29639188Y-118405518D01*
X29626928Y-118530000D01*
X29630000Y-119094250D01*
X29788750Y-119253000D01*
X30988000Y-119253000D01*
X30988000Y-119233000D01*
X31242000Y-119233000D01*
X31242000Y-119253000D01*
X31262000Y-119253000D01*
X31262000Y-119507000D01*
X31242000Y-119507000D01*
X31242000Y-120706250D01*
X31400750Y-120865000D01*
X31965000Y-120868072D01*
X32089482Y-120855812D01*
X32209180Y-120819502D01*
X32319494Y-120760537D01*
X32416185Y-120681185D01*
X32495537Y-120584494D01*
X32554502Y-120474180D01*
X32575393Y-120405313D01*
X32599866Y-120435134D01*
X32825986Y-120620706D01*
X33083966Y-120758599D01*
X33363889Y-120843513D01*
X33582050Y-120865000D01*
X33727950Y-120865000D01*
X33946111Y-120843513D01*
X34226034Y-120758599D01*
X34484014Y-120620706D01*
X34710134Y-120435134D01*
X34811769Y-120311291D01*
X34837044Y-120438356D01*
X34913632Y-120623256D01*
X35024821Y-120789662D01*
X35166338Y-120931179D01*
X35332744Y-121042368D01*
X35517644Y-121118956D01*
X35713933Y-121158000D01*
X35914067Y-121158000D01*
X36110356Y-121118956D01*
X36295256Y-121042368D01*
X36461662Y-120931179D01*
X36603179Y-120789662D01*
X36714368Y-120623256D01*
X36790956Y-120438356D01*
X36830000Y-120242067D01*
X36830000Y-120041933D01*
X36790956Y-119845644D01*
X36714368Y-119660744D01*
X36603179Y-119494338D01*
X36461662Y-119352821D01*
X36295256Y-119241632D01*
X36110356Y-119165044D01*
X35914067Y-119126000D01*
X35713933Y-119126000D01*
X35517644Y-119165044D01*
X35332744Y-119241632D01*
X35166338Y-119352821D01*
X35146465Y-119372694D01*
X35118513Y-119088889D01*
X35033599Y-118808966D01*
X34895706Y-118550986D01*
X34710134Y-118324866D01*
X34484014Y-118139294D01*
X34226034Y-118001401D01*
X33946111Y-117916487D01*
X33727950Y-117895000D01*
X33711092Y-117895000D01*
X35130856Y-117717530D01*
X35091044Y-117813644D01*
X35052000Y-118009933D01*
X35052000Y-118210067D01*
X35091044Y-118406356D01*
X35167632Y-118591256D01*
X35278821Y-118757662D01*
X35420338Y-118899179D01*
X35586744Y-119010368D01*
X35771644Y-119086956D01*
X35967933Y-119126000D01*
X36168067Y-119126000D01*
X36364356Y-119086956D01*
X36549256Y-119010368D01*
X36715662Y-118899179D01*
X36857179Y-118757662D01*
X36968368Y-118591256D01*
X37044956Y-118406356D01*
X37084000Y-118210067D01*
X37084000Y-118009933D01*
X37044956Y-117813644D01*
X36968368Y-117628744D01*
X36882344Y-117500000D01*
X44429403Y-117500000D01*
X63790152Y-118710046D01*
X63790152Y-118710046D01*
G37*
X63790152Y-118710046D02*
X63664002Y-118794337D01*
X63422337Y-119036002D01*
X63232463Y-119320169D01*
X63101675Y-119635919D01*
X63035000Y-119971117D01*
X63035000Y-120312883D01*
X63101675Y-120648081D01*
X63232463Y-120963831D01*
X63422337Y-121247998D01*
X63664002Y-121489663D01*
X63948169Y-121679537D01*
X64227155Y-121795097D01*
X64218575Y-121805551D01*
X64157290Y-121920208D01*
X64119550Y-122044618D01*
X64110000Y-122141582D01*
X64110001Y-151232985D01*
X63924000Y-151108703D01*
X63695784Y-151014173D01*
X63453510Y-150965982D01*
X63206490Y-150965982D01*
X62964216Y-151014173D01*
X62736000Y-151108703D01*
X62530610Y-151245940D01*
X62355940Y-151420610D01*
X62218703Y-151626000D01*
X62124173Y-151854216D01*
X62075982Y-152096490D01*
X62075982Y-152343510D01*
X62124173Y-152585784D01*
X62218703Y-152814000D01*
X62355940Y-153019390D01*
X62417268Y-153080718D01*
X44428036Y-154280000D01*
X36871095Y-154280000D01*
X33336438Y-153838168D01*
X33423277Y-153708205D01*
X33489990Y-153547145D01*
X33524000Y-153376165D01*
X33524000Y-153201835D01*
X33489990Y-153030855D01*
X33423277Y-152869795D01*
X33326424Y-152724845D01*
X33203155Y-152601576D01*
X33058205Y-152504723D01*
X32897145Y-152438010D01*
X32726165Y-152404000D01*
X32551835Y-152404000D01*
X32385000Y-152437186D01*
X32385000Y-152426933D01*
X32345956Y-152230644D01*
X32300716Y-152121424D01*
X32470524Y-152007961D01*
X32627961Y-151850524D01*
X32751659Y-151665398D01*
X32836863Y-151459696D01*
X32880300Y-151241325D01*
X32880300Y-151018675D01*
X32836863Y-150800304D01*
X32751659Y-150594602D01*
X32627961Y-150409476D01*
X32470524Y-150252039D01*
X32285398Y-150128341D01*
X32079696Y-150043137D01*
X31861325Y-149999700D01*
X31638675Y-149999700D01*
X31420304Y-150043137D01*
X31214602Y-150128341D01*
X31029476Y-150252039D01*
X30872039Y-150409476D01*
X30748341Y-150594602D01*
X30663137Y-150800304D01*
X30619700Y-151018675D01*
X30619700Y-151241325D01*
X30663137Y-151459696D01*
X30748341Y-151665398D01*
X30773461Y-151702993D01*
X30721338Y-151737821D01*
X30579821Y-151879338D01*
X30468632Y-152045744D01*
X30392044Y-152230644D01*
X30353000Y-152426933D01*
X30353000Y-152627067D01*
X30392044Y-152823356D01*
X30468632Y-153008256D01*
X30579821Y-153174662D01*
X30721338Y-153316179D01*
X30887744Y-153427368D01*
X31072644Y-153503956D01*
X31268933Y-153543000D01*
X31469067Y-153543000D01*
X31665356Y-153503956D01*
X31770737Y-153460306D01*
X31788010Y-153547145D01*
X31830588Y-153649937D01*
X27301051Y-153083746D01*
X27390524Y-153023961D01*
X27547961Y-152866524D01*
X27671659Y-152681398D01*
X27756863Y-152475696D01*
X27800300Y-152257325D01*
X27800300Y-152034675D01*
X27756863Y-151816304D01*
X27671659Y-151610602D01*
X27600165Y-151503605D01*
X27647990Y-151388145D01*
X27682000Y-151217165D01*
X27682000Y-151042835D01*
X27647990Y-150871855D01*
X27600165Y-150756395D01*
X27671659Y-150649398D01*
X27756863Y-150443696D01*
X27800300Y-150225325D01*
X27800300Y-150002675D01*
X27756863Y-149784304D01*
X27671659Y-149578602D01*
X27547961Y-149393476D01*
X27390524Y-149236039D01*
X27205398Y-149112341D01*
X26999696Y-149027137D01*
X26781325Y-148983700D01*
X26558675Y-148983700D01*
X26340304Y-149027137D01*
X26134602Y-149112341D01*
X26060000Y-149162189D01*
X26060000Y-148629835D01*
X29087000Y-148629835D01*
X29087000Y-148804165D01*
X29121010Y-148975145D01*
X29187723Y-149136205D01*
X29284576Y-149281155D01*
X29407845Y-149404424D01*
X29552795Y-149501277D01*
X29713855Y-149567990D01*
X29884835Y-149602000D01*
X30059165Y-149602000D01*
X30230145Y-149567990D01*
X30335498Y-149524351D01*
X30427576Y-149662155D01*
X30550845Y-149785424D01*
X30695795Y-149882277D01*
X30856855Y-149948990D01*
X31027835Y-149983000D01*
X31202165Y-149983000D01*
X31373145Y-149948990D01*
X31534205Y-149882277D01*
X31679155Y-149785424D01*
X31802424Y-149662155D01*
X31899277Y-149517205D01*
X31965990Y-149356145D01*
X31994585Y-149212387D01*
X35705083Y-149212387D01*
X35705083Y-149412521D01*
X35744127Y-149608810D01*
X35820715Y-149793710D01*
X35931904Y-149960116D01*
X36073421Y-150101633D01*
X36239827Y-150212822D01*
X36424727Y-150289410D01*
X36621016Y-150328454D01*
X36821150Y-150328454D01*
X37017439Y-150289410D01*
X37202339Y-150212822D01*
X37368745Y-150101633D01*
X37510262Y-149960116D01*
X37621451Y-149793710D01*
X37698039Y-149608810D01*
X37737083Y-149412521D01*
X37737083Y-149212387D01*
X37698039Y-149016098D01*
X37621451Y-148831198D01*
X37510262Y-148664792D01*
X37368745Y-148523275D01*
X37202339Y-148412086D01*
X37017439Y-148335498D01*
X36821150Y-148296454D01*
X36621016Y-148296454D01*
X36424727Y-148335498D01*
X36239827Y-148412086D01*
X36073421Y-148523275D01*
X35931904Y-148664792D01*
X35820715Y-148831198D01*
X35744127Y-149016098D01*
X35705083Y-149212387D01*
X31994585Y-149212387D01*
X32000000Y-149185165D01*
X32000000Y-149010835D01*
X31965990Y-148839855D01*
X31899277Y-148678795D01*
X31802424Y-148533845D01*
X31679155Y-148410576D01*
X31534205Y-148313723D01*
X31373145Y-148247010D01*
X31202165Y-148213000D01*
X31027835Y-148213000D01*
X30856855Y-148247010D01*
X30751502Y-148290649D01*
X30659424Y-148152845D01*
X30536155Y-148029576D01*
X30391205Y-147932723D01*
X30230145Y-147866010D01*
X30059165Y-147832000D01*
X29884835Y-147832000D01*
X29713855Y-147866010D01*
X29552795Y-147932723D01*
X29407845Y-148029576D01*
X29284576Y-148152845D01*
X29187723Y-148297795D01*
X29121010Y-148458855D01*
X29087000Y-148629835D01*
X26060000Y-148629835D01*
X26060000Y-146111101D01*
X30133168Y-146111101D01*
X30133168Y-146311235D01*
X30172212Y-146507524D01*
X30248800Y-146692424D01*
X30359989Y-146858830D01*
X30501506Y-147000347D01*
X30667912Y-147111536D01*
X30852812Y-147188124D01*
X31049101Y-147227168D01*
X31249235Y-147227168D01*
X31445524Y-147188124D01*
X31630424Y-147111536D01*
X31796830Y-147000347D01*
X31938347Y-146858830D01*
X32049536Y-146692424D01*
X32126124Y-146507524D01*
X32161249Y-146330933D01*
X59944000Y-146330933D01*
X59944000Y-146531067D01*
X59983044Y-146727356D01*
X60059632Y-146912256D01*
X60170821Y-147078662D01*
X60312338Y-147220179D01*
X60478744Y-147331368D01*
X60663644Y-147407956D01*
X60859933Y-147447000D01*
X61060067Y-147447000D01*
X61256356Y-147407956D01*
X61441256Y-147331368D01*
X61607662Y-147220179D01*
X61749179Y-147078662D01*
X61860368Y-146912256D01*
X61936956Y-146727356D01*
X61976000Y-146531067D01*
X61976000Y-146330933D01*
X61936956Y-146134644D01*
X61860368Y-145949744D01*
X61749179Y-145783338D01*
X61607662Y-145641821D01*
X61441256Y-145530632D01*
X61256356Y-145454044D01*
X61060067Y-145415000D01*
X60859933Y-145415000D01*
X60663644Y-145454044D01*
X60478744Y-145530632D01*
X60312338Y-145641821D01*
X60170821Y-145783338D01*
X60059632Y-145949744D01*
X59983044Y-146134644D01*
X59944000Y-146330933D01*
X32161249Y-146330933D01*
X32165168Y-146311235D01*
X32165168Y-146111101D01*
X32126124Y-145914812D01*
X32049536Y-145729912D01*
X31938347Y-145563506D01*
X31796830Y-145421989D01*
X31630424Y-145310800D01*
X31445524Y-145234212D01*
X31249235Y-145195168D01*
X31049101Y-145195168D01*
X30852812Y-145234212D01*
X30667912Y-145310800D01*
X30501506Y-145421989D01*
X30359989Y-145563506D01*
X30248800Y-145729912D01*
X30172212Y-145914812D01*
X30133168Y-146111101D01*
X26060000Y-146111101D01*
X26060000Y-144057835D01*
X34675000Y-144057835D01*
X34675000Y-144232165D01*
X34709010Y-144403145D01*
X34775723Y-144564205D01*
X34872576Y-144709155D01*
X34995845Y-144832424D01*
X35140795Y-144929277D01*
X35301855Y-144995990D01*
X35472835Y-145030000D01*
X35647165Y-145030000D01*
X35818145Y-144995990D01*
X35979205Y-144929277D01*
X36124155Y-144832424D01*
X36247424Y-144709155D01*
X36344277Y-144564205D01*
X36410990Y-144403145D01*
X36445000Y-144232165D01*
X36445000Y-144057835D01*
X36410990Y-143886855D01*
X36344277Y-143725795D01*
X36247424Y-143580845D01*
X36124155Y-143457576D01*
X35979205Y-143360723D01*
X35818145Y-143294010D01*
X35647165Y-143260000D01*
X35472835Y-143260000D01*
X35301855Y-143294010D01*
X35140795Y-143360723D01*
X34995845Y-143457576D01*
X34872576Y-143580845D01*
X34775723Y-143725795D01*
X34709010Y-143886855D01*
X34675000Y-144057835D01*
X26060000Y-144057835D01*
X26060000Y-143168835D01*
X37596000Y-143168835D01*
X37596000Y-143343165D01*
X37630010Y-143514145D01*
X37696723Y-143675205D01*
X37793576Y-143820155D01*
X37916845Y-143943424D01*
X38061795Y-144040277D01*
X38222855Y-144106990D01*
X38393835Y-144141000D01*
X38568165Y-144141000D01*
X38739145Y-144106990D01*
X38900205Y-144040277D01*
X39045155Y-143943424D01*
X39168424Y-143820155D01*
X39265277Y-143675205D01*
X39331990Y-143514145D01*
X39366000Y-143343165D01*
X39366000Y-143168835D01*
X39331990Y-142997855D01*
X39265277Y-142836795D01*
X39168424Y-142691845D01*
X39045155Y-142568576D01*
X38900205Y-142471723D01*
X38739145Y-142405010D01*
X38568165Y-142371000D01*
X38393835Y-142371000D01*
X38222855Y-142405010D01*
X38061795Y-142471723D01*
X37916845Y-142568576D01*
X37793576Y-142691845D01*
X37696723Y-142836795D01*
X37630010Y-142997855D01*
X37596000Y-143168835D01*
X26060000Y-143168835D01*
X26060000Y-142012933D01*
X30099000Y-142012933D01*
X30099000Y-142213067D01*
X30138044Y-142409356D01*
X30214632Y-142594256D01*
X30325821Y-142760662D01*
X30467338Y-142902179D01*
X30633744Y-143013368D01*
X30818644Y-143089956D01*
X31014933Y-143129000D01*
X31215067Y-143129000D01*
X31411356Y-143089956D01*
X31596256Y-143013368D01*
X31762662Y-142902179D01*
X31904179Y-142760662D01*
X32015368Y-142594256D01*
X32091956Y-142409356D01*
X32131000Y-142213067D01*
X32131000Y-142152835D01*
X54995000Y-142152835D01*
X54995000Y-142327165D01*
X55029010Y-142498145D01*
X55095723Y-142659205D01*
X55192576Y-142804155D01*
X55315845Y-142927424D01*
X55460795Y-143024277D01*
X55621855Y-143090990D01*
X55792835Y-143125000D01*
X55967165Y-143125000D01*
X56138145Y-143090990D01*
X56299205Y-143024277D01*
X56444155Y-142927424D01*
X56567424Y-142804155D01*
X56664277Y-142659205D01*
X56730990Y-142498145D01*
X56765000Y-142327165D01*
X56765000Y-142152835D01*
X56730990Y-141981855D01*
X56664277Y-141820795D01*
X56567424Y-141675845D01*
X56444155Y-141552576D01*
X56299205Y-141455723D01*
X56138145Y-141389010D01*
X55967165Y-141355000D01*
X55792835Y-141355000D01*
X55621855Y-141389010D01*
X55460795Y-141455723D01*
X55315845Y-141552576D01*
X55192576Y-141675845D01*
X55095723Y-141820795D01*
X55029010Y-141981855D01*
X54995000Y-142152835D01*
X32131000Y-142152835D01*
X32131000Y-142012933D01*
X32091956Y-141816644D01*
X32015368Y-141631744D01*
X31904179Y-141465338D01*
X31762662Y-141323821D01*
X31596256Y-141212632D01*
X31411356Y-141136044D01*
X31215067Y-141097000D01*
X31014933Y-141097000D01*
X30818644Y-141136044D01*
X30633744Y-141212632D01*
X30467338Y-141323821D01*
X30325821Y-141465338D01*
X30214632Y-141631744D01*
X30138044Y-141816644D01*
X30099000Y-142012933D01*
X26060000Y-142012933D01*
X26060000Y-139853933D01*
X35052000Y-139853933D01*
X35052000Y-140054067D01*
X35091044Y-140250356D01*
X35167632Y-140435256D01*
X35278821Y-140601662D01*
X35420338Y-140743179D01*
X35586744Y-140854368D01*
X35771644Y-140930956D01*
X35967933Y-140970000D01*
X36168067Y-140970000D01*
X36364356Y-140930956D01*
X36549256Y-140854368D01*
X36715662Y-140743179D01*
X36857179Y-140601662D01*
X36968368Y-140435256D01*
X37044956Y-140250356D01*
X37084000Y-140054067D01*
X37084000Y-139853933D01*
X37044956Y-139657644D01*
X36968368Y-139472744D01*
X36857179Y-139306338D01*
X36841218Y-139290377D01*
X40227875Y-139290377D01*
X40227875Y-139464707D01*
X40261885Y-139635687D01*
X40328598Y-139796747D01*
X40425451Y-139941697D01*
X40548720Y-140064966D01*
X40693670Y-140161819D01*
X40854730Y-140228532D01*
X41025710Y-140262542D01*
X41200040Y-140262542D01*
X41371020Y-140228532D01*
X41532080Y-140161819D01*
X41593416Y-140120835D01*
X53979000Y-140120835D01*
X53979000Y-140295165D01*
X54013010Y-140466145D01*
X54079723Y-140627205D01*
X54176576Y-140772155D01*
X54299845Y-140895424D01*
X54444795Y-140992277D01*
X54605855Y-141058990D01*
X54776835Y-141093000D01*
X54951165Y-141093000D01*
X55122145Y-141058990D01*
X55283205Y-140992277D01*
X55428155Y-140895424D01*
X55551424Y-140772155D01*
X55648277Y-140627205D01*
X55714990Y-140466145D01*
X55749000Y-140295165D01*
X55749000Y-140120835D01*
X55714990Y-139949855D01*
X55648277Y-139788795D01*
X55551424Y-139643845D01*
X55480579Y-139573000D01*
X55599067Y-139573000D01*
X55795356Y-139533956D01*
X55911530Y-139485835D01*
X58424000Y-139485835D01*
X58424000Y-139660165D01*
X58458010Y-139831145D01*
X58524723Y-139992205D01*
X58621576Y-140137155D01*
X58692421Y-140208000D01*
X58621576Y-140278845D01*
X58524723Y-140423795D01*
X58458010Y-140584855D01*
X58424000Y-140755835D01*
X58424000Y-140930165D01*
X58458010Y-141101145D01*
X58524723Y-141262205D01*
X58616058Y-141398897D01*
X58585010Y-141473855D01*
X58551000Y-141644835D01*
X58551000Y-141819165D01*
X58585010Y-141990145D01*
X58651723Y-142151205D01*
X58748576Y-142296155D01*
X58871845Y-142419424D01*
X59016795Y-142516277D01*
X59177855Y-142582990D01*
X59348835Y-142617000D01*
X59523165Y-142617000D01*
X59694145Y-142582990D01*
X59855205Y-142516277D01*
X60000155Y-142419424D01*
X60123424Y-142296155D01*
X60220277Y-142151205D01*
X60286990Y-141990145D01*
X60321000Y-141819165D01*
X60321000Y-141644835D01*
X60286990Y-141473855D01*
X60220277Y-141312795D01*
X60128942Y-141176103D01*
X60159990Y-141101145D01*
X60194000Y-140930165D01*
X60194000Y-140755835D01*
X60159990Y-140584855D01*
X60093277Y-140423795D01*
X59996424Y-140278845D01*
X59925579Y-140208000D01*
X59996424Y-140137155D01*
X60093277Y-139992205D01*
X60159990Y-139831145D01*
X60194000Y-139660165D01*
X60194000Y-139485835D01*
X60159990Y-139314855D01*
X60093277Y-139153795D01*
X59996424Y-139008845D01*
X59873155Y-138885576D01*
X59755558Y-138807000D01*
X59904165Y-138807000D01*
X60075145Y-138772990D01*
X60236205Y-138706277D01*
X60381155Y-138609424D01*
X60504424Y-138486155D01*
X60601277Y-138341205D01*
X60667990Y-138180145D01*
X60702000Y-138009165D01*
X60702000Y-137834835D01*
X60667990Y-137663855D01*
X60601277Y-137502795D01*
X60504424Y-137357845D01*
X60381155Y-137234576D01*
X60236205Y-137137723D01*
X60075145Y-137071010D01*
X59904165Y-137037000D01*
X59729835Y-137037000D01*
X59558855Y-137071010D01*
X59397795Y-137137723D01*
X59252845Y-137234576D01*
X59129576Y-137357845D01*
X59032723Y-137502795D01*
X58966010Y-137663855D01*
X58932000Y-137834835D01*
X58932000Y-138009165D01*
X58966010Y-138180145D01*
X59032723Y-138341205D01*
X59129576Y-138486155D01*
X59252845Y-138609424D01*
X59370442Y-138688000D01*
X59221835Y-138688000D01*
X59050855Y-138722010D01*
X58889795Y-138788723D01*
X58744845Y-138885576D01*
X58621576Y-139008845D01*
X58524723Y-139153795D01*
X58458010Y-139314855D01*
X58424000Y-139485835D01*
X55911530Y-139485835D01*
X55980256Y-139457368D01*
X56146662Y-139346179D01*
X56288179Y-139204662D01*
X56399368Y-139038256D01*
X56475956Y-138853356D01*
X56515000Y-138657067D01*
X56515000Y-138456933D01*
X56475956Y-138260644D01*
X56399368Y-138075744D01*
X56288179Y-137909338D01*
X56146662Y-137767821D01*
X55980256Y-137656632D01*
X55795356Y-137580044D01*
X55599067Y-137541000D01*
X55398933Y-137541000D01*
X55202644Y-137580044D01*
X55017744Y-137656632D01*
X54851338Y-137767821D01*
X54709821Y-137909338D01*
X54598632Y-138075744D01*
X54522044Y-138260644D01*
X54483000Y-138456933D01*
X54483000Y-138657067D01*
X54522044Y-138853356D01*
X54598632Y-139038256D01*
X54709821Y-139204662D01*
X54828159Y-139323000D01*
X54776835Y-139323000D01*
X54605855Y-139357010D01*
X54444795Y-139423723D01*
X54299845Y-139520576D01*
X54176576Y-139643845D01*
X54079723Y-139788795D01*
X54013010Y-139949855D01*
X53979000Y-140120835D01*
X41593416Y-140120835D01*
X41677030Y-140064966D01*
X41800299Y-139941697D01*
X41897152Y-139796747D01*
X41963865Y-139635687D01*
X41970824Y-139600701D01*
X42010256Y-139584368D01*
X42176662Y-139473179D01*
X42318179Y-139331662D01*
X42429368Y-139165256D01*
X42505956Y-138980356D01*
X42545000Y-138784067D01*
X42545000Y-138583933D01*
X42505956Y-138387644D01*
X42429368Y-138202744D01*
X42318179Y-138036338D01*
X42176662Y-137894821D01*
X42010256Y-137783632D01*
X41825356Y-137707044D01*
X41629067Y-137668000D01*
X41428933Y-137668000D01*
X41232644Y-137707044D01*
X41047744Y-137783632D01*
X40881338Y-137894821D01*
X40739821Y-138036338D01*
X40628632Y-138202744D01*
X40552044Y-138387644D01*
X40513000Y-138583933D01*
X40513000Y-138725838D01*
X40425451Y-138813387D01*
X40328598Y-138958337D01*
X40261885Y-139119397D01*
X40227875Y-139290377D01*
X36841218Y-139290377D01*
X36715662Y-139164821D01*
X36549256Y-139053632D01*
X36364356Y-138977044D01*
X36168067Y-138938000D01*
X35967933Y-138938000D01*
X35771644Y-138977044D01*
X35586744Y-139053632D01*
X35420338Y-139164821D01*
X35278821Y-139306338D01*
X35167632Y-139472744D01*
X35091044Y-139657644D01*
X35052000Y-139853933D01*
X26060000Y-139853933D01*
X26060000Y-138596835D01*
X29849000Y-138596835D01*
X29849000Y-138771165D01*
X29883010Y-138942145D01*
X29949723Y-139103205D01*
X30046576Y-139248155D01*
X30169845Y-139371424D01*
X30314795Y-139468277D01*
X30475855Y-139534990D01*
X30646835Y-139569000D01*
X30821165Y-139569000D01*
X30992145Y-139534990D01*
X31153205Y-139468277D01*
X31298155Y-139371424D01*
X31421424Y-139248155D01*
X31518277Y-139103205D01*
X31584990Y-138942145D01*
X31619000Y-138771165D01*
X31619000Y-138596835D01*
X31627000Y-138596835D01*
X31627000Y-138771165D01*
X31661010Y-138942145D01*
X31727723Y-139103205D01*
X31824576Y-139248155D01*
X31947845Y-139371424D01*
X32092795Y-139468277D01*
X32253855Y-139534990D01*
X32424835Y-139569000D01*
X32599165Y-139569000D01*
X32770145Y-139534990D01*
X32931205Y-139468277D01*
X33076155Y-139371424D01*
X33199424Y-139248155D01*
X33296277Y-139103205D01*
X33362990Y-138942145D01*
X33397000Y-138771165D01*
X33397000Y-138596835D01*
X33362990Y-138425855D01*
X33296277Y-138264795D01*
X33199424Y-138119845D01*
X33076155Y-137996576D01*
X32931205Y-137899723D01*
X32770145Y-137833010D01*
X32599165Y-137799000D01*
X32424835Y-137799000D01*
X32253855Y-137833010D01*
X32092795Y-137899723D01*
X31947845Y-137996576D01*
X31824576Y-138119845D01*
X31727723Y-138264795D01*
X31661010Y-138425855D01*
X31627000Y-138596835D01*
X31619000Y-138596835D01*
X31584990Y-138425855D01*
X31518277Y-138264795D01*
X31421424Y-138119845D01*
X31298155Y-137996576D01*
X31153205Y-137899723D01*
X30992145Y-137833010D01*
X30821165Y-137799000D01*
X30646835Y-137799000D01*
X30475855Y-137833010D01*
X30314795Y-137899723D01*
X30169845Y-137996576D01*
X30046576Y-138119845D01*
X29949723Y-138264795D01*
X29883010Y-138425855D01*
X29849000Y-138596835D01*
X26060000Y-138596835D01*
X26060000Y-136939220D01*
X53176540Y-136939220D01*
X53176540Y-137113550D01*
X53210550Y-137284530D01*
X53277263Y-137445590D01*
X53374116Y-137590540D01*
X53497385Y-137713809D01*
X53642335Y-137810662D01*
X53803395Y-137877375D01*
X53974375Y-137911385D01*
X54148705Y-137911385D01*
X54319685Y-137877375D01*
X54480745Y-137810662D01*
X54625695Y-137713809D01*
X54748964Y-137590540D01*
X54845817Y-137445590D01*
X54912530Y-137284530D01*
X54946540Y-137113550D01*
X54946540Y-136939220D01*
X54912530Y-136768240D01*
X54877797Y-136684387D01*
X54902205Y-136674277D01*
X55047155Y-136577424D01*
X55170424Y-136454155D01*
X55267277Y-136309205D01*
X55333990Y-136148145D01*
X55368000Y-135977165D01*
X55368000Y-135929759D01*
X55372000Y-135928102D01*
X55494855Y-135978990D01*
X55665835Y-136013000D01*
X55840165Y-136013000D01*
X56011145Y-135978990D01*
X56172205Y-135912277D01*
X56317155Y-135815424D01*
X56440424Y-135692155D01*
X56537277Y-135547205D01*
X56603990Y-135386145D01*
X56638000Y-135215165D01*
X56638000Y-135040835D01*
X57916000Y-135040835D01*
X57916000Y-135215165D01*
X57950010Y-135386145D01*
X58016723Y-135547205D01*
X58113576Y-135692155D01*
X58236845Y-135815424D01*
X58381795Y-135912277D01*
X58424000Y-135929759D01*
X58424000Y-136092807D01*
X58458010Y-136263787D01*
X58524723Y-136424847D01*
X58621576Y-136569797D01*
X58744845Y-136693066D01*
X58889795Y-136789919D01*
X59050855Y-136856632D01*
X59221835Y-136890642D01*
X59396165Y-136890642D01*
X59567145Y-136856632D01*
X59728205Y-136789919D01*
X59873155Y-136693066D01*
X59996424Y-136569797D01*
X60093277Y-136424847D01*
X60159990Y-136263787D01*
X60194000Y-136092807D01*
X60194000Y-135918477D01*
X60159990Y-135747497D01*
X60093277Y-135586437D01*
X59996424Y-135441487D01*
X59873155Y-135318218D01*
X59728205Y-135221365D01*
X59686000Y-135203883D01*
X59686000Y-135040835D01*
X59651990Y-134869855D01*
X59585277Y-134708795D01*
X59488424Y-134563845D01*
X59365155Y-134440576D01*
X59220205Y-134343723D01*
X59059145Y-134277010D01*
X58888165Y-134243000D01*
X58713835Y-134243000D01*
X58542855Y-134277010D01*
X58381795Y-134343723D01*
X58236845Y-134440576D01*
X58113576Y-134563845D01*
X58016723Y-134708795D01*
X57950010Y-134869855D01*
X57916000Y-135040835D01*
X56638000Y-135040835D01*
X56603990Y-134869855D01*
X56537277Y-134708795D01*
X56440424Y-134563845D01*
X56317155Y-134440576D01*
X56172205Y-134343723D01*
X56011145Y-134277010D01*
X55840165Y-134243000D01*
X55665835Y-134243000D01*
X55494855Y-134277010D01*
X55372000Y-134327898D01*
X55249145Y-134277010D01*
X55078165Y-134243000D01*
X54903835Y-134243000D01*
X54732855Y-134277010D01*
X54571795Y-134343723D01*
X54426845Y-134440576D01*
X54303576Y-134563845D01*
X54206723Y-134708795D01*
X54140010Y-134869855D01*
X54106000Y-135040835D01*
X54106000Y-135088241D01*
X54063795Y-135105723D01*
X53918845Y-135202576D01*
X53795576Y-135325845D01*
X53698723Y-135470795D01*
X53632010Y-135631855D01*
X53598000Y-135802835D01*
X53598000Y-135977165D01*
X53632010Y-136148145D01*
X53666743Y-136231998D01*
X53642335Y-136242108D01*
X53497385Y-136338961D01*
X53374116Y-136462230D01*
X53277263Y-136607180D01*
X53210550Y-136768240D01*
X53176540Y-136939220D01*
X26060000Y-136939220D01*
X26060000Y-135167835D01*
X32516000Y-135167835D01*
X32516000Y-135342165D01*
X32550010Y-135513145D01*
X32616723Y-135674205D01*
X32713576Y-135819155D01*
X32836845Y-135942424D01*
X32981795Y-136039277D01*
X33142855Y-136105990D01*
X33313835Y-136140000D01*
X33488165Y-136140000D01*
X33659145Y-136105990D01*
X33820205Y-136039277D01*
X33965155Y-135942424D01*
X34088424Y-135819155D01*
X34185277Y-135674205D01*
X34242550Y-135535933D01*
X42926000Y-135535933D01*
X42926000Y-135736067D01*
X42965044Y-135932356D01*
X43041632Y-136117256D01*
X43152821Y-136283662D01*
X43294338Y-136425179D01*
X43460744Y-136536368D01*
X43645644Y-136612956D01*
X43841933Y-136652000D01*
X44042067Y-136652000D01*
X44238356Y-136612956D01*
X44423256Y-136536368D01*
X44589662Y-136425179D01*
X44731179Y-136283662D01*
X44842368Y-136117256D01*
X44918956Y-135932356D01*
X44958000Y-135736067D01*
X44958000Y-135535933D01*
X44918956Y-135339644D01*
X44842368Y-135154744D01*
X44731179Y-134988338D01*
X44589662Y-134846821D01*
X44423256Y-134735632D01*
X44238356Y-134659044D01*
X44042067Y-134620000D01*
X43841933Y-134620000D01*
X43645644Y-134659044D01*
X43460744Y-134735632D01*
X43294338Y-134846821D01*
X43152821Y-134988338D01*
X43041632Y-135154744D01*
X42965044Y-135339644D01*
X42926000Y-135535933D01*
X34242550Y-135535933D01*
X34251990Y-135513145D01*
X34286000Y-135342165D01*
X34286000Y-135167835D01*
X34251990Y-134996855D01*
X34185277Y-134835795D01*
X34088424Y-134690845D01*
X33965155Y-134567576D01*
X33820205Y-134470723D01*
X33659145Y-134404010D01*
X33488165Y-134370000D01*
X33313835Y-134370000D01*
X33142855Y-134404010D01*
X32981795Y-134470723D01*
X32836845Y-134567576D01*
X32713576Y-134690845D01*
X32616723Y-134835795D01*
X32550010Y-134996855D01*
X32516000Y-135167835D01*
X26060000Y-135167835D01*
X26060000Y-133503933D01*
X35560000Y-133503933D01*
X35560000Y-133704067D01*
X35599044Y-133900356D01*
X35675632Y-134085256D01*
X35786821Y-134251662D01*
X35928338Y-134393179D01*
X36094744Y-134504368D01*
X36279644Y-134580956D01*
X36475933Y-134620000D01*
X36676067Y-134620000D01*
X36872356Y-134580956D01*
X36988530Y-134532835D01*
X46359000Y-134532835D01*
X46359000Y-134707165D01*
X46393010Y-134878145D01*
X46459723Y-135039205D01*
X46556576Y-135184155D01*
X46679845Y-135307424D01*
X46824795Y-135404277D01*
X46985855Y-135470990D01*
X47156835Y-135505000D01*
X47331165Y-135505000D01*
X47502145Y-135470990D01*
X47663205Y-135404277D01*
X47808155Y-135307424D01*
X47931424Y-135184155D01*
X48028277Y-135039205D01*
X48094990Y-134878145D01*
X48129000Y-134707165D01*
X48129000Y-134532835D01*
X48094990Y-134361855D01*
X48028277Y-134200795D01*
X47931424Y-134055845D01*
X47808155Y-133932576D01*
X47663205Y-133835723D01*
X47502145Y-133769010D01*
X47331165Y-133735000D01*
X47156835Y-133735000D01*
X46985855Y-133769010D01*
X46824795Y-133835723D01*
X46679845Y-133932576D01*
X46556576Y-134055845D01*
X46459723Y-134200795D01*
X46393010Y-134361855D01*
X46359000Y-134532835D01*
X36988530Y-134532835D01*
X37057256Y-134504368D01*
X37223662Y-134393179D01*
X37365179Y-134251662D01*
X37476368Y-134085256D01*
X37552956Y-133900356D01*
X37592000Y-133704067D01*
X37592000Y-133503933D01*
X37552956Y-133307644D01*
X37476368Y-133122744D01*
X37365179Y-132956338D01*
X37223662Y-132814821D01*
X37057256Y-132703632D01*
X36872356Y-132627044D01*
X36676067Y-132588000D01*
X36475933Y-132588000D01*
X36279644Y-132627044D01*
X36094744Y-132703632D01*
X35928338Y-132814821D01*
X35786821Y-132956338D01*
X35675632Y-133122744D01*
X35599044Y-133307644D01*
X35560000Y-133503933D01*
X26060000Y-133503933D01*
X26060000Y-130298135D01*
X53979000Y-130298135D01*
X53979000Y-130472465D01*
X54013010Y-130643445D01*
X54079723Y-130804505D01*
X54176576Y-130949455D01*
X54299845Y-131072724D01*
X54444795Y-131169577D01*
X54499984Y-131192437D01*
X54430576Y-131261845D01*
X54333723Y-131406795D01*
X54267010Y-131567855D01*
X54233000Y-131738835D01*
X54233000Y-131913165D01*
X54267010Y-132084145D01*
X54333723Y-132245205D01*
X54430576Y-132390155D01*
X54553845Y-132513424D01*
X54698795Y-132610277D01*
X54859855Y-132676990D01*
X55030835Y-132711000D01*
X55205165Y-132711000D01*
X55376145Y-132676990D01*
X55537205Y-132610277D01*
X55682155Y-132513424D01*
X55805424Y-132390155D01*
X55902277Y-132245205D01*
X55968990Y-132084145D01*
X56003000Y-131913165D01*
X56003000Y-131738835D01*
X55968990Y-131567855D01*
X55902277Y-131406795D01*
X55805424Y-131261845D01*
X55682155Y-131138576D01*
X55537205Y-131041723D01*
X55482016Y-131018863D01*
X55551424Y-130949455D01*
X55648277Y-130804505D01*
X55714990Y-130643445D01*
X55749000Y-130472465D01*
X55749000Y-130298135D01*
X55732431Y-130214835D01*
X58424000Y-130214835D01*
X58424000Y-130389165D01*
X58458010Y-130560145D01*
X58524723Y-130721205D01*
X58621576Y-130866155D01*
X58687002Y-130931581D01*
X58678000Y-130976835D01*
X58678000Y-131151165D01*
X58712010Y-131322145D01*
X58778723Y-131483205D01*
X58875576Y-131628155D01*
X58998845Y-131751424D01*
X59143795Y-131848277D01*
X59304855Y-131914990D01*
X59475835Y-131949000D01*
X59650165Y-131949000D01*
X59821145Y-131914990D01*
X59982205Y-131848277D01*
X60127155Y-131751424D01*
X60250424Y-131628155D01*
X60347277Y-131483205D01*
X60413990Y-131322145D01*
X60448000Y-131151165D01*
X60448000Y-130976835D01*
X60413990Y-130805855D01*
X60347277Y-130644795D01*
X60250424Y-130499845D01*
X60184998Y-130434419D01*
X60194000Y-130389165D01*
X60194000Y-130214835D01*
X60159990Y-130043855D01*
X60093277Y-129882795D01*
X59996424Y-129737845D01*
X59873155Y-129614576D01*
X59728205Y-129517723D01*
X59567145Y-129451010D01*
X59396165Y-129417000D01*
X59221835Y-129417000D01*
X59050855Y-129451010D01*
X58889795Y-129517723D01*
X58744845Y-129614576D01*
X58621576Y-129737845D01*
X58524723Y-129882795D01*
X58458010Y-130043855D01*
X58424000Y-130214835D01*
X55732431Y-130214835D01*
X55714990Y-130127155D01*
X55648277Y-129966095D01*
X55551424Y-129821145D01*
X55428155Y-129697876D01*
X55283205Y-129601023D01*
X55122145Y-129534310D01*
X54951165Y-129500300D01*
X54776835Y-129500300D01*
X54605855Y-129534310D01*
X54444795Y-129601023D01*
X54299845Y-129697876D01*
X54176576Y-129821145D01*
X54079723Y-129966095D01*
X54013010Y-130127155D01*
X53979000Y-130298135D01*
X26060000Y-130298135D01*
X26060000Y-127788933D01*
X33909000Y-127788933D01*
X33909000Y-127989067D01*
X33948044Y-128185356D01*
X34024632Y-128370256D01*
X34135821Y-128536662D01*
X34277338Y-128678179D01*
X34443744Y-128789368D01*
X34628644Y-128865956D01*
X34824933Y-128905000D01*
X35025067Y-128905000D01*
X35221356Y-128865956D01*
X35406256Y-128789368D01*
X35572662Y-128678179D01*
X35714179Y-128536662D01*
X35789502Y-128423933D01*
X47244000Y-128423933D01*
X47244000Y-128624067D01*
X47283044Y-128820356D01*
X47359632Y-129005256D01*
X47470821Y-129171662D01*
X47612338Y-129313179D01*
X47778744Y-129424368D01*
X47963644Y-129500956D01*
X48159933Y-129540000D01*
X48360067Y-129540000D01*
X48556356Y-129500956D01*
X48741256Y-129424368D01*
X48907662Y-129313179D01*
X49049179Y-129171662D01*
X49160368Y-129005256D01*
X49236956Y-128820356D01*
X49276000Y-128624067D01*
X49276000Y-128423933D01*
X49236956Y-128227644D01*
X49160368Y-128042744D01*
X49049179Y-127876338D01*
X48907662Y-127734821D01*
X48741256Y-127623632D01*
X48556356Y-127547044D01*
X48360067Y-127508000D01*
X48159933Y-127508000D01*
X47963644Y-127547044D01*
X47778744Y-127623632D01*
X47612338Y-127734821D01*
X47470821Y-127876338D01*
X47359632Y-128042744D01*
X47283044Y-128227644D01*
X47244000Y-128423933D01*
X35789502Y-128423933D01*
X35825368Y-128370256D01*
X35901956Y-128185356D01*
X35941000Y-127989067D01*
X35941000Y-127788933D01*
X35901956Y-127592644D01*
X35825368Y-127407744D01*
X35714179Y-127241338D01*
X35572662Y-127099821D01*
X35406256Y-126988632D01*
X35221356Y-126912044D01*
X35025067Y-126873000D01*
X34824933Y-126873000D01*
X34628644Y-126912044D01*
X34443744Y-126988632D01*
X34277338Y-127099821D01*
X34135821Y-127241338D01*
X34024632Y-127407744D01*
X33948044Y-127592644D01*
X33909000Y-127788933D01*
X26060000Y-127788933D01*
X26060000Y-126137933D01*
X26543000Y-126137933D01*
X26543000Y-126338067D01*
X26582044Y-126534356D01*
X26658632Y-126719256D01*
X26769821Y-126885662D01*
X26911338Y-127027179D01*
X27077744Y-127138368D01*
X27262644Y-127214956D01*
X27458933Y-127254000D01*
X27659067Y-127254000D01*
X27855356Y-127214956D01*
X28040256Y-127138368D01*
X28206662Y-127027179D01*
X28348179Y-126885662D01*
X28459368Y-126719256D01*
X28535956Y-126534356D01*
X28575000Y-126338067D01*
X28575000Y-126137933D01*
X28535956Y-125941644D01*
X28459368Y-125756744D01*
X28348179Y-125590338D01*
X28206662Y-125448821D01*
X28040256Y-125337632D01*
X27855356Y-125261044D01*
X27659067Y-125222000D01*
X27458933Y-125222000D01*
X27262644Y-125261044D01*
X27077744Y-125337632D01*
X26911338Y-125448821D01*
X26769821Y-125590338D01*
X26658632Y-125756744D01*
X26582044Y-125941644D01*
X26543000Y-126137933D01*
X26060000Y-126137933D01*
X26060000Y-122327933D01*
X27686000Y-122327933D01*
X27686000Y-122528067D01*
X27725044Y-122724356D01*
X27801632Y-122909256D01*
X27912821Y-123075662D01*
X28054338Y-123217179D01*
X28220744Y-123328368D01*
X28405644Y-123404956D01*
X28601933Y-123444000D01*
X28802067Y-123444000D01*
X28998356Y-123404956D01*
X29183256Y-123328368D01*
X29349662Y-123217179D01*
X29476908Y-123089933D01*
X34163000Y-123089933D01*
X34163000Y-123290067D01*
X34202044Y-123486356D01*
X34278632Y-123671256D01*
X34389821Y-123837662D01*
X34531338Y-123979179D01*
X34697744Y-124090368D01*
X34882644Y-124166956D01*
X35078933Y-124206000D01*
X35279067Y-124206000D01*
X35475356Y-124166956D01*
X35660256Y-124090368D01*
X35826662Y-123979179D01*
X35968179Y-123837662D01*
X36077711Y-123673735D01*
X40386000Y-123673735D01*
X40386000Y-123873869D01*
X40425044Y-124070158D01*
X40501632Y-124255058D01*
X40612821Y-124421464D01*
X40754338Y-124562981D01*
X40920744Y-124674170D01*
X41105644Y-124750758D01*
X41301933Y-124789802D01*
X41502067Y-124789802D01*
X41698356Y-124750758D01*
X41883256Y-124674170D01*
X42049662Y-124562981D01*
X42191179Y-124421464D01*
X42232292Y-124359933D01*
X45085000Y-124359933D01*
X45085000Y-124560067D01*
X45124044Y-124756356D01*
X45200632Y-124941256D01*
X45311821Y-125107662D01*
X45453338Y-125249179D01*
X45619744Y-125360368D01*
X45804644Y-125436956D01*
X46000933Y-125476000D01*
X46201067Y-125476000D01*
X46397356Y-125436956D01*
X46582256Y-125360368D01*
X46748662Y-125249179D01*
X46890179Y-125107662D01*
X47001368Y-124941256D01*
X47077956Y-124756356D01*
X47117000Y-124560067D01*
X47117000Y-124359933D01*
X47077956Y-124163644D01*
X47001368Y-123978744D01*
X46890179Y-123812338D01*
X46748662Y-123670821D01*
X46582256Y-123559632D01*
X46397356Y-123483044D01*
X46201067Y-123444000D01*
X46000933Y-123444000D01*
X45804644Y-123483044D01*
X45619744Y-123559632D01*
X45453338Y-123670821D01*
X45311821Y-123812338D01*
X45200632Y-123978744D01*
X45124044Y-124163644D01*
X45085000Y-124359933D01*
X42232292Y-124359933D01*
X42302368Y-124255058D01*
X42378956Y-124070158D01*
X42418000Y-123873869D01*
X42418000Y-123673735D01*
X42378956Y-123477446D01*
X42302368Y-123292546D01*
X42191179Y-123126140D01*
X42049662Y-122984623D01*
X41883256Y-122873434D01*
X41698356Y-122796846D01*
X41502067Y-122757802D01*
X41301933Y-122757802D01*
X41105644Y-122796846D01*
X40920744Y-122873434D01*
X40754338Y-122984623D01*
X40612821Y-123126140D01*
X40501632Y-123292546D01*
X40425044Y-123477446D01*
X40386000Y-123673735D01*
X36077711Y-123673735D01*
X36079368Y-123671256D01*
X36155956Y-123486356D01*
X36195000Y-123290067D01*
X36195000Y-123089933D01*
X36155956Y-122893644D01*
X36079368Y-122708744D01*
X35968179Y-122542338D01*
X35826662Y-122400821D01*
X35660256Y-122289632D01*
X35475356Y-122213044D01*
X35279067Y-122174000D01*
X35078933Y-122174000D01*
X34882644Y-122213044D01*
X34697744Y-122289632D01*
X34531338Y-122400821D01*
X34389821Y-122542338D01*
X34278632Y-122708744D01*
X34202044Y-122893644D01*
X34163000Y-123089933D01*
X29476908Y-123089933D01*
X29491179Y-123075662D01*
X29602368Y-122909256D01*
X29678956Y-122724356D01*
X29718000Y-122528067D01*
X29718000Y-122327933D01*
X29678956Y-122131644D01*
X29602368Y-121946744D01*
X29491179Y-121780338D01*
X29349662Y-121638821D01*
X29183256Y-121527632D01*
X28998356Y-121451044D01*
X28802067Y-121412000D01*
X28601933Y-121412000D01*
X28405644Y-121451044D01*
X28220744Y-121527632D01*
X28054338Y-121638821D01*
X27912821Y-121780338D01*
X27801632Y-121946744D01*
X27725044Y-122131644D01*
X27686000Y-122327933D01*
X26060000Y-122327933D01*
X26060000Y-120320470D01*
X26166000Y-120391297D01*
X26394216Y-120485827D01*
X26636490Y-120534018D01*
X26883510Y-120534018D01*
X27125784Y-120485827D01*
X27354000Y-120391297D01*
X27559390Y-120254060D01*
X27583450Y-120230000D01*
X29626928Y-120230000D01*
X29639188Y-120354482D01*
X29675498Y-120474180D01*
X29734463Y-120584494D01*
X29813815Y-120681185D01*
X29910506Y-120760537D01*
X30020820Y-120819502D01*
X30140518Y-120855812D01*
X30265000Y-120868072D01*
X30829250Y-120865000D01*
X30988000Y-120706250D01*
X30988000Y-119507000D01*
X29788750Y-119507000D01*
X29630000Y-119665750D01*
X29626928Y-120230000D01*
X27583450Y-120230000D01*
X27734060Y-120079390D01*
X27871297Y-119874000D01*
X27965827Y-119645784D01*
X28014018Y-119403510D01*
X28014018Y-119156490D01*
X27965827Y-118914216D01*
X27871297Y-118686000D01*
X27833664Y-118629678D01*
X29639671Y-118403927D01*
X29639188Y-118405518D01*
X29626928Y-118530000D01*
X29630000Y-119094250D01*
X29788750Y-119253000D01*
X30988000Y-119253000D01*
X30988000Y-119233000D01*
X31242000Y-119233000D01*
X31242000Y-119253000D01*
X31262000Y-119253000D01*
X31262000Y-119507000D01*
X31242000Y-119507000D01*
X31242000Y-120706250D01*
X31400750Y-120865000D01*
X31965000Y-120868072D01*
X32089482Y-120855812D01*
X32209180Y-120819502D01*
X32319494Y-120760537D01*
X32416185Y-120681185D01*
X32495537Y-120584494D01*
X32554502Y-120474180D01*
X32575393Y-120405313D01*
X32599866Y-120435134D01*
X32825986Y-120620706D01*
X33083966Y-120758599D01*
X33363889Y-120843513D01*
X33582050Y-120865000D01*
X33727950Y-120865000D01*
X33946111Y-120843513D01*
X34226034Y-120758599D01*
X34484014Y-120620706D01*
X34710134Y-120435134D01*
X34811769Y-120311291D01*
X34837044Y-120438356D01*
X34913632Y-120623256D01*
X35024821Y-120789662D01*
X35166338Y-120931179D01*
X35332744Y-121042368D01*
X35517644Y-121118956D01*
X35713933Y-121158000D01*
X35914067Y-121158000D01*
X36110356Y-121118956D01*
X36295256Y-121042368D01*
X36461662Y-120931179D01*
X36603179Y-120789662D01*
X36714368Y-120623256D01*
X36790956Y-120438356D01*
X36830000Y-120242067D01*
X36830000Y-120041933D01*
X36790956Y-119845644D01*
X36714368Y-119660744D01*
X36603179Y-119494338D01*
X36461662Y-119352821D01*
X36295256Y-119241632D01*
X36110356Y-119165044D01*
X35914067Y-119126000D01*
X35713933Y-119126000D01*
X35517644Y-119165044D01*
X35332744Y-119241632D01*
X35166338Y-119352821D01*
X35146465Y-119372694D01*
X35118513Y-119088889D01*
X35033599Y-118808966D01*
X34895706Y-118550986D01*
X34710134Y-118324866D01*
X34484014Y-118139294D01*
X34226034Y-118001401D01*
X33946111Y-117916487D01*
X33727950Y-117895000D01*
X33711092Y-117895000D01*
X35130856Y-117717530D01*
X35091044Y-117813644D01*
X35052000Y-118009933D01*
X35052000Y-118210067D01*
X35091044Y-118406356D01*
X35167632Y-118591256D01*
X35278821Y-118757662D01*
X35420338Y-118899179D01*
X35586744Y-119010368D01*
X35771644Y-119086956D01*
X35967933Y-119126000D01*
X36168067Y-119126000D01*
X36364356Y-119086956D01*
X36549256Y-119010368D01*
X36715662Y-118899179D01*
X36857179Y-118757662D01*
X36968368Y-118591256D01*
X37044956Y-118406356D01*
X37084000Y-118210067D01*
X37084000Y-118009933D01*
X37044956Y-117813644D01*
X36968368Y-117628744D01*
X36882344Y-117500000D01*
X44429403Y-117500000D01*
X63790152Y-118710046D01*
M02*
